<svg xmlns="http://www.w3.org/2000/svg" width="24" height="24" viewBox="0 0 24 24">
    <path fill="#EE3B49" fill-rule="evenodd" d="M17.122 1c.552 0 1 .447 1 1v1H19c1.654 0 3 1.346 3 3v14c0 1.654-1.346 3-3 3H5c-1.654 0-3-1.346-3-3V6c0-1.654 1.346-3 3-3h.878V2c0-.553.448-1 1-1 .553 0 1 .447 1 1v1h8.244V2c0-.553.447-1 1-1zM20 8.548H4V20c0 .552.449 1 1 1h14c.551 0 1-.448 1-1V8.548zM9.333 11c.368 0 .667.298.667.667v2.666c0 .368-.299.667-.667.667H6.667C6.298 15 6 14.701 6 14.333v-2.666c0-.369.298-.667.667-.667zM19 5H5c-.551 0-1 .448-1 1v.548h16V6c0-.552-.449-1-1-1z"/>
</svg>
