<svg xmlns="http://www.w3.org/2000/svg" width="24" height="24" viewBox="0 0 24 24">
    <path fill="#EE3B49" fill-rule="evenodd" d="M13.3 3c.586 0 1.087.339 1.334.827l1.994.002c.598.077 1.725.539 2.165 1.779l1.566 4.313c.952.317 1.64 1.226 1.64 2.295v3.594c0 .749-.332 1.432-.885 1.88v.405c0 1.602-1.284 2.905-2.863 2.905h-.802c-1.535 0-2.793-1.233-2.86-2.774H9.41C9.344 19.766 8.086 21 6.55 21h-.802c-1.58 0-2.863-1.303-2.863-2.905v-.403C2.333 17.242 2 16.559 2 15.81v-3.594c0-1.066.686-1.974 1.635-2.293l1.67-4.647c.077-.12.783-1.184 1.992-1.435L7.5 3.82l1.869.002c.248-.485.747-.822 1.33-.822zm6.315 8.8H4.385c-.212 0-.385.187-.385.416v3.594c0 .2.127.34.253.39l.633.25v1.645c0 .499.387.905.863.905h.802c.476 0 .863-.406.863-.905v-1.87h9.172v1.87c0 .499.387.905.863.905h.802c.476 0 .863-.406.863-.905V16.45l.633-.25c.126-.05.253-.19.253-.39v-3.594c0-.23-.173-.416-.385-.416zm-12.803.726c.69 0 1.25.56 1.25 1.25s-.56 1.25-1.25 1.25-1.25-.56-1.25-1.25.56-1.25 1.25-1.25zm10.413 0c.69 0 1.25.56 1.25 1.25s-.56 1.25-1.25 1.25-1.25-.56-1.25-1.25.56-1.25 1.25-1.25zm-.82-6.706H7.629c-.245.085-.47.317-.583.46L5.8 9.8h12.388L16.91 6.283c-.116-.327-.405-.435-.504-.463z"/>
</svg>
