<svg xmlns="http://www.w3.org/2000/svg" width="24" height="24" viewBox="0 0 24 24">
    <path fill="#EE3B49" fill-rule="evenodd" d="M7.5 17.591c0-.297.131-.577.359-.768l4.222-3.521 4.222 3.521c.229.191.36.471.36.768V20c0 .551-.449 1-1 1H8.5c-.551 0-1-.449-1-1v-2.409zm.359-10.415c-.228-.19-.359-.47-.359-.768V4c0-.552.449-1 1-1h7.163c.551 0 1 .448 1 1v2.408c0 .298-.131.578-.36.768l-4.222 3.521-4.222-3.521zM5.5 20c0 1.654 1.346 3 3 3h7.163c1.654 0 3-1.346 3-3v-2.409c0-.893-.393-1.732-1.079-2.304L13.643 12l3.941-3.288c.686-.572 1.079-1.411 1.079-2.304V4c0-1.655-1.346-3-3-3H8.5c-1.654 0-3 1.345-3 3v2.408c0 .893.393 1.732 1.078 2.304L10.52 12l-3.942 3.287c-.685.572-1.078 1.411-1.078 2.304V20z"/>
</svg>
