<svg xmlns="http://www.w3.org/2000/svg" width="300" height="300" viewBox="0 0 300 300">
    <g fill="none" fill-rule="evenodd">
        <g>
            <g>
                <g>
                    <path fill="#05CBE5" d="M187.767 227.281c4.844-3.166 8.866-5.42 12.386-10.16 1.633-2.2.674-5.384-.932-7.229-21.252-24.426-62.372 6.75-69.91 30.071-.49 1.512-.365 2.832.125 3.931-.133 1.48.247 3.043 1.403 4.459 7.437 9.107 24.02 10.656 34.803 11.383 9.998.676 27.03.871 32.109-10.065 1.659-3.573.349-7.499-3.554-8.763-7.17-2.323-16.652-6.95-6.43-13.627" transform="translate(-150 -135) translate(150 135) translate(17 13)"/>
                    <path fill="#FFE77D" d="M234.902 73.954c-10.08-16.084-24.623-26.776-42.074-33.838-19.017-7.699-40.778-13.462-61.28-14.896-20.148-1.41-39.225 4.045-56.666 13.957C57.498 49.054 39.685 61.41 27.337 77.35 12.68 96.27 6.954 120.407 4.565 143.819c-2.516 24.632 3.438 44.42 16.572 65.128 1.679 2.648 4.4 3.177 6.744 2.458 1.154.626 2.587.824 4.252.271 5.632-1.866 9.907-4.968 14.136-9.083 1.888-1.84 3.523-3.908 5.358-5.783 3.648-3.734 2.854-2.317 7.18-2.652 9.18-.713 12.486-10.314 15.49-17.778 5.506-13.69 11.623-24.572 21.098-36.137 10.246-12.507 21.36-25.956 35.641-33.97 4.363-2.448 9.292-4.34 12.322-8.546 3.593-4.982 3.82-12.655 11.101-14.17 7.736-1.611 14.219 7.318 14.755 14.194.365 4.65-1.605 8.568-5.408 11.258-5.532 3.913-12.755 1.754-18.258 6.205-3.904 3.156-5.428 7.623-7.437 12.06-3.852 8.5-9.052 16.408-13.564 24.57-6.1 11.043-15.117 23.313-14.254 36.565.271 4.18 1.504 7.924 5.26 10.133 1.807 1.062 3.842 1.266 5.807 1.854 5.406 1.623 9.704 4.129 13.98 7.8 2.019 1.733 4.798 2.335 7.195.929 9.994-5.866 20.521-10.847 32.192-12.07 10.515-1.104 20.741 1.495 31.213 1.685 15.402.281 28.326-5.632 35.846-19.52 16.945-31.292 11.535-75.872-6.884-105.266" transform="translate(-150 -135) translate(150 135) translate(17 13)"/>
                    <path fill="#000" d="M141.97 99.113c-4.648-.22-6.722 3.074-8.856 6.29 2.953-2.095 5.905-4.192 8.856-6.29zm26.125-2.95c-.148-2.084.246-4.05-.524-5.292-.833-1.34-2.756-2.006-4.541-3.19l-.509 6.2 5.574 2.283zm36.77 109.148c2.618 6.26 2.212 12.476 1.104 18.717-.297 1.683-.62 3.484 1.45 4.082 1.986.574 3.16-1.025 3.584-2.571.853-3.118 1.736-6.33 1.833-9.526.12-4.046-3.666-10.653-7.972-10.702zm-21.593-2.269c5.66 7.098 5.574 9.347 4.39 17.352-.352 2.377-1.015 4.713-1.318 7.094-.087.687.491 2.037.92 2.106 1.784.287 3.57-.118 4.027-2.215 1.269-5.827 2.075-11.692.88-17.654-1.135-5.671-2.875-7.041-8.899-6.683zM150.512 98.12c3.917-.031 8.848-4.103 8.892-7.343.041-3.069-3.627-5.943-7.612-5.966-3.966-.024-7.498 3.091-7.56 6.668-.05 3.116 3.303 6.665 6.28 6.641zm43.333 105.555c2.834 6.047 2.577 12.417 1.785 18.72-.305 2.432.238 4.047 1.847 5.635 1.874 1.852 3.965 1.504 4.305-1.07.66-4.997 1.643-10.122 1.15-15.059-.685-6.85-2.933-8.903-9.087-8.226zM160.344 96.916l.26.574c-2.657 1.294-5.217 2.886-7.998 3.798-2.757.903-3.751 2.023-2.866 4.814 1.124 3.552 3.614 5.739 7.245 6.165 3.988.465 7.3-1.113 9.45-4.587 2.484-4.014.756-8.484-3.722-9.96-.794-.26-1.58-.537-2.37-.804zm-13.611 4.576c-5.072 1.283-23.875 16.073-27.291 20.816l10.111 5.135c5.222-7.401 10.226-14.41 15.117-21.497.915-1.326 1.386-2.961 2.063-4.454zm10.739 154.358c8.193-2.423 15.632-1.62 22.726 2.165 1.916 1.024 2.563.143 3.009-1.652-1.117-.064-2.06-.068-2.99-.185-5.314-.665-10.045-2.294-13.004-7.284-4.516-7.609-.84-24.308 10.493-27.643 2.027-.596 4.169-.798 6.287-1.186.586-2.21.33-2.907-1.792-2.521-2.882.52-5.905 1.332-8.375 2.828-4.256 2.577-7.393 6.424-9.691 10.89-3.912 7.6-6.218 15.623-6.663 24.588zm-55.68-113.603c3.366 3.577 7.273 4.618 11.2 5.604 4.787 1.202 4.734 1.158 7.004-3.09 2.577-4.816 5.267-9.568 7.756-14.074l-11.487-6.203c-4.638 5.69-9.51 11.67-14.472 17.763zM39.549 264.542c6.083-1.03 11.566-1.859 16.99-2.973.823-.17 1.827-1.58 1.983-2.542 1.226-7.55 2.253-15.131 3.371-22.698.402-2.702-1.47-4.676-4.05-3.854-1.658.53-3.375 1.466-4.596 2.69-7.866 7.874-11.085 17.957-13.698 29.377zm100.203-12.18c.09-.344.159-.588.212-.835 2.38-10.749 5.628-21.196 12.087-30.264 6.336-8.892 13.858-16.156 25.885-15.966.07 0 .141-.216.588-.954-3.422-.293-6.593-1.085-9.638-.74-16.079 1.81-31.964 15.52-36.244 31.073-.251.914.273 2.15.699 3.121.78 1.784 2.272 3.41 2.533 5.236.432 2.995.117 6.099.117 9.33h3.761zm-76.002-22.48c0-5.377.206-10.199-.057-14.997-.266-4.844-1.172-9.628-4.248-13.628-2.231-2.898-3.819-2.79-5.654.316-2.419 4.092-3.45 8.595-3.907 13.284-.097 1-.612 2.582-1.245 2.756-.917.251-2.172-.428-3.183-.913-1.772-.85-3.373-2.155-5.216-2.737-3.458-1.093-4.967-.03-5.723 3.5-.794 3.703-1.168 3.91-4.861 2.688-2.964-.98-5.638.005-6.63 2.747-.746 2.057-1.075 4.264-1.65 6.659 14.11-6.918 27.837-9.777 42.374.324zm89.952 27.955c1.047-13.551 3.786-25.923 12.93-35.945 2.003-2.197 4.384-4.374 7.039-5.57 3.406-1.534 7.262-2.064 10.992-3.046-.32-1.841-4.448-5.002-7.473-4.517-3.428.55-7.162 1.144-10.002 2.93-3.862 2.428-7.469 5.623-10.363 9.162-7.718 9.436-11.134 20.83-13.613 32.3 2.568 2.261 5 4.405 7.542 6.646l2.948-1.96zm-69.945-84.611c7.102 3.998 13.613 7.55 21.048 8.238 3.721-9.703 7.373-19.22 11-28.674-5.862-.843-11.159-3.13-16.44-7.063l-15.608 27.499zm-12.138 34.533c-1.822 8.39-3.575 16.28-5.18 24.2-.145.714.459 2.067 1.08 2.37 7.332 3.567 15.046 5.208 23.245 4.428 1.79-.17 2.306-.995 2.5-2.543.358-2.9.788-5.792 1.241-8.676.519-3.282 1.099-6.556 1.693-10.083-9.108-.891-16.93-4.26-24.58-9.696zm24.959 6.065c2.482-9.842 4.875-19.317 7.197-28.514-3.72-1.162-7.32-2.056-10.734-3.42-3.5-1.396-6.818-3.247-10.69-5.131-2.57 7.152-5.257 14.135-7.58 21.24-2.194 6.708-2.046 6.8 4.217 10.322 5.456 3.068 11.232 5.167 17.59 5.503zm-60.743 50.718c3.6-14.16 7.234-27.261 19.69-35.56-.455-.247-.801-.514-1.193-.635-6.596-2.05-13.237-2.126-19.884-.295-13.54 3.732-22.537 13.152-30.217 24.213-1.243 1.788.263 2.336 1.362 2.83 5.263 2.366 10.434 5.056 15.9 6.806 4.592 1.469 9.546 1.803 14.342 2.64zm189.053-14.694c-6.388-3.412-12.443-4.826-18.67-3.622-8.843 1.708-15.728 6.845-20.91 14.12-1.445 2.024-2.84 2.513-4.99 1.555-2.126-.946-4.236-1.956-6.43-2.714-7.389-2.557-14.295-1.518-20.539 3.205-3.028 2.288-3.56 2.486-5.843-.495-3.466-4.529-7.726-6.623-13.476-5.713-2.556.404-3.391-.694-3.069-3.333.228-1.88.666-3.767.622-5.641-.14-5.873-3.145-8.403-8.953-7.9-1.35.116-2.744-.072-4.098-.262-1.807-.253-2.229-1.496-1.738-3.046.281-.889.812-1.712 1.305-2.52 2.902-4.743 5.135-9.721 6.18-15.244 2.452-12.953-8.063-19.687-17.428-18.43-2.294.307-3.743 1.197-4.19 3.707-.832 4.664-2.013 9.264-2.876 13.922-.935 5.05-1.671 10.134-2.516 15.333 5.489.631 10.489 1.712 13.486 6.522 3.009 4.83 1.89 9.958.48 15.149 1.147.083 2.08.154 3.012.215 5.469.359 10.257 2.326 14.036 6.327 1.071 1.134 1.754 2.702 2.344 4.18.168.426-.533 1.679-.974 1.756-.637.11-1.57-.335-2.078-.843-1.503-1.495-2.669-3.38-4.314-4.67-3.64-2.862-7.96-3.513-12.49-3.111-3.25.285-4.046-.697-3.288-3.894.554-2.346 1.247-4.676 1.564-7.053.58-4.337-1.426-7.933-5.47-9.513-2.1-.82-4.446-1.004-7.247-1.592-.322 5.737-.54 11.054-.95 16.355-.231 2.97 1.107 5.097 3.399 6.508 3.064 1.887 6.194 3.852 9.56 5.03 15.67 5.471 31.835 7.597 48.373 5.885 16.622-1.718 32.773-5.547 48.286-11.86 6.437-2.618 12.825-5.355 19.89-8.313zm-52.354-80.591c-.516 4.004-.787 7.498-1.452 10.915-.905 4.645-2.107 9.236-3.193 13.848-.078.332-.147.768-.382.944-.796.606-1.665 1.114-2.508 1.659-.264-.937-.905-1.954-.725-2.795 1.014-4.713 2.417-9.35 3.31-14.082.798-4.216 1.106-8.524 1.215-12.892-1.726 3.557-3.127 7.32-5.245 10.626-4.316 6.743-8.971 13.276-13.631 19.792-.495.69-1.956.693-2.967 1.015.107-1.07-.153-2.397.382-3.175 3.325-4.83 7.009-9.418 10.228-14.313 4.768-7.257 8.323-15.1 10.109-23.654.319-1.534.404-3.118.283-4.769-4.507 9.32-11.281 16.918-17.566 24.862-.32.406-.552 1.02-.968 1.186-.776.31-1.655.364-2.492.524-.09-.855-.56-1.953-.198-2.518 1.253-1.951 2.771-3.735 4.232-5.548 5.2-6.457 10.363-12.93 13.68-20.644 2.847-6.613 3.46-13.397 1.602-20.527-.523 1.376-1.014 2.764-1.572 4.126-3.718 9.048-9.513 16.771-15.557 24.339-1.075 1.348-2.078 2.753-3.173 4.087-.869 1.063-1.635 3.02-3.375 1.59-1.538-1.267-.234-2.666.643-3.816 1.885-2.47 3.82-4.9 5.727-7.354 5.525-7.108 10.747-14.426 13.445-23.138.853-2.751 1.197-5.736 1.26-8.626.04-1.71-.926-3.443-1.727-5.09-4.324 11.129-11.782 19.791-19.496 28.279-.988 1.085-1.86 2.32-3.001 3.205-.586.453-1.655.283-2.504.396-.024-.86-.396-1.956-.006-2.534 1.057-1.56 2.409-2.926 3.693-4.323 5.739-6.241 11.147-12.728 15.1-20.296.709-1.357 1.306-2.773 2.074-4.418-4.754-.683-8.276-2.888-10.643-6.797-13.28 11.576-41.257 69.22-42.252 87.159 2.47 0 4.968-.261 7.397.046 10.034 1.264 16.525 9.252 15.749 19.295-.446 5.753-2.094 11.168-5.03 16.164-.394.668-.774 1.343-1.13 2.03-.07.134-.01.334-.01.536 2.108.093 4.22.188 6.378.285 2.318-6.811 5.37-13.14 10.018-18.601 8.692-10.21 19.498-16.695 33.089-16.744 11-.04 22.053.653 32.986 1.882 7.2.808 12.053 7.455 11.821 14.731-.11 3.482-.631 7.073-1.704 10.375-1.621 4.992-5.653 6.413-10.175 4.158-4.038 2.877-5.708 2.833-9.78-.37-3.11 2.479-6.441 4.41-10.456 1.738-2.413-1.607-2.397-1.629-1.522-8.1-3.676.165-6.764 1.437-9.066 4.161-3.702 4.379-5.073 9.569-4.402 15.222.611 5.17 4.453 8.593 10.323 9.207 4.267.445 8.246.065 11.855-3.003 4.374-3.718 9.475-6.293 15.355-6.915 6.332-.67 12.342.472 18.09 3.156 1.285.6 2.892 1.87 3.862 1.51 2.023-.748 3.935-2.167 5.477-3.725.923-.933 1.534-2.108 2.817-1.172 1.401 1.021 1.097 2.615-.046 3.589-1.888 1.617-3.887 3.194-6.069 4.36-22.437 11.974-46.137 20.114-71.498 22.922-17.74 1.966-35.14.157-52.039-5.716-5.513-1.918-10.683-4.521-14.23-9.417-.685-.948-1.182-2.284-1.174-3.438.021-4.038.303-8.076.479-11.962-4.628-.362-9.189-.378-13.615-1.16-4.454-.787-8.773-2.34-13.51-3.656-.705 4.375-1.512 9.1-2.21 13.84-.338 2.3-.486 4.63-.692 6.95-.348 3.944-1.788 5.838-5.68 6.677-16.344 3.524-32.376 3.633-47.572-4.69-1.888-1.034-3.91-1.83-5.768-2.91-3.553-2.061-4.098-4.01-1.885-7.416 4.163-6.41 9.146-12.126 15.165-16.87 1.186-.935 1.726-1.84 1.7-3.411-.031-1.87.3-3.78.697-5.624 1.418-6.582 5.278-9.076 11.875-7.79 3.565-7.626 5.925-8.247 15.672-3.992.528-2.248.845-4.54 1.619-6.662.912-2.495 1.993-4.987 3.409-7.22 2.567-4.046 6.322-4.309 9.723-.882 3.034 3.06 4.347 6.975 5.283 11.055.166.73.337 1.459.485 2.098 2.97-9.032 5.533-18.173 8.953-26.984 8.98-23.13 21.387-44.223 38.568-62.317 1.07-1.126 2.06-2.429 3.348-3.228 6.918-4.292 8.785-12.342 14.202-18.314-3.88.085-7.11.352-10.04 2.347-8.303 5.668-14.29 13.435-19.79 21.642-4.969 7.415-8.944 15.34-11.885 23.775-.226.647-.394 1.407-.845 1.857-.418.413-1.261.758-1.768.613-.481-.14-1.041-.932-1.08-1.47-.058-.818.217-1.699.506-2.495 5.927-16.31 14.846-30.699 27.481-42.692.25-.238.513-.464.734-.725.103-.12.123-.309.11-.271-9.164-.447-15.92 4.095-21.779 10.729C83.164 125.39 76.871 139.5 71.588 154.18c-.467 1.299-.818 2.683-1.544 3.823-.396.621-1.467.813-2.233 1.197-.303-.736-.97-1.544-.84-2.193.32-1.59.996-3.108 1.547-4.65 4.37-12.22 9.452-24.111 17.247-34.604 3.01-4.052 6.485-7.758 9.876-11.774-9.332 1.655-16.874 6.324-23.018 13.124-9.24 10.227-15.887 22.08-20.767 34.94-.213.565-.275 1.274-.659 1.664-.425.43-1.211.87-1.712.754-.49-.113-1.166-.933-1.152-1.424.032-1.175.247-2.412.693-3.501 5.859-14.333 13.31-27.661 24.65-38.493.176-.17.291-.407.764-1.088-1.463.512-2.48.831-3.472 1.221-9.792 3.852-19.654 7.548-28.31 13.767-.65.465-1.928.056-2.914.052.317-.956.344-2.417.996-2.79 5.968-3.42 11.98-6.783 18.118-9.885 3.648-1.845 7.55-3.189 10.81-4.539-7.52-.875-15.454-1.623-23.33-2.773-4.94-.722-9.81-1.964-14.662-3.179-.9-.224-2.257-1.524-2.178-2.18.208-1.735 1.764-1.417 3.088-1.161 8.21 1.581 16.38 3.402 24.637 4.644 11.485 1.726 22.857.637 34.674-2.485-3.068-.869-5.558-1.587-8.056-2.28-10.907-3.034-20.787-8.322-30.443-14.054-.702-.42-.87-1.74-1.288-2.64 1.007-.112 2.229-.644 2.989-.262 4.693 2.37 9.198 5.115 13.921 7.419 9.906 4.834 20.25 8.514 31.324 9.169 5.099.303 10.271-.657 15.497-1.673-.299-.216-.566-.522-.899-.631C103.68 93.974 94.34 86.98 84.997 80.017c-.578-.431-.519-1.716-.758-2.605.956-.051 2.151-.495 2.822-.085 2.348 1.441 4.518 3.17 6.745 4.798 8.557 6.265 17.57 11.628 28.144 13.688 2.9.566 5.897.624 8.85.915l.2-.788c-.489-.374-.948-.796-1.469-1.116-7.694-4.745-14.458-10.616-20.624-17.184-.519-.552-.362-1.742-.52-2.637.932.01 2.062-.31 2.749.105 1.15.693 1.944 1.948 3.015 2.807 6.112 4.895 12.191 9.834 18.433 14.559 2.282 1.726 5.014 2.744 8.03 1.873l1.323-8.95c-2.782-3.347-7.077-6.037-11.555-8.386-10.483-5.501-21.722-7.02-33.403-5.947-2.146.198-4.304.509-6.444.43-.853-.032-1.67-.984-2.504-1.516.766-.628 1.48-1.723 2.3-1.812 12.62-1.356 25.152-1.536 37.161 3.57.206.086.483.01 1.075.01-7.64-7.267-16.188-12.042-26.35-13.914-9.629-1.772-19.241-1.214-28.873-.268-.173.018-.339.076-.511.09-1.435.108-3.328.64-3.545-1.422-.218-2.068 1.72-2.037 3.159-2.076 8.086-.226 16.202-.885 24.25-.422 5.418.313 10.743 2.231 16.106 3.452.712.163 1.4.45 2.603.848-5.767-7.142-13.057-10.59-21.151-12.643-9.658-2.45-19.171-1.38-28.606 1.286-.413.117-.847.436-1.223.37-.899-.154-1.768-.482-2.648-.742.506-.853.853-2.266 1.55-2.466 3.719-1.063 7.492-2.043 11.308-2.643 7.396-1.162 14.775-.823 22.29.697-.537-.427-1.052-.883-1.61-1.277-7.51-5.28-15.535-9.604-24.02-13.12-.924-.383-1.454-1.716-2.167-2.608 1.14-.206 2.558-.952 3.38-.535 7.82 3.987 15.548 8.157 23.282 12.31 1.04.557 1.976 1.309 3.312 1.705-.648-1.352-1.445-2.655-1.918-4.064-2.079-6.202-4.134-12.411-6.002-18.676-.234-.788.697-1.922 1.086-2.896.723.683 1.816 1.235 2.113 2.07 2.248 6.319 3.915 12.88 6.585 19.007 3.945 9.048 11.077 15.727 18.257 22.253.09.081.301.03.566.048-1.263-3.68-2.87-7.237-3.68-10.969-1.753-8.076-3.137-16.235-4.533-24.383-.118-.706.81-1.591 1.251-2.39.753.777 2.006 1.46 2.172 2.35 1.047 5.502 1.702 11.08 2.763 16.58 2.205 11.452 6.426 21.992 14.496 30.704.697.75 1.176 1.698 1.756 2.556.192-.194.38-.388.57-.582-.642-3.953-1.49-7.887-1.87-11.865-.416-4.369-.39-8.781-.577-13.174-.126-3.014-.396-6.029-.362-9.042.008-.787.912-1.567 1.403-2.351.673.657 1.808 1.237 1.93 1.983.331 2.025.303 4.121.29 6.19-.062 8.733.22 17.425 2.5 25.93 1.52 5.664 3.723 10.927 8.573 14.837 4.418-2.047 8.757-1.344 13.046 1.33-.906-12.067-4.354-22.946-10.814-32.833-.376-.576-.94-1.123-1.063-1.752-.13-.665-.055-1.835.321-2.027.61-.313 1.72-.285 2.286.097.735.495 1.172 1.455 1.683 2.25 4.032 6.293 7.106 13.006 8.902 20.28.1.406.283.79.467 1.29 2.761-8.24 2.03-20.888-2.498-30.138-3.247-6.632-7.39-12.827-11.147-19.207-.394-.667-1.108-1.225-1.27-1.928-.202-.867.021-1.831.06-2.753.9.237 2.182.178 2.634.762 2.106 2.725 4.077 5.57 5.924 8.48 4.905 7.73 9.122 15.774 10.838 24.968 1.948-4.786 2.577-9.719 2.706-14.776.283-11.02-3.324-20.828-9.114-29.989-.784-1.241-1.712-2.429-2.246-3.77-.315-.79.017-1.838.059-2.768.95.3 2.356.303 2.78.95 4.497 6.869 8.685 13.922 10.518 22.06.606 2.68.956 5.419 1.536 8.786.47-1.142.77-1.841 1.043-2.55 2.453-6.356 4.844-12.735 7.421-19.04.343-.835 1.637-1.283 2.49-1.91.248 1.055.973 2.28.668 3.14-2.946 8.281-6.065 16.5-9.128 24.742-.174.47-.283.966-.55 1.9.574-.375.851-.474 1.004-.668 6.104-7.807 14.187-13.025 22.914-17.344.913-.452 2.957-.408 3.316.152 1.067 1.665-.634 2.288-1.827 2.957-2.483 1.392-4.969 2.772-7.437 4.189-14.819 8.506-21.838 22.18-25.427 38.47 2.295-3.078 4.322-6.007 6.566-8.76 6.362-7.807 14.642-13.326 22.919-18.815.621-.412 1.801.018 2.721.055-.302.952-.306 2.283-.958 2.793-2.706 2.132-5.627 3.989-8.432 5.996-10.462 7.486-19.067 16.489-23.138 29.033-.89 2.74-1.206 5.667-1.814 8.642 4.233 1.043 6.74 3.355 7.441 7.45 11.5-5.61 21.931-12.4 30.443-21.811 3.874-4.282 7.445-8.838 11.152-13.272.444-.529.776-1.287 1.34-1.544.748-.34 1.673-.293 2.522-.414.036.857.438 1.97.046 2.528-1.831 2.609-3.85 5.091-5.86 7.571-6.94 8.563-14.69 16.26-24.036 22.222-.196.124-.32.366-.428.494 17.976-1.013 33.487-7.818 46.646-20.065 2.526-2.352 4.969-4.804 7.62-7.01.72-.595 2.06-.45 3.113-.645-.25 1.037-.156 2.415-.8 3.058-8.69 8.712-17.957 16.681-29.294 21.863-.354.163-.661.424-.99.64 16.436 2.23 30.558-2.488 42.533-13.718 2.455-2.3 4.716-4.812 7.234-7.037.791-.698 2.597-1.41 3.135-1.015 1.61 1.176.271 2.454-.64 3.428-7.238 7.756-15.174 14.595-25.062 18.83-.384.165-.748.38-1.781.911 4.596.578 8.533 1.045 12.463 1.58 2.989.406 5.992.78 8.931 1.427.828.184 1.451 1.289 2.168 1.972-.887.457-1.825 1.39-2.649 1.298-5.738-.637-11.447-1.538-17.178-2.252-3.311-.412-6.649-.634-10.111-.501 1.562.823 3.24 1.482 4.668 2.498 8.216 5.843 16.398 11.738 24.504 17.734.653.483.65 1.854.954 2.814-1.071-.067-2.435.264-3.17-.269-6.348-4.612-12.345-9.745-18.93-13.979-4.95-3.183-10.5-5.528-15.991-7.733-2.596-1.042-5.676-.875-8.696-1.28.115.733.09.995.17 1.032 7.726 3.541 13.536 9.413 19.058 15.64 1.202 1.356 2.483 2.642 3.71 3.977.922 1.003 2.34 2.13.98 3.487-1.54 1.534-2.645-.114-3.61-1.124-2.926-3.054-5.587-6.394-8.726-9.202-3.447-3.084-7.13-5.986-11.032-8.46-7.352-4.664-15.501-4.678-23.772-3.21l-8.169 1.46c.067.162.091.364.174.39 12.041 3.97 21.175 12.044 29.677 21.011 1.366 1.441 2.872 2.78 4.038 4.367.451.614.14 1.788.178 2.706-.861-.091-1.932.105-2.54-.337-1.168-.847-2.086-2.044-3.088-3.115-7.057-7.52-14.422-14.68-23.96-19.046-5.21-2.386-10.57-4.254-16.496-3.362-1.845.28-2.81 1.246-2.14 2.914 1.686 4.2.811 7.922-1.817 11.627 6.23 5.303 12.97 9.486 20.818 11.699 3.316.934 6.72 1.576 9.992 2.633.952.308 2.34 1.722 2.221 2.405-.3 1.754-1.868 1.221-3.15.877-4.33-1.164-8.885-1.798-12.95-3.565-6.195-2.694-12.052-6.166-17.881-9.219.316.74.724 2.16 1.472 3.371 5.632 9.112 13.538 15.284 23.87 18.288 3.146.913 6.317 1.788 9.354 2.987.91.359 1.411 1.76 2.098 2.683-1.053.198-2.235.805-3.137.522-5.422-1.7-11.004-3.143-16.1-5.58-4.897-2.344-9.267-5.786-13.626-8.589 1.201 13.607 8.836 23.772 20.402 31.38 2.803 1.845 5.933 3.191 8.742 5.024.944.616 2.15 2.358 1.874 3.021-.762 1.839-2.244.717-3.45.071-7.162-3.836-14.371-7.62-19.686-14.026-1.96-2.36-3.745-4.866-5.657-7.364-1.418 9.769-.418 18.896 6.878 26.15 4.448 4.421 9.324 8.415 14.075 12.523.966.835 2.589 1.318 1.625 2.92-1.018 1.686-2.459.744-3.595-.012-7.18-4.779-13.393-10.57-18.32-17.689-.475-.687-.925-1.393-1.699-2.56z" transform="translate(-150 -135) translate(150 135) translate(17 13)"/>
                </g>
            </g>
        </g>
    </g>
</svg>
