<svg xmlns="http://www.w3.org/2000/svg" xmlns:xlink="http://www.w3.org/1999/xlink" width="240" height="55" viewBox="0 0 240 55">
    <defs>
        <path id="jksshn0wya" d="M0.763 0L190.741 0 190.741 54.962 0.763 54.962z"/>
        <path id="37djb8g9xc" d="M0 1.154L52.081 1.154 52.081 54.962 0 54.962z"/>
    </defs>
    <g fill="none" fill-rule="evenodd">
        <g>
            <g>
                <g>
                    <g transform="translate(-180 -64) translate(180 64) translate(47.634)">
                        <mask id="sqzwsxybvb" fill="#fff">
                            <use xlink:href="#jksshn0wya"/>
                        </mask>
                        <path fill="#05CBE5" d="M168.455 38.156c-1.732 6.13-5.627 8.583-8.944 8.583-3.247 0-4.112-2.74-4.112-5.554 0-9.738 7.5-15.58 14.498-16.877-1.083 4.615-1.37 10.891-1.442 13.848M92.75 42.742c-1.956 2.246-4.7 3.867-7.986 3.867-6.32 0-9.02-3.992-9.02-8.19 0-6.281 4.363-12.102 11.391-12.102l.137-.005c-.45 2.634.457 5.72 3.331 7.315 1.22.678 3.105 1.228 5.394 1.3-.129 2.698-1.32 5.51-3.247 7.815M17.062 25.678c1.515 0 2.237.722 2.237 1.803 0 2.959-3.39 4.256-7.429 6.925.72-4.545 2.309-8.728 5.192-8.728m172.38 11.18c-1.296 0-8.005 8.943-10.962 8.943-1.081 0-1.514-2.596-1.514-5.914 0-3.678.072-6.635.576-9.376 1.082-1.805 2.019-3.536 2.957-5.7 0-2.38-3.967-6.346-6.924-6.346-1.011 0-1.802.793-2.453 2.092-.504-.29-1.225-.505-2.163-.721-1.516-.29-2.957-.433-4.328-.433-5.985 0-11.179 3.75-14.497 7.717-2.85 3.464-4.483 7.837-5.077 12.181-2.519 2.585-6.022 6.5-7.905 6.5-.577 0-.795-.432-.795-1.225 0-2.814 3.032-9.954 3.032-16.95 0-5.121-3.463-8.294-9.955-8.294-5.625 0-9.232 3.244-11.396 6.85l1.081-5.192c2.74-5.266 5.844-8.728 5.844-13.92 0-1.66-1.443-7.07-4.4-7.07-.938 0-2.092.432-2.886 1.947-2.363 4.602-4.232 8.807-5.712 12.698-1.215 2.706-5.155 10.4-11.797 13.133-.073.025-.146.043-.22.07.605-.585.904-1.402.58-2.119-.308-.678-1.135-.831-1.135-.831-.372-.101-.723-.088-1.046-.008l-.005-.007c.55-.58.808-1.361.49-2.045-.313-.676-1.139-.824-1.139-.824-.47-.121-.91-.08-1.295.073.266-.637.26-1.334-.161-1.847-.475-.577-1.312-.51-1.312-.51-.693 0-1.24.305-1.609.763.184-.579.136-1.183-.241-1.64-.471-.577-1.309-.51-1.309-.51-.923 0-1.592.54-1.91 1.265-2.45-.494-4.346-.35-4.346-.35-12.19 0-19.764 10.099-19.764 20.99 0 .968.086 1.928.254 2.868-.205.245-.403.49-.613.738-.242.242-.519.566-.83.975-.314.408-.649.793-1.01 1.152-.36.36-.745.676-1.154.938-.409.266-.806.397-1.19.397-.338 0-.505-.611-.505-1.839 0-1.226.12-2.849.361-4.868.24-2.02.577-4.34 1.01-6.96.432-2.621.912-5.302 1.442-8.042 1.401-6.982 3.356-13.902 4.85-17.936.631-1.7.825-3.258.567-4.516-.352-1.726-1.555-2.893-3.686-3.082-.962-.095-1.924-.035-2.886.181-.961.217-1.9.638-2.812 1.263-.914.624-1.66 1.515-2.235 2.67-.434.816-.95 2.16-1.552 4.037-.6 1.876-1.225 4.063-1.876 6.564-.648 2.501-1.262 5.192-1.84 8.078-.574 2.885-1.043 5.782-1.404 8.691-.198 1.6-.348 3.157-.46 4.683-.542.83-1.039 1.58-1.488 2.24-.504.746-1.116 1.587-1.837 2.525-.722.938-1.492 1.889-2.309 2.849-.242.242-.516.566-.83.975-.313.408-.648.793-1.01 1.152-.36.36-.745.676-1.153.938-.409.266-.806.397-1.19.397-.338 0-.505-.611-.505-1.839 0-1.226.12-2.849.36-4.868.24-2.02.578-4.34 1.01-6.96.433-2.621.913-5.302 1.442-8.042 1.402-6.982 3.355-13.902 4.852-17.936.63-1.7.822-3.258.566-4.516-.352-1.726-1.556-2.893-3.686-3.082-.962-.095-1.924-.035-2.886.181-.962.217-1.9.638-2.812 1.263-.914.624-1.658 1.515-2.235 2.67-.434.816-.951 2.16-1.552 4.037-.601 1.876-1.226 4.063-1.876 6.564-.649 2.501-1.262 5.192-1.838 8.078-.577 2.885-1.046 5.782-1.407 8.691-.36 2.91-.577 5.698-.65 8.367-.015.577-.015 1.134-.01 1.684-2.58 2.215-6.127 4.411-10.843 4.411-2.67 0-6.925-.866-6.925-4.834v-1.803c7.645-3.534 16.878-4.688 16.878-13.2 0-4.038-2.957-6.924-8.367-6.924C9.85 19.258.763 29.283.763 43.061c0 7.861 6.274 11.252 12.767 11.252 7.863 0 13.156-2.422 16.547-5.393.376 1.212.869 2.244 1.482 3.085.913 1.251 2.164 1.876 3.753 1.876 3.508 0 7.5-2.572 11.972-7.719.865-1.01 1.669-2.008 2.417-2.993.106-.141.207-.279.311-.416.062 1.54.201 2.973.443 4.276.385 2.066 1.035 3.726 1.95 4.976.912 1.251 2.161 1.876 3.75 1.876 3.296 0 7.018-2.272 11.164-6.812 2.182 4.26 6.713 7.387 14.078 7.387 5.7 0 10.46-2.812 13.849-6.707 3.303-3.948 5.358-8.754 5.624-13.378.462-.12.93-.258 1.405-.42 1.818-.62 3.525-1.496 5.126-2.562-.965 6.087-1.046 11.413-1.046 16.576 0 4.4 1.587 6.997 3.604 6.997 1.588 0 2.959-.938 4.474-1.805 1.945-1.079 2.524-3.026 2.524-5.337 0-1.874-.218-4.182-.434-6.42.938-5.913 5.555-14.352 9.521-14.352 2.525 0 3.247 1.081 3.247 2.596 0 4.256-2.237 7.647-2.237 15.221 0 4.831 1.225 9.232 5.77 9.232 4.751 0 9.577-3.003 12.657-6.764 1.51 4.43 5.44 7.123 10.64 7.123 6.636 0 10.386-2.957 12.909-7.066.795 3.966 2.382 6.707 5.12 6.707 7.574 0 16.592-8.224 16.592-14.499 0-1.658-.577-2.74-1.3-2.74" mask="url(#sqzwsxybvb)"/>
                    </g>
                    <g transform="translate(-180 -64) translate(180 64)">
                        <mask id="24r5ylr8rd" fill="#fff">
                            <use xlink:href="#37djb8g9xc"/>
                        </mask>
                        <path fill="#05CBE5" d="M50.109 1.939c-1.29-.559-3.014-.559-4.573.163-.91.421-1.764 1.086-2.439 2.035-3.217 4.531-6.53 19.81-6.53 19.81-4.325-.073-9.59-.144-14.135-.144 0 0 4.085-12.508 5.895-15.996 1.814-3.488 0-7.066-6.976-6.614-6.867.445-18.335 2.431-20.922 8.924-.026.059-.05.117-.072.178-.016.044-.036.088-.053.134l.01.001c-.2.576-.314 1.184-.314 1.833 0 1.874.793 3.173 1.658 3.173.216 0 .506-.072.722-.29 3.102-2.74 5.553-4.76 13.777-4.976-1.805 4.04-3.679 9.522-5.337 15.148-6.058 1.658-9.233 4.76-9.233 6.852 0 .432.36.722.938.722 1.73 0 3.821-.29 6.42-.65-1.516 6.347-2.599 12.261-2.599 15.724 0 4.399.074 6.996 2.453 6.996 4.04 0 8.294-.721 8.294-4.255 0-6.204 1.515-13.056 3.247-19.62 1.082-.071 2.092-.071 3.246-.071 1.803 0 7.068.216 11.324.36-1.154 6.13-1.876 11.757-1.876 15.146 0 5.555 1.804 7.719 7.863 7.719 1.297 0 2.884-.433 2.884-2.021 0-8.393 1.658-18.982 3.288-28.28 1.67-8.743 3.445-14.585 4.727-17.853.782-1.997-.136-3.476-1.687-4.148" mask="url(#24r5ylr8rd)"/>
                    </g>
                </g>
            </g>
        </g>
    </g>
</svg>
