<svg xmlns="http://www.w3.org/2000/svg" width="300" height="300" viewBox="0 0 300 300">
    <g fill="none" fill-rule="evenodd">
        <g>
            <g>
                <g>
                    <path fill="#05CBE5" d="M138.084 125.357c-9.592.47-15.965-7.066-18.617-15.576-2.084-6.685-3.321-17.707 2.044-23.324 5.939-6.214 13.004 1.028 17.08 6.412 2.008-5.738 5.713-11.898 11.52-12.452 7.022-.672 9.74 8.407 9.743 13.932.01 12.385-7.57 30.314-21.77 31.008m40.641-60.172c-2.183-2.543-4.614-4.52-7.208-6.044-18.202-15.298-47.282-7.458-61.408 10.43-18.467 23.38-9.49 60.491-4.35 87.004 1.71 8.824 3.968 17.334 6.95 25.806 1.748 4.967 3.417 10.859 7.68 14.308 8.797 7.119 20.182-3.949 26.49-9.761 22.216-20.47 39.402-52.773 41.87-83.08 1.075-13.209-1.126-28.293-10.024-38.663" transform="translate(-150 -135) translate(150 135) translate(11 20)"/>
                    <path fill="#000" d="M130.505 241c.413 1.063 1.305 2.18 1.16 3.176-.774 5.338-1.75 10.655-2.817 15.951-.15.736-1.12 1.767-1.84 1.862-.787.103-2.002-.54-2.524-1.19-.566-.703-.547-1.788-.803-2.78 1.15-4.991 2.165-10.01 3.574-14.937.253-.885 2.124-1.398 3.25-2.082zm-56.448-1c.195 1.003.92 2.252.49 2.966-2.717 4.53-5.631 8.971-8.654 13.35-.353.512-2.027.874-2.604.577-.798-.408-1.136-1.508-1.608-2.22.76-1.418 1.244-2.558 1.938-3.586 2.282-3.376 4.527-6.782 7.055-10.01.553-.706 2.226-.736 3.383-1.077zm111.5-10c.758.674 1.808 1.204 2.22 2.04 2.39 4.851 4.725 9.733 6.826 14.71.347.82-.55 2.153-.872 3.25-1.045-.535-2.614-.806-3.047-1.646-2.476-4.81-4.78-9.712-6.888-14.688-.398-.94.35-2.355.57-3.55.397-.039.793-.076 1.19-.116zm42.606-26c.417.337 1.28.827 1.867 1.541 3.662 4.47 7.373 8.913 10.8 13.557.77 1.044 1.175 3.514.533 4.193-1.646 1.732-2.919-.095-3.963-1.378-3.646-4.486-7.339-8.936-10.852-13.524-1.602-2.092-.938-4.213 1.615-4.389zM38.52 214.996l2.597 2.714c-1.082.84-2.077 2.144-3.265 2.43-3.585.862-7.23 1.487-10.88 1.845-1.115.11-2.32-.943-3.482-1.464.887-1.109 1.63-2.918 2.692-3.2 3.773-1.006 7.655-1.493 12.338-2.325zM141.308 43.932c20.977 2.794 33.805 12.032 40.08 36.814.555 2.184.959 4.405 1.433 6.618 12.75-3.726 16.854-.389 18.807 15.35 2.635-1.032 5.159-2.35 7.843-2.993 4-.957 8.108-1.938 12.187-2.012 7.516-.14 12.734 4.932 13.65 12.462l.7 5.762c3.688-1.103 7.124-2.528 10.697-3.105 5.351-.866 10.81-1.687 16.197-1.535 7.667.217 12.869 4.33 14.182 10.002 1.594 6.885-1.47 14.199-7.641 18.148-6.61 4.227-13.959 4.068-21.356 3.543-.936-.065-1.877-.215-2.79-.434-2.545-.61-5.318-2.232-7.544-1.661-2.249.578-3.84 3.45-5.913 5.065-8.233 6.422-16.986 7.078-24.601 1.878-2.085-1.422-4.012-3.083-6.11-4.711-8.643 8.044-19.59 11.984-32.767 8.973-2.694 4.668-5.385 9.516-8.253 14.26-7.738 12.81-16.539 24.856-26.198 36.275-5.64 6.67-12.697 7.234-19.086 1.08-2.267-2.187-4.233-4.9-5.65-7.72-4.541-9.03-8.763-18.222-13.106-27.352-.446-.933-.88-1.873-1.475-3.14-9.981 9.543-20.54 11.045-31.61 2.532-2.24 3.908-4.429 7.749-6.643 11.576-.329.57-.779 1.069-1.16 1.61-9.094 12.982-23.641 8.703-30.056-.795-.839-1.244-1.624-2.528-2.4-3.003-4.032.528-8.057 1.429-12.095 1.48-4.116.055-7.907-1.532-9.724-5.627-1.782-4.016-.839-7.878 1.996-11.094 6.675-7.564 15.073-11.085 25.171-10.323 1.566.12 3.13.271 5.005.436-.49-8.97 1.215-17.234 9.31-21.613 8.102-4.383 15.88-1.409 23.095 3.971 3.21-5.495 7.087-10.38 14.335-11.178-.307-2.949-.664-5.908-.92-8.878-2.052-23.916 6.063-43.857 24.406-59.03 10.813-8.946 24.076-13.485 38.004-11.631zm-48.994 30.13c.007-.002-.22 0-.318.113-.307.356-.564.753-.84 1.133-6.463 8.903-7.703 19.37-8.598 29.847-1.042 12.217 1.713 24.021 5.997 35.239 5.386 14.096 11.734 27.83 17.902 41.615 2.424 5.416 5.34 10.633 8.32 15.772 2.06 3.548 5.219 5.82 9.906 6.264-.58-.98-.93-1.607-1.315-2.215-15.324-24.133-27.23-49.689-31.594-78.25-1.657-10.843-2.684-21.787-1.532-32.784.59-5.612 1.38-11.2 2.072-16.735zm30.59-24.286c-16.858 4.842-25.648 16.136-28.074 33.191-2.17 15.258-1.227 30.406 1.59 45.42 4.267 22.756 13.779 43.498 25.185 63.433 2.087 3.647 4.52 7.092 6.744 10.553.612-.24.822-.265.943-.382.406-.39.802-.799 1.165-1.231 16.727-19.807 30.848-41.257 41.219-65.134 7.676-17.676 10.623-35.798 5.757-54.74-2.338-9.102-5.794-17.805-13.422-23.76-12.315-9.618-26.092-11.661-41.106-7.35zm-42.92 77.414c-5.824 1.048-9.22 5.132-11.382 10.625-1.242 3.154-2.98 3.497-5.111.881-2.866-3.513-6.623-5.215-10.97-5.784-7.3-.953-11.889 1.583-14.231 8.613-1.138 3.413-1.3 7.2-1.577 10.84-.263 3.45-.824 4.149-4.271 3.858-2.345-.2-4.687-.567-7.031-.575-7.806-.033-14.361 2.994-19.416 8.884-4.033 4.698-2.403 9.033 3.543 10.477 3.915.949 7.47.06 10.874-1.793 4.101-2.234 4.142-2.234 6.145 2.08.396.855.87 1.682 1.393 2.464 4.99 7.468 16.253 12.763 24.364.762 2.677-3.962 4.732-8.363 6.886-12.657 1.706-3.396 2.902-3.798 5.703-1.438 9.495 7.996 19.904 6.922 27.472-2.403-4.148-11.663-8.193-23.03-12.39-34.834zm167.935 38.816c4.718 1.704 9.197 3.23 13.57 4.997.605.245 1.212 1.946.916 2.508-.342.648-1.831 1.274-2.567 1.058-4.342-1.274-8.638-2.714-12.869-4.312-.68-.26-1.399-1.666-1.273-2.403.117-.679 1.348-1.169 2.223-1.848zm-62.8-74.919c-.869.625-1.632 2.134-1.587 3.2.47 11.363-.713 22.503-4.65 33.196-2.57 6.975-5.6 13.78-8.612 21.117 1.676.252 3.134.61 4.607.67 9.596.38 17.64-3.158 24.394-9.89 2.956-2.946 4.168-2.796 6.25.723 3.863 6.528 11.093 9.25 17.954 6.137 3.44-1.558 6.819-3.812 9.423-6.526 2.766-2.88 5.074-3.58 8.872-2.212 7.64 2.753 15.492 3.005 23.204-.048 4-1.582 6.673-4.561 8.102-8.586 2.085-5.858-.43-11.448-6.432-12.966-3.737-.942-7.899-1.287-11.686-.699-5.727.888-11.326 2.71-16.917 4.35-3.796 1.117-5.19.463-5.902-3.501-.232-1.296-.268-2.63-.379-3.947-.6-7.177-4.529-10.838-11.664-10.562-6.635.254-12.734 2.28-18.251 6.07-.757.521-2.072.947-2.767.625-.668-.31-1.13-1.615-1.222-2.529-.3-3.007-.183-6.064-.605-9.047-.859-6.053-7.334-9.025-12.131-5.575zM13.237 104.994c4.719 1.704 9.197 3.23 13.571 4.997.605.244 1.212 1.946.916 2.508-.343.648-1.831 1.274-2.567 1.058-4.343-1.274-8.639-2.714-12.87-4.313-.68-.259-1.398-1.665-1.272-2.402.117-.68 1.348-1.169 2.222-1.848zm249.986-18.99l2.597 2.713c-1.082.84-2.077 2.145-3.265 2.43-3.585.863-7.23 1.487-10.88 1.845-1.115.11-2.32-.943-3.482-1.464.887-1.109 1.63-2.918 2.692-3.2 3.773-1.006 7.655-1.493 12.338-2.324zM23.482 47c.416.337 1.28.827 1.867 1.541l2.444 2.979c2.853 3.476 5.69 6.966 8.356 10.578.769 1.044 1.175 3.514.532 4.193-1.646 1.732-2.919-.095-3.963-1.378-3.646-4.486-7.338-8.936-10.851-13.524-1.602-2.092-.939-4.213 1.615-4.389zm213.894-16c.195 1.003.92 2.252.49 2.966-2.717 4.53-5.632 8.971-8.655 13.35-.353.512-2.026.874-2.603.577-.799-.408-1.136-1.508-1.608-2.22.759-1.418 1.244-2.558 1.937-3.586 2.282-3.376 4.528-6.782 7.055-10.01.554-.706 2.227-.736 3.384-1.077zm-162.5-10c.757.674 1.807 1.204 2.22 2.04 2.39 4.851 4.725 9.733 6.825 14.71.348.82-.549 2.153-.871 3.25-1.045-.535-2.614-.806-3.047-1.646-2.476-4.81-4.78-9.712-6.888-14.688-.398-.94.35-2.355.569-3.55.398-.039.793-.076 1.191-.116zm84.947-21c.414 1.063 1.306 2.18 1.161 3.176-.775 5.338-1.75 10.655-2.817 15.951-.15.736-1.12 1.767-1.841 1.862-.786.103-2.002-.54-2.524-1.19-.565-.703-.546-1.788-.802-2.78 1.15-4.991 2.165-10.01 3.573-14.937.253-.885 2.124-1.398 3.25-2.082z" transform="translate(-150 -135) translate(150 135) translate(11 20)"/>
                </g>
            </g>
        </g>
    </g>
</svg>
