<svg xmlns="http://www.w3.org/2000/svg" xmlns:xlink="http://www.w3.org/1999/xlink" width="24" height="24" viewBox="0 0 24 24">
    <defs>
        <path id="r0dxjdp47a" d="M11.945 11.028c0 .499-.413.902-.922.902-.508 0-.922-.403-.922-.902V8.19c0-.498.414-.903.922-.903.51 0 .922.405.922.903v2.838zm0 4.087c0 .497-.413.902-.922.902-.508 0-.922-.405-.922-.902v-.29c0-.499.414-.903.922-.903.51 0 .922.404.922.903v.29zm9.79 1.035L12.694.942C12.345.354 11.72 0 11.023 0h-.002c-.696 0-1.32.352-1.672.939L.268 16.146c-.354.593-.357 1.304-.008 1.902.35.596.978.952 1.68.952h18.12c.702 0 1.33-.356 1.68-.952.349-.596.347-1.305-.006-1.898z"/>
    </defs>
    <g fill="none" fill-rule="evenodd" transform="translate(1 3)">
        <mask id="we3ytocvab" fill="#fff">
            <use xlink:href="#r0dxjdp47a"/>
        </mask>
        <use fill="#EE3B49" xlink:href="#r0dxjdp47a"/>
        <g fill="#EE3B49" mask="url(#we3ytocvab)">
            <path d="M0 0L24 0 24 24 0 24z" transform="translate(-1 -3)"/>
        </g>
    </g>
</svg>
