<svg xmlns="http://www.w3.org/2000/svg" xmlns:xlink="http://www.w3.org/1999/xlink" width="131" height="30" viewBox="0 0 131 30">
    <defs>
        <path id="a" d="M.416 0h103.697v30H.416z"/>
        <path id="c" d="M0 .63h28.427V30H0z"/>
    </defs>
    <g fill="none" fill-rule="evenodd">
        <g transform="translate(26)">
            <mask id="b" fill="#fff">
                <use xlink:href="#a"/>
            </mask>
            <path fill="#05CBE5" d="M91.948 20.827c-.945 3.346-3.07 4.685-4.882 4.685-1.772 0-2.244-1.496-2.244-3.032 0-5.315 4.094-8.504 7.913-9.212-.59 2.519-.748 5.945-.787 7.559M50.626 23.33c-1.068 1.226-2.566 2.11-4.359 2.11-3.45 0-4.924-2.178-4.924-4.47 0-3.428 2.382-6.605 6.218-6.605l.075-.003c-.246 1.438.25 3.122 1.818 3.993.666.37 1.695.67 2.944.709-.07 1.473-.72 3.008-1.772 4.266M9.313 14.016c.827 0 1.221.394 1.221.984 0 1.615-1.85 2.323-4.055 3.78.393-2.481 1.26-4.764 2.834-4.764m94.091 6.102c-.708 0-4.37 4.882-5.984 4.882-.59 0-.826-1.417-.826-3.228 0-2.008.04-3.622.314-5.118a25.537 25.537 0 0 0 1.614-3.111c0-1.3-2.165-3.464-3.779-3.464-.552 0-.984.433-1.339 1.142-.275-.158-.669-.276-1.18-.394a12.592 12.592 0 0 0-2.363-.236c-3.267 0-6.102 2.047-7.913 4.212-1.556 1.89-2.447 4.278-2.77 6.649C77.801 22.862 75.89 25 74.861 25c-.315 0-.434-.236-.434-.67 0-1.535 1.655-5.432 1.655-9.251 0-2.795-1.89-4.527-5.434-4.527-3.07 0-5.039 1.77-6.22 3.739l.59-2.834c1.496-2.874 3.19-4.764 3.19-7.598 0-.906-.788-3.86-2.402-3.86-.512 0-1.142.237-1.575 1.064-1.29 2.512-2.31 4.807-3.118 6.93-.663 1.478-2.814 5.678-6.439 7.169-.04.014-.08.024-.12.038.33-.32.493-.765.316-1.156-.168-.37-.619-.454-.619-.454a1.117 1.117 0 0 0-.57-.004l-.004-.004c.3-.317.441-.743.268-1.116-.17-.37-.622-.45-.622-.45a1.124 1.124 0 0 0-.707.04c.145-.348.142-.728-.088-1.008-.259-.315-.716-.28-.716-.28-.378 0-.677.168-.878.418.1-.316.074-.646-.132-.895-.257-.315-.714-.28-.714-.28-.504 0-.869.296-1.043.692-1.337-.27-2.372-.191-2.372-.191-6.654 0-10.788 5.512-10.788 11.457 0 .528.047 1.052.14 1.565-.113.134-.22.268-.336.403a5.364 5.364 0 0 0-.453.532 6.248 6.248 0 0 1-.55.629 3.778 3.778 0 0 1-.63.512c-.224.145-.44.217-.65.217-.185 0-.276-.334-.276-1.004 0-.67.065-1.555.197-2.657.131-1.103.315-2.37.551-3.8a162.9 162.9 0 0 1 .787-4.39c.765-3.81 1.832-7.587 2.648-9.79.344-.927.45-1.777.31-2.464C37.43.78 36.773.142 35.61.04a4.925 4.925 0 0 0-1.575.099 4.436 4.436 0 0 0-1.535.689c-.499.34-.906.827-1.22 1.457-.237.446-.519 1.18-.847 2.204a68.03 68.03 0 0 0-1.024 3.583 80.445 80.445 0 0 0-1.004 4.409 65.495 65.495 0 0 0-.767 4.744c-.108.873-.19 1.723-.25 2.556-.297.453-.568.863-.813 1.223-.275.407-.609.866-1.003 1.378a40.645 40.645 0 0 1-1.26 1.555 5.502 5.502 0 0 0-.453.532 6.248 6.248 0 0 1-.55.629 3.778 3.778 0 0 1-.63.512c-.224.145-.44.217-.65.217-.185 0-.276-.334-.276-1.004 0-.67.065-1.555.196-2.657.132-1.103.316-2.37.552-3.8a162.9 162.9 0 0 1 .787-4.39c.765-3.81 1.831-7.587 2.648-9.79.344-.927.45-1.777.31-2.464-.193-.942-.85-1.58-2.013-1.682a4.925 4.925 0 0 0-1.575.099 4.436 4.436 0 0 0-1.535.689c-.499.34-.905.827-1.22 1.457-.237.446-.519 1.18-.847 2.204a68.03 68.03 0 0 0-1.024 3.583 79.56 79.56 0 0 0-1.003 4.409 64.955 64.955 0 0 0-.768 4.744 47.786 47.786 0 0 0-.355 4.567c-.008.315-.008.619-.005.919-1.409 1.209-3.345 2.408-5.919 2.408-1.457 0-3.78-.473-3.78-2.64v-.983c4.173-1.93 9.213-2.56 9.213-7.205 0-2.204-1.614-3.78-4.567-3.78-5.473 0-10.433 5.473-10.433 12.993 0 4.29 3.425 6.142 6.97 6.142 4.291 0 7.18-1.322 9.031-2.944.205.662.474 1.225.81 1.684.497.683 1.18 1.024 2.047 1.024 1.915 0 4.094-1.404 6.535-4.213.472-.551.911-1.096 1.32-1.634.057-.077.112-.152.17-.227.033.84.11 1.623.241 2.334.21 1.128.565 2.034 1.064 2.716.498.683 1.18 1.024 2.047 1.024 1.8 0 3.831-1.24 6.094-3.718 1.191 2.325 3.664 4.032 7.684 4.032 3.111 0 5.71-1.535 7.56-3.661 1.802-2.155 2.924-4.778 3.07-7.302.251-.066.507-.141.766-.23a12.127 12.127 0 0 0 2.798-1.398c-.527 3.323-.57 6.23-.57 9.048 0 2.402.865 3.819 1.966 3.819.867 0 1.615-.512 2.442-.985 1.062-.59 1.378-1.652 1.378-2.913 0-1.023-.119-2.283-.237-3.504.512-3.228 3.032-7.834 5.197-7.834 1.378 0 1.772.59 1.772 1.417 0 2.323-1.22 4.174-1.22 8.308 0 2.637.668 5.039 3.15 5.039 2.592 0 5.226-1.64 6.907-3.692.824 2.418 2.97 3.888 5.808 3.888 3.622 0 5.67-1.614 7.046-3.857.434 2.165 1.3 3.66 2.795 3.66 4.134 0 9.056-4.488 9.056-7.913 0-.905-.315-1.496-.709-1.496" mask="url(#b)"/>
        </g>
        <mask id="d" fill="#fff">
            <use xlink:href="#c"/>
        </mask>
        <path fill="#05CBE5" d="M27.351 1.058c-.704-.305-1.645-.305-2.496.09-.497.23-.963.592-1.331 1.11-1.756 2.473-3.564 10.813-3.564 10.813-2.361-.04-5.235-.079-7.716-.079 0 0 2.23-6.827 3.218-8.73.99-1.905 0-3.858-3.808-3.61C7.906.893 1.646 1.977.234 5.521a1.635 1.635 0 0 0-.039.097l-.029.073.005.001a3.025 3.025 0 0 0-.171 1c0 1.023.433 1.732.905 1.732a.561.561 0 0 0 .394-.158C2.992 6.771 4.33 5.67 8.819 5.551c-.985 2.205-2.008 5.197-2.913 8.268-3.307.905-5.04 2.598-5.04 3.74 0 .236.197.394.512.394.945 0 2.086-.158 3.504-.355-.827 3.465-1.418 6.693-1.418 8.583 0 2.401.04 3.82 1.339 3.82 2.205 0 4.527-.395 4.527-2.324 0-3.386.827-7.126 1.772-10.709.591-.039 1.142-.039 1.772-.039.984 0 3.858.118 6.181.197-.63 3.346-1.024 6.417-1.024 8.267 0 3.032.985 4.213 4.292 4.213.708 0 1.574-.236 1.574-1.103 0-4.58.905-10.36 1.795-15.436.911-4.772 1.88-7.96 2.58-9.745.427-1.09-.074-1.897-.921-2.264" mask="url(#d)"/>
    </g>
</svg>
