<svg xmlns="http://www.w3.org/2000/svg" xmlns:xlink="http://www.w3.org/1999/xlink" width="105" height="24" viewBox="0 0 105 24">
    <defs>
        <path id="mc51pt00ga" d="M0.333 0L83.29 0 83.29 24 0.333 24z"/>
        <path id="21sc4h4mic" d="M0 0.504L22.742 0.504 22.742 24 0 24z"/>
    </defs>
    <g fill="none" fill-rule="evenodd">
        <g transform="translate(20.8)">
            <mask id="ry9bc3wiwb" fill="#fff">
                <use xlink:href="#mc51pt00ga"/>
            </mask>
            <path fill="#FFF" d="M73.559 16.662c-.756 2.676-2.457 3.748-3.906 3.748-1.418 0-1.795-1.197-1.795-2.426 0-4.252 3.275-6.803 6.33-7.37-.473 2.016-.598 4.756-.63 6.048m-33.057 2.002c-.854.98-2.053 1.689-3.487 1.689-2.76 0-3.94-1.743-3.94-3.577 0-2.742 1.906-5.284 4.975-5.284 0 0 .025-.002.06-.002-.197 1.15.2 2.497 1.454 3.194.533.296 1.356.536 2.356.567-.056 1.179-.576 2.407-1.418 3.413m-33.05-7.451c.661 0 .976.315.976.787 0 1.292-1.48 1.858-3.244 3.024.315-1.985 1.008-3.811 2.268-3.811m75.272 4.881c-.566 0-3.496 3.906-4.787 3.906-.472 0-.66-1.134-.66-2.582 0-1.607.03-2.898.25-4.095.473-.788.882-1.544 1.292-2.489 0-1.039-1.732-2.77-3.023-2.77-.442 0-.788.346-1.072.913-.22-.127-.535-.221-.944-.315-.662-.127-1.292-.19-1.89-.19-2.614 0-4.882 1.638-6.33 3.37-1.245 1.513-1.958 3.423-2.217 5.32C62.242 18.29 60.712 20 59.89 20c-.252 0-.347-.189-.347-.535 0-1.23 1.324-4.347 1.324-7.402 0-2.236-1.512-3.621-4.348-3.621-2.456 0-4.03 1.416-4.976 2.99l.472-2.266c1.197-2.3 2.552-3.812 2.552-6.079 0-.725-.63-3.087-1.921-3.087-.41 0-.914.189-1.26.85-1.032 2.01-1.848 3.846-2.495 5.545-.53 1.182-2.25 4.542-5.15 5.735-.033.01-.065.019-.097.03.264-.255.395-.612.253-.925-.134-.296-.495-.363-.495-.363-.163-.044-.316-.038-.457-.003l-.002-.003c.24-.254.352-.595.214-.893-.137-.295-.498-.36-.498-.36-.205-.053-.397-.035-.565.032.116-.279.113-.583-.07-.807-.208-.252-.573-.223-.573-.223-.303 0-.542.134-.703.334.08-.253.06-.517-.105-.716-.206-.252-.572-.223-.572-.223-.403 0-.695.236-.834.552-1.07-.216-1.898-.152-1.898-.152-5.323 0-8.63 4.41-8.63 9.165 0 .423.038.842.111 1.252-.09.107-.176.215-.268.323-.105.105-.226.247-.362.425-.137.179-.283.347-.441.503-.158.158-.326.296-.504.41-.178.116-.352.174-.52.174-.147 0-.22-.268-.22-.804 0-.535.052-1.244.158-2.125.104-.883.252-1.895.44-3.04.19-1.144.399-2.315.63-3.511.612-3.05 1.466-6.07 2.118-7.832.276-.743.36-1.423.248-1.972-.154-.754-.68-1.264-1.61-1.346-.42-.042-.84-.015-1.26.08-.42.094-.83.278-1.228.55-.4.273-.725.662-.976 1.166-.19.357-.415.944-.678 1.763-.262.82-.535 1.775-.819 2.867-.283 1.092-.551 2.267-.803 3.527-.251 1.26-.456 2.525-.614 3.795-.086.698-.152 1.378-.2 2.045-.237.362-.454.69-.65.978-.22.326-.487.693-.802 1.103-.316.41-.652.824-1.008 1.244-.106.105-.226.247-.363.425-.137.179-.283.347-.44.503-.158.158-.326.296-.505.41-.178.116-.352.174-.519.174-.148 0-.22-.268-.22-.804 0-.535.051-1.244.156-2.125.106-.883.253-1.895.442-3.04.189-1.144.398-2.315.63-3.511.611-3.05 1.464-6.07 2.118-7.832.275-.743.359-1.423.247-1.972-.154-.754-.68-1.264-1.61-1.346-.42-.042-.84-.015-1.26.08-.42.094-.83.278-1.228.55-.399.273-.724.662-.976 1.166-.19.357-.415.944-.677 1.763-.263.82-.535 1.775-.82 2.867-.283 1.092-.55 2.267-.802 3.527-.252 1.26-.457 2.525-.614 3.795-.158 1.27-.252 2.488-.284 3.654-.007.252-.007.495-.004.735-1.127.967-2.676 1.926-4.735 1.926-1.166 0-3.024-.378-3.024-2.111v-.787c3.338-1.543 7.37-2.047 7.37-5.764 0-1.763-1.291-3.023-3.654-3.023-4.378 0-8.346 4.377-8.346 10.393 0 3.433 2.74 4.914 5.575 4.914 3.434 0 5.745-1.058 7.226-2.355.164.53.379.98.647 1.347.398.546.945.819 1.638.819 1.532 0 3.276-1.123 5.228-3.37.378-.441.73-.877 1.056-1.308l.136-.181c.027.673.088 1.298.193 1.867.168.902.452 1.627.851 2.173.399.546.944.819 1.638.819 1.44 0 3.065-.992 4.875-2.974.953 1.86 2.931 3.225 6.147 3.225 2.49 0 4.568-1.228 6.048-2.929 1.442-1.724 2.34-3.822 2.456-5.841.201-.053.406-.113.613-.183.794-.272 1.54-.654 2.239-1.12-.422 2.659-.457 4.984-.457 7.239 0 1.921.693 3.055 1.573 3.055.694 0 1.292-.41 1.954-.788.85-.471 1.102-1.322 1.102-2.33 0-.819-.095-1.827-.19-2.804.41-2.582 2.426-6.267 4.158-6.267 1.103 0 1.418.472 1.418 1.134 0 1.858-.977 3.339-.977 6.646 0 2.11.535 4.031 2.52 4.031 2.075 0 4.182-1.31 5.527-2.953.659 1.934 2.376 3.11 4.646 3.11 2.898 0 4.535-1.291 5.637-3.085.347 1.732 1.04 2.928 2.236 2.928 3.307 0 7.245-3.59 7.245-6.33 0-.725-.252-1.198-.568-1.198" mask="url(#ry9bc3wiwb)"/>
        </g>
        <mask id="fm8ws7xrvd" fill="#fff">
            <use xlink:href="#21sc4h4mic"/>
        </mask>
        <path fill="#FFF" d="M21.88.847c-.562-.244-1.315-.244-1.996.07-.398.185-.77.475-1.065.89-1.405 1.978-2.851 8.65-2.851 8.65-1.889-.032-4.188-.063-6.173-.063 0 0 1.784-5.462 2.575-6.985.792-1.523 0-3.086-3.047-2.888C6.325.715 1.317 1.583.187 4.418l-.031.077-.023.059h.004c-.087.252-.137.517-.137.8C0 6.174.346 6.74.724 6.74c.094 0 .22-.031.315-.126C2.394 5.417 3.464 4.535 7.055 4.44c-.788 1.764-1.606 4.158-2.33 6.614-2.646.724-4.032 2.079-4.032 2.992 0 .19.157.316.41.316.755 0 1.668-.127 2.803-.284-.662 2.772-1.135 5.354-1.135 6.866 0 1.92.032 3.055 1.071 3.055 1.764 0 3.622-.315 3.622-1.858 0-2.709.662-5.701 1.418-8.567.472-.032.913-.032 1.417-.032.787 0 3.087.095 4.945.158-.504 2.677-.82 5.134-.82 6.614 0 2.425.789 3.37 3.434 3.37.567 0 1.26-.189 1.26-.882 0-3.665.724-8.29 1.436-12.35.728-3.817 1.504-6.368 2.064-7.795.341-.872-.06-1.518-.737-1.811" mask="url(#fm8ws7xrvd)"/>
    </g>
</svg>
