<svg xmlns="http://www.w3.org/2000/svg" width="72" height="72" viewBox="0 0 72 72">
    <defs>
        <linearGradient id="n48wjqys0a" x1="50%" x2="50%" y1="0%" y2="100%">
            <stop offset="0%" stop-color="#FF7F7F"/>
            <stop offset="100%" stop-color="#DC3030"/>
        </linearGradient>
    </defs>
    <g fill="none">
        <g fill="#44C868">
            <path d="M53.561 40.315L47.905 8.932c-.057-.313-.25-.585-.526-.74L33.142.22c-.185-.104-.392-.145-.596-.13l2.59 33.649-.086.039 17.038 7.697c.139.063.286.094.433.094.232 0 .462-.077.651-.226.31-.243.459-.639.39-1.027zM17.578 7.842L3.018.204c-.175-.091-.369-.129-.56-.116.051-.003.102-.002.152.001L.02 33.738l17.125 7.737c.139.062.286.093.433.093V7.842z" transform="translate(0 4) translate(18.422 23.224)"/>
        </g>
        <g fill="#4CE166">
            <path d="M21.032.09c-.204-.016-.41.025-.596.129L6.2 8.193c-.276.154-.47.426-.526.739L.017 40.315c-.07.388.08.784.389 1.027.189.149.419.226.65.226.148 0 .295-.03.434-.093l16.946-7.656L21.032.089zM50.968.089c-.14.01-.279.048-.407.116L36 7.842v33.726c.147 0 .295-.03.433-.093l17.125-7.737-2.59-33.65z" transform="translate(0 4) translate(0 23.224)"/>
        </g>
        <path fill="#FFDB56" d="M3.959 41.667L2.81 48.042 19.825 38.992 20.22 33.86 20.285 33.009z" transform="translate(0 4)"/>
        <path fill="#A8EEFC" d="M19.978 37.002l-.153 1.99-17.015 9.05L.017 63.54c-.07.389.08.784.389 1.027.189.15.419.226.65.226.148 0 .295-.03.434-.093l16.946-7.656 1.542-20.04z" transform="translate(0 4)"/>
        <g fill="#FFBB24">
            <path d="M16.317 8.366L.598 6.103.137 12.086 16.313 36.823 16.313 27.828 6.66 12.523 16.317 13.686zM44.992 3.883L38.153.052 31.678 1.576 31.759 2.629 32.079 6.783z" transform="translate(0 4) translate(19.688 26.906)"/>
        </g>
        <path fill="#FFDB56" d="M52.341 41.149L51.728 33.184 51.728 33.184 51.366 28.482 36.004 35.273 36.004 40.592 46.039 36.198z" transform="translate(0 4)"/>
        <path fill="#FFBB24" d="M71.983 63.54l-1.42-7.884L51.766 33.69l.574 7.46 19.276 23.397c.293-.244.434-.628.366-1.007z" transform="translate(0 4)"/>
        <path fill="url(#n48wjqys0a)" d="M36.068.066c-8.151 0-14.783 6.672-14.783 14.874 0 5.073 2.392 10.52 7.11 16.19 3.464 4.163 6.882 6.841 7.026 6.953.19.148.419.223.647.223.228 0 .456-.075.647-.223.143-.112 3.561-2.79 7.026-6.954 4.718-5.669 7.11-11.116 7.11-16.19 0-8.2-6.632-14.873-14.783-14.873zm5.474 14.874c0 3.042-2.45 5.508-5.474 5.508s-5.475-2.466-5.475-5.508 2.451-5.509 5.475-5.509c3.023 0 5.474 2.467 5.474 5.509z" transform="translate(0 4)"/>
        <path fill="#FFDB56" d="M36.433 64.699l6.368-2.877L36 54.734v10.058c.147 0 .295-.03.433-.093z" transform="translate(0 4)"/>
        <g fill="#1EA4E9">
            <path d="M47.904 1.427c-.056-.314-.249-.585-.525-.74L46.258.06l-12.913 2.9L52.14 24.926l-4.236-23.5zM17.578 34.062V33L1.403 8.263.02 26.233l17.125 7.736c.138.063.286.093.433.093z" transform="translate(0 4) translate(18.422 30.73)"/>
        </g>
    </g>
</svg>
