<svg xmlns="http://www.w3.org/2000/svg" width="24" height="24" viewBox="0 0 24 24">
    <path fill="#EE3B49" d="M12 4.75c.633 0 1.245.185 1.782.537l.198.14c.563.428 1.327.675 2.223.717l.273.006h2.012c2.63 0 4.762 2.314 4.762 5.15 0 2.657-1.876 4.872-4.298 5.126l-.122.009-.168.144c-1.636 1.37-3.708 2.46-5.988 2.644l-.343.02-.331.007c-2.545 0-4.866-1.167-6.662-2.67l-.169-.145-.121-.01c-2.282-.239-4.079-2.218-4.28-4.667l-.013-.231L.75 11.3c0-2.76 2.02-5.028 4.555-5.145l.207-.005h2.012c.922 0 1.718-.209 2.321-.6l.175-.124c.582-.442 1.267-.676 1.98-.676zm0 1.9c-.337 0-.66.11-.938.322-.876.665-1.966 1.025-3.24 1.072l-.298.006H6.406v6.998l.151.126c1.459 1.171 3.254 2.076 5.13 2.168l.313.008c1.988 0 3.903-.94 5.443-2.176l.15-.126V8.05h-1.117c-1.302 0-2.424-.312-3.332-.93l-.206-.148c-.278-.211-.601-.322-.938-.322zM15.25 13c.414 0 .75.336.75.75s-.336.75-.75.75h-6.5c-.414 0-.75-.336-.75-.75s.336-.75.75-.75h6.5zM4.617 8.201l-.03.01c-1.199.43-2.048 1.664-2.048 3.089s.85 2.659 2.047 3.089l.031.009V8.201zm14.765 0v6.197l.032-.01c1.143-.41 1.969-1.553 2.042-2.895l.005-.193c0-1.425-.85-2.66-2.047-3.089l-.032-.01zM15.25 10c.414 0 .75.336.75.75s-.336.75-.75.75h-6.5c-.414 0-.75-.336-.75-.75s.336-.75.75-.75h6.5z"/>
</svg>
