<svg xmlns="http://www.w3.org/2000/svg" width="72" height="72" viewBox="0 0 72 72">
    <defs>
        <linearGradient id="ytm74jf6ja" x1="77.703%" x2="67.948%" y1="15.376%" y2="28.622%">
            <stop offset="0%" stop-color="#8A7889"/>
            <stop offset="100%" stop-color="#6E566E"/>
        </linearGradient>
        <linearGradient id="pu48zlqr1b" x1="85.181%" x2="74.63%" y1="20.819%" y2="30.345%">
            <stop offset="0%" stop-color="#6E566E" stop-opacity="0"/>
            <stop offset="21.91%" stop-color="#685168" stop-opacity=".219"/>
            <stop offset="100%" stop-color="#564357"/>
        </linearGradient>
        <linearGradient id="xai9tsd8gc" x1="57.424%" x2="17.558%" y1="45.01%" y2="72.874%">
            <stop offset="0%" stop-color="#4AB272"/>
            <stop offset="100%" stop-color="#077565"/>
        </linearGradient>
        <linearGradient id="y27nx7fsgd" x1="44.756%" x2="111.187%" y1="54.631%" y2="-1.477%">
            <stop offset="0%" stop-color="#92F37F" stop-opacity="0"/>
            <stop offset="100%" stop-color="#FFEE83"/>
        </linearGradient>
        <linearGradient id="ym16555zye" x1="56.082%" x2="28.43%" y1="46.288%" y2="64.24%">
            <stop offset="0%" stop-color="#91F27F"/>
            <stop offset="100%" stop-color="#00B302"/>
        </linearGradient>
        <linearGradient id="kuywtr712f" x1="24.772%" x2="122.876%" y1="88.07%" y2="-58.951%">
            <stop offset="0%" stop-color="#92F37F"/>
            <stop offset="100%" stop-color="#4AB272"/>
        </linearGradient>
        <linearGradient id="lujrwzb0og" x1="44.434%" x2="70.648%" y1="40.299%" y2="-33.404%">
            <stop offset="0%" stop-color="#4AB272" stop-opacity="0"/>
            <stop offset="100%" stop-color="#009245"/>
        </linearGradient>
        <linearGradient id="4rfh0qfcch" x1="55.09%" x2="20.541%" y1="47.266%" y2="74.614%">
            <stop offset="0%" stop-color="#4AB272"/>
            <stop offset="100%" stop-color="#077565"/>
        </linearGradient>
        <linearGradient id="28xk8qon2i" x1="65.942%" x2="-35.988%" y1="37.319%" y2="129.288%">
            <stop offset="0%" stop-color="#91F27F"/>
            <stop offset="100%" stop-color="#00B302"/>
        </linearGradient>
        <linearGradient id="shmikblotj" x1="66.252%" x2="-35.681%" y1="37.315%" y2="129.288%">
            <stop offset="0%" stop-color="#91F27F"/>
            <stop offset="100%" stop-color="#00B302"/>
        </linearGradient>
        <linearGradient id="ws3x175d0k" x1="65.942%" x2="-35.991%" y1="37.446%" y2="129.419%">
            <stop offset="0%" stop-color="#91F27F"/>
            <stop offset="100%" stop-color="#00B302"/>
        </linearGradient>
        <linearGradient id="dqjucn91sl" x1="66.249%" x2="-35.682%" y1="37.446%" y2="129.415%">
            <stop offset="0%" stop-color="#91F27F"/>
            <stop offset="100%" stop-color="#00B302"/>
        </linearGradient>
        <linearGradient id="0on64r389m" x1="57.316%" x2="17.98%" y1="41.42%" y2="86.655%">
            <stop offset="0%" stop-color="#4AB272"/>
            <stop offset="100%" stop-color="#077565"/>
        </linearGradient>
        <linearGradient id="rblpagv8xn" x1="44.87%" x2="109.718%" y1="56.533%" y2="-28.373%">
            <stop offset="0%" stop-color="#92F37F" stop-opacity="0"/>
            <stop offset="100%" stop-color="#FFEE83"/>
        </linearGradient>
        <linearGradient id="lvi16o00no" x1="56.99%" x2="25.169%" y1="42.126%" y2="77.052%">
            <stop offset="0%" stop-color="#91F27F"/>
            <stop offset="100%" stop-color="#00B302"/>
        </linearGradient>
        <linearGradient id="fesbse14ep" x1="39.189%" x2="80.764%" y1="93.776%" y2="-79.121%">
            <stop offset="0%" stop-color="#92F37F"/>
            <stop offset="100%" stop-color="#4AB272"/>
        </linearGradient>
        <linearGradient id="b264k71zzq" x1="49.271%" x2="52.398%" y1="40.995%" y2="-29.128%">
            <stop offset="0%" stop-color="#4AB272" stop-opacity="0"/>
            <stop offset="100%" stop-color="#009245"/>
        </linearGradient>
        <linearGradient id="31j5v2pgor" x1="52.385%" x2="36.263%" y1="43.854%" y2="87.42%">
            <stop offset="0%" stop-color="#4AB272"/>
            <stop offset="100%" stop-color="#077565"/>
        </linearGradient>
        <linearGradient id="mk3nkj8x7s" x1="59.867%" x2="-4.303%" y1="28.009%" y2="149.705%">
            <stop offset="0%" stop-color="#91F27F"/>
            <stop offset="100%" stop-color="#00B302"/>
        </linearGradient>
        <linearGradient id="faw1tkscht" x1="59.767%" x2="-4.406%" y1="28.213%" y2="149.91%">
            <stop offset="0%" stop-color="#91F27F"/>
            <stop offset="100%" stop-color="#00B302"/>
        </linearGradient>
        <linearGradient id="umtqukl0ou" x1="59.785%" x2="-4.404%" y1="27.96%" y2="149.692%">
            <stop offset="0%" stop-color="#91F27F"/>
            <stop offset="100%" stop-color="#00B302"/>
        </linearGradient>
        <linearGradient id="riae84p9hv" x1="59.678%" x2="-4.493%" y1="28.171%" y2="149.864%">
            <stop offset="0%" stop-color="#91F27F"/>
            <stop offset="100%" stop-color="#00B302"/>
        </linearGradient>
        <linearGradient id="z4vah10ivw" x1="55.876%" x2="23.779%" y1="38.563%" y2="99.311%">
            <stop offset="0%" stop-color="#4AB272"/>
            <stop offset="100%" stop-color="#077565"/>
        </linearGradient>
        <linearGradient id="f4h34yrxkx" x1="45.9%" x2="96.446%" y1="58.609%" y2="-52.155%">
            <stop offset="0%" stop-color="#92F37F" stop-opacity="0"/>
            <stop offset="100%" stop-color="#FFEE83"/>
        </linearGradient>
        <linearGradient id="fn44x32wfy" x1="56.869%" x2="25.024%" y1="38.101%" y2="91.44%">
            <stop offset="0%" stop-color="#91F27F"/>
            <stop offset="100%" stop-color="#00B302"/>
        </linearGradient>
        <linearGradient id="oej5b253cz" x1="54.663%" x2="34.718%" y1="94.918%" y2="-81.88%">
            <stop offset="0%" stop-color="#92F37F"/>
            <stop offset="100%" stop-color="#4AB272"/>
        </linearGradient>
        <linearGradient id="pop0qrrzyA" x1="51.106%" x2="42.876%" y1="43.504%" y2="-22.057%">
            <stop offset="0%" stop-color="#4AB272" stop-opacity="0"/>
            <stop offset="100%" stop-color="#009245"/>
        </linearGradient>
        <linearGradient id="k9qfky4wvB" x1="48.561%" x2="55.23%" y1="41.495%" y2="102.436%">
            <stop offset="0%" stop-color="#4AB272"/>
            <stop offset="100%" stop-color="#077565"/>
        </linearGradient>
        <linearGradient id="0jkofwer6C" x1="51.174%" x2="32.348%" y1="26.138%" y2="162.32%">
            <stop offset="0%" stop-color="#91F27F"/>
            <stop offset="100%" stop-color="#00B302"/>
        </linearGradient>
        <linearGradient id="9oljxaf2cD" x1="51.278%" x2="32.452%" y1="26.545%" y2="162.732%">
            <stop offset="0%" stop-color="#91F27F"/>
            <stop offset="100%" stop-color="#00B302"/>
        </linearGradient>
        <linearGradient id="6zs7qcxpcE" x1="51.003%" x2="32.176%" y1="26.18%" y2="162.367%">
            <stop offset="0%" stop-color="#91F27F"/>
            <stop offset="100%" stop-color="#00B302"/>
        </linearGradient>
        <linearGradient id="3whdu1fgwF" x1="51.104%" x2="32.277%" y1="26.587%" y2="162.774%">
            <stop offset="0%" stop-color="#91F27F"/>
            <stop offset="100%" stop-color="#00B302"/>
        </linearGradient>
        <linearGradient id="ck4v6stg3G" x1="22.969%" x2="79.695%" y1="17.392%" y2="85.821%">
            <stop offset="0%" stop-color="#8A7889"/>
            <stop offset="100%" stop-color="#6E566E"/>
        </linearGradient>
        <linearGradient id="c2b59e1wlH" x1="96.302%" x2="41.615%" y1="76.638%" y2="-13.877%">
            <stop offset="0%" stop-color="#6E566E" stop-opacity="0"/>
            <stop offset="21.91%" stop-color="#685168" stop-opacity=".219"/>
            <stop offset="100%" stop-color="#564357"/>
        </linearGradient>
        <linearGradient id="zlno82fb3I" x1="46.855%" x2="56.891%" y1="35.575%" y2="74.78%">
            <stop offset="0%" stop-color="#FF7044"/>
            <stop offset="100%" stop-color="#F82814"/>
        </linearGradient>
        <linearGradient id="kwxm8cjdqJ" x1="72.52%" x2="37.458%" y1="73.701%" y2="51.179%">
            <stop offset="0%" stop-color="#F82814" stop-opacity="0"/>
            <stop offset="100%" stop-color="#C0272D"/>
        </linearGradient>
        <linearGradient id="kyqg64426L" x1="59.73%" x2="-7.278%" y1="59.73%" y2="-7.277%">
            <stop offset="0%" stop-color="#FFD945" stop-opacity="0"/>
            <stop offset="100%" stop-color="#FBED21"/>
        </linearGradient>
        <linearGradient id="sgfrrua7gM" x1="69.639%" x2="167.966%" y1="49.198%" y2="-34.027%">
            <stop offset="0%" stop-color="#E87264" stop-opacity="0"/>
            <stop offset="100%" stop-color="#FF7044"/>
        </linearGradient>
        <linearGradient id="zvnwzk5e9N" x1="50.002%" x2="50.002%" y1="62.965%" y2="-38.511%">
            <stop offset="0%" stop-color="#FFF" stop-opacity="0"/>
            <stop offset="100%" stop-color="#FFF"/>
        </linearGradient>
        <radialGradient id="regt2waqxK" cx="35.601%" cy="30.798%" r="62.3%" fx="35.601%" fy="30.798%">
            <stop offset="0%" stop-color="#FFD945"/>
            <stop offset="41.69%" stop-color="#FFD744"/>
            <stop offset="62.78%" stop-color="#FFCF3F"/>
            <stop offset="79.26%" stop-color="#FFC237"/>
            <stop offset="93.26%" stop-color="#FFAF2C"/>
            <stop offset="100%" stop-color="#FFA325"/>
        </radialGradient>
    </defs>
    <g fill="none">
        <path fill="url(#ytm74jf6ja)" d="M66.95 67H4.05C1.814 67 0 65.184 0 62.943V25.729C0 19.251 5.243 14 11.711 14H66.95C69.186 14 71 15.817 71 18.057v44.886C71 65.183 69.186 67 66.95 67z"/>
        <path fill="url(#pu48zlqr1b)" d="M66.95 67H4.05C1.814 67 0 65.184 0 62.943V25.729C0 19.251 5.243 14 11.711 14H66.95C69.186 14 71 15.817 71 18.057v44.886C71 65.183 69.186 67 66.95 67z"/>
        <g transform="translate(30 4)">
            <path fill="url(#xai9tsd8gc)" d="M.081 50.484L.198 1.525C.199.731.852.088 1.655.09l25.836.06c.803.002 1.453.647 1.45 1.442l-.115 48.96c-.002.794-.655 1.436-1.458 1.434l-25.836-.06C.73 51.924.08 51.28.082 50.484z"/>
            <path fill="url(#y27nx7fsgd)" d="M1.08 49.423l.112-46.831c.001-.75.617-1.355 1.374-1.354l24.008.056c.758.002 1.37.61 1.369 1.36l-.111 46.83c-.002.75-.618 1.356-1.375 1.354l-24.008-.056c-.758-.001-1.37-.61-1.368-1.36z"/>
            <path fill="url(#ym16555zye)" d="M20.042 47.622c.006-2.401 1.978-4.343 4.405-4.338.1 0 .2.004.297.01.47.034.87-.333.872-.8l.078-32.86c0-.467-.398-.835-.868-.805-.098.007-.197.01-.297.01-2.427-.006-4.39-1.957-4.385-4.358v-.009c.002-.45-.356-.822-.812-.823l-9.535-.022c-.456-.001-.815.368-.816.82v.008c-.005 2.4-1.978 4.343-4.405 4.337-.1 0-.199-.004-.297-.01-.47-.033-.87.333-.871.8l-.078 32.86c-.001.467.397.836.868.805.097-.006.196-.01.296-.01 2.428.007 4.39 1.958 4.385 4.359v.008c-.002.451.356.822.812.823l9.535.022c.456.001.816-.368.816-.819v-.008z"/>
            <ellipse cx="14.512" cy="26.038" fill="url(#kuywtr712f)" rx="10.013" ry="9.904"/>
            <path fill="url(#lujrwzb0og)" d="M20.548 29.941c.238-.15.437-.441.596-.875.17-.467.287-.966.352-1.494.018-.028.034-.057.048-.086l.85-.78c.09-.123.137-.255.137-.397 0-.155-.045-.288-.136-.398-.091-.11-.195-.165-.313-.165l-.568-.002c-.115-1.046-.465-1.922-1.051-2.627-.586-.705-1.446-1.06-2.58-1.062-.404 0-.773.043-1.105.133-.333.09-.623.238-.871.444-.248.206-.46.402-.637.59l-.004.003-2.47 2.432-.07.067-3.277-.008c.041-.572.192-1.076.454-1.51.261-.436.506-.778.735-1.027.229-.249.343-.45.344-.603 0-.231-.123-.437-.37-.617-.248-.18-.495-.27-.742-.271-.396-.001-.787.219-1.172.66l-8.57 8.436-.046 19.305 20.466-20.148z"/>
            <path fill="url(#4rfh0qfcch)" d="M9.87 21.688c.247 0 .494.09.741.271.248.18.371.386.37.617 0 .153-.115.354-.343.603-.23.25-.474.59-.735 1.026-.262.436-.413.94-.454 1.511l4.593.011c.145-.387.26-.684.345-.89.085-.207.21-.481.373-.823.163-.342.334-.606.51-.793.176-.187.389-.383.637-.59.248-.206.538-.354.87-.443.333-.09.701-.134 1.105-.133 1.134.003 1.995.356 2.58 1.062.587.705.937 1.581 1.052 2.627l.568.002c.118 0 .222.055.313.165.09.11.136.242.136.398 0 .142-.047.274-.138.396-.092.123-.196.184-.314.184l-.529-.002c-.028.788-.163 1.514-.406 2.179-.244.664-.58.996-1.011.995-.235 0-.48-.08-.734-.236-.255-.157-.381-.366-.38-.626 0-.103.111-.386.334-.848.223-.462.355-.952.395-1.468l-3.969-.01c-.197.514-.383.94-.56 1.28-.177.34-.422.7-.736 1.078-.313.378-.708.663-1.184.854-.476.192-1.034.287-1.672.286-1.167-.003-2.093-.32-2.78-.951-.686-.631-1.107-1.486-1.262-2.565l-.654-.002c-.115 0-.217-.062-.307-.185s-.134-.255-.134-.397c0-.155.046-.288.135-.397.09-.11.193-.164.309-.164l.595.001c.016-1.123.278-2.075.787-2.855.51-.78 1.027-1.17 1.553-1.168zm8.203 2.286c-.508-.002-.896.154-1.164.467-.268.312-.52.781-.756 1.407l3.561.009c-.154-1.254-.7-1.881-1.64-1.883zm-8.587 2.77c.206 1.136.85 1.706 1.931 1.709.573 0 1.023-.147 1.35-.443.326-.296.607-.715.843-1.257l-4.124-.01z"/>
            <g transform="translate(3.299 2.837)">
                <g>
                    <path fill="url(#28xk8qon2i)" d="M2.198 4.17C1.05 4.169.121 3.246.124 2.11.127.973 1.06.054 2.208.057c1.148.002 2.077.925 2.074 2.06-.003 1.137-.936 2.055-2.084 2.053z" transform="translate(18.07)"/>
                    <path fill="url(#shmikblotj)" d="M2.098 46.386C.95 46.383.021 45.461.024 44.325c.003-1.136.936-2.054 2.084-2.052 1.148.003 2.077.926 2.074 2.061-.003 1.136-.936 2.055-2.084 2.052z" transform="translate(18.07)"/>
                </g>
                <ellipse cx="2.253" cy="2.072" fill="url(#ws3x175d0k)" rx="2.079" ry="2.056"/>
                <ellipse cx="2.152" cy="44.288" fill="url(#dqjucn91sl)" rx="2.079" ry="2.056"/>
            </g>
        </g>
        <g transform="translate(15)">
            <path fill="url(#0on64r389m)" d="M16.75 56.964L.113 10.574c-.27-.752.124-1.58.88-1.849L25.329.085c.756-.269 1.588.124 1.858.876l16.636 46.39c.27.753-.125 1.58-.881 1.85l-24.333 8.64c-.757.268-1.589-.124-1.859-.877z"/>
            <path fill="url(#rblpagv8xn)" d="M17.326 55.622L1.414 11.25c-.254-.71.117-1.491.83-1.745l22.613-8.029c.713-.253 1.498.117 1.752.827l15.912 44.373c.255.71-.117 1.49-.83 1.744l-22.612 8.03c-.713.253-1.498-.118-1.753-.828z"/>
            <path fill="url(#lvi16o00no)" d="M34.554 47.535c-.816-2.276.376-4.778 2.662-5.59.094-.033.188-.063.283-.09.454-.127.705-.609.546-1.05L26.88 9.667c-.159-.442-.66-.657-1.092-.47-.09.04-.182.076-.276.11-2.286.811-4.8-.375-5.617-2.65 0-.003-.002-.006-.003-.008-.152-.428-.616-.659-1.045-.506l-8.98 3.189c-.43.152-.642.623-.488 1.05 0 .003.002.005.003.008.816 2.275-.376 4.777-2.663 5.59-.094.033-.188.063-.282.09-.454.127-.705.608-.547 1.05l11.166 31.137c.158.442.66.656 1.091.469.09-.039.183-.075.276-.109 2.287-.812 4.801.375 5.617 2.65l.003.008c.153.427.616.658 1.046.506l8.98-3.19c.43-.152.642-.623.488-1.05l-.003-.007z"/>
            <ellipse cx="21.968" cy="28.963" fill="url(#fesbse14ep)" rx="10.013" ry="9.964"/>
            <path fill="url(#b264k71zzq)" d="M28.983 30.626c.173-.223.26-.565.262-1.03 0-.5-.06-1.01-.18-1.532.007-.033.013-.066.015-.098l.533-1.025c.044-.147.042-.287-.006-.422-.053-.147-.14-.257-.264-.33-.123-.074-.24-.091-.351-.052l-.535.19c-.466-.952-1.095-1.663-1.888-2.133-.793-.471-1.723-.516-2.791-.137-.38.135-.712.301-.994.498-.283.197-.505.434-.668.713-.163.278-.296.536-.398.772l-.002.006-1.492 3.133-.044.087-3.086 1.096c-.158-.555-.188-1.083-.09-1.583.097-.5.21-.906.34-1.219.13-.313.17-.541.118-.687-.079-.219-.265-.372-.56-.46-.294-.087-.558-.089-.79-.006-.374.132-.666.472-.878 1.018l-5.179 10.872 6.56 18.292 12.368-25.963z"/>
            <path fill="url(#31j5v2pgor)" d="M16.111 26.407c.234-.083.497-.08.791.007.295.087.481.24.56.46.052.145.013.374-.117.686-.13.313-.244.719-.341 1.22-.098.5-.067 1.027.09 1.582l4.326-1.536c.003-.415.01-.735.02-.959.009-.224.032-.525.07-.904.036-.379.106-.686.208-.922.102-.237.235-.494.398-.773.163-.279.385-.516.667-.713.283-.197.614-.363.995-.498 1.068-.38 1.998-.334 2.79.137.793.47 1.423 1.181 1.889 2.133l.535-.19c.11-.039.227-.022.35.052.124.073.212.183.265.33.048.134.05.275.006.422-.045.147-.122.24-.233.28l-.498.176c.243.755.364 1.488.362 2.2-.001.71-.205 1.138-.61 1.282-.222.079-.48.087-.772.024-.293-.063-.484-.218-.572-.465-.035-.097-.027-.403.025-.915.052-.513.009-1.02-.13-1.523l-3.738 1.327c-.01.553-.04 1.02-.09 1.4-.05.382-.158.804-.324 1.268-.165.464-.44.866-.822 1.208-.382.341-.875.62-1.476.833-1.098.39-2.079.402-2.94.035-.862-.366-1.55-1.034-2.065-2.004l-.617.22c-.108.038-.226.014-.352-.072-.126-.087-.214-.197-.262-.331-.052-.147-.055-.288-.008-.422s.125-.22.234-.259l.561-.199c-.37-1.07-.448-2.059-.236-2.968.211-.91.565-1.453 1.061-1.629zm8.502-.598c-.479.17-.79.448-.936.834-.145.386-.222.915-.23 1.587l3.354-1.19c-.573-1.135-1.302-1.545-2.188-1.23zm-7.133 5.513c.582 1.007 1.383 1.33 2.401.968.54-.191.913-.483 1.119-.873.206-.39.327-.882.364-1.474l-3.884 1.379z"/>
            <g>
                <g>
                    <path fill="url(#mk3nkj8x7s)" d="M2.899 4.045C1.817 4.429.628 3.867.242 2.79-.144 1.715.42.531 1.502.148c1.08-.384 2.27.177 2.656 1.253.386 1.076-.178 2.26-1.26 2.644z" transform="translate(4.16 3.853) translate(16.923)"/>
                    <path fill="url(#faw1tkscht)" d="M17.242 44.044c-1.08.384-2.27-.177-2.656-1.253-.386-1.076.178-2.26 1.259-2.644 1.081-.384 2.271.178 2.657 1.254.386 1.076-.178 2.26-1.26 2.643z" transform="translate(4.16 3.853) translate(16.923)"/>
                </g>
                <g transform="translate(4.16 3.853) translate(0 5.994)">
                    <ellipse cx="2.15" cy="2.129" fill="url(#umtqukl0ou)" rx="2.079" ry="2.069"/>
                    <path fill="url(#riae84p9hv)" d="M17.193 44.077c-1.081.384-2.271-.177-2.657-1.253-.386-1.076.178-2.26 1.26-2.644 1.08-.384 2.27.177 2.656 1.254.386 1.076-.178 2.26-1.26 2.643z"/>
                </g>
            </g>
        </g>
        <g transform="translate(2 1)">
            <path fill="url(#z4vah10ivw)" d="M31.619 56.416L.44 18.646c-.506-.612-.417-1.517.198-2.02L20.443.425c.616-.504 1.525-.416 2.031.197l31.178 37.77c.506.612.417 1.517-.199 2.02l-19.804 16.2c-.615.504-1.524.415-2.03-.197z"/>
            <path fill="url(#f4h34yrxkx)" d="M31.705 54.97L1.882 18.843c-.477-.578-.393-1.432.188-1.907L20.473 1.883c.58-.475 1.438-.392 1.915.186L52.21 38.196c.477.578.393 1.432-.187 1.907L33.62 55.156c-.58.475-1.438.392-1.915-.186z"/>
            <path fill="url(#fn44x32wfy)" d="M45.06 41.66c-1.528-1.852-1.26-4.588.602-6.11.076-.062.154-.122.233-.178.38-.27.453-.805.156-1.164L25.125 8.858c-.298-.36-.837-.393-1.178-.074-.07.066-.144.131-.22.193-1.862 1.523-4.61 1.255-6.139-.597l-.005-.007c-.286-.348-.797-.409-1.147-.123l-7.309 5.979c-.35.286-.389.796-.1 1.144l.005.006c1.529 1.852 1.26 4.588-.6 6.11-.077.062-.155.122-.234.178-.381.271-.453.805-.156 1.164l20.926 25.35c.298.36.837.394 1.178.074.07-.066.144-.13.22-.193 1.862-1.523 4.61-1.255 6.139.597l.005.007c.287.348.797.409 1.147.123l7.309-5.979c.35-.286.389-.796.1-1.144l-.005-.006z"/>
            <ellipse cx="27.046" cy="28.52" fill="url(#oej5b253cz)" rx="9.934" ry="9.889"/>
            <path fill="url(#pop0qrrzyA)" d="M34.157 27.729c.086-.266.052-.615-.103-1.049-.168-.467-.397-.924-.685-1.371-.004-.034-.01-.066-.018-.097l.151-1.135c-.008-.152-.057-.283-.148-.392-.098-.12-.218-.193-.358-.22-.14-.028-.255-.005-.345.069l-.435.356c-.756-.733-1.584-1.188-2.482-1.362-.9-.175-1.783.094-2.653.805-.31.253-.563.519-.76.797-.197.278-.325.575-.383.89-.058.314-.095.599-.11.854v.005l-.337 3.425-.012.097-2.511 2.054c-.335-.466-.54-.949-.618-1.449-.078-.5-.11-.916-.093-1.252.016-.335-.025-.562-.122-.68-.148-.179-.373-.26-.678-.243-.304.017-.55.103-.74.258-.304.248-.462.663-.476 1.244l-1.168 11.885L31.367 56.11l2.79-28.382z"/>
            <path fill="url(#k9qfky4wvB)" d="M20.717 28.09c.19-.156.436-.242.74-.259.305-.016.53.064.678.243.097.118.138.345.122.68-.016.336.015.753.093 1.252.077.5.283.983.618 1.449l3.52-2.88c-.136-.389-.238-.69-.304-.902-.067-.213-.147-.502-.24-.868s-.132-.677-.116-.931c.015-.255.052-.54.11-.854.058-.315.186-.612.383-.89.198-.278.45-.543.76-.797.87-.71 1.754-.98 2.653-.805.898.175 1.726.629 2.482 1.362l.435-.356c.09-.074.205-.097.345-.07.14.028.26.101.358.22.09.11.14.241.148.393.008.152-.033.265-.123.339l-.405.331c.481.624.841 1.269 1.08 1.933.238.665.193 1.132-.138 1.402-.18.148-.418.24-.712.28-.295.04-.525-.042-.691-.243-.065-.079-.16-.367-.285-.863-.125-.496-.336-.956-.635-1.379l-3.043 2.489c.178.519.307.965.389 1.338.082.372.124.803.125 1.292.002.488-.118.956-.36 1.402-.242.447-.608.871-1.097 1.271-.894.732-1.806 1.07-2.734 1.016-.928-.054-1.796-.448-2.603-1.181l-.502.41c-.088.072-.206.089-.353.05-.147-.038-.266-.112-.356-.221-.099-.12-.149-.25-.15-.39-.001-.142.042-.249.131-.321l.457-.374c-.706-.875-1.113-1.772-1.222-2.693-.11-.92.038-1.546.442-1.876zm7.735-3.4c-.39.319-.587.683-.592 1.092-.005.409.102.928.321 1.559l2.73-2.233c-.919-.868-1.738-1.007-2.459-.418zm-4.8 7.533c.883.745 1.74.78 2.569.101.44-.36.69-.756.75-1.189.06-.433.008-.933-.158-1.498l-3.161 2.586z"/>
            <g>
                <g transform="translate(4.553 4.533) translate(13.802)">
                    <ellipse cx="2.156" cy="2.054" fill="url(#0jkofwer6C)" rx="2.063" ry="2.053"/>
                    <ellipse cx="29.04" cy="34.62" fill="url(#9oljxaf2cD)" rx="2.063" ry="2.053"/>
                </g>
                <g transform="translate(4.553 4.533) translate(0 11.19)">
                    <ellipse cx="2.145" cy="2.164" fill="url(#6zs7qcxpcE)" rx="2.063" ry="2.053"/>
                    <ellipse cx="29.028" cy="34.73" fill="url(#3whdu1fgwF)" rx="2.063" ry="2.053"/>
                </g>
            </g>
        </g>
        <path fill="url(#ck4v6stg3G)" d="M61.942 72H4.058C1.817 72 0 70.181 0 67.938V27.062C0 24.82 1.817 23 4.058 23h57.884C64.183 23 66 24.819 66 27.062v40.876C66 70.18 64.183 72 61.942 72z"/>
        <path fill="url(#c2b59e1wlH)" d="M66 68L66 54 52 54z"/>
        <path fill="url(#zlno82fb3I)" d="M53.086 41.32c-1.152 0-2.086.926-2.086 2.068v8.544c0 1.142.934 2.068 2.086 2.068h8.959c3.284 0 6.392-1.473 8.455-4.007l.592-.727c.588-.722.908-1.622.908-2.55v-8.878c0-.789-1-1.14-1.5-.525-2.063 2.534-5.171 4.007-8.455 4.007h-8.96z"/>
        <path fill="url(#kwxm8cjdqJ)" d="M67 51.875v-.031l-7.325-7.415C58.865 43.55 57.713 43 56.432 43 53.984 43 52 45.009 52 47.487c0 1.296.544 2.463 1.412 3.282L56.604 54h8.297C66.06 54 67 53.049 67 51.875z"/>
        <g transform="translate(52 43)">
            <circle cx="4.533" cy="4.539" r="4.425" fill="url(#regt2waqxK)"/>
            <path fill="url(#kyqg64426L)" d="M8.483 4.54c0 2.18-1.768 3.95-3.95 3.95-2.182 0-3.95-1.77-3.95-3.95C.583 2.357 2.35.59 4.533.59c2.181 0 3.95 1.768 3.95 3.95z"/>
            <path fill="url(#sgfrrua7gM)" d="M6.512.58c.299.596.467 1.269.467 1.98 0 2.444-1.981 4.426-4.425 4.426-.712 0-1.384-.169-1.98-.467.727 1.45 2.227 2.446 3.959 2.446 2.444 0 4.425-1.982 4.425-4.426 0-1.732-.995-3.232-2.446-3.958z"/>
            <path fill="url(#zvnwzk5e9N)" d="M7.525 2.645c0 1.136-1.34 2.056-2.992 2.056-1.653 0-2.992-.92-2.992-2.056C1.54 1.51 2.88.59 4.533.59c1.653 0 2.992.92 2.992 2.056z"/>
        </g>
    </g>
</svg>
