<svg xmlns="http://www.w3.org/2000/svg" width="24" height="24" viewBox="0 0 24 24">
    <path fill="#EE3B49" fill-rule="evenodd" d="M14.71 11.16c.38-.487 1.2-.487 1.58 0l7 9c.234.3.276.71.109 1.053-.168.343-.517.56-.9.56h-21c-.381 0-.73-.217-.897-.56-.168-.343-.126-.752.109-1.053l5.213-6.703c.379-.487 1.2-.487 1.579 0l2.71 3.485zm.79 2.243l-4.497 5.782c-.19.243-.481.386-.79.386-.308 0-.6-.143-.79-.386L6.714 15.7l-3.168 4.074h16.91L15.5 13.403zm2.086-10.105c.491 0 .889.397.889.888v1.511h1.51c.492 0 .89.397.89.889 0 .245-.1.468-.261.628-.16.161-.383.26-.629.26h-1.51v1.511c0 .246-.1.468-.26.629-.161.16-.384.26-.63.26-.49 0-.888-.397-.888-.889v-1.51h-1.51c-.492 0-.89-.398-.89-.89 0-.49.398-.888.89-.888h1.51v-1.51c0-.492.397-.89.889-.89z"/>
</svg>
