<svg xmlns="http://www.w3.org/2000/svg" width="24" height="24" viewBox="0 0 24 24">
    <g fill="none" fill-rule="evenodd">
        <circle cx="12" cy="12" r="12" fill="#05CBE5" fill-rule="nonzero"/>
        <g fill="#FFF">
            <path d="M5.689 15.843l.615-1.262c.864 2.148 2.76 3.695 5.07 4.011.284.039.565.058.844.058 3.162 0 5.923-2.438 6.35-5.777.048-.383-.208-.735-.572-.787a.674.674 0 0 0-.75.602c-.366 2.87-2.924 4.895-5.7 4.516-1.776-.244-3.231-1.408-3.941-3.028l1.179.615c.329.172.73.032.893-.315a.716.716 0 0 0-.3-.939l-2.649-1.384a.653.653 0 0 0-.89.308l-1.336 2.745a.718.718 0 0 0 .29.942.644.644 0 0 0 .303.077c.242 0 .476-.14.594-.382M19.172 7.083a.654.654 0 0 0-.878.36l-.528 1.265c-.979-1.777-2.698-3.024-4.713-3.3-3.107-.429-6.113 1.603-6.99 4.72-.105.37.097.76.45.87.353.11.723-.102.828-.473.693-2.463 3.075-4.066 5.54-3.73 1.537.212 2.863 1.131 3.65 2.453l-1.265-.568a.656.656 0 0 0-.876.37.713.713 0 0 0 .352.918l2.723 1.221a.644.644 0 0 0 .261.056.666.666 0 0 0 .611-.42l1.178-2.82a.714.714 0 0 0-.343-.922"/>
        </g>
    </g>
</svg>
