<svg xmlns="http://www.w3.org/2000/svg" width="24" height="24" viewBox="0 0 24 24">
    <g fill="none" fill-rule="evenodd">
        <circle cx="12" cy="12" r="12" fill="#FFF" fill-rule="nonzero"/>
        <g fill="#05CBE5">
            <path d="M1.689 10.843l.615-1.262c.864 2.148 2.76 3.695 5.07 4.011.284.039.565.058.844.058 3.162 0 5.923-2.438 6.35-5.777.048-.383-.208-.735-.572-.787-.366-.049-.701.218-.75.602-.366 2.87-2.924 4.895-5.7 4.516-1.776-.244-3.231-1.408-3.941-3.028l1.179.615c.329.172.73.032.893-.315.165-.346.03-.766-.3-.939L2.729 7.153c-.326-.169-.724-.033-.89.308L.502 10.206c-.168.345-.038.766.29.942.097.052.2.077.303.077.242 0 .476-.14.594-.382M15.172 2.083c-.337-.155-.73.006-.878.36l-.528 1.265C12.787 1.93 11.068.684 9.053.408 5.946-.021 2.94 2.01 2.063 5.128c-.105.37.097.76.45.87.353.11.723-.102.828-.473.693-2.463 3.075-4.066 5.54-3.73 1.537.212 2.863 1.131 3.65 2.453l-1.265-.568c-.34-.152-.73.014-.876.37-.144.355.013.766.352.918l2.723 1.221c.085.038.174.056.261.056.257 0 .502-.157.611-.42l1.178-2.82c.148-.354-.005-.767-.343-.922" transform="translate(4 5)"/>
        </g>
    </g>
</svg>
