<svg xmlns="http://www.w3.org/2000/svg" width="24" height="24" viewBox="0 0 24 24">
    <path fill="#05CBE5" fill-rule="evenodd" d="M3.458 5.345a.987.987 0 0 1 .954-.071l12.842 5.811H3v-4.9c0-.346.167-.653.458-.84zm.95 13.567a.98.98 0 0 1-.952-.074.982.982 0 0 1-.456-.839v-4.914h14.429L4.408 18.912zm-2.039 1.605a2.988 2.988 0 0 0 2.856.22l17.183-7.689a1 1 0 0 0 .592-.911c0-.01-.004-.02-.004-.03 0-.008.004-.014.004-.022 0-.045-.02-.084-.026-.127-.008-.044-.012-.089-.026-.131a.975.975 0 0 0-.757-.703L5.237 3.452a2.988 2.988 0 0 0-2.863.212A2.989 2.989 0 0 0 1 6.185v11.814c0 1.021.512 1.962 1.369 2.518z"/>
</svg>
