<svg xmlns="http://www.w3.org/2000/svg" width="24" height="24" viewBox="0 0 24 24">
    <g fill="#000" fill-rule="evenodd">
        <path d="M4.49 13.094l-1.354 1.354V4.318c0-.552.449-1 1-1h11c.55 0 1 .448 1 1V11.8c0 .552-.45 1-1 1H5.198c-.265 0-.52.106-.707.293zM15.137 14.8c1.654 0 3-1.346 3-3V4.318c0-1.655-1.346-3-3-3h-11c-1.654 0-3 1.345-3 3v12.545a1 1 0 0 0 1.707.707l2.769-2.77h9.524z"/>
        <path d="M21.865 22.683a1 1 0 0 0 1-1V8.328a3.003 3.003 0 0 0-3-3 1 1 0 1 0 0 2 1 1 0 0 1 1 1v10.94l-.77-.77a2.981 2.981 0 0 0-2.121-.877H8.136c-.552 0-1-.45-1-1v-.008a.995.995 0 0 0-1-.995c-.552 0-1 .45-1 1.003a3.003 3.003 0 0 0 3 2.999h9.838c.267 0 .518.105.707.293l2.477 2.477a1 1 0 0 0 .707.293"/>
    </g>
</svg>
