<svg xmlns="http://www.w3.org/2000/svg" width="40" height="40" viewBox="0 0 40 40">
    <g fill="none" fill-rule="evenodd" transform="translate(11.667 5)">
        <path fill="#000" d="M10 30.098c0 .901-.746 1.631-1.666 1.631-.92 0-1.667-.73-1.667-1.63V16.632c0-.901.747-1.633 1.667-1.633S10 15.732 10 16.633v13.465z"/>
        <circle cx="8.333" cy="8.333" r="6.667" fill="#05CBE5"/>
        <path fill="#000" d="M8.333 0c4.603 0 8.334 3.731 8.334 8.333 0 4.603-3.731 8.334-8.334 8.334C3.731 16.667 0 12.936 0 8.333 0 3.731 3.731 0 8.333 0zm0 3.333c-2.761 0-5 2.239-5 5 0 2.762 2.239 5 5 5 2.762 0 5-2.238 5-5 0-2.761-2.238-5-5-5z"/>
    </g>
</svg>
