<svg xmlns="http://www.w3.org/2000/svg" width="24" height="24" viewBox="0 0 24 24">
    <path fill="#000" fill-rule="evenodd" d="M18.329 20.25c0 .551-.45 1-1 1h-1.241c-.552 0-1-.449-1-1v-2.253c0-1.654-1.346-3-3-3h-.255c-1.655 0-3 1.346-3 3v2.253c0 .551-.45 1-1 1H6.59c-.551 0-1-.449-1-1V9.384L12 3.597l6.329 5.715V20.25zm-5.66-18.742a.999.999 0 0 0-1.34 0L4.035 8.095a.965.965 0 0 0-.21.189L.33 11.44a1 1 0 1 0 1.34 1.484l1.92-1.735v9.061c0 1.654 1.347 3 3 3h1.243c1.654 0 3-1.346 3-3v-2.253c0-.551.448-1 1-1h.255c.55 0 1 .449 1 1v2.253c0 1.654 1.346 3 3 3h1.24c1.655 0 3-1.346 3-3v-9.132l2.002 1.806a.995.995 0 0 0 1.412-.072 1 1 0 0 0-.072-1.412l-11-9.932z"/>
</svg>
