<svg xmlns="http://www.w3.org/2000/svg" xmlns:xlink="http://www.w3.org/1999/xlink" width="24" height="24" viewBox="0 0 24 24">
    <defs>
        <path id="a" d="M17.448.258c-.423-.184-.99-.184-1.501.053a1.999 1.999 0 0 0-.8.67c-1.056 1.485-2.143 6.501-2.143 6.501a290.16 290.16 0 0 0-4.641-.048s1.34-4.105 1.936-5.25c.594-1.146 0-2.32-2.29-2.17-2.254.145-6.02.797-6.87 2.928-.006.02-.014.04-.021.058l-.018.044.003.001A1.832 1.832 0 0 0 1 3.646c0 .616.26 1.042.545 1.042a.336.336 0 0 0 .236-.095C2.8 3.694 3.604 3.03 6.303 2.96c-.591 1.326-1.207 3.125-1.751 4.972-1.99.545-3.031 1.563-3.031 2.25 0 .141.118.236.308.236.568 0 1.255-.095 2.107-.213-.497 2.083-.852 4.025-.852 5.161 0 1.445.023 2.297.804 2.297 1.327 0 2.723-.237 2.723-1.397 0-2.036.497-4.285 1.066-6.44.355-.023.686-.023 1.065-.023.592 0 2.32.07 3.718.118-.38 2.013-.616 3.86-.616 4.972 0 1.823.59 2.533 2.58 2.533.426 0 .948-.142.948-.663 0-2.755.544-6.23 1.079-9.282.548-2.87 1.13-4.787 1.55-5.862.258-.654-.043-1.139-.553-1.36"/>
    </defs>
    <g fill="none" fill-rule="evenodd" transform="rotate(-90 12.5 9.5)">
        <mask id="b" fill="#fff">
            <use xlink:href="#a"/>
        </mask>
        <use fill="#000" transform="rotate(90 9.548 8.831)" xlink:href="#a"/>
        <g fill="#000" mask="url(#b)">
            <path d="M-2-3h24v24H-2z"/>
        </g>
    </g>
</svg>
