<svg xmlns="http://www.w3.org/2000/svg" xmlns:xlink="http://www.w3.org/1999/xlink" width="24" height="24" viewBox="0 0 24 24">
    <defs>
        <path id="a" d="M0 24h24V0H0z"/>
    </defs>
    <g fill="none" fill-rule="evenodd">
        <path fill="#070707" d="M20 6.548H4V6c0-.551.449-1 1-1h14c.551 0 1 .449 1 1v.548zM20 20c0 .55-.449 1-1 1H5c-.551 0-1-.45-1-1V8.548h16V20zM19 3h-.878V2a1 1 0 0 0-2 0v1H7.878V2a1 1 0 1 0-2 0v1H5C3.346 3 2 4.346 2 6v14c0 1.654 1.346 3 3 3h14c1.654 0 3-1.346 3-3V6c0-1.654-1.346-3-3-3z"/>
        <mask id="b" fill="#fff">
            <use xlink:href="#a"/>
        </mask>
        <path fill="#070707" d="M15.315 18.315h2v-2h-2v2zm-1 2h4a1 1 0 0 0 1-1v-4a1 1 0 0 0-1-1h-4a1 1 0 0 0-1 1v4a1 1 0 0 0 1 1z" mask="url(#b)"/>
    </g>
</svg>
