<svg xmlns="http://www.w3.org/2000/svg" width="24" height="24" viewBox="0 0 24 24">
    <g fill="#000" fill-rule="evenodd">
        <path d="M12 12.751a.742.742 0 0 1-.73-.751c0-.414.328-.751.73-.751.402 0 .73.337.73.751a.742.742 0 0 1-.73.751m0-3.502c-1.505 0-2.73 1.234-2.73 2.751s1.225 2.751 2.73 2.751 2.73-1.234 2.73-2.751S13.505 9.249 12 9.249"/>
        <path d="M19.215 9.7l-1.368.78a1 1 0 0 0-.502.95c.012.15.023.3.023.454 0 .253-.024.5-.057.743-.053.397.136.788.48.993l1.38.821c.233.14.312.446.175.681l-1.078 1.854a.5.5 0 0 1-.689.178l-.886-.527c-.62-.37-1.415-.369-2.082.01-.665.38-1.062 1.042-1.062 1.774v1.09a.5.5 0 0 1-.5.5H10.95a.5.5 0 0 1-.5-.5v-1.093c0-.728-.389-1.396-1.015-1.744l-.182-.108a1.978 1.978 0 0 0-1.033-.29 2.01 2.01 0 0 0-.997.265l-.9.513a.498.498 0 0 1-.685-.192l-1.043-1.876a.5.5 0 0 1 .19-.676l1.39-.79c.347-.2.544-.587.498-.986a5.416 5.416 0 0 1-.013-1.203 1 1 0 0 0-.483-.96L4.83 9.558a.501.501 0 0 1-.176-.68l1.078-1.855a.498.498 0 0 1 .69-.177l.695.415a1.986 1.986 0 0 0 2.08-.016c.08-.05.162-.098.245-.145a1.987 1.987 0 0 0 1.008-1.742V4.5a.5.5 0 0 1 .5-.5h2.1a.5.5 0 0 1 .5.5v.856c0 .733.384 1.4 1.003 1.74.118.066.234.136.35.212.615.406 1.41.426 2.07.05l.704-.402a.492.492 0 0 1 .382-.047c.075.02.214.08.302.238l1.043 1.876a.5.5 0 0 1-.189.677zm.99 1.738a2.509 2.509 0 0 0 .947-3.387L20.11 6.175a2.486 2.486 0 0 0-1.512-1.193 2.49 2.49 0 0 0-1.91.236l-.685.42a12.503 12.503 0 0 0-.453-.282V4.5c0-1.379-1.12-2.5-2.5-2.5H10.95a2.503 2.503 0 0 0-2.5 2.5l.018.853c-.113.064-.225.13-.327.19l-.697-.416a2.473 2.473 0 0 0-1.906-.272 2.484 2.484 0 0 0-1.535 1.162L2.925 7.872a2.509 2.509 0 0 0 .881 3.405l.827.492v.115c0 .066 0 .133.002.2l-.84.477a2.511 2.511 0 0 0-.948 3.388l1.044 1.876a2.481 2.481 0 0 0 1.512 1.192 2.48 2.48 0 0 0 1.91-.235l.894-.52.243.146V19.5c0 1.38 1.122 2.5 2.5 2.5h2.1c1.378 0 2.5-1.12 2.5-2.5l.027-1.11.092-.045.887.528a2.477 2.477 0 0 0 1.906.271 2.48 2.48 0 0 0 1.534-1.162l1.08-1.854a2.51 2.51 0 0 0-.883-3.406l-.834-.497c.005-.105.008-.209.01-.31l.836-.477z"/>
    </g>
</svg>
