<svg xmlns="http://www.w3.org/2000/svg" width="24" height="24" viewBox="0 0 24 24">
    <g fill="#000" fill-rule="evenodd">
        <path d="M11.069 7.3a1 1 0 0 0 0-2H5.93a1 1 0 0 0 0 2h5.138zM18 5.3a1 1 0 1 0 0 2 1 1 0 0 0 0-2M15 5.3a1 1 0 1 0 0 2 1 1 0 0 0 0-2M5.93 11.028H18.07a1 1 0 0 0 0-2H5.93a1 1 0 0 0 0 2M5.93 14.653H18.07a1 1 0 0 0 0-2H5.93a1 1 0 0 0 0 2"/>
        <path d="M3.203 4.5c0-.551.448-1 1-1h15.594c.552 0 1 .449 1 1v11c0 .551-.448 1-1 1H7.03a2.98 2.98 0 0 0-2.121.879l-1.707 1.707V4.5zm-2 17a1.002 1.002 0 0 0 1.707.707l3.414-3.414a1.01 1.01 0 0 1 .707-.293h12.766c1.655 0 3-1.346 3-3v-11c0-1.654-1.345-3-3-3H4.203c-1.654 0-3 1.346-3 3v17z"/>
    </g>
</svg>
