<svg xmlns="http://www.w3.org/2000/svg" width="24" height="24" viewBox="0 0 24 24">
    <path fill="#EE3B49" fill-rule="evenodd" d="M16.546 13.609c-1.058 0-1.919-.86-1.919-1.919 0-1.059.861-1.919 1.92-1.919 1.057 0 1.918.86 1.918 1.919 0 1.059-.86 1.919-1.919 1.919m-8.508-.596c-1.288 0-2.336-1.048-2.336-2.336 0-1.287 1.048-2.335 2.336-2.335 1.288 0 2.335 1.048 2.335 2.335 0 1.288-1.047 2.336-2.335 2.336m12.427-1.323c0-2.161-1.758-3.919-3.919-3.919-2.16 0-3.919 1.758-3.919 3.919 0 .961.348 1.842.923 2.523-.147.058-.297.133-.445.2-.553-.294-1.174-.584-1.858-.823.7-.77 1.126-1.793 1.126-2.913 0-2.39-1.945-4.335-4.335-4.335-2.39 0-4.336 1.945-4.336 4.335 0 1.136.44 2.171 1.156 2.946-2.299.848-3.93 2.293-4.027 2.38-.41.369-.444.999-.076 1.41.368.412 1 .446 1.411.079.03-.026 2.877-2.554 5.988-2.478 3.145.053 6.008 2.468 6.037 2.492.188.161.42.24.65.24.282 0 .562-.118.76-.349.358-.419.311-1.049-.108-1.409-.02-.018-.123-.103-.269-.217.488-.12.964-.182 1.421-.161 2.705.046 5.18 2.129 5.204 2.15.188.161.42.24.65.24.281 0 .562-.119.76-.35.358-.419.31-1.049-.108-1.408-.086-.073-1.54-1.306-3.584-2.059.56-.678.898-1.547.898-2.493z"/>
</svg>
