<svg xmlns="http://www.w3.org/2000/svg" width="24" height="24" viewBox="0 0 24 24">
    <path fill="#EE3B49" fill-rule="evenodd" d="M3 10.048c0-1.594 1.252-2.903 2.824-2.994L6 7.048h2.125c.553 0 1 .448 1 1 0 .513-.385.936-.883.994l-.117.006H6c-.512 0-.935.388-.993.884L5 10.048V20c0 .512.387.936.884.994L6 21h12c.512 0 .935-.387.993-.883L19 20v-9.952c0-.511-.387-.935-.884-.993L18 9.048h-2.358c-.552 0-1-.448-1-1 0-.512.386-.935.883-.993l.117-.007H18c1.595 0 2.903 1.252 2.995 2.824l.005.176V20c0 1.595-1.252 2.904-2.824 2.995L18 23H6c-1.595 0-2.903-1.251-2.995-2.824L3 20v-9.952zM7.489 6.33c-.393-.325-.476-.886-.209-1.306l.074-.102L11.112.364c.19-.23.473-.364.772-.364.256 0 .5.098.684.271l.087.093 3.759 4.558c.153.186.228.412.228.635 0 .29-.124.575-.364.773-.393.324-.96.297-1.321-.044l-.086-.092-1.987-2.409v11.312c0 .552-.448 1-1 1-.513 0-.936-.386-.993-.883l-.007-.117V3.785l-1.987 2.41c-.351.425-.981.486-1.408.135z"/>
</svg>
