<svg xmlns="http://www.w3.org/2000/svg" width="140" height="140" viewBox="0 0 140 140">
    <g fill="none" fill-rule="evenodd">
        <path fill="#F45251" d="M92.619 46.846c2.184-1.711 45-36.324 45-36.324l-18.808 55L92.62 46.846"/>
        <path fill="#F45251" d="M53.619 36.14s22.367 5.712 22.864 5.367c.5-.348 62.136-30.985 62.136-30.985l-85 25.618"/>
        <path fill="#DD0F0E" d="M75.619 40.723l5.456 24.8L93.31 46.287l44.309-35.766-62 30.2"/>
        <path fill="#AC0C0B" d="M80.619 65.522l16-16.033-4.096-2.967-11.904 19"/>
        <path fill="#A2B4B9" d="M3.692 84.656a1.794 1.794 0 1 0-1.382-3.311 1.794 1.794 0 0 0 1.382 3.311zm4.32-.86a1.796 1.796 0 1 0-.024-3.592 1.796 1.796 0 0 0 .024 3.592zm3.358.884a1.797 1.797 0 0 0 2.312-1.052 1.793 1.793 0 0 0-1.052-2.308 1.795 1.795 0 1 0-1.26 3.36zm4.579 1.777c.804.58 1.928.396 2.508-.408a1.793 1.793 0 0 0-.408-2.504 1.792 1.792 0 0 0-2.504.404c-.58.804-.4 1.928.404 2.508zm4.716 3.74c.66.74 1.796.8 2.532.14.74-.66.8-1.796.14-2.536a1.796 1.796 0 0 0-2.536-.136c-.736.66-.8 1.796-.136 2.532zm1.71 4.566a1.795 1.795 0 1 0 3.248-1.528 1.795 1.795 0 0 0-3.248 1.528zm2.882 4.67a1.796 1.796 0 1 0 1.312-2.176 1.798 1.798 0 0 0-1.312 2.176zm.963 4.811a1.801 1.801 0 0 0 2.024 1.536 1.801 1.801 0 0 0 1.536-2.024 1.801 1.801 0 0 0-2.024-1.536 1.801 1.801 0 0 0-1.536 2.024zm-.006 5.934c.1.988.98 1.708 1.968 1.608.988-.1 1.704-.98 1.604-1.968a1.792 1.792 0 0 0-1.964-1.604c-.988.1-1.704.98-1.608 1.964zm1.008 5.068a1.795 1.795 0 1 0 3.556-.493 1.795 1.795 0 0 0-3.556.493zm1.054 6.254a1.795 1.795 0 1 0 3.448-1 1.795 1.795 0 0 0-3.448 1zm3.278 5.563a1.796 1.796 0 1 0 2.89-2.128 1.796 1.796 0 0 0-2.89 2.128zm3.74 3.587a1.791 1.791 0 0 0 2.355-.944 1.794 1.794 0 1 0-2.356.944zm6.634 1.144a1.796 1.796 0 0 0 .144-3.588 1.793 1.793 0 0 0-1.864 1.72 1.794 1.794 0 0 0 1.72 1.868zm5.77-1.14a1.794 1.794 0 1 0-1.394-3.307 1.794 1.794 0 0 0 1.394 3.307zm5.65-3.472c.656-.744.58-1.88-.164-2.532a1.797 1.797 0 0 0-2.368 2.7c.748.652 1.88.58 2.532-.168zm4.282-5.432a1.791 1.791 0 0 0-.88-2.38 1.791 1.791 0 0 0-2.38.88 1.79 1.79 0 0 0 .884 2.38c.9.416 1.964.02 2.376-.88zm1.116-5.338a1.795 1.795 0 0 0-3.492-.828 1.794 1.794 0 0 0 3.492.828zm1.046-6.294a1.796 1.796 0 0 0-3.584-.236 1.795 1.795 0 0 0 3.584.236zm-.012-5.35a1.788 1.788 0 0 0-2.008-1.548 1.794 1.794 0 1 0 .46 3.56 1.797 1.797 0 0 0 1.548-2.012zm-1.204-6.628a1.794 1.794 0 0 0-2.436-.716 1.794 1.794 0 0 0-.716 2.436 1.794 1.794 0 0 0 2.436.716 1.794 1.794 0 0 0 .716-2.436zm-6.718-2.93a1.796 1.796 0 1 0 1.932 1.648 1.799 1.799 0 0 0-1.932-1.648zm-5.588 5.312a1.794 1.794 0 1 0 3.458.957 1.794 1.794 0 0 0-3.458-.957zm1.064 7.145a1.794 1.794 0 0 0 3.332-1.332 1.797 1.797 0 0 0-2.332-1.004 1.797 1.797 0 0 0-1 2.336zm3.39 5.597c.7.704 1.836.708 2.54.012.704-.7.708-1.836.012-2.54a1.799 1.799 0 0 0-2.54-.012 1.799 1.799 0 0 0-.012 2.54zm11.404 2.526a1.795 1.795 0 0 0 1.664-1.916 1.801 1.801 0 0 0-1.92-1.664 1.799 1.799 0 0 0-1.664 1.92 1.795 1.795 0 0 0 1.92 1.66zm4.344-1.057a1.8 1.8 0 0 0 1.26-2.208 1.792 1.792 0 0 0-2.204-1.256 1.796 1.796 0 0 0 .944 3.464zm6.506-3.227a1.796 1.796 0 1 0-1.955-3.012 1.796 1.796 0 0 0 1.955 3.012zm4.518-3.517a1.794 1.794 0 0 0-2.992-1.976 1.79 1.79 0 0 0 .508 2.484 1.79 1.79 0 0 0 2.484-.508zm2.258-5.603a1.8 1.8 0 0 0-1.368-2.14 1.8 1.8 0 0 0-2.14 1.368 1.797 1.797 0 0 0 3.508.772zm.04-6.44a1.797 1.797 0 0 0-1.852-1.74 1.793 1.793 0 0 0-1.736 1.852 1.796 1.796 0 0 0 3.588-.112zm-1.034-6.299a1.794 1.794 0 1 0-3.52.703 1.794 1.794 0 0 0 3.52-.703zm-1.064-5.231a1.794 1.794 0 1 0-3.391 1.168 1.794 1.794 0 0 0 3.39-1.168zm-.906-5.56a1.797 1.797 0 0 0-3.58.292 1.793 1.793 0 0 0 1.936 1.64 1.793 1.793 0 0 0 1.644-1.932zm.002-3.764a1.792 1.792 0 0 0-1.7-1.884 1.792 1.792 0 0 0-1.884 1.7 1.792 1.792 0 0 0 1.7 1.884 1.792 1.792 0 0 0 1.884-1.7zm.926-5.57a1.795 1.795 0 1 0-3.435-1.045 1.795 1.795 0 0 0 3.435 1.045z"/>
    </g>
</svg>
