<svg xmlns="http://www.w3.org/2000/svg" xmlns:xlink="http://www.w3.org/1999/xlink" width="24" height="24" viewBox="0 0 24 24">
    <defs>
        <path id="apam8piyaa" d="M14.318 1.5c.377 0 .682.314.682.7v2.801c0 .387-.305.7-.682.7H12.25c-.11.761-.618 1.407-1.337 1.67.036 1.034.444 2.001 1.16 2.737.195.2.253.501.148.763-.106.261-.354.432-.63.432h-1.364c-.767 0-1.475-.262-2.045-.7v.276c0 .793.12 1.572.35 2.317.21.675.51 1.32.899 1.92.953 1.468 1.478 3.281 1.478 5.106v1.677c0 1.159-.918 2.101-2.045 2.101H2.045C.918 24 0 23.058 0 21.9v-1.953c0-3.365.96-6.751 2.727-9.553V9.202c0-1.158-.917-2.1-2.045-2.1-.377 0-.682-.314-.682-.7C0 3.698 2.141 1.5 4.773 1.5zM4.091 14.104H2.418c-.51 1.372-.843 2.823-.981 4.294h2.654v-4.294zm3.307 0H5.455v4.294h3.881c-.207-.905-.562-1.77-1.04-2.506-.366-.564-.666-1.164-.898-1.788zm-.57-2.801H3.779c-.277.451-.532.92-.764 1.4h3.984c-.091-.46-.15-.927-.171-1.4zm2.75-3.474l-1.34.458c.213.924 1.023 1.614 1.987 1.615-.349-.636-.568-1.339-.647-2.073zM10.91 2.9H4.773c-1.675 0-3.071 1.247-3.356 2.883 1.528.346 2.674 1.748 2.674 3.42v.7h2.727V7.801c0-.31.202-.58.48-.67l2.725-.932h.002l.418-.144c.279-.095.466-.362.466-.664V2.9zM20.25 6c.414 0 .75.336.75.75s-.336.75-.75.75-.75-.336-.75-.75.336-.75.75-.75zm-3-1.5c.414 0 .75.336.75.75s-.336.75-.75.75-.75-.336-.75-.75.336-.75.75-.75zm3-1.5c.414 0 .75.336.75.75s-.336.75-.75.75-.75-.336-.75-.75.336-.75.75-.75zm-6.614-.1h-1.363v1.4h1.363V2.9zm3.614-1.4c.414 0 .75.336.75.75s-.336.75-.75.75-.75-.336-.75-.75.336-.75.75-.75zm3-1.5c.414 0 .75.336.75.75s-.336.75-.75.75-.75-.336-.75-.75.336-.75.75-.75z"/>
    </defs>
    <g fill="none" fill-rule="evenodd" transform="translate(3)">
        <mask id="tbnlnt6kib" fill="#fff">
            <use xlink:href="#apam8piyaa"/>
        </mask>
        <use fill="#00B1C8" fill-rule="nonzero" xlink:href="#apam8piyaa"/>
        <g fill="#F2F3F0" mask="url(#tbnlnt6kib)">
            <path d="M0 0L24 0 24 24 0 24z" transform="translate(-3)"/>
        </g>
    </g>
</svg>
