<svg xmlns="http://www.w3.org/2000/svg" width="24" height="24" viewBox="0 0 24 24">
    <path fill="#EE3B49" d="M11.991 0c2.37 0 4.279 1.923 4.279 4.296v9.477C17.332 14.859 18 16.346 18 17.99c0 3.318-2.688 6.01-6 6.01-3.314 0-6-2.692-6-6.01 0-1.636.662-3.19 1.717-4.276V4.221C7.717 1.848 9.624 0 11.991 0zm0 1.714c-1.437 0-2.563 1.101-2.563 2.507v10.19l-.486.5c-.771.793-1.232 1.944-1.232 3.079 0 2.369 1.925 4.296 4.29 4.296 2.366 0 4.29-1.928 4.29-4.296 0-1.127-.441-2.199-1.242-3.018l-.488-.5V4.296c0-1.424-1.152-2.582-2.569-2.582zM13 9v6.125c1 .583 2 1.267 2 2.873C15 19.653 13.654 21 12 21s-3-1.347-3-3.002c0-1.607 1-2.29 2-2.873V9h2z"/>
</svg>
