<svg xmlns="http://www.w3.org/2000/svg" xmlns:xlink="http://www.w3.org/1999/xlink" width="24" height="24" viewBox="0 0 24 24">
    <defs>
        <path id="5lriex1joa" d="M5.991 0c2.37 0 4.279 1.923 4.279 4.296v9.477C11.332 14.859 12 16.346 12 17.99 12 21.308 9.312 24 6 24c-3.314 0-6-2.692-6-6.01 0-1.636.662-3.19 1.717-4.276V4.221C1.717 1.848 3.624 0 5.991 0zm0 1.714c-1.437 0-2.563 1.101-2.563 2.507v10.19l-.486.5c-.771.793-1.232 1.944-1.232 3.079 0 2.369 1.925 4.296 4.29 4.296 2.366 0 4.29-1.928 4.29-4.296 0-1.127-.441-2.199-1.242-3.018l-.488-.5V4.296c0-1.424-1.152-2.582-2.569-2.582zM7 9v6.125c1 .583 2 1.267 2 2.873C9 19.653 7.654 21 6 21s-3-1.347-3-3.002c0-1.607 1-2.29 2-2.873V9h2z"/>
    </defs>
    <g fill="none" fill-rule="evenodd" transform="translate(6)">
        <mask id="mg5b0qg9mb" fill="#fff">
            <use xlink:href="#5lriex1joa"/>
        </mask>
        <use fill="#000" fill-rule="nonzero" xlink:href="#5lriex1joa"/>
        <g fill="#000" mask="url(#mg5b0qg9mb)">
            <path d="M0 0L24 0 24 24 0 24z" transform="translate(-6)"/>
        </g>
    </g>
</svg>
