<svg xmlns="http://www.w3.org/2000/svg" xmlns:xlink="http://www.w3.org/1999/xlink" width="24" height="24" viewBox="0 0 24 24">
    <defs>
        <path id="tti40dr7fa" d="M12.477 0c2.56 0 4.625 1.923 4.625 4.296v9.477c1.148 1.086 1.87 2.573 1.87 4.217 0 3.318-2.906 6.01-6.486 6.01C8.904 24 6 21.308 6 17.99c0-1.636.715-3.19 1.857-4.276V4.221C7.857 1.848 9.918 0 12.477 0zm0 1.714c-1.554 0-2.772 1.101-2.772 2.507v10.19l-.525.5c-.833.793-1.331 1.944-1.331 3.079 0 2.369 2.08 4.296 4.637 4.296 2.557 0 4.637-1.928 4.637-4.296 0-1.127-.477-2.199-1.342-3.018l-.528-.5V4.296c0-1.424-1.245-2.582-2.776-2.582zm.933 6v7.815c.925.5 1.85 1.085 1.85 2.46 0 1.419-1.245 2.572-2.774 2.572-1.53 0-2.773-1.153-2.773-2.571 0-1.376.924-1.962 1.849-2.46V7.714h1.848z"/>
    </defs>
    <g fill="none" fill-rule="evenodd">
        <path fill="#F2F3F0" d="M0 0L1440 0 1440 2580 0 2580z" transform="translate(-188 -281)"/>
        <g transform="translate(-188 -281) translate(188 281)">
            <mask id="62evmzk90b" fill="#fff">
                <use xlink:href="#tti40dr7fa"/>
            </mask>
            <use fill="#000" xlink:href="#tti40dr7fa"/>
            <g fill="#000" mask="url(#62evmzk90b)">
                <path d="M0 0L24 0 24 24 0 24z"/>
            </g>
        </g>
    </g>
</svg>
