<svg xmlns="http://www.w3.org/2000/svg" width="288" height="220" viewBox="0 0 288 220">
    <g fill="none" fill-rule="evenodd">
        <path fill="#4C2D1C" d="M256.528 131.165c1.58-4.686-.935-9.766-5.617-11.347l-68.11-23.006-15.401-5.201c-6.05-2.044-12.61 1.208-14.653 7.263l-18.137 53.781c-2.041 6.056 1.208 12.62 7.258 14.664l83.511 28.208c4.682 1.582 9.759-.935 11.338-5.62l19.811-58.742"/>
        <path fill="#F2E81C" d="M231.712 61.027l-67.174 4.405c-6.806.446-11.96 6.294-11.51 13.061l2.125 32.035c.448 6.767 6.33 11.891 13.135 11.445l67.174-4.405c6.806-.446 11.96-6.294 11.51-13.061l-2.124-32.035c-.45-6.767-6.33-11.891-13.136-11.445"/>
        <path fill="#F5B927" d="M231.85 61.027l-67.292 4.431c-6.818.45-11.98 6.333-11.53 13.141l2.129 32.23a12.286 12.286 0 0 0 3.872 8.171L241 64.238a12.333 12.333 0 0 0-9.15-3.21"/>
        <path fill="#00A3D2" d="M237.981 102.94a8.5 8.5 0 1 1-9.04-7.922 8.5 8.5 0 0 1 9.04 7.922"/>
        <path fill="#454542" d="M153.702 90L246 83.819 245.297 73 153 79.181 153.702 90"/>
        <path fill="#CD282E" d="M226.981 102.94a8.5 8.5 0 1 1-16.964 1.119 8.5 8.5 0 0 1 16.964-1.119"/>
        <path fill="#FFFFFE" d="M167 113.832l-2.605.168-.395-5.832 2.606-.168.394 5.832M172 112.832l-2.605.168-.395-5.832 2.606-.168.394 5.832M178 112.832l-2.605.168-.395-5.832 2.606-.168.394 5.832M183 112.832l-2.605.168-.395-5.832 2.605-.168.395 5.832"/>
        <path fill="#7E4E28" d="M243.6 103.559L156.589 88.18c-6.304-1.114-12.324 3.059-13.446 9.322l-9.962 55.623c-1.121 6.263 3.08 12.243 9.384 13.357l87.012 15.379c4.877.862 9.535-2.367 10.403-7.214l10.88-60.753c.868-4.846-2.383-9.473-7.26-10.335"/>
        <path fill="#6C4123" d="M148.377 155.531l10.054-56.09c1.132-6.315 7.206-10.523 13.569-9.4l-16.195-2.86c-6.362-1.123-12.437 3.085-13.568 9.4l-10.054 56.09c-1.132 6.315 3.108 12.345 9.47 13.469l16.195 2.86c-6.362-1.123-10.602-7.154-9.47-13.469M244.03 151.951l-43.473-7.74c-4.321-.769-7.201-4.899-6.433-9.224l.61-3.426a7.948 7.948 0 0 1 9.217-6.437l43.472 7.74a3.125 3.125 0 0 1 2.528 3.626l-2.3 12.931a3.123 3.123 0 0 1-3.621 2.53"/>
        <path fill="#95613A" d="M211.899 135.638a6.5 6.5 0 0 0-12.798-2.277 6.499 6.499 0 1 0 12.798 2.277"/>
        <g>
            <path fill="#F5F5F2" d="M99.43 66.917l-7.486-2.44-1.87 7.656-7.486-2.44-1.871 7.657-7.486-2.44-1.87 7.656-7.486-2.441-1.87 7.657-7.487-2.44-1.87 7.657-7.487-2.441-1.87 7.657-7.486-2.441-1.87 7.658-8.314-2.712-.013.007 23.723 42.55 75.91-42.32-23.721-42.551-.012.007-2.078 8.504M154.76 166.16l-1.86 7.652-7.498-2.435-1.86 7.65-7.496-2.434-1.86 7.652-7.497-2.435-1.859 7.65-7.497-2.435-1.86 7.653-7.496-2.436-1.86 7.651-7.497-2.435-1.86 7.652-7.497-2.435-2.065 8.498-.01.007-11.986-29.645 75.91-42.321 11.984 29.645-.01.006-8.326-2.704"/>
            <path fill="#E6E6E1" d="M151.112 139.214l-75.91 42.32-25.871-38.256 75.91-42.321 25.871 38.257"/>
            <path fill="#AEAEAB" d="M91.869 84.57l-38.931 21.704-2.22-3.98L89.65 80.59l2.219 3.98M133.78 160.82l-38.931 21.703-1.762-4.234 38.93-21.704 1.763 4.235M97.59 126.837L58.66 148.54l-2.615-3.76 38.932-21.705 2.613 3.76M126.793 110.556l-16.225 9.046-2.613-3.76 16.224-9.046 2.614 3.76M102.421 133.788l-38.93 21.705-2.614-3.76 38.93-21.705 2.614 3.76M131.624 117.507l-16.225 9.046-2.613-3.76 16.224-9.045 2.614 3.759M107.252 140.74l-38.931 21.704-2.613-3.76 38.932-21.704 2.612 3.76M136.456 124.459l-16.225 9.045-2.614-3.76 16.224-9.046 2.615 3.76"/>
        </g>
        <g>
            <path fill="#F5B927" d="M114.553 40.34c8.832 11.615 6.576 28.19-5.039 37.022-11.616 8.832-28.19 6.576-37.022-5.039-8.832-11.615-6.576-28.19 5.039-37.022 11.615-8.831 28.19-6.575 37.022 5.039"/>
            <path fill="#F2E81C" d="M109.187 44.42c6.579 8.652 4.898 20.998-3.753 27.577-8.652 6.578-20.998 4.898-27.577-3.754-6.578-8.651-4.898-20.997 3.754-27.576 8.651-6.578 20.997-4.898 27.576 3.753"/>
            <path fill="#C8612D" d="M109.187 44.42c-4.892-6.433-12.973-9.003-20.353-7.197 5.905.029 11.732 2.684 15.583 7.748 6.578 8.651 4.897 20.997-3.754 27.575a19.596 19.596 0 0 1-7.223 3.445c4.184.02 8.406-1.267 11.994-3.994 8.651-6.579 10.332-18.925 3.753-27.577"/>
            <path fill="#EA8932" d="M102.241 68.318l-1.606-2.113c-1.57 1.082-3.065 1.457-4.489 1.126-1.423-.331-2.868-1.401-4.335-3.213l2.946-3.043c.853 1.093 1.595 1.793 2.226 2.101.631.308 1.198.271 1.7-.111.659-.501.665-1.176.019-2.025a4.175 4.175 0 0 0-1.253-1.118 4.807 4.807 0 0 0-1.405-.548 13.533 13.533 0 0 0-1.799-.207l-2.586-.161a14.942 14.942 0 0 1-1.613-.181 8.719 8.719 0 0 1-1.458-.408 5.183 5.183 0 0 1-1.466-.837 7.802 7.802 0 0 1-1.308-1.368c-1.033-1.358-1.461-2.732-1.286-4.115.176-1.385.9-2.651 2.174-3.798l-1.526-2.006 1.114-.847 1.518 1.995a5.756 5.756 0 0 1 1.444-.712c.48-.153.922-.233 1.32-.234.401-.003.806.06 1.218.19.41.128.773.285 1.087.47.313.186.638.42.971.704.331.283.613.549.843.799.228.251.475.533.736.847l-3.034 2.996c-.235-.292-.43-.532-.588-.718a10.76 10.76 0 0 0-.532-.577 3.133 3.133 0 0 0-.519-.442 2.066 2.066 0 0 0-.483-.227.852.852 0 0 0-.499-.016c-.16.044-.324.136-.489.272-.333.265-.485.606-.452 1.022.032.418.181.799.444 1.145.253.333.522.606.811.816a3 3 0 0 0 1.027.468c.395.102.705.167.93.198.224.03.587.067 1.087.11l2.5.178c.688.057 1.31.14 1.864.25.553.11 1.127.277 1.721.5a6.491 6.491 0 0 1 1.684.948c.53.408 1.017.905 1.464 1.493.893 1.175 1.286 2.446 1.179 3.811-.106 1.366-.716 2.573-1.829 3.621l1.622 2.133-1.094.832"/>
        </g>
        <g>
            <path fill="#F5B927" d="M178.575 33.496c-.641 14.577-12.979 25.874-27.556 25.233-14.578-.642-25.874-12.979-25.233-27.557.642-14.577 12.98-25.874 27.557-25.232 14.577.642 25.874 12.979 25.232 27.556"/>
            <path fill="#F2E81C" d="M171.841 33.2c-.479 10.858-9.668 19.272-20.526 18.794-10.858-.478-19.272-9.667-18.794-20.525.478-10.858 9.667-19.273 20.525-18.795 10.858.478 19.272 9.668 18.795 20.526"/>
            <path fill="#C8612D" d="M171.841 33.2c.355-8.075-4.212-15.22-11.039-18.553 4.519 3.8 7.301 9.568 7.02 15.924-.477 10.858-9.667 19.272-20.525 18.794a19.587 19.587 0 0 1-7.755-1.973c3.202 2.692 7.271 4.404 11.773 4.602 10.858.478 20.047-7.936 20.526-18.794"/>
            <path fill="#EA8932" d="M151.215 47.125l.117-2.652c-1.898-.173-3.288-.841-4.171-2.006-.883-1.165-1.308-2.912-1.276-5.243l4.211-.454c-.043 1.386.078 2.398.367 3.039.288.64.746.974 1.376 1.002.828.036 1.265-.479 1.311-1.544a4.164 4.164 0 0 0-.248-1.661 4.77 4.77 0 0 0-.729-1.32c-.296-.369-.713-.806-1.25-1.31l-1.885-1.779a14.942 14.942 0 0 1-1.124-1.17 8.782 8.782 0 0 1-.859-1.246 5.174 5.174 0 0 1-.592-1.582 7.802 7.802 0 0 1-.131-1.887c.075-1.706.625-3.035 1.645-3.987 1.021-.951 2.387-1.461 4.099-1.528l.112-2.518 1.398.061-.11 2.505a5.816 5.816 0 0 1 1.566.376c.467.19.856.411 1.164.665.31.254.581.562.815.925.233.361.412.713.535 1.057.121.344.22.731.295 1.162.074.429.121.814.137 1.154.015.338.024.713.024 1.122l-4.249.361c.007-.374.01-.684.008-.928a10.615 10.615 0 0 0-.04-.783 3.167 3.167 0 0 0-.117-.672 2.053 2.053 0 0 0-.225-.484.851.851 0 0 0-.373-.33 1.326 1.326 0 0 0-.55-.105 1.128 1.128 0 0 0-1.002.496c-.242.342-.372.73-.392 1.164-.017.418.015.801.103 1.147s.251.685.489 1.016c.239.331.436.58.589.747.152.167.408.428.765.781l1.807 1.736c.493.484.918.945 1.274 1.383.354.439.688.935 1.003 1.486a6.53 6.53 0 0 1 .688 1.807c.146.651.201 1.346.169 2.083-.064 1.475-.576 2.703-1.531 3.684-.956.981-2.197 1.519-3.722 1.612l-.118 2.678-1.373-.06"/>
        </g>
    </g>
</svg>
