<svg xmlns="http://www.w3.org/2000/svg" xmlns:xlink="http://www.w3.org/1999/xlink" width="24" height="24" viewBox="0 0 24 24">
    <defs>
        <path id="98on79drka" d="M18.168 14.384c-.073-.12-.266-.191-.553-.335-.29-.143-1.71-.837-1.974-.932-.265-.095-.459-.143-.65.143-.193.287-.746.933-.915 1.124-.168.192-.336.215-.625.072-.29-.143-1.22-.447-2.324-1.422-.857-.76-1.437-1.698-1.606-1.985-.168-.286-.017-.441.126-.584.13-.129.29-.335.433-.501.145-.168.193-.288.29-.48.096-.191.048-.358-.025-.5-.072-.144-.65-1.554-.89-2.129-.24-.572-.481-.551-.65-.551-.168 0-.48.05-.48.05s-.58.072-.844.358c-.264.287-1.01.98-1.01 2.39 0 1.41 1.034 2.773 1.179 2.963.144.192 1.997 3.18 4.933 4.327 2.937 1.147 2.937.764 3.466.716.53-.047 1.709-.693 1.95-1.362.24-.67.24-1.243.169-1.362zm-5.95-12.522c-5.462 0-9.905 4.409-9.905 9.83 0 2.15.7 4.141 1.886 5.762l-1.237 3.65 3.807-1.21c1.563 1.027 3.437 1.626 5.45 1.626 5.46 0 9.905-4.41 9.905-9.829 0-5.42-4.444-9.83-9.906-9.83zM24 11.692c0 6.455-5.275 11.69-11.782 11.69-2.066 0-4.007-.528-5.695-1.455L0 24l2.126-6.272C1.053 15.966.436 13.9.436 11.691.436 5.235 5.711 0 12.218 0S24 5.235 24 11.691z"/>
    </defs>
    <g fill="none" fill-rule="evenodd">
        <mask id="mhh43xzfvb" fill="#fff">
            <use xlink:href="#98on79drka"/>
        </mask>
        <use fill="#3A5259" xlink:href="#98on79drka"/>
        <g fill="#4EC26A" mask="url(#mhh43xzfvb)">
            <path d="M0 0L24 0 24 24 0 24z"/>
        </g>
    </g>
</svg>
