<svg xmlns="http://www.w3.org/2000/svg" width="64" height="64" viewBox="0 0 64 64">
    <defs>
        <linearGradient id="5o980ek8na" x1="19.412%" x2="82.102%" y1="12.08%" y2="88.149%">
            <stop offset="0%" stop-color="#FFC153"/>
            <stop offset="27.597%" stop-color="#E62256"/>
            <stop offset="63.028%" stop-color="#B829A9"/>
            <stop offset="100%" stop-color="#5D3FD2"/>
        </linearGradient>
    </defs>
    <g fill="none" fill-rule="evenodd">
        <g>
            <g>
                <g>
                    <path fill="url(#5o980ek8na)" d="M63.83 31.913C63.83 14.288 49.544 0 31.916 0 14.288 0 0 14.288 0 31.913S14.288 63.83 31.915 63.83c17.628 0 31.916-14.292 31.916-31.917" transform="translate(-308 -854) translate(308 854)"/>
                    <g fill="#FFF">
                        <path d="M30.891.2c4.272 0 7.747 3.474 7.747 7.746v22.415c0 4.272-3.475 7.748-7.747 7.748H8.13c-4.272 0-7.747-3.476-7.747-7.748V7.946C.382 3.674 3.857.2 8.129.2h22.762zm0 2.826H8.13c-2.713 0-4.92 2.207-4.92 4.92v22.415c0 2.713 2.207 4.92 4.92 4.92h22.762c2.713 0 4.92-2.207 4.92-4.92V7.946c0-2.713-2.207-4.92-4.92-4.92zM19.51 7.742c6.293 0 11.412 5.121 11.412 11.415 0 6.29-5.12 11.407-11.412 11.407-6.292 0-11.412-5.117-11.412-11.407 0-6.294 5.12-11.415 11.412-11.415zm0 2.765c-4.766 0-8.644 3.88-8.644 8.65 0 4.766 3.878 8.644 8.644 8.644s8.644-3.878 8.644-8.644c0-4.77-3.878-8.65-8.644-8.65zM31.077 6.44c.99 0 1.803.813 1.803 1.804 0 .997-.812 1.799-1.803 1.799-.998 0-1.802-.802-1.802-1.8 0-.99.804-1.803 1.802-1.803z" transform="translate(-308 -854) translate(308 854) translate(12.444 13.249)"/>
                    </g>
                </g>
            </g>
        </g>
    </g>
</svg>
