<?xml version="1.0" encoding="utf-8"?>
<!-- Generator: Adobe Illustrator 16.0.0, SVG Export Plug-In . SVG Version: 6.00 Build 0)  -->
<!DOCTYPE svg PUBLIC "-//W3C//DTD SVG 1.1//EN" "http://www.w3.org/Graphics/SVG/1.1/DTD/svg11.dtd">
<svg version="1.1" id="Layer_1" xmlns="http://www.w3.org/2000/svg" xmlns:xlink="http://www.w3.org/1999/xlink" x="0px" y="0px"
	 width="715.21px" height="88.761px" viewBox="0 0 715.21 88.761" enable-background="new 0 0 715.21 88.761" xml:space="preserve">
<path d="M495.347,87.69c-5.535-0.271-11.152-0.032-16.59-0.916c-11.354-1.846-18.254-10.897-18.709-22.69
	c-0.102-2.639,1.793-4.391,4.463-4.44c2.66-0.052,4.266,1.424,4.447,4.087c0.611,8.881,4.916,14.098,13.563,14.639
	c8.875,0.557,17.859,0.531,26.719-0.188c8.648-0.702,13.215-7.372,12.467-16.458c-0.617-7.519-6.773-12.8-14.877-12.861
	c-7.82-0.06-15.66,0.115-23.455-0.388c-11.777-0.76-20.453-10.096-21.02-21.282c-0.766-15.138,9.322-24.53,20.291-25.242
	c9.625-0.624,19.344-1.407,28.883,0.618c9.15,1.942,15.789,9.898,16.734,19.224c0.068,0.665,0.219,1.322,0.299,1.986
	c0.365,3.012-1.148,5.07-3.939,5.375c-3.045,0.333-4.795-1.277-4.955-4.556c-0.398-8.169-6.168-13.959-14.221-14.084
	c-6.65-0.103-13.305-0.089-19.955-0.001c-6.742,0.088-12.266,4.336-13.855,10.467c-1.73,6.671,0.689,13.752,6.273,16.653
	c2.584,1.342,5.723,2.062,8.652,2.205c6.553,0.319,13.131,0.034,19.697,0.115c9.939,0.122,18.018,3.735,22.176,13.27
	c4.008,9.189,3.078,18.143-3.182,26.125c-4.58,5.842-11.082,7.912-18.275,8.072c-3.871,0.086-7.746,0.016-11.619,0.016
	C495.355,87.519,495.351,87.604,495.347,87.69z"/>
<path d="M0.067,56.001c0-8.672-0.178-17.346,0.044-26.012C0.398,18.897,4.403,9.648,14.519,3.972
	c16.962-9.517,43.029-1.958,45.146,22.96c0.199,2.339,0.319,4.692,0.323,7.04c0.027,16.162,0.019,32.326,0.011,48.49
	c-0.001,3.234-1.472,4.884-4.353,4.953c-2.883,0.07-4.54-1.51-4.545-4.424c-0.016-9.935-0.002-19.867-0.008-29.802
	c-0.002-3.485-0.625-4.112-4.122-4.114c-11.365-0.008-22.73-0.009-34.095,0c-3.372,0.002-3.964,0.588-3.969,3.981
	c-0.015,9.935,0.009,19.868-0.016,29.801c-0.007,2.869-1.521,4.44-4.231,4.558c-2.823,0.121-4.581-1.526-4.586-4.391
	C0.057,74.018,0.067,65.009,0.067,56.001z M30.044,40.264c5.642,0,11.283,0.012,16.925-0.004c3.306-0.009,4.107-0.845,4.123-4.209
	c0.009-1.937,0.032-3.874-0.004-5.81c-0.214-11.376-6.7-19.178-17.504-21.08C22.709,7.247,12.517,13.324,9.867,23.867
	c-1.005,4-0.774,8.331-0.934,12.517c-0.114,2.985,0.881,3.864,3.934,3.875C18.593,40.278,24.319,40.264,30.044,40.264z"/>
<path d="M350.362,55.453c0,9.092,0.005,18.187-0.003,27.279c-0.003,3.32-1.204,4.652-4.174,4.693
	c-3.013,0.041-4.598-1.428-4.62-4.678c-0.067-9.851-0.026-19.701-0.033-29.553c-0.003-3.531-0.577-4.117-4.075-4.119
	c-11.366-0.008-22.733-0.008-34.1,0c-3.127,0.002-4.062,0.893-4.07,4.034c-0.027,9.683-0.009,19.365-0.011,29.048
	c0,3.863-1.036,5.188-4.109,5.266c-3.238,0.084-4.749-1.543-4.763-5.35c-0.035-9.852-0.05-19.703,0-29.554
	c0.041-8.074,0.153-16.149,0.292-24.223c0.25-14.504,11.04-26.329,25.515-27.936c11.612-1.289,21.48,1.957,28.657,11.573
	c3.674,4.922,5.402,10.624,5.468,16.743C350.434,37.602,350.361,46.527,350.362,55.453z M320.484,40.263
	c5.809,0,11.619,0.027,17.428-0.012c2.833-0.02,3.58-0.804,3.614-3.617c0.03-2.441,0.049-4.884-0.002-7.324
	c-0.217-10.283-6.637-18.017-16.587-20.024c-11.953-2.411-22.62,4.419-24.949,16.257c-0.674,3.425-0.594,7.016-0.682,10.534
	c-0.081,3.209,0.979,4.169,4.255,4.181C309.202,40.278,314.843,40.263,320.484,40.263z"/>
<path d="M392.649,44.032c0-12.458-0.003-24.916,0.002-37.375c0.001-4.307,0.989-5.271,5.392-5.276
	c5.725-0.006,11.447-0.005,17.172-0.001c14.98,0.012,27.094,9.49,28.605,24.396c1.23,12.135,1.213,24.591,0.004,36.729
	c-1.463,14.687-13.434,24.136-28.447,24.391c-5.891,0.1-11.785,0.046-17.676,0.006c-3.845-0.025-5.046-1.306-5.049-5.242
	C392.645,69.117,392.649,56.574,392.649,44.032z M401.46,43.877c0,10.267,0,20.535,0,30.801c0,0.083,0.008,0.168-0.002,0.252
	c-0.197,2.209,0.664,3.269,3.025,3.188c3.445-0.119,6.9,0.032,10.35-0.043c12.131-0.267,20.734-8.787,20.848-20.728
	c0.084-8.835,0.092-17.673-0.004-26.509c-0.111-10.257-6.619-18.488-16.391-20.119c-4.516-0.754-9.215-0.428-13.832-0.503
	c-3.988-0.065-3.994-0.01-3.994,3.868C401.458,24.017,401.458,33.947,401.46,43.877z"/>
<path d="M271.347,44.517c0,12.462,0.009,24.925-0.006,37.387c-0.005,3.874-1.404,5.52-4.594,5.523
	c-2.908,0.004-4.327-1.373-4.332-4.317c-0.018-9.853-0.004-19.704-0.008-29.555c-0.001-4.046-0.439-4.481-4.474-4.481
	c-11.283-0.002-22.566-0.004-33.85,0c-3.649,0.002-3.811,0.174-3.812,3.909c-0.002,9.683,0.016,19.367-0.01,29.05
	c-0.01,3.775-1.527,5.452-4.729,5.393c-2.808-0.051-4.138-1.383-4.194-4.195c-0.003-0.169-0.001-0.337-0.001-0.506
	c0-25.598-0.001-51.195,0.001-76.793c0-3.005,1.015-4.307,3.501-4.54c3.209-0.301,4.901,0.909,5.354,3.896
	c0.113,0.743,0.073,1.512,0.073,2.268c0.004,9.768-0.003,19.535,0.007,29.303c0.003,2.891,0.487,3.395,3.367,3.399
	c11.705,0.016,23.409,0.016,35.113,0c2.89-0.004,3.642-0.8,3.646-3.842c0.016-10.188,0.003-20.377,0.009-30.566
	c0.001-2.925,1.085-4.255,3.593-4.46c3.236-0.265,4.878,0.95,5.287,3.977c0.101,0.746,0.055,1.512,0.055,2.27
	C271.348,19.929,271.347,32.223,271.347,44.517z"/>
<path d="M135.387,44.151c-0.001-12.376-0.002-24.753,0-37.129c0.001-4.87,0.791-5.64,5.773-5.641
	c7.999-0.002,15.998-0.043,23.996,0.007c25.301,0.158,34.169,22.968,28.616,39.837c-3.821,11.608-13.493,19.181-25.671,19.778
	c-6.38,0.313-12.779,0.236-19.171,0.301c-4.206,0.042-4.727,0.544-4.729,4.854c-0.004,5.557,0.014,11.112-0.008,16.67
	c-0.012,3.01-1.557,4.596-4.395,4.598c-2.834,0.002-4.394-1.575-4.399-4.629C135.375,69.914,135.388,57.033,135.387,44.151z
	 M157.617,10.204c-3.44,0-6.555-0.026-9.669,0.008c-2.689,0.03-3.728,1-3.734,3.617c-0.027,11.701-0.002,23.401-0.02,35.102
	c-0.003,2.324,1.261,3.496,3.408,3.484c6.974-0.037,13.971,0.109,20.915-0.406c9.673-0.719,16.558-7.963,17.844-18.544
	c0.988-8.129-3-17.724-12.146-21.491C168.695,9.7,162.978,10.336,157.617,10.204z"/>
<path d="M637.437,63.408c0.004,6.317,0.064,12.637-0.02,18.952c-0.051,3.822-1.59,5.212-5.031,4.981
	c-2.162-0.146-3.379-1.23-3.746-3.363c-0.486-2.824-0.586-2.85-3.047-1.158c-10.51,7.227-24.771,7.578-35.223,0.746
	c-8.592-5.615-12.521-13.945-12.822-23.91c-0.309-10.184-0.152-20.385-0.049-30.576c0.182-17.984,15.584-31.266,33.326-28.744
	c2.971,0.422,5.936,1.12,8.791,2.04c2.563,0.825,3.545,3.017,2.904,5.389c-0.582,2.16-2.197,3.268-4.885,2.926
	c-3.566-0.454-7.098-1.602-10.658-1.663c-11.602-0.198-20.49,8.688-20.6,20.358c-0.094,9.939-0.094,19.88,0,29.819
	c0.109,11.584,8.813,20.353,20.652,20.397c11.715,0.046,20.361-7.208,21.246-19.179c0.396-5.359,0.256-10.76,0.348-16.143
	c0.053-2.998,1.381-4.449,4.178-4.528c2.918-0.083,4.568,1.385,4.607,4.449C637.494,50.604,637.437,57.005,637.437,63.408z"/>
<path d="M655.078,55.362c0-8.591-0.055-17.183,0.012-25.773c0.148-19.79,16.148-31.284,33.561-29.307
	c9.027,1.025,16.398,4.822,21.512,12.432c3.775,5.623,4.992,12.056,5.014,18.709c0.055,17.014,0.004,34.028,0.035,51.042
	c0.004,2.234-0.535,3.99-2.895,4.709c-2.662,0.812-6.021-0.313-5.986-4.258c0.146-15.918,0.07-31.838,0.049-47.756
	c-0.002-2.269-0.088-4.542-0.244-6.806c-0.84-12.293-9.77-19.885-22.779-19.406C672.292,9.354,664.003,18.262,664,29.772
	c-0.008,17.435,0.004,34.87-0.008,52.306c-0.002,3.438-1.088,4.914-3.771,5.282c-3.252,0.446-5.133-1.166-5.137-4.455
	C655.07,73.725,655.078,64.542,655.078,55.362z"/>
<path d="M77.995,32.515c0-8.841-0.007-17.682,0.004-26.522c0.004-3.238,1.25-4.548,4.311-4.611c3.136-0.065,4.611,1.349,4.615,4.624
	c0.022,17.429-0.005,34.857,0.016,52.287c0.022,18.444,16.423,24.431,28.435,20.324c0.714-0.244,1.401-0.576,2.123-0.791
	c2.735-0.813,4.725,0.055,5.554,2.389c0.934,2.631,0.045,5.014-2.565,5.996c-11.546,4.345-22.479,3.322-32.27-4.482
	c-7.202-5.741-9.979-13.766-10.178-22.691C77.841,50.199,77.995,41.355,77.995,32.515z"/>
<path d="M558.087,44.497c0,12.633,0.002,25.268-0.002,37.903c0,3.52-1.184,4.956-4.115,5.025c-3.18,0.074-4.697-1.521-4.701-5.123
	c-0.018-22.91-0.008-45.82-0.01-68.73c0-2.611-0.049-5.223,0.021-7.833c0.078-3.021,1.645-4.439,4.645-4.355
	c2.98,0.084,4.154,1.31,4.158,4.453C558.093,18.723,558.087,31.609,558.087,44.497z"/>
<path d="M378.626,83.205c-0.017,2.727-1.64,4.264-4.455,4.223c-2.602-0.038-4.315-1.68-4.366-4.178
	c-0.05-2.494,1.836-4.369,4.444-4.416C376.894,78.787,378.644,80.533,378.626,83.205z"/>
</svg>
