<?xml version="1.0" encoding="utf-8"?>
<!-- Generator: Adobe Illustrator 22.0.1, SVG Export Plug-In . SVG Version: 6.00 Build 0)  -->
<svg version="1.1" id="Layer_1" xmlns="http://www.w3.org/2000/svg" xmlns:xlink="http://www.w3.org/1999/xlink" x="0px" y="0px"
	 viewBox="0 0 40 40" style="enable-background:new 0 0 40 40;" xml:space="preserve">
<path d="M37.9,0.6c-1-0.4-2.2-0.4-3.4,0.1c-0.7,0.3-1.3,0.8-1.8,1.5c-2.4,3.4-4.9,14.7-4.9,14.7c-3.2-0.1-7.1-0.1-10.5-0.1
	c0,0,3-9.3,4.4-11.9c1.3-2.6,0-5.3-5.2-4.9C11.4,0.4,2.9,1.8,1,6.7c0,0,0,0.1-0.1,0.1c0,0,0,0.1,0,0.1c0,0,0,0,0,0
	C0.7,7.3,0.6,7.8,0.6,8.3c0,1.4,0.6,2.4,1.2,2.4c0.2,0,0.4-0.1,0.5-0.2c2.3-2,4.1-3.5,10.2-3.7c-1.3,3-2.7,7.1-4,11.3
	c-4.5,1.2-6.9,3.5-6.9,5.1c0,0.3,0.3,0.5,0.7,0.5c1.3,0,2.8-0.2,4.8-0.5c-1.1,4.7-1.9,9.1-1.9,11.7c0,3.3,0.1,5.2,1.8,5.2
	c3,0,6.2-0.5,6.2-3.2c0-4.6,1.1-9.7,2.4-14.6c0.8-0.1,1.6-0.1,2.4-0.1c1.3,0,5.3,0.2,8.4,0.3c-0.9,4.6-1.4,8.7-1.4,11.3
	c0,4.1,1.3,5.7,5.8,5.7c1,0,2.1-0.3,2.1-1.5c0-6.2,1.2-14.1,2.4-21c1.2-6.5,2.6-10.8,3.5-13.3C39.7,2.2,39,1.1,37.9,0.6z"/>
</svg> 