<?xml version="1.0" encoding="utf-8"?>
<!-- Generator: Adobe Illustrator 22.0.1, SVG Export Plug-In . SVG Version: 6.00 Build 0)  -->
<svg version="1.1" id="Layer_1" xmlns="http://www.w3.org/2000/svg" xmlns:xlink="http://www.w3.org/1999/xlink" x="0px" y="0px"
	 viewBox="0 0 24 24" style="enable-background:new 0 0 24 24;" xml:space="preserve">
<style type="text/css">
	.st0{display:none;}
	.st1{display:inline;}
	.st2{fill:none;stroke:#999999;stroke-width:1.5;stroke-linecap:round;stroke-linejoin:round;stroke-miterlimit:10;}
	.st3{fill:#979797;}
</style>
<g class="st0">
	<g class="st1">
		<path id="XMLID_42_" class="st2" d="M12,1.5C6.2,1.5,1.5,6.2,1.5,12S6.2,22.5,12,22.5S22.5,17.8,22.5,12S17.8,1.5,12,1.5z"/>
	</g>
	<g class="st1">
		<line class="st2" x1="15.5" y1="8.5" x2="8.5" y2="15.5"/>
		<line class="st2" x1="15.5" y1="15.5" x2="8.5" y2="8.5"/>
	</g>
</g>
<g>
	<path class="st3" d="M11.4,4.7v14c0,0.6,0.4,1,1,1c0.6,0,1-0.4,1-1v-14c0-0.6-0.4-1-1-1C11.9,3.7,11.4,4.2,11.4,4.7"/>
	<path class="st3" d="M19.4,10.7h-14c-0.6,0-1,0.4-1,1c0,0.6,0.4,1,1,1h14c0.6,0,1-0.4,1-1C20.4,11.2,20,10.7,19.4,10.7"/>
</g>
</svg>
