<?xml version="1.0" encoding="utf-8"?>
<!-- Generator: Adobe Illustrator 22.0.1, SVG Export Plug-In . SVG Version: 6.00 Build 0)  -->
<svg version="1.1" id="Layer_1" xmlns="http://www.w3.org/2000/svg" xmlns:xlink="http://www.w3.org/1999/xlink" x="0px" y="0px"
	 viewBox="0 0 100 100" style="enable-background:new 0 0 100 100;" xml:space="preserve">
<style type="text/css">
	.st0{clip-path:url(#SVGID_2_);}
	.st1{fill:none;}
	.st2{fill:#FFFFFF;}
</style>
<g>
	<defs>
		<circle id="SVGID_1_" cx="50" cy="50" r="48"/>
	</defs>
	<clipPath id="SVGID_2_">
		<use xlink:href="#SVGID_1_"  style="overflow:visible;opacity:0.5;"/>
	</clipPath>
	<g class="st0">
		<rect x="27" y="27" class="st1" width="48" height="48"/>
		<rect x="3" y="3" class="st1" width="96" height="96"/>
		<g>
			<path class="st2" d="M49,37v28c0,1.1,0.9,2,2,2c1.1,0,2-0.9,2-2V37c0-1.1-0.9-2-2-2C49.9,35,49,35.9,49,37"/>
			<path class="st2" d="M65,49H37c-1.1,0-2,0.9-2,2c0,1.1,0.9,2,2,2h28c1.1,0,2-0.9,2-2C67,49.9,66.1,49,65,49"/>
		</g>
	</g>
	
		<use xlink:href="#SVGID_1_"  style="overflow:visible;opacity:0.5;fill:none;stroke:#FFFFFF;stroke-width:2;stroke-miterlimit:10;"/>
</g>
</svg>
