<?xml version="1.0" encoding="utf-8"?>
<!-- Generator: Adobe Illustrator 22.0.1, SVG Export Plug-In . SVG Version: 6.00 Build 0)  -->
<svg version="1.1" id="Layer_1" xmlns="http://www.w3.org/2000/svg" xmlns:xlink="http://www.w3.org/1999/xlink" x="0px" y="0px"
	 viewBox="0 0 22.5 22.5" style="enable-background:new 0 0 22.5 22.5;" xml:space="preserve">
<style type="text/css">
	.st0{fill:none;stroke:#999999;stroke-width:1.5;stroke-linecap:round;stroke-linejoin:round;stroke-miterlimit:10;}
	.st1{display:none;}
	.st2{display:inline;}
</style>
<g>
	<g>
		<path id="XMLID_42_" class="st0" d="M11.2,0.8C5.5,0.8,0.8,5.5,0.8,11.3c0,5.8,4.7,10.5,10.5,10.5c5.8,0,10.5-4.7,10.5-10.5
			C21.7,5.5,17,0.8,11.2,0.8z"/>
	</g>
	<g>
		<line class="st0" x1="14.7" y1="7.8" x2="7.7" y2="14.8"/>
		<line class="st0" x1="14.7" y1="14.8" x2="7.7" y2="7.8"/>
	</g>
</g>
<g class="st1">
	<g class="st2">
		<path id="XMLID_7_" class="st0" d="M18.7,3.8c-4.1-4.1-10.7-4.1-14.8,0c-4.1,4.1-4.1,10.7,0,14.8c4.1,4.1,10.7,4.1,14.8,0
			C22.8,14.6,22.8,7.9,18.7,3.8z"/>
	</g>
	<g class="st2">
		<line class="st0" x1="16.2" y1="11.3" x2="6.3" y2="11.3"/>
		<line class="st0" x1="11.2" y1="16.2" x2="11.2" y2="6.3"/>
	</g>
</g>
</svg>
