<?xml version="1.0" encoding="utf-8"?>
<!-- Generator: Adobe Illustrator 22.0.1, SVG Export Plug-In . SVG Version: 6.00 Build 0)  -->
<svg version="1.1" id="Layer_1" xmlns="http://www.w3.org/2000/svg" xmlns:xlink="http://www.w3.org/1999/xlink" x="0px" y="0px"
	 viewBox="0 0 48 48" style="enable-background:new 0 0 48 48;" xml:space="preserve">
<style type="text/css">
	.st0{display:none;}
	.st1{display:inline;}
	.st2{fill:#FFFFFF;}
	.st3{fill:none;stroke:#05CBE5;stroke-width:1.5;stroke-linecap:round;stroke-linejoin:round;stroke-miterlimit:10;}
	.st4{fill:none;}
</style>
<g class="st0">
	<g class="st1">
		<circle class="st2" cx="24" cy="24" r="24"/>
	</g>
	<g class="st1">
		<g>
			<polyline class="st3" points="24.3,31.2 31.5,24 24.3,16.8 			"/>
			<line class="st3" x1="16.5" y1="24" x2="31.4" y2="24"/>
		</g>
		<rect x="0" transform="matrix(-1 -1.224647e-16 1.224647e-16 -1 48 48)" class="st4" width="48" height="48"/>
	</g>
</g>
<g>
	<g>
		<circle class="st2" cx="23.9" cy="24" r="23.9"/>
	</g>
	<g>
		<g>
			<rect x="0.2" y="0.1" class="st4" width="47.8" height="47.8"/>
			<rect x="12.2" y="12.1" class="st4" width="23.9" height="23.9"/>
		</g>
		<g>
			<path class="st3" d="M18.1,17.6h11.9c1.1,0,2,0.9,2,2v8.7c0,1.1-0.9,2-2,2H18.1c-1.1,0-2-0.9-2-2v-8.7
				C16.1,18.5,17,17.6,18.1,17.6z"/>
			<path class="st3" d="M16.1,18.4l6.6,4.4c0.8,0.5,1.8,0.5,2.6,0l6.6-4.4"/>
		</g>
	</g>
</g>
</svg>
