<?xml version="1.0" encoding="utf-8"?>
<!-- Generator: Adobe Illustrator 22.0.1, SVG Export Plug-In . SVG Version: 6.00 Build 0)  -->
<svg version="1.1" id="Layer_1" xmlns="http://www.w3.org/2000/svg" xmlns:xlink="http://www.w3.org/1999/xlink" x="0px" y="0px"
	 viewBox="0 0 48 48" style="enable-background:new 0 0 48 48;" xml:space="preserve">
<style type="text/css">
	.st0{fill:#FFFFFF;}
	.st1{fill:none;}
	.st2{fill:none;stroke:#05CBE5;stroke-width:1.5;stroke-linecap:round;stroke-linejoin:round;stroke-miterlimit:10;}
</style>
<g>
	<g>
		<circle class="st0" cx="24" cy="24" r="24"/>
	</g>
	<g>
		<g>
			<rect y="0" class="st1" width="48" height="48"/>
			<rect x="12" y="12" class="st1" width="24" height="24"/>
		</g>
		<path class="st2" d="M29.5,26.9L29.5,26.9c-1.1-0.2-2.2,0.1-3,0.8l-0.6,0.5c0,0-1.8-0.8-3.6-2.6c-1.8-1.8-2.6-3.6-2.6-3.6l0.5-0.6
			c0.7-0.8,1-1.9,0.8-3l0,0c-0.3-1.7-1.8-2.9-3.5-2.9h0c-1.2,0-1.9,1-1.9,2.2c0,3.9,1.6,6.7,4.7,10c3.3,3.1,7,4.7,10,4.7
			c1.2,0,2.2-0.7,2.2-1.9v0C32.5,28.7,31.3,27.2,29.5,26.9z"/>
	</g>
</g>
</svg>
