<?xml version="1.0" encoding="utf-8"?>
<!-- Generator: Adobe Illustrator 22.0.1, SVG Export Plug-In . SVG Version: 6.00 Build 0)  -->
<svg version="1.1" id="Layer_1" xmlns="http://www.w3.org/2000/svg" xmlns:xlink="http://www.w3.org/1999/xlink" x="0px" y="0px"
	 viewBox="0 0 155.4 37.3" style="enable-background:new 0 0 155.4 37.3;" xml:space="preserve">
<style type="text/css">
	.st0{fill:#00B2E6;}
	.st1{fill:#FFFFFF;}
</style>
<g>
	<g>
		<path class="st0" d="M22.5,16.5l-1.6,10.2c-0.1,0.8-0.5,1.5-1.1,1.9s-1.4,0.5-2.1,0.3l-1.1-0.3l5.9-21.7c0.5,0,1-0.4,1.1-1
			c0.2-0.7-0.2-1.4-0.9-1.6c-0.7-0.2-1.4,0.2-1.6,0.9c-0.1,0.5,0.1,1.1,0.5,1.4l-5.9,21.7l-2.3-0.6l4.9-18.1c0.5,0,1-0.4,1.2-1
			c0-0.6-0.4-1.4-1.1-1.6c-0.7-0.1-1.4,0.3-1.6,1c-0.1,0.5,0.1,1.1,0.5,1.4l-4.9,18.1l-2.5-0.7l6.2-22.9c0.5,0,1-0.4,1.1-1
			c0.2-0.7-0.2-1.4-0.9-1.6c-0.7-0.2-1.4,0.2-1.6,0.9c-0.1,0.5,0.1,1.1,0.5,1.4L9,26.6l-3.2-0.9C5,25.5,4.4,25,4.1,24.3
			S3.7,22.8,4,22.1L8.7,9.6C9,8.8,9.5,8.2,10,7.8c0.6-0.4,1.2-0.4,1.8-0.4l0.5-1.6c-1.1-0.4-3.1-0.2-4,0.2c-1,0.4-1.8,1.3-2.2,2.4
			l-6.4,16l0,0c-0.6,2.1,0.8,4.3,3.1,4.9l15.9,4.3c2.3,0.6,4.6-0.6,5.2-2.6l0,0l2.3-15.1L22.5,16.5z"/>
		<path class="st1" d="M32.3,31.7l-0.8,2C31.4,34,31.2,34,31.1,34c-0.2,0-0.4-0.2-0.4-0.2l2.6-6.7c0.1-0.2,0.2-0.3,0.6-0.3
			c0.4,0,0.5,0.1,0.6,0.3l2.6,6.7c0,0.1-0.2,0.2-0.4,0.2s-0.4-0.1-0.5-0.3l-0.8-2H32.3z M35.1,31.1l-1.3-3.4l-1.3,3.4H35.1z"/>
		<path class="st1" d="M39.9,33.6v-6.3c0-0.2,0.2-0.4,0.4-0.4H42c2.5,0,3.9,1.3,3.9,3.5S44.4,34,42,34h-1.6
			C40.1,34.1,39.9,33.9,39.9,33.6 M42,33.4c2,0,3.1-1.1,3.1-2.9c0-1.8-1.2-2.9-3.1-2.9h-1.4v5.8H42z"/>
		<path class="st1" d="M47.1,27c0-0.3,0.2-0.5,0.5-0.5s0.5,0.2,0.5,0.5s-0.2,0.5-0.5,0.5S47.1,27.3,47.1,27 M47.2,33.8v-4.6
			c0-0.3,0.1-0.3,0.3-0.3h0.1c0.2,0,0.3,0.1,0.3,0.3v4.6c0,0.3-0.1,0.3-0.3,0.3h-0.1C47.3,34.1,47.2,34,47.2,33.8"/>
		<path class="st1" d="M52.9,28.5c0.2-0.2,0.3-0.3,0.5-0.3c0.3,0,0.4,0.3,0.4,0.3l-0.9,1c0.3,0.3,0.4,0.7,0.4,1.2
			c0,1.1-0.9,1.9-2.2,1.9c-0.1,0-0.2,0-0.3,0c-0.1,0.1-0.1,0.2-0.1,0.3c0,0.4,0.5,0.4,1.5,0.6c0.7,0.2,1.5,0.5,1.5,1.4
			c0,1-1,1.6-2.7,1.6s-2.5-0.5-2.5-1.4c0-0.8,0.7-1.3,1.7-1.5c-0.1-0.1-0.2-0.3-0.2-0.5s0.1-0.4,0.2-0.5c-0.8-0.3-1.3-0.9-1.3-1.7
			c0-1.1,0.9-2,2.1-2c0.5,0,1,0.2,1.3,0.4L52.9,28.5z M49.4,34.9c0,0.6,0.6,0.8,1.8,0.8s1.9-0.3,1.9-1c0-0.6-1-0.8-1.8-1
			C50.3,33.9,49.4,34.3,49.4,34.9 M52.7,30.6c0-0.8-0.6-1.4-1.4-1.4c-0.8,0-1.4,0.6-1.4,1.4s0.6,1.3,1.4,1.3
			C52.1,32,52.7,31.4,52.7,30.6"/>
		<path class="st1" d="M54.6,27c0-0.3,0.2-0.5,0.5-0.5s0.5,0.2,0.5,0.5s-0.2,0.5-0.5,0.5C54.7,27.5,54.6,27.3,54.6,27 M54.7,33.8
			v-4.6c0-0.3,0.1-0.3,0.3-0.3h0.1c0.2,0,0.3,0.1,0.3,0.3v4.6c0,0.3-0.1,0.3-0.3,0.3H55C54.8,34.1,54.7,34,54.7,33.8"/>
		<path class="st1" d="M56.8,29.5c-0.3,0-0.3-0.1-0.3-0.3v-0.1c0-0.2,0.1-0.3,0.3-0.3h0.5v-0.9c0-0.3,0.1-0.3,0.3-0.3h0.1
			c0.2,0,0.3,0.1,0.3,0.3v0.9h1.4c0.3,0,0.3,0.1,0.3,0.3v0.1c0,0.2-0.1,0.3-0.3,0.3H58v3c0,0.8,0.2,1.1,0.8,1.1
			c0.4,0,0.6-0.2,0.8-0.4c0,0,0.2,0.1,0.2,0.4c0,0.3-0.4,0.6-1.1,0.6c-1,0-1.5-0.6-1.5-1.7v-3.1h-0.4V29.5z"/>
		<path class="st1" d="M64.1,30.7c0-0.9-0.5-1.4-1.5-1.4c-0.8,0-1.4,0.4-1.7,1c0,0-0.4,0-0.4-0.4s0.8-1.2,2.1-1.2s2.1,0.8,2.1,2V34
			c0,0-0.1,0.1-0.2,0.1c-0.2,0-0.5-0.1-0.5-0.7v-0.2c-0.4,0.6-1.1,1-2,1c-1.1,0-1.8-0.6-1.8-1.5c0-1.2,1.2-1.7,3.6-1.8h0.1v-0.2
			H64.1z M64.1,32v-0.5h-0.3c-1.8,0.1-2.7,0.4-2.7,1.2c0,0.5,0.4,0.9,1.1,0.9C63.3,33.6,64.1,32.9,64.1,32"/>
		<path class="st1" d="M66.3,33.8v-7.1c0,0,0.1-0.1,0.2-0.1c0.2,0,0.5,0.1,0.5,0.7v6.5c0,0.3-0.1,0.3-0.3,0.3h-0.1
			C66.4,34.1,66.3,34,66.3,33.8"/>
		<path class="st1" d="M75.4,33.7c0,0.1-0.1,0.4-0.5,0.4c-0.1,0-0.3-0.1-0.5-0.3L72.1,31h-0.9v2.7c0,0.2-0.1,0.3-0.3,0.3h-0.1
			c-0.2,0-0.3-0.1-0.3-0.3v-6.4c0-0.2,0.2-0.4,0.4-0.4h2c1.7,0,2.6,0.7,2.6,2.1c0,1.3-0.8,2-2.4,2.1L75.4,33.7z M73,30.4
			c1.2,0,1.7-0.6,1.7-1.4c0-0.9-0.6-1.4-1.8-1.4h-1.7v2.8H73z"/>
		<path class="st1" d="M79,33.5c1,0,1.5-0.4,1.8-0.9c0,0,0.4,0.1,0.4,0.4c0,0.4-0.8,1.2-2.2,1.2c-1.6,0-2.7-1.1-2.7-2.7
			c0-1.6,1.1-2.8,2.6-2.8s2.4,1,2.4,2.6v0.1c0,0.2-0.1,0.2-0.3,0.2h-4C77.1,32.7,77.9,33.5,79,33.5 M80.6,31c-0.1-1-0.7-1.7-1.7-1.7
			S77.2,30,77,31H80.6z"/>
		<path class="st1" d="M84.8,28.7c0.8,0,1.5,0.4,1.7,1.1c0.4-0.6,1-1.1,1.9-1.1c1.3,0,2,0.8,2,2.2v2.9c0,0.3-0.1,0.3-0.3,0.3H90
			c-0.2,0-0.3-0.1-0.3-0.3V31c0-1-0.5-1.6-1.4-1.6c-0.6,0-1.3,0.4-1.6,1.1v3.3c0,0.3-0.1,0.3-0.3,0.3h-0.1c-0.2,0-0.3-0.1-0.3-0.3
			V31c0-1.1-0.5-1.6-1.4-1.6c-0.6,0-1.3,0.4-1.6,1.1v3.3c0,0.3-0.1,0.3-0.3,0.3h-0.1c-0.2,0-0.3-0.1-0.3-0.3v-4.9
			c0,0,0.1-0.1,0.2-0.1c0.2,0,0.5,0.1,0.5,0.7v0.1C83.5,29.1,84.1,28.7,84.8,28.7"/>
		<path class="st1" d="M94.2,33.5c1,0,1.5-0.4,1.8-0.9c0,0,0.4,0.1,0.4,0.4c0,0.4-0.8,1.2-2.2,1.2c-1.6,0-2.7-1.1-2.7-2.7
			c0-1.6,1.1-2.8,2.6-2.8s2.4,1,2.4,2.6v0.1c0,0.2-0.1,0.2-0.3,0.2h-4.1C92.3,32.7,93.1,33.5,94.2,33.5 M95.8,31
			c-0.1-1-0.7-1.7-1.7-1.7S92.4,30,92.2,31H95.8z"/>
		<path class="st1" d="M101.8,26.6c0,0,0.1-0.1,0.2-0.1c0.2,0,0.5,0.1,0.5,0.7v6.5c0,0.3-0.1,0.3-0.3,0.3h-0.1
			c-0.2,0-0.3-0.1-0.3-0.3v-0.6c-0.5,0.6-1.1,1-2,1c-1.4,0-2.5-1.1-2.5-2.7c0-1.6,1.1-2.8,2.5-2.8c0.9,0,1.6,0.4,1.9,0.9v-2.9H101.8
			z M101.8,30.5c-0.3-0.8-0.9-1.2-1.9-1.2c-1.1,0-1.8,0.9-1.8,2.1c0,1.2,0.8,2.1,1.8,2.1s1.9-0.8,1.9-1.8V30.5z"/>
		<path class="st1" d="M104.9,36l0.9-2.2c-0.2,0-0.3-0.1-0.4-0.3l-1.9-4.5c0,0,0.1-0.2,0.4-0.2s0.4,0.1,0.5,0.5l1.7,4.1l1.4-4.1
			c0.1-0.4,0.3-0.5,0.5-0.5s0.4,0.2,0.4,0.2l-2.5,6.8c-0.1,0.4-0.3,0.5-0.5,0.5C105,36.2,104.9,36.1,104.9,36"/>
		<path class="st1" d="M30.9,12.4c0-6.4,4.3-10.8,10.4-10.8c5,0,7.8,2.9,7.8,4.1c0,1.1-1.2,1.4-1.3,1.3c-1.3-2.3-4-3.5-6.5-3.5
			c-4.8,0-8.1,3.7-8.1,8.9s3.4,8.9,8.2,8.9c3.1,0,5.8-1.6,6.7-4.1c0-0.1,1.4,0.2,1.4,1.3c0,1.4-2.9,4.7-8.2,4.7
			C35.1,23.2,30.9,18.8,30.9,12.4"/>
		<path class="st1" d="M55.1,21.9c0,0.5-0.3,1-1,1h-0.3c-0.6,0-0.9-0.3-0.9-1V3.2c0-0.7,0.5-1.2,1.2-1.2h5.3c4.9,0,7.7,2.3,7.7,6.3
			c0,4.1-2.7,6.4-7.9,6.4h-4.1V21.9z M59.4,12.8c3.6,0,5.5-1.5,5.5-4.4S63.1,4,59.5,4h-4.4v8.8C55.1,12.8,59.4,12.8,59.4,12.8z"/>
		<path class="st1" d="M77.8,10.8L84,2.5c0.4-0.5,0.7-0.7,1.1-0.7c0.7,0,1.2,0.9,1.1,1L79,12.3l7.2,9.5c0.1,0.2-0.3,1-1.2,1
			c-0.4,0-0.9-0.2-1.2-0.6l-6.1-8.4l-6.3,8.5C71,22.8,70.7,23,70.3,23c-0.7,0-1.2-0.9-1.1-1l7.2-9.6l-7-9.4c-0.1-0.2,0.3-1,1.2-1
			c0.4,0,0.9,0.2,1.2,0.6L77.8,10.8z"/>
		<path class="st1" d="M89.1,2.3c0-0.9,0.5-1.4,1.4-1.4s1.4,0.5,1.4,1.4s-0.5,1.4-1.4,1.4C89.6,3.7,89.1,3.2,89.1,2.3 M89.5,21.9
			V8.4c0-0.8,0.4-1,0.9-1h0.2c0.5,0,0.9,0.2,0.9,1V22c0,0.8-0.4,1-0.9,1h-0.2C89.8,22.9,89.5,22.7,89.5,21.9"/>
		<path class="st1" d="M104.6,16l-2.2,5.9c-0.3,0.8-0.8,1-1.3,1c-0.6,0-1.3-0.5-1.2-0.6l7.6-19.7c0.2-0.5,0.6-0.8,1.6-0.8
			s1.4,0.3,1.6,0.8l7.6,19.7c0.1,0.2-0.6,0.6-1.3,0.6c-0.5,0-1-0.2-1.3-1l-2.3-5.9H104.6z M112.8,14.1l-3.7-9.8l-3.8,9.8H112.8z"/>
		<path class="st1" d="M119.9,20.1c0-0.9,1.1-1.2,1.1-1.1c1,1.4,2.7,2.5,5.2,2.5s4-1,4-2.6c0-1.8-1.6-2.2-4.5-2.8
			c-2.4-0.5-5.4-1.2-5.4-4.3c0-2.7,2.3-4.6,5.9-4.6c3.7,0,5.7,1.8,5.7,2.9c0,0.8-1.1,1.2-1.2,1.1c-0.9-1.3-2.4-2.3-4.5-2.3
			c-2.5,0-3.9,1.1-3.9,2.6c0,1.6,1.4,2.1,4.3,2.7c2.5,0.5,5.6,1.2,5.6,4.4c0,2.8-2.3,4.7-6,4.7C122.1,23.2,119.9,21.2,119.9,20.1"/>
		<path class="st1" d="M135.5,2.3c0-0.9,0.5-1.4,1.4-1.4s1.3,0.5,1.3,1.4s-0.5,1.4-1.4,1.4C136,3.7,135.5,3.2,135.5,2.3 M135.8,21.9
			V8.4c0-0.8,0.4-1,0.9-1h0.2c0.5,0,0.9,0.2,0.9,1V22c0,0.8-0.4,1-0.9,1h-0.2C136.2,22.9,135.8,22.7,135.8,21.9"/>
		<path class="st1" d="M152.4,13.1c0-2.6-1.5-4.1-4.3-4.1c-2.5,0-4.1,1.3-4.9,2.8c0,0-1.2-0.1-1.2-1.2s2.2-3.5,6.2-3.5
			c3.9,0,6.2,2.3,6.2,6v9.6c0,0.1-0.3,0.2-0.7,0.2c-0.7,0-1.3-0.4-1.3-2v-0.6c-1.2,1.8-3.3,2.8-5.7,2.8c-3.3,0-5.3-1.7-5.3-4.3
			c0-3.6,3.6-5,10.6-5.2h0.3L152.4,13.1L152.4,13.1z M152.4,16.7v-1.4h-0.9c-5.2,0.2-7.9,1.1-7.9,3.5c0,1.5,1.3,2.5,3.3,2.5
			C150.1,21.4,152.4,19.5,152.4,16.7"/>
	</g>
</g>
</svg>
