<?xml version="1.0" encoding="utf-8"?>
<!-- Generator: Adobe Illustrator 22.0.1, SVG Export Plug-In . SVG Version: 6.00 Build 0)  -->
<svg version="1.1" id="Layer_1" xmlns="http://www.w3.org/2000/svg" xmlns:xlink="http://www.w3.org/1999/xlink" x="0px" y="0px"
	 viewBox="0 0 24 24" style="enable-background:new 0 0 24 24;" xml:space="preserve">
<style type="text/css">
	.st0{display:none;}
	.st1{display:inline;}
	.st2{fill:none;stroke:#999999;stroke-width:1.5;stroke-linecap:round;stroke-linejoin:round;stroke-miterlimit:10;}
	.st3{fill:#FFFFFF;}
	.st4{fill:none;}
	.st5{fill:#979797;}
</style>
<g class="st0">
	<g class="st1">
		<path id="XMLID_42_" class="st2" d="M12,1.5C6.2,1.5,1.5,6.2,1.5,12c0,5.8,4.7,10.5,10.5,10.5c5.8,0,10.5-4.7,10.5-10.5
			C22.5,6.2,17.8,1.5,12,1.5z"/>
	</g>
	<g class="st1">
		<line class="st2" x1="15.5" y1="8.5" x2="8.5" y2="15.5"/>
		<line class="st2" x1="15.5" y1="15.5" x2="8.5" y2="8.5"/>
	</g>
</g>
<g>
	<circle class="st3" cx="12" cy="12" r="12"/>
	<g>
		<rect x="0" class="st4" width="24" height="24"/>
	</g>
	<g>
		<path class="st5" d="M16.2,6.3l-9.9,9.9c-0.4,0.4-0.4,1,0,1.4c0.4,0.4,1,0.4,1.4,0l9.9-9.9c0.4-0.4,0.4-1,0-1.4
			C17.3,6,16.6,6,16.2,6.3"/>
		<path class="st5" d="M17.7,16.2L7.8,6.3C7.4,6,6.7,6,6.3,6.3C6,6.7,6,7.4,6.3,7.8l9.9,9.9c0.4,0.4,1,0.4,1.4,0
			C18,17.3,18,16.6,17.7,16.2"/>
	</g>
</g>
</svg>
