<svg xmlns="http://www.w3.org/2000/svg" xmlns:xlink="http://www.w3.org/1999/xlink" width="600" height="313" viewBox="0 0 600 313">
    <defs>
        <path id="a" d="M.75.626h477.9v138.536H.75z"/>
        <path id="c" d="M.002.295h131.316V136H.002z"/>
        <path id="e" d="M.902.345h154.96V293H.903z"/>
        <path id="g" d="M0 0h61v63H0z"/>
    </defs>
    <g fill="none" fill-rule="evenodd">
        <g transform="translate(121 72)">
            <mask id="b" fill="#fff">
                <use xlink:href="#a"/>
            </mask>
            <path fill="#FFF" d="M422.586 96.801c-4.352 15.453-14.15 21.638-22.497 21.638-8.166 0-10.341-6.911-10.341-14.005 0-24.54 18.866-39.266 36.469-42.539-2.724 11.637-3.449 27.451-3.631 34.906M232.148 108.36c-4.915 5.661-11.822 9.75-20.087 9.75-15.897 0-22.695-10.064-22.695-20.65 0-15.825 10.982-30.499 28.659-30.499 0 0 .14-.005.344-.016-1.127 6.645 1.153 14.418 8.38 18.444 3.072 1.71 7.81 3.09 13.564 3.272-.318 6.802-3.313 13.89-8.165 19.699M41.752 65.346c3.814 0 5.625 1.824 5.625 4.548 0 7.455-8.526 10.727-18.689 17.45 1.82-11.454 5.807-21.998 13.064-21.998m433.633 28.183c-3.266 0-20.139 22.547-27.579 22.547-2.723 0-3.809-6.545-3.809-14.91 0-9.274.183-16.729 1.45-23.634 2.724-4.549 5.083-8.909 7.44-14.366 0-5.997-9.98-15.997-17.42-15.997-2.54 0-4.534 2.002-6.167 5.274-1.273-.731-3.083-1.275-5.441-1.819-3.814-.732-7.44-1.092-10.889-1.092-15.057 0-28.121 9.457-36.469 19.452-7.169 8.736-11.28 19.756-12.772 30.703-6.334 6.519-15.146 16.389-19.883 16.389-1.45 0-1.998-1.093-1.998-3.095 0-7.089 7.622-25.088 7.622-42.727 0-12.902-8.713-20.905-25.038-20.905-14.155 0-23.227 8.181-28.67 17.272l2.724-13.09c6.892-13.268 14.692-21.999 14.692-35.089 0-4.182-3.626-17.816-11.066-17.816-2.358 0-5.264 1.092-7.257 4.909-5.942 11.595-10.643 22.202-14.374 32.004-3.052 6.822-12.965 26.217-29.67 33.102-.188.063-.366.115-.554.173 1.519-1.47 2.27-3.529 1.456-5.332-.777-1.715-2.854-2.102-2.854-2.102a5.155 5.155 0 0 0-2.63-.016c-.005-.005-.005-.01-.01-.02 1.378-1.464 2.03-3.43 1.231-5.155-.787-1.704-2.869-2.076-2.869-2.076-1.18-.308-2.285-.204-3.256.189.673-1.61.653-3.367-.407-4.658-1.19-1.454-3.297-1.292-3.297-1.292-1.743 0-3.12.774-4.049 1.93.46-1.46.34-2.98-.605-4.136-1.19-1.453-3.297-1.291-3.297-1.291-2.317 0-3.997 1.37-4.805 3.194-6.162-1.244-10.93-.878-10.93-.878-30.663 0-49.716 25.449-49.716 52.905 0 2.436.219 4.856.641 7.225-.516.622-1.017 1.239-1.544 1.866-.61.606-1.304 1.427-2.087 2.452a28.763 28.763 0 0 1-2.54 2.906 17.876 17.876 0 0 1-2.902 2.369c-1.027.664-2.03.998-2.994.998-.85 0-1.273-1.547-1.273-4.637s.302-7.183.907-12.27c.606-5.091 1.456-10.936 2.541-17.544a773.082 773.082 0 0 1 3.626-20.273c3.532-17.597 8.447-35.042 12.204-45.205 1.586-4.292 2.076-8.212 1.43-11.386-.888-4.35-3.92-7.292-9.277-7.763a22.518 22.518 0 0 0-7.258.455c-2.42.544-4.779 1.605-7.074 3.178-2.301 1.58-4.174 3.817-5.625 6.728-1.09 2.06-2.39 5.453-3.902 10.179-1.513 4.731-3.084 10.246-4.717 16.546-1.633 6.3-3.177 13.09-4.627 20.362a301.305 301.305 0 0 0-3.538 21.904c-.495 4.03-.876 7.957-1.153 11.805a474.88 474.88 0 0 1-3.74 5.65c-1.274 1.883-2.813 4-4.628 6.363a193.176 193.176 0 0 1-5.807 7.183c-.605.606-1.3 1.427-2.087 2.452a28.763 28.763 0 0 1-2.54 2.906 17.876 17.876 0 0 1-2.902 2.369c-1.028.664-2.03.998-2.995.998-.845 0-1.267-1.547-1.267-4.637s.297-7.183.902-12.27c.605-5.091 1.456-10.936 2.541-17.544 1.09-6.608 2.3-13.362 3.631-20.273 3.527-17.597 8.442-35.042 12.198-45.205 1.592-4.292 2.077-8.212 1.43-11.386-.887-4.35-3.918-7.292-9.271-7.763a22.55 22.55 0 0 0-7.263.455c-2.415.544-4.779 1.605-7.074 3.178-2.296 1.58-4.174 3.817-5.625 6.728-1.09 2.06-2.39 5.453-3.902 10.179C85.145 26.085 83.574 31.6 81.94 37.9c-1.633 6.3-3.172 13.09-4.627 20.362a298.459 298.459 0 0 0-3.533 21.904c-.913 7.335-1.455 14.366-1.633 21.09-.041 1.458-.041 2.859-.026 4.25-6.495 5.577-15.417 11.114-27.281 11.114-6.715 0-17.42-2.18-17.42-12.186V99.89c19.23-8.908 42.458-11.815 42.458-33.27 0-10.178-7.44-17.45-21.047-17.45C23.612 49.17.75 74.44.75 109.165c0 19.818 15.783 28.36 32.118 28.36 19.78 0 33.094-6.1 41.624-13.592.944 3.053 2.186 5.651 3.736 7.774 2.295 3.152 5.441 4.731 9.433 4.731 8.827 0 18.865-6.488 30.12-19.458 2.175-2.54 4.2-5.055 6.077-7.543l.783-1.051c.151 3.884.511 7.496 1.116 10.78.966 5.212 2.599 9.394 4.9 12.54 2.295 3.153 5.441 4.732 9.432 4.732 8.296 0 17.661-5.724 28.09-17.173 5.49 10.743 16.884 18.621 35.416 18.621 14.332 0 26.305-7.089 34.836-16.906 8.306-9.954 13.476-22.062 14.144-33.72a49.802 49.802 0 0 0 3.537-1.056c4.57-1.568 8.864-3.774 12.892-6.461-2.426 15.343-2.635 28.768-2.635 41.785 0 11.089 3.992 17.634 9.073 17.634 3.992 0 7.44-2.363 11.249-4.548 4.899-2.724 6.35-7.633 6.35-13.452 0-4.725-.543-10.544-1.091-16.18 2.363-14.91 13.977-36.176 23.953-36.176 6.35 0 8.165 2.724 8.165 6.54 0 10.728-5.624 19.275-5.624 38.362 0 12.18 3.083 23.274 14.514 23.274 11.953 0 24.094-7.57 31.836-17.053 3.804 11.171 13.69 17.957 26.765 17.957 16.69 0 26.129-7.45 32.478-17.81 1.998 9.995 5.99 16.906 12.887 16.906 19.048 0 41.728-20.728 41.728-36.542 0-4.183-1.45-6.911-3.266-6.911" mask="url(#b)"/>
        </g>
        <g transform="translate(0 76)">
            <mask id="d" fill="#fff">
                <use xlink:href="#c"/>
            </mask>
            <path fill="#FFF" d="M126.349 2.276c-3.253-1.412-7.604-1.412-11.531.408-2.296 1.062-4.45 2.746-6.15 5.137C100.557 19.245 92.21 57.78 92.21 57.78c-10.914-.183-24.192-.361-35.65-.361 0 0 10.302-31.547 14.873-40.345 4.565-8.798 0-17.821-17.598-16.681C36.525 1.517 7.605 6.523 1.08 22.9c-.063.146-.12.298-.178.444-.042.116-.094.225-.136.34.01.006.016.006.026.006a14.04 14.04 0 0 0-.79 4.618c0 4.73 1.998 8.004 4.184 8.004.544 0 1.271-.184 1.815-.728 7.823-6.915 14.005-12.004 34.74-12.553-4.55 10.19-9.277 24.014-13.46 38.2-15.276 4.19-23.278 12.01-23.278 17.288 0 1.088.91 1.815 2.364 1.815 4.367 0 9.638-.727 16.186-1.638-3.818 16.007-6.548 30.925-6.548 39.66 0 11.095.183 17.644 6.187 17.644 10.182 0 20.913-1.82 20.913-10.734 0-15.645 3.818-32.922 8.18-49.478 2.729-.183 5.276-.183 8.189-.183 4.544 0 17.822.544 28.553.91-2.912 15.462-4.727 29.648-4.727 38.2 0 14.009 4.544 19.464 19.82 19.464 3.274 0 7.274-1.093 7.274-5.095 0-21.168 4.184-47.877 8.295-71.321 4.204-22.053 8.68-36.783 11.913-45.027 1.971-5.037-.34-8.766-4.252-10.461" mask="url(#d)"/>
        </g>
        <ellipse cx="300" cy="291.5" fill="#09BAD1" rx="142" ry="21.5"/>
        <g transform="translate(220 2)">
            <mask id="f" fill="#fff">
                <use xlink:href="#e"/>
            </mask>
            <path fill="#0092BF" d="M28.89 1.082C41.386.711 128.73.345 137.74.345c9.01 0 16.916 7.917 16.734 25.037-.185 17.12.924 232.157 1.38 243.004.458 10.847-17.08 22.778-33.777 24.082-16.698 1.307-89.059-.053-100.592-1.306-11.534-1.254-19.596-8.569-19.81-21.317-.213-12.75-.95-228.63-.734-243.176C1.124 14.337 8.958 1.674 28.89 1.082" mask="url(#f)"/>
        </g>
        <path stroke="#14617F" stroke-width="3.055" d="M248.994 2.735C261.496 2.365 348.862 2 357.874 2c9.011 0 16.92 7.897 16.737 24.98-.185 17.082.924 231.639 1.38 242.461.458 10.82-17.084 22.726-33.785 24.028-16.703 1.304-89.082-.052-100.617-1.303-11.538-1.251-19.601-8.55-19.815-21.271-.213-12.722-.952-228.116-.735-242.63.183-12.305 8.02-24.94 27.955-25.53z"/>
        <path fill="#FFF" d="M234.832 33.86s26.851-3.869 63.05-2.607c36.197 1.26 65.164 1.299 65.164 1.299s3.726 167.467.887 222.096c-28.268 3.308-83.813 6.843-128.808 1.914.284-92.335-4.71-186.612-.293-222.701"/>
        <path stroke="#14617F" stroke-width="3.055" d="M234.832 33.86s26.851-3.869 63.05-2.607c36.197 1.26 65.164 1.299 65.164 1.299s3.726 167.467.887 222.096c-28.268 3.308-83.813 6.843-128.808 1.914.284-92.335-4.71-186.612-.293-222.701zM335.695 11.6c6.297 2.822 4.922 8.972.757 11.642-4.164 2.672-8.738-2.316-9.385-5.738-.648-3.424 3.517-8.194 8.628-5.905zM315.489 13.007c4.432.044 4.903 11.59.059 11.79-4.843.204-30.603.33-36.933 0-6.33-.328-3.51-11.138 2.034-11.335 5.546-.197 29.042-.514 34.84-.455zM315.003 271.164c1.608 1.89 1.02 10.139 0 10.994-1.02.856-37.186 1.361-38.175 0-.988-1.362-1.214-9.883 0-10.994 1.215-1.11 36.522-1.94 38.175 0z"/>
        <path fill="#0BA9CE" d="M244.733 9.82c6.467-1.21 15.555-1.284 15.26 1.174-.297 2.455-4.593 5.028-15.26 5.483-10.666.454-10.518 4.237-12.296 3.404-1.778-.833 1.778-8.094 12.296-10.061M230.727 25.103c-.477 1.338-1.412 2.154-2.091 1.823-.676-.334-.84-1.69-.363-3.028.477-1.34 1.412-2.157 2.09-1.824.678.331.84 1.689.364 3.029"/>
        <g transform="translate(267 117)">
            <mask id="h" fill="#fff">
                <use xlink:href="#g"/>
            </mask>
            <path fill="#05CBE5" d="M58.692.92c-1.511-.656-3.533-.656-5.357.189a7.204 7.204 0 0 0-2.857 2.385c-3.768 5.303-7.645 23.193-7.645 23.193-5.07-.085-11.238-.168-16.56-.168 0 0 4.785-14.645 6.909-18.73 2.12-4.084 0-8.273-8.175-7.744C16.967.568 3.532 2.891.5 10.495c-.029.068-.055.138-.082.206-.02.053-.044.104-.063.158.005.002.007.002.012.002A6.515 6.515 0 0 0 0 13.005c0 2.196.928 3.716 1.943 3.716.253 0 .59-.085.843-.338 3.635-3.21 6.506-5.573 16.138-5.828-2.113 4.73-4.31 11.149-6.253 17.734-7.096 1.945-10.813 5.576-10.813 8.026 0 .505.423.843 1.098.843 2.029 0 4.478-.338 7.52-.76-1.774 7.43-3.042 14.356-3.042 18.411 0 5.15.085 8.191 2.873 8.191 4.73 0 9.715-.845 9.715-4.983 0-7.263 1.774-15.284 3.8-22.97 1.268-.085 2.45-.085 3.804-.085 2.111 0 8.279.253 13.264.423-1.353 7.178-2.196 13.764-2.196 17.734 0 6.503 2.11 9.036 9.207 9.036 1.52 0 3.379-.508 3.379-2.365 0-9.828 1.943-22.227 3.853-33.11 1.953-10.238 4.032-17.077 5.534-20.904.916-2.338-.158-4.07-1.975-4.856" mask="url(#h)"/>
        </g>
    </g>
</svg>
