<svg xmlns="http://www.w3.org/2000/svg" width="64" height="64" viewBox="0 0 64 64">
    <g fill="none" fill-rule="evenodd">
        <path fill="#FFF" d="M63.83 31.913C63.83 14.288 49.544 0 31.916 0 14.288 0 0 14.288 0 31.913S14.288 63.83 31.915 63.83c17.628 0 31.916-14.292 31.916-31.917"/>
        <g fill="#05CBE5">
            <path d="M16.656 26.285c.481.34 1.934 1.35 4.356 3.029 2.423 1.679 4.28 2.971 5.569 3.878.142.1.443.315.903.648.46.334.843.603 1.148.808.304.206.673.436 1.105.69.432.256.84.447 1.222.574.383.128.737.191 1.063.191h.043c.325 0 .68-.063 1.062-.19.383-.128.79-.32 1.222-.574.432-.255.8-.486 1.106-.69.304-.206.687-.475 1.147-.809.46-.333.762-.549.904-.648 1.303-.907 4.619-3.21 9.946-6.907a10.096 10.096 0 0 0 2.593-2.615c.694-1.02 1.041-2.09 1.041-3.208 0-.936-.336-1.736-1.01-2.402-.673-.666-1.47-.999-2.39-.999H16.4c-1.09 0-1.93.368-2.518 1.105-.588.737-.882 1.658-.882 2.763 0 .893.39 1.86 1.169 2.901.78 1.042 1.608 1.86 2.487 2.455z"/>
            <path d="M48.96 28.559c-4.646 3.145-8.175 5.59-10.583 7.333a50.15 50.15 0 0 1-1.966 1.391c-.503.333-1.172.674-2.009 1.02-.835.348-1.614.521-2.337.521h-.043c-.723 0-1.502-.173-2.338-.52-.836-.347-1.505-.688-2.008-1.02a50.334 50.334 0 0 1-1.966-1.392c-1.913-1.403-5.434-3.848-10.563-7.333A11.258 11.258 0 0 1 13 26.71v16.875c0 .935.333 1.736.999 2.402.666.666 1.466.999 2.402.999h31.285c.935 0 1.736-.333 2.402-1a3.273 3.273 0 0 0 .998-2.401V26.71a11.72 11.72 0 0 1-2.125 1.849z"/>
        </g>
    </g>
</svg>
