<?xml version="1.0" encoding="utf-8"?>
<!-- Generator: Adobe Illustrator 22.0.1, SVG Export Plug-In . SVG Version: 6.00 Build 0)  -->
<svg version="1.1" id="Layer_1" xmlns="http://www.w3.org/2000/svg" xmlns:xlink="http://www.w3.org/1999/xlink" x="0px" y="0px"
	 viewBox="0 0 50 50" style="enable-background:new 0 0 50 50;" xml:space="preserve">
<style type="text/css">
	.st0{fill:none;}
	.st1{fill:#999999;}
</style>
<g>
	<g>
		<defs>
			<circle id="SVGID_1_" cx="25" cy="25" r="24.5"/>
		</defs>
		<clipPath id="SVGID_2_">
			<use xlink:href="#SVGID_1_"  style="overflow:visible;"/>
		</clipPath>
		<use xlink:href="#SVGID_1_"  style="overflow:visible;fill:none;stroke:#D0D0D0;stroke-miterlimit:10;"/>
	</g>
</g>
<g>
	<rect x="12.8" y="12.8" class="st0" width="24.5" height="24.5"/>
	<rect x="0.5" y="0.5" class="st0" width="49" height="49"/>
	<g>
		<g>
			<path class="st1" d="M24,17.9v14.3c0,0.6,0.5,1,1,1c0.6,0,1-0.5,1-1V17.9c0-0.6-0.5-1-1-1C24.4,16.8,24,17.3,24,17.9"/>
			<path class="st1" d="M32.1,24H17.9c-0.6,0-1,0.5-1,1c0,0.6,0.5,1,1,1h14.3c0.6,0,1-0.5,1-1C33.2,24.4,32.7,24,32.1,24"/>
		</g>
	</g>
</g>
</svg>
