<?xml version="1.0" encoding="utf-8"?>
<!-- Generator: Adobe Illustrator 22.0.1, SVG Export Plug-In . SVG Version: 6.00 Build 0)  -->
<svg version="1.1" id="Layer_1" xmlns="http://www.w3.org/2000/svg" xmlns:xlink="http://www.w3.org/1999/xlink" x="0px" y="0px"
	 viewBox="0 0 100 100" style="enable-background:new 0 0 100 100;" xml:space="preserve">
<style type="text/css">
	.st0{fill:#05CBE5;}
	.st1{fill:#FFFFFF;}
</style>
<circle class="st0" cx="50" cy="50" r="50"/>
<path class="st1" d="M81.1,16.3c-1.7-0.7-3.9-0.7-5.9,0.2C74,17,72.9,17.9,72,19.1c-4.2,5.9-8.4,25.6-8.4,25.6
	c-5.6-0.1-12.4-0.2-18.3-0.2c0,0,5.3-16.2,7.6-20.7c2.3-4.5,0-9.1-9-8.5c-8.9,0.6-23.7,3.1-27,11.5c0,0.1-0.1,0.2-0.1,0.2
	c0,0.1,0,0.1-0.1,0.2c0,0,0,0,0,0c-0.3,0.7-0.4,1.5-0.4,2.4c0,2.4,1,4.1,2.1,4.1c0.3,0,0.7-0.1,0.9-0.4c4-3.5,7.2-6.2,17.8-6.4
	c-2.3,5.2-4.8,12.3-6.9,19.6c-7.8,2.1-11.9,6.2-11.9,8.9c0,0.6,0.5,0.9,1.2,0.9c2.2,0,4.9-0.4,8.3-0.8c-2,8.2-3.4,15.8-3.4,20.3
	c0,5.7,0.1,9,3.2,9c5.2,0,10.7-0.9,10.7-5.5c0-8,2-16.9,4.2-25.3c1.4-0.1,2.7-0.1,4.2-0.1c2.3,0,9.1,0.3,14.6,0.5
	C60,62.2,59,69.5,59,73.9c0,7.2,2.3,10,10.2,10c1.7,0,3.7-0.6,3.7-2.6c0-10.8,2.1-24.5,4.2-36.5c2.2-11.3,4.4-18.8,6.1-23.1
	C84.3,19,83.1,17.1,81.1,16.3z"/>
</svg>
