<?xml version="1.0" encoding="utf-8"?>
<!-- Generator: Adobe Illustrator 22.0.1, SVG Export Plug-In . SVG Version: 6.00 Build 0)  -->
<svg version="1.1" id="Layer_1" xmlns="http://www.w3.org/2000/svg" xmlns:xlink="http://www.w3.org/1999/xlink" x="0px" y="0px"
	 viewBox="0 0 36 36" style="enable-background:new 0 0 36 36;" xml:space="preserve">
<style type="text/css">
	.st0{clip-path:url(#SVGID_2_);}
	.st1{clip-path:url(#SVGID_6_);}
	.st2{clip-path:url(#SVGID_8_);}
	.st3{fill:#999999;}
	.st4{clip-path:url(#SVGID_10_);}
</style>
<g>
	<g>
		<g>
			<defs>
				<path id="SVGID_1_" d="M19.6,13.1c0-0.9,0.1-1.3,1.4-1.3h1.7V8.5H20c-3.3,0-4.4,1.6-4.4,4.3v2h-2V18h2v9.5h4.1V18h2.7l0.4-3.3
					h-3.1L19.6,13.1z M18,35.5C8.3,35.5,0.5,27.7,0.5,18S8.3,0.5,18,0.5S35.5,8.3,35.5,18S27.7,35.5,18,35.5z"/>
			</defs>
			<clipPath id="SVGID_2_">
				<use xlink:href="#SVGID_1_"  style="overflow:visible;"/>
			</clipPath>
			<g class="st0">
				<defs>
					<rect id="SVGID_3_" x="-544.2" y="-4983.2" width="1279.4" height="6023.2"/>
				</defs>
				<clipPath id="SVGID_4_">
					<use xlink:href="#SVGID_3_"  style="overflow:visible;"/>
				</clipPath>
			</g>
		</g>
	</g>
	<g>
		<g>
			<defs>
				<path id="SVGID_5_" d="M19.6,13.1c0-0.9,0.1-1.3,1.4-1.3h1.7V8.5H20c-3.3,0-4.4,1.6-4.4,4.3v2h-2V18h2v9.5h4.1V18h2.7l0.4-3.3
					h-3.1L19.6,13.1z M18,35.5C8.3,35.5,0.5,27.7,0.5,18S8.3,0.5,18,0.5S35.5,8.3,35.5,18S27.7,35.5,18,35.5z"/>
			</defs>
			<use xlink:href="#SVGID_5_"  style="overflow:visible;fill-rule:evenodd;clip-rule:evenodd;fill:#999999;"/>
			<clipPath id="SVGID_6_">
				<use xlink:href="#SVGID_5_"  style="overflow:visible;"/>
			</clipPath>
			<g class="st1">
				<defs>
					<rect id="SVGID_7_" x="-544.2" y="-4983.2" width="1279.4" height="6023.2"/>
				</defs>
				<use xlink:href="#SVGID_7_"  style="overflow:visible;fill:#999999;"/>
				<clipPath id="SVGID_8_">
					<use xlink:href="#SVGID_7_"  style="overflow:visible;"/>
				</clipPath>
				<g class="st2">
					<rect x="-4.5" y="-4.5" class="st3" width="45" height="45"/>
				</g>
			</g>
		</g>
	</g>
	<g>
		<g>
			<defs>
				<path id="SVGID_9_" d="M19.6,13.1c0-0.9,0.1-1.3,1.4-1.3h1.7V8.5H20c-3.3,0-4.4,1.6-4.4,4.3v2h-2V18h2v9.5h4.1V18h2.7l0.4-3.3
					h-3.1L19.6,13.1z M18,35.5C8.3,35.5,0.5,27.7,0.5,18S8.3,0.5,18,0.5S35.5,8.3,35.5,18S27.7,35.5,18,35.5z"/>
			</defs>
			<clipPath id="SVGID_10_">
				<use xlink:href="#SVGID_9_"  style="overflow:visible;"/>
			</clipPath>
			<g class="st4">
				<defs>
					<rect id="SVGID_11_" x="-544.2" y="-4983.2" width="1279.4" height="6023.2"/>
				</defs>
				<clipPath id="SVGID_12_">
					<use xlink:href="#SVGID_11_"  style="overflow:visible;"/>
				</clipPath>
			</g>
		</g>
	</g>
</g>
</svg>
