<?xml version="1.0" encoding="utf-8"?>
<!-- Generator: Adobe Illustrator 22.0.1, SVG Export Plug-In . SVG Version: 6.00 Build 0)  -->
<svg version="1.1" id="Layer_1" xmlns="http://www.w3.org/2000/svg" xmlns:xlink="http://www.w3.org/1999/xlink" x="0px" y="0px"
	 viewBox="0 0 64 64" style="enable-background:new 0 0 64 64;" xml:space="preserve">
<style type="text/css">
	.st0{fill:#FFFFFF;}
	.st1{fill-rule:evenodd;clip-rule:evenodd;fill:#0D78F9;}
</style>
<g>
	<circle class="st0" cx="32" cy="32" r="32"/>
	<path class="st1" d="M36.3,22.9c0.9,0,1.7,0,2.6,0c0.1,0,0.2,0,0.4,0v-4.5c-0.5,0-0.9-0.1-1.4-0.1c-0.9,0-1.8-0.1-2.6-0.1
		c-1.3,0-2.6,0.4-3.7,1.2c-1.3,0.9-2,2.2-2.2,3.7c-0.1,0.6-0.1,1.3-0.2,1.9c0,1,0,2,0,3v0.4h-4.3v5H29v12.5h5.2V33.4h4.2
		c0.2-1.7,0.4-3.3,0.6-5c-0.3,0-0.6,0-0.9,0c-1.2,0-4,0-4,0s0-2.5,0-3.5C34.2,23.4,35.1,22.9,36.3,22.9z"/>
</g>
</svg>
