<svg xmlns="http://www.w3.org/2000/svg" width="64" height="64" viewBox="0 0 64 64">
    <g fill="none" fill-rule="evenodd">
        <path fill="#FFF" d="M63.506 32.25C63.506 14.993 49.515 1 32.253 1 14.992 1 1 14.992 1 32.25c0 17.26 13.992 31.256 31.253 31.256 17.262 0 31.253-13.996 31.253-31.255"/>
        <path fill="#FBBB00" d="M21.978 35.755l-1.253 4.678-4.58.097A17.92 17.92 0 0 1 14 32c0-2.985.726-5.8 2.013-8.278l4.078.748 1.786 4.053A10.7 10.7 0 0 0 21.3 32c0 1.321.24 2.587.678 3.755z"/>
        <path fill="#518EF8" d="M49.685 28.637A18.02 18.02 0 0 1 50 32c0 1.289-.135 2.546-.394 3.758a17.996 17.996 0 0 1-6.337 10.279h-.001l-5.136-.263-.727-4.538a10.728 10.728 0 0 0 4.616-5.478h-9.625v-7.12h17.289z"/>
        <path fill="#28B446" d="M43.268 46.036v.001A17.924 17.924 0 0 1 32 50c-6.855 0-12.815-3.831-15.855-9.47l5.833-4.775C23.498 39.812 27.412 42.7 32 42.7c1.972 0 3.82-.533 5.405-1.464l5.863 4.8z"/>
        <path fill="#F14336" d="M43.49 18.144l-5.832 4.774A10.64 10.64 0 0 0 32 21.3c-4.692 0-8.679 3.02-10.123 7.223l-5.863-4.801h-.001C19.008 17.946 25.043 14 32 14c4.367 0 8.372 1.556 11.49 4.144z"/>
    </g>
</svg>
