<?xml version="1.0" encoding="utf-8"?>
<!-- Generator: Adobe Illustrator 22.0.1, SVG Export Plug-In . SVG Version: 6.00 Build 0)  -->
<svg version="1.1" id="Layer_1" xmlns="http://www.w3.org/2000/svg" xmlns:xlink="http://www.w3.org/1999/xlink" x="0px" y="0px"
	 viewBox="0 0 94.8 84.8" style="enable-background:new 0 0 94.8 84.8;" xml:space="preserve">
<style type="text/css">
	.st0{display:none;fill:#CC1717;}
	.st1{display:none;}
	.st2{display:inline;fill:none;stroke:#FFFFFF;stroke-width:5;stroke-miterlimit:10;}
	.st3{display:inline;fill:none;stroke:#FFFFFF;stroke-width:5;stroke-linecap:round;stroke-linejoin:round;stroke-miterlimit:10;}
	.st4{display:inline;fill:#FFFFFF;}
	.st5{display:none;fill:none;stroke:#FFFFFF;stroke-width:5;stroke-miterlimit:10;}
	.st6{fill:none;stroke:#FFFFFF;stroke-width:5;stroke-linecap:round;stroke-miterlimit:10;}
	.st7{fill:none;stroke:#FFFFFF;stroke-width:5;stroke-linecap:round;stroke-linejoin:round;stroke-miterlimit:10;}
</style>
<rect class="st0" width="94.8" height="84.8"/>
<g class="st1">
	<path class="st2" d="M13.9,13.9h66.7c1.1,0,2,0.9,2,2v52.5c0,1.1-0.9,2-2,2H13.9c-1.1,0-2-0.9-2-2V15.9
		C11.9,14.8,12.8,13.9,13.9,13.9z"/>
	<path class="st2" d="M11.9,17.5L41.4,37c3.5,2.3,8.1,2.3,11.7,0l29.5-19.5"/>
</g>
<g class="st1">
	<path class="st2" d="M84,81.8H10.5c-1.7,0-3-1.3-3-3V14.2c0-1.7,1.3-3,3-3H84c1.7,0,3,1.3,3,3v64.7C87,80.5,85.7,81.8,84,81.8z"/>
	<line class="st2" x1="8.5" y1="30.6" x2="86" y2="30.6"/>
	<line class="st3" x1="24.6" y1="11.2" x2="24.6" y2="2.4"/>
	<line class="st3" x1="69.8" y1="11.2" x2="69.8" y2="2.4"/>
	<path class="st4" d="M50.2,48.5h-6c-0.5,0-0.9-0.4-0.9-0.9v-6c0-0.5,0.4-0.9,0.9-0.9h6c0.5,0,0.9,0.4,0.9,0.9v6
		C51.1,48.2,50.7,48.5,50.2,48.5z"/>
	<path class="st4" d="M72.8,48.5h-6c-0.5,0-0.9-0.4-0.9-0.9v-6c0-0.5,0.4-0.9,0.9-0.9h6c0.5,0,0.9,0.4,0.9,0.9v6
		C73.7,48.2,73.3,48.5,72.8,48.5z"/>
	<path class="st4" d="M27.6,48.5h-6c-0.5,0-0.9-0.4-0.9-0.9v-6c0-0.5,0.4-0.9,0.9-0.9h6c0.5,0,0.9,0.4,0.9,0.9v6
		C28.5,48.2,28.1,48.5,27.6,48.5z"/>
	<path class="st4" d="M50.2,68.5h-6c-0.5,0-0.9-0.4-0.9-0.9v-6c0-0.5,0.4-0.9,0.9-0.9h6c0.5,0,0.9,0.4,0.9,0.9v6
		C51.1,68.1,50.7,68.5,50.2,68.5z"/>
	<path class="st4" d="M72.8,68.5h-6c-0.5,0-0.9-0.4-0.9-0.9v-6c0-0.5,0.4-0.9,0.9-0.9h6c0.5,0,0.9,0.4,0.9,0.9v6
		C73.7,68.1,73.3,68.5,72.8,68.5z"/>
	<path class="st4" d="M27.6,68.5h-6c-0.5,0-0.9-0.4-0.9-0.9v-6c0-0.5,0.4-0.9,0.9-0.9h6c0.5,0,0.9,0.4,0.9,0.9v6
		C28.5,68.1,28.1,68.5,27.6,68.5z"/>
</g>
<g class="st1">
	<path class="st3" d="M28.6,69.2c6.3,5.4,14.4,8.7,23.3,8.7c19.7,0,35.7-16,35.7-35.7S71.6,6.4,51.9,6.4s-35.7,16-35.7,35.7"/>
	<polyline class="st3" points="52.9,30.3 52.9,43.3 64.2,53.3 	"/>
	<polyline class="st3" points="27.1,35.3 15.1,43.5 6.9,31.5 	"/>
</g>
<path class="st5" d="M71.5,55.3L71.5,55.3c-4.7-0.8-9.6,0.5-13.2,3.7l-2.8,2.1c0,0-7.8-3.7-15.8-11.5c-7.8-8-11.5-15.8-11.5-15.8
	l2.1-2.8c3.2-3.6,4.6-8.5,3.7-13.2l0,0c-1.3-7.5-7.9-13-15.6-12.9h0c-5.1,0-8.4,4.5-8.4,9.7C10,31.7,17.1,44,30.8,58.6
	c14.6,13.7,30.7,20.8,44,20.8c5.1,0,9.6-3.3,9.7-8.4v0C84.5,63.3,79,56.7,71.5,55.3z"/>
<g>
	<path class="st6" d="M38.5,25.2V13.4c0-4.9,4-8.8,8.8-8.8h36.1c4.9,0,8.8,4,8.8,8.8v57.4c0,4.9-4,8.8-8.8,8.8H47.3
		c-4.9,0-8.8-4-8.8-8.8V60.3"/>
	<g>
		<polyline class="st7" points="20,60 2.2,42.6 20,25.3 		"/>
		<line class="st7" x1="56.9" y1="42.6" x2="2.2" y2="42.6"/>
	</g>
</g>
</svg>
