<?xml version="1.0" encoding="utf-8"?>
<!-- Generator: Adobe Illustrator 22.0.1, SVG Export Plug-In . SVG Version: 6.00 Build 0)  -->
<svg version="1.1" id="Layer_1" xmlns="http://www.w3.org/2000/svg" xmlns:xlink="http://www.w3.org/1999/xlink" x="0px" y="0px"
	 viewBox="0 0 184.4 178.7" style="enable-background:new 0 0 184.4 178.7;" xml:space="preserve">
<style type="text/css">
	.st0{fill:#0092BF;}
	.st1{fill:none;stroke:#14617F;stroke-width:1.055;stroke-miterlimit:10;}
	.st2{fill:#FFFFFF;stroke:#14617F;stroke-width:1.055;stroke-miterlimit:10;}
	.st3{fill:#0BA9CE;}
	.st4{fill:none;stroke:#14617F;stroke-width:2.11;stroke-linecap:round;stroke-miterlimit:10;}
	.st5{fill:none;stroke:#14617F;stroke-width:1.055;stroke-linecap:round;stroke-miterlimit:10;}
	.st6{fill:none;stroke:#000000;stroke-width:1.055;stroke-linecap:round;stroke-linejoin:round;stroke-miterlimit:10;}
	.st7{fill:none;stroke:#14617F;stroke-width:4.2201;stroke-linecap:round;stroke-miterlimit:10;}
	.st8{fill:#14617F;}
	.st9{fill:#FFFFFF;}
	.st10{font-family:'Verveine-Regular';}
	.st11{font-size:8.2235px;}
	.st12{opacity:0.5;fill:#05CBE5;}
	.st13{fill:#D3C2AE;}
	.st14{fill:#382914;}
	.st15{clip-path:url(#SVGID_2_);fill:#C93F3F;stroke:#14617F;stroke-width:1.3699;stroke-miterlimit:10;}
	.st16{clip-path:url(#SVGID_2_);fill:#E2CFBA;stroke:#14617F;stroke-width:1.3699;stroke-miterlimit:10;}
	.st17{clip-path:url(#SVGID_4_);fill:#DDD3D3;stroke:#14617F;stroke-width:1.4418;stroke-miterlimit:10;}
	.st18{clip-path:url(#SVGID_4_);fill:#E2CFBA;stroke:#14617F;stroke-width:1.4418;stroke-miterlimit:10;}
	.st19{clip-path:url(#SVGID_6_);fill:#1893C9;stroke:#14617F;stroke-width:1.2109;stroke-miterlimit:10;}
	.st20{clip-path:url(#SVGID_6_);fill:#E2CFBA;stroke:#14617F;stroke-width:1.2109;stroke-miterlimit:10;}
	.st21{font-size:9.5834px;}
</style>
<g>
	<g>
		<path class="st0" d="M59.9,1.4C67.2,1.2,118.4,1,123.6,1c5.3,0,9.9,4.6,9.8,14.6c-0.1,10,0.5,135.7,0.8,142.1
			c0.3,6.3-10,13.3-19.8,14.1c-9.8,0.8-52.1,0-58.9-0.8s-11.5-5-11.6-12.5c-0.1-7.5-0.6-133.7-0.4-142.2C43.7,9.1,48.3,1.7,59.9,1.4
			z"/>
		<path class="st1" d="M59.9,0.9c7.3-0.2,58.4-0.4,63.7-0.4c5.3,0,9.9,4.6,9.8,14.6c-0.1,10,0.5,135.7,0.8,142.1
			c0.3,6.3-10,13.3-19.8,14.1c-9.8,0.8-52.1,0-58.9-0.8s-11.5-5-11.6-12.5c-0.1-7.5-0.6-133.7-0.4-142.2C43.7,8.6,48.3,1.2,59.9,0.9
			z"/>
		<path class="st2" d="M51.3,19.7c0,0,15.7-2.3,36.8-1.5c21.1,0.7,38.1,0.8,38.1,0.8s2.2,98,0.5,130c-16.5,1.9-49,4-75.2,1.1
			C51.6,96,48.7,40.8,51.3,19.7z"/>
		<path class="st1" d="M110.4,6.4c3.6,1.6,2.8,5.1,0.4,6.6c-2.4,1.5-5-1.3-5.3-3.2S107.5,5.1,110.4,6.4z"/>
		<path class="st1" d="M99.2,6.6c2.6,0,2.9,6.3,0,6.4c-2.9,0.1-18.1,0.2-21.9,0c-3.7-0.2-2.1-6,1.2-6.2C81.8,6.7,95.7,6.5,99.2,6.6z
			"/>
		<path class="st1" d="M98.8,158.4c0.9,1.1,0.6,5.9,0,6.4c-0.6,0.5-21.8,0.8-22.4,0s-0.7-5.8,0-6.4S97.9,157.3,98.8,158.4z"/>
		<path class="st3" d="M57.7,4.9c3.8-0.7,9.2-0.7,9.1,0.7S64,8.5,57.7,8.8c-6.3,0.3-6.2,2.5-7.3,2C49.3,10.3,51.4,6,57.7,4.9z"/>
		<ellipse transform="matrix(0.3857 -0.9226 0.9226 0.3857 17.3409 53.0962)" class="st3" cx="48.5" cy="13.5" rx="1.5" ry="0.9"/>
		<g>
			<g>
				<path class="st2" d="M55.1,41.5l66-0.2c0,0-0.4,13.1,0.4,30c-14.2-0.2-65.7-0.2-65.7-0.2S55,57.7,55.1,41.5z"/>
				<line class="st2" x1="121.1" y1="41.3" x2="55.9" y2="71.1"/>
				<line class="st2" x1="55.1" y1="41.5" x2="121.5" y2="71.3"/>
			</g>
		</g>
		<g>
			<path class="st4" d="M57,106.5c0,0,1-0.9,19.9-0.5"/>
			<path class="st5" d="M57,109.9c0,0,4.9-0.6,14.6-0.5"/>
			<path class="st4" d="M91.3,106.5c0,0,1-0.9,19.9-0.5"/>
			<path class="st5" d="M91.3,109.9c0,0,4.9-0.6,14.6-0.5"/>
			<path class="st4" d="M57,117.9c0,0,1-0.9,19.9-0.5"/>
			<path class="st5" d="M57,121.4c0,0,4.9-0.6,14.6-0.5"/>
			<path class="st4" d="M91.3,117.9c0,0,1-0.9,19.9-0.5"/>
			<path class="st5" d="M91.3,121.4c0,0,4.9-0.6,14.6-0.5"/>
		</g>
		<g>
			<path class="st6" d="M57.5,27c0,0-1.7,1.6-2.6,2.7c0.7,1,3.1,2.4,3.1,2.4"/>
			<line class="st6" x1="59.9" y1="29.5" x2="55.7" y2="29.7"/>
		</g>
		<path class="st7" d="M60.3,83.5c0,0,30.1-2.5,57.9-0.5"/>
		<path class="st7" d="M76,91.2c0,0,9.8-1.7,26.5,0.2"/>
		<path class="st8" d="M56.4,134.2c-0.1,2-0.2,5.1,0,8.1c0.1,1.1,1,2,2.1,2c12.3,0,37.2-2,61.5-1c1.2,0,2.2-0.9,2.2-2
			c0.1-2.3,0-5.3-0.1-7.2c0-1-0.8-1.9-1.9-2c-4.9-0.5-20.9-1.6-61.8,0.2C57.3,132.2,56.4,133.1,56.4,134.2z"/>
		<text transform="matrix(0.9989 -4.616000e-02 4.616000e-02 0.9989 82.1426 139.6202)" class="st9 st10 st11">Book</text>
	</g>
	<g>
		<g>
			<path class="st9" d="M129.1,129c0.4-0.5,0.7-1,1.1-1.4c0.4-0.4,0.8-0.8,1.3-1.2c0.9-0.8,2-1.4,3.2-1.8l0,0c0.8-0.3,1.7,0.2,2,1
				c0.3,0.8-0.2,1.7-1,2c-0.1,0-0.2,0.1-0.3,0.1c-0.8,0.1-1.6,0.4-2.4,0.9c-0.4,0.2-0.8,0.5-1.2,0.8c-0.4,0.3-0.7,0.6-1,0.9
				l-0.1,0.1c-0.4,0.4-1.1,0.4-1.5,0C128.9,130,128.9,129.4,129.1,129z"/>
		</g>
		<g>
			<path class="st9" d="M132.1,133.4c0.6-0.3,1.1-0.6,1.7-0.8c0.5-0.2,1.1-0.4,1.6-0.6c1.1-0.4,2.2-0.6,3.3-0.9l0,0
				c0.9-0.2,1.7,0.4,1.9,1.2c0.2,0.9-0.4,1.7-1.2,1.9c-0.1,0-0.2,0-0.3,0c-1,0-2.1,0.1-3.1,0.3c-0.5,0.1-1,0.2-1.5,0.3
				c-0.5,0.1-1,0.3-1.4,0.4l-0.1,0c-0.5,0.2-1.1-0.1-1.3-0.6C131.5,134.2,131.7,133.7,132.1,133.4z"/>
		</g>
		<g>
			<path class="st9" d="M132.7,138.9c0.6,0,1.1,0.1,1.7,0.1c0.6,0.1,1.1,0.1,1.7,0.3c0.6,0.1,1.1,0.3,1.7,0.5c0.6,0.2,1.2,0.5,1.8,1
				l0,0c0.5,0.5,0.6,1.3,0.1,1.8s-1.3,0.6-1.8,0.1c0,0-0.1-0.1-0.1-0.1c-0.2-0.2-0.5-0.4-0.9-0.6c-0.4-0.2-0.9-0.3-1.3-0.5
				c-0.5-0.1-1-0.2-1.5-0.3c-0.5-0.1-1-0.2-1.5-0.2l0,0c-0.6-0.1-1-0.6-0.9-1.2C131.6,139.3,132.1,138.9,132.7,138.9z"/>
		</g>
	</g>
	<g>
		<circle class="st12" cx="113.9" cy="140.6" r="11.1"/>
		<path class="st13" d="M139.3,174.5l-11,3.3c0,0-1-5.3-4-6.3c-3-1-5.5-1.7-7.7-5.6c-2.2-3.9-6.6-7.7-6-9.7c0.6-2,3.5-1.1,7.5,1.6
			c-2.5-5.1-6.7-16.3-4.3-17.4c2.4-1,3.6,2.4,7,9.6c1.1-3,2.2-4,4.6-1c1.8-3,3.1-2.9,5.1,0.9c1.4-2.7,3-2.3,3.9-1.1
			s3.4,9.4,3.4,12.9s-1.6,7.8-0.1,9.7C139.3,173.3,139.3,174.5,139.3,174.5z"/>
		<path class="st14" d="M132,147.2C132,147.2,132,147.2,132,147.2c-0.6,0.2-1.1,0.6-1.4,1.1c-0.8-1.4-1.9-2.5-3.3-2.2
			c-0.1,0-0.3,0.1-0.4,0.1c-0.6,0.2-1.1,0.7-1.5,1.3c-0.7-1-1.6-1.6-2.9-1.3c-0.1,0-0.3,0.1-0.4,0.1c-0.7,0.3-1.2,0.8-1.6,1.5
			c-0.2-0.4-0.4-0.9-0.6-1.3c-0.3-0.7-0.6-1.5-0.9-2.2c-0.6-1.4-1.1-2.8-1.8-3.8c-1.2-1.7-2.4-1.7-3.2-1.4c-0.1,0-0.3,0.1-0.4,0.2
			c-1,0.5-1.5,1.4-1.7,2.5c-0.1,0.5,0,1.1,0.1,1.8c0.3,1.6,1.1,3.6,1.9,5.8c0.2,0.6,0.5,1.2,0.7,1.8c0.6,1.7,1.3,3.4,1.9,4.8
			c-0.4-0.3-0.8-0.6-1.2-0.9c-1.6-1.1-3-1.4-4.2-1c-0.5,0.2-1,0.6-1.4,1c-0.4,0.5-0.5,1-0.5,1.5c0.1,1.2,1.2,2.5,2.5,3.9
			c1.4,1.5,3.1,3.4,4.3,6c1.5,3.2,3.1,3.7,5,4.3c0.7,0.2,1.6,0.5,2.5,0.9c1.6,0.7,3.3,4,3.5,6.1c0,0.3,0.2,0.5,0.4,0.7
			c0.2,0.2,0.5,0.2,0.7,0.1c0.1,0,5.5-1.4,9.9-3c0.6-0.2,1.1-0.4,1.6-0.6c0.3-0.1,0.5-0.3,0.6-0.6c0.1-0.3,0-0.6-0.2-0.8
			c-1-1.2-2.5-3.6-2.3-4.9l0.1-0.4c0.4-2.6,0.8-5.1,0.6-7.9c-0.6-6.6-2.3-11.7-4.5-13.1C133.4,147.1,132.7,146.9,132,147.2z
			 M135.3,152.8c0.7,2.2,1.3,4.9,1.5,8c0.2,2.6-0.1,4.9-0.5,7.5l-0.1,0.4c-0.3,1.8,1.1,4,2,5.3c-3.4,1.2-7.5,2.3-9.3,2.8
			c-0.2-1-0.7-2.2-1.3-3.2c-0.6-1.2-1.7-2.7-3.1-3.4c-1.1-0.5-2-0.8-2.8-1c-1.8-0.5-2.7-0.8-3.9-3.3c-1.3-2.8-3.1-4.8-4.6-6.4
			c-1.6-1.8-2.2-2.6-1.9-3.1c0.2-0.2,0.3-0.4,0.5-0.4c1.5-0.6,4.8,2.4,6.6,4.7c0.3,0.4,0.8,0.4,1.2,0.2c0.4-0.2,0.5-0.7,0.4-1.1
			c0,0-2-4.6-3.7-9.1c-0.2-0.6-0.5-1.2-0.7-1.8c-1.7-4.3-2.6-7-1.1-7.8c0,0,0.1,0,0.1-0.1c0.9-0.3,1.9,2.2,2.7,4.2
			c0.3,0.8,0.6,1.5,1,2.3c2.3,5,4.2,10.4,4.2,10.5c0.2,0.5,0.7,0.7,1.2,0.6c0.5-0.2,0.7-0.7,0.6-1.1c0,0-0.9-2.9-1.9-5.6
			c-0.5-1.4-0.4-3.2,0.4-3.5c0,0,0.1,0,0.1,0c0.8-0.2,1.3,0.7,2.2,2.9l0.1,0.2c0.9,2.5,1.8,5.6,1.8,5.7c0.1,0.5,0.6,0.8,1.1,0.6
			c0.5-0.1,0.8-0.6,0.7-1.1c0-0.1-0.7-3.2-1.9-5.9c-0.4-1.2,0-2.2,0.6-2.5c0,0,0.1,0,0.1,0c0.6-0.1,1.2,1,1.4,1.4
			c0.6,1.1,1.1,2.7,1.4,3.8l0,0.1c0.6,2.1,0.8,2.9,0.8,3c0.1,0.5,0.6,0.8,1.1,0.7c0.5-0.1,0.8-0.6,0.7-1.1c0-0.1-0.5-2.1-0.8-3
			c-0.9-3.3,0-3.6,0.3-3.7c0.1,0,0.2-0.1,0.5,0.1C133.5,149.3,134.4,150.1,135.3,152.8z"/>
	</g>
	<g>
		<defs>
			<path id="SVGID_1_" d="M24.5,69.9c9-0.9,12.3,9.6,10.8,15.3c-1.5,5.7-11.2,11.2-18.9,4.5S12.9,71,24.5,69.9z"/>
		</defs>
		<use xlink:href="#SVGID_1_"  style="overflow:visible;fill:#3CBC55;"/>
		<clipPath id="SVGID_2_">
			<use xlink:href="#SVGID_1_"  style="overflow:visible;"/>
		</clipPath>
		<path class="st15" d="M16.7,96.1c0,0-0.1-12.1,8-13.6c8.2-1.5,12.6,9.4,12.6,9.4"/>
		<circle class="st16" cx="24.3" cy="80.1" r="3.9"/>
		<use xlink:href="#SVGID_1_"  style="overflow:visible;fill:none;stroke:#14617F;stroke-width:1.3699;stroke-miterlimit:10;"/>
	</g>
	<g>
		<defs>
			<path id="SVGID_3_" d="M158.6,30.5c8.9,3.5,7,14.9,2.9,19.5c-4.1,4.6-15.9,5.1-19.9-4.7S147.2,26.1,158.6,30.5z"/>
		</defs>
		<use xlink:href="#SVGID_3_"  style="overflow:visible;fill:#D8CC79;"/>
		<clipPath id="SVGID_4_">
			<use xlink:href="#SVGID_3_"  style="overflow:visible;"/>
		</clipPath>
		<path class="st17" d="M138.9,51.4c0,0,5.6-11.4,14-9c8.4,2.5,7.4,14.8,7.4,14.8"/>
		<circle class="st18" cx="153.6" cy="39.9" r="4.1"/>
		<use xlink:href="#SVGID_3_"  style="overflow:visible;fill:none;stroke:#14617F;stroke-width:1.4418;stroke-miterlimit:10;"/>
	</g>
	<g>
		<defs>
			<path id="SVGID_5_" d="M145.4,91.4c7.5,2.8,6,12.4,2.6,16.4c-3.4,3.9-13.3,4.5-16.7-3.8C127.9,95.7,135.8,87.8,145.4,91.4z"/>
		</defs>
		<use xlink:href="#SVGID_5_"  style="overflow:visible;fill:#D6A5B9;"/>
		<clipPath id="SVGID_6_">
			<use xlink:href="#SVGID_5_"  style="overflow:visible;"/>
		</clipPath>
		<path class="st19" d="M129.1,109.1c0,0,4.6-9.7,11.7-7.7c7.1,2,6.3,12.3,6.3,12.3"/>
		<circle class="st20" cx="141.3" cy="99.3" r="3.5"/>
		<use xlink:href="#SVGID_5_"  style="overflow:visible;fill:none;stroke:#14617F;stroke-width:1.2109;stroke-miterlimit:10;"/>
	</g>
	<text transform="matrix(0.946 0.3241 -0.3241 0.946 146.0652 19.0322)" class="st8 st10 st21">I’m ready</text>
	<text transform="matrix(0.9549 -0.2969 0.2969 0.9549 3.6584 65.3498)" class="st8 st10 st21">I’m ready</text>
	<text transform="matrix(0.9013 0.4333 -0.4333 0.9013 139.2724 78.9657)" class="st8 st10 st21">I’m ready</text>
</g>
</svg>
