<?xml version="1.0" encoding="utf-8"?>
<!-- Generator: Adobe Illustrator 22.0.1, SVG Export Plug-In . SVG Version: 6.00 Build 0)  -->
<svg version="1.1" id="Layer_1" xmlns="http://www.w3.org/2000/svg" xmlns:xlink="http://www.w3.org/1999/xlink" x="0px" y="0px"
	 viewBox="0 0 162 172" style="enable-background:new 0 0 162 172;" xml:space="preserve">
<style type="text/css">
	.st0{fill:#FFFFFF;stroke:#14617F;stroke-width:1.0584;stroke-miterlimit:10;}
	.st1{font-family:'Verveine-Regular';}
	.st2{font-size:6.3432px;}
	.st3{fill:#0092BF;}
	.st4{fill:none;stroke:#14617F;stroke-width:1.0584;stroke-miterlimit:10;}
	.st5{fill:#0BA9CE;}
	.st6{font-size:8.2406px;}
	.st7{fill:#D0D0D0;}
	.st8{font-size:6.3433px;}
	.st9{fill:none;stroke:#14617F;stroke-width:1.0584;stroke-linecap:round;stroke-miterlimit:10;}
	.st10{clip-path:url(#SVGID_2_);fill:#C93F3F;stroke:#14617F;stroke-width:1.0584;stroke-miterlimit:10;}
	.st11{clip-path:url(#SVGID_2_);fill:#E2CFBA;stroke:#14617F;stroke-width:1.0584;stroke-miterlimit:10;}
	.st12{clip-path:url(#SVGID_4_);fill:#1893C9;stroke:#14617F;stroke-width:1.0584;stroke-miterlimit:10;}
	.st13{clip-path:url(#SVGID_4_);fill:#E2CFBA;stroke:#14617F;stroke-width:1.0584;stroke-miterlimit:10;}
	.st14{clip-path:url(#SVGID_6_);fill:#DDD3D3;stroke:#14617F;stroke-width:1.4528;stroke-miterlimit:10;}
	.st15{clip-path:url(#SVGID_6_);fill:#E2CFBA;stroke:#14617F;stroke-width:1.4528;stroke-miterlimit:10;}
	.st16{fill:#39B54A;}
	.st17{fill:none;stroke:#C1272D;stroke-width:1.1404;stroke-linecap:round;stroke-linejoin:round;stroke-miterlimit:10;}
</style>
<g>
	<g>
		<path class="st0" d="M161,56.7c1.5,1.7-0.2,17.5-1.6,19.5c-1.4,2-40.1-1.4-41.8-3.1c-1.6-1.7-0.4-18.8,0.9-20.1
			C120,51.7,159.1,54.6,161,56.7z"/>
		<text transform="matrix(0.9983 7.502015e-02 -7.510255e-02 0.9972 117.8881 60.9748)"><tspan x="0" y="0" class="st1 st2">What people say</tspan><tspan x="2.9" y="7.6" class="st1 st2">about Thomas</tspan></text>
	</g>
	<path class="st3" d="M52.4,1c7.3-0.2,58.6-0.4,63.9-0.4c5.3,0,9.9,4.6,9.8,14.7c-0.1,10,0.5,136,0.8,142.4
		c0.3,6.4-10,13.3-19.8,14.1c-9.8,0.8-52.3,0-59.1-0.8s-11.5-5-11.6-12.5C36.3,151,35.9,24.5,36,16C36.1,8.7,40.7,1.3,52.4,1z"/>
	<path class="st4" d="M52.4,0.4C59.8,0.2,111.1,0,116.3,0c5.3,0,9.9,4.6,9.8,14.7c-0.1,10,0.5,136,0.8,142.4
		c0.3,6.4-10,13.3-19.8,14.1c-9.8,0.8-52.3,0-59.1-0.8c-6.8-0.7-11.5-5-11.6-12.5c-0.1-7.5-0.6-134-0.4-142.5
		C36.1,8.2,40.7,0.8,52.4,0.4z"/>
	<path class="st0" d="M43.7,19.3c0,0,15.7-2.3,36.9-1.5c21.2,0.7,38.2,0.8,38.2,0.8s2.2,98.2,0.5,130.2c-16.6,1.9-49.1,4-75.5,1.1
		C44.1,95.7,41.1,40.5,43.7,19.3z"/>
	<path class="st4" d="M103.1,6c3.6,1.6,2.8,5.1,0.4,6.6s-5-1.3-5.4-3.2C97.8,7.4,100.2,4.7,103.1,6z"/>
	<path class="st4" d="M91.8,6.1c2.6,0,2.9,6.3,0,6.4c-2.9,0.1-18.2,0.2-21.9,0c-3.8-0.2-2.1-6.1,1.2-6.2C74.4,6.3,88.4,6.1,91.8,6.1
		z"/>
	<path class="st4" d="M91.5,158.3c0.9,1.1,0.6,5.9,0,6.4c-0.6,0.5-21.9,0.8-22.5,0c-0.6-0.8-0.7-5.8,0-6.4
		C69.7,157.6,90.5,157.1,91.5,158.3z"/>
	<path class="st5" d="M50.2,4.5c3.9-0.7,9.3-0.7,9.1,0.7s-2.7,2.9-9.1,3.2s-6.3,2.5-7.3,2C41.8,9.8,43.9,5.6,50.2,4.5z"/>
	<text transform="matrix(1.0006 -3.179014e-02 3.182506e-02 0.9995 56.6166 55.8215)" class="st1 st6">About Thomas</text>
	<text transform="matrix(1.0011 0 0 1 50.9097 145.8976)" class="st7 st1 st8">Write your testimonial</text>
	<path class="st9" d="M43.9,137.6c0,0,57.8,0.4,76-1.7"/>
	<g>
		<g>
			<defs>
				<path id="SVGID_1_" d="M55.9,65.6c4.9,0.5,5.5,6.4,4.1,9.3s-7.2,4.7-10.5,0.3C46.1,70.8,49.6,64.9,55.9,65.6z"/>
			</defs>
			<use xlink:href="#SVGID_1_"  style="overflow:visible;fill:#3CBC55;"/>
			<clipPath id="SVGID_2_">
				<use xlink:href="#SVGID_1_"  style="overflow:visible;"/>
			</clipPath>
			<path class="st10" d="M48.9,78.6c0,0,1.3-6.4,5.7-6.3c4.5,0.1,5.6,6.3,5.6,6.3"/>
			<ellipse class="st11" cx="54.6" cy="70.9" rx="2.1" ry="2.1"/>
			<use xlink:href="#SVGID_1_"  style="overflow:visible;fill:none;stroke:#14617F;stroke-width:1.0584;stroke-miterlimit:10;"/>
		</g>
		<path class="st9" d="M65.5,78.5c0,0,14.3-1.2,20.9-0.5"/>
		<path class="st9" d="M65.5,67.3c0,0,27.2-2,46.7,0"/>
		<path class="st9" d="M65.5,70.9c0,0,24.3-2.4,47.2,0"/>
		<path class="st9" d="M65.5,74.7c0,0,24.3-2.1,47.2,0.3"/>
	</g>
	<g>
		<g>
			<defs>
				<path id="SVGID_3_" d="M56.6,85.5c4.9,0.5,5.5,6.4,4.1,9.3c-1.4,2.8-7.2,4.7-10.5,0.3C46.9,90.7,50.4,84.8,56.6,85.5z"/>
			</defs>
			<use xlink:href="#SVGID_3_"  style="overflow:visible;fill:#D6A5B9;"/>
			<clipPath id="SVGID_4_">
				<use xlink:href="#SVGID_3_"  style="overflow:visible;"/>
			</clipPath>
			<path class="st12" d="M49.7,98.5c0,0,1.3-6.4,5.7-6.3c4.5,0.1,5.6,6.3,5.6,6.3"/>
			<ellipse class="st13" cx="55.4" cy="90.8" rx="2.1" ry="2.1"/>
			<use xlink:href="#SVGID_3_"  style="overflow:visible;fill:none;stroke:#14617F;stroke-width:1.0584;stroke-miterlimit:10;"/>
		</g>
		<path class="st9" d="M65.5,94.9c0,0,18.5-1.4,31.7-0.5"/>
		<path class="st9" d="M65.5,87.9c0,0,30.1-1.1,46,0"/>
		<path class="st9" d="M65.5,91.5c0,0,31.8-2.3,43.1,0"/>
	</g>
	<g>
		<defs>
			<path id="SVGID_5_" d="M83,27.4c6.7,0.4,7.9,8.5,6.2,12.5s-9.5,6.9-14.4,1.1S74.4,26.9,83,27.4z"/>
		</defs>
		<use xlink:href="#SVGID_5_"  style="overflow:visible;fill:#D8CC79;"/>
		<clipPath id="SVGID_6_">
			<use xlink:href="#SVGID_5_"  style="overflow:visible;"/>
		</clipPath>
		<path class="st14" d="M74.3,45.7c0,0,1.3-8.9,7.5-9.1c6.2-0.2,8.2,8.3,8.2,8.3"/>
		<ellipse class="st15" cx="81.6" cy="34.8" rx="2.9" ry="2.9"/>
		<use xlink:href="#SVGID_5_"  style="overflow:visible;fill:none;stroke:#14617F;stroke-width:1.4528;stroke-miterlimit:10;"/>
	</g>
	<g>
		<path class="st0" d="M54.7,92c1.8,1.3,3,17.2,2,19.5c-1,2.2-50.5,8.5-52.5,7.1s-3.8-18.4-2.7-19.9S52.4,90.3,54.7,92z"/>
		<text transform="matrix(0.9952 -0.108 0.1081 0.9942 0.5767 106.3485)"><tspan x="0" y="0" class="st1 st2">How was your activity</tspan><tspan x="10.5" y="7.6" class="st1 st2">with Thomas?</tspan></text>
	</g>
	<g>
		<path class="st0" d="M144.7,114.1c1.5,1.7-1.9,29.9-3.4,31.9s-46.6-3.1-48.2-4.8c-1.6-1.7,2.8-30.8,4.2-32.1
			C98.6,107.8,142.8,112,144.7,114.1z"/>
		<text transform="matrix(0.9972 8.773037e-02 -8.782673e-02 0.9961 98.566 116.8493)"><tspan x="0" y="0" class="st1 st2">Thomas add you</tspan><tspan x="8.4" y="7.6" class="st1 st2">as a friend</tspan></text>
		<text transform="matrix(0.9949 0.1112 -0.1114 0.9938 94.7668 136.8425)" class="st1 st2">Ignore</text>
		<text transform="matrix(0.9969 9.126965e-02 -9.136990e-02 0.9958 118.225 139.4385)" class="st1 st8">Approve</text>
		<g>
			<path class="st16" d="M129.7,133.7l1,1.4L130,135l3.2-2.4c0.4-0.3,0.9-0.2,1.2,0.2c0.3,0.4,0.2,0.9-0.2,1.2c0,0-0.1,0.1-0.1,0.1
				l-3.5,1.9l0,0c-0.2,0.1-0.5,0-0.7-0.2l-1-1.4c-0.2-0.2-0.1-0.6,0.1-0.7S129.6,133.5,129.7,133.7z"/>
		</g>
		<g>
			<path class="st17" d="M106,131.4c0,0-2.4,0-3.2,1.9"/>
			<path class="st17" d="M105.3,133.5c0,0-2.4-2.4-2.6-3.2"/>
		</g>
	</g>
</g>
</svg>
