<?xml version="1.0" encoding="utf-8"?>
<!-- Generator: Adobe Illustrator 22.0.1, SVG Export Plug-In . SVG Version: 6.00 Build 0)  -->
<svg version="1.1" id="Layer_1" xmlns="http://www.w3.org/2000/svg" xmlns:xlink="http://www.w3.org/1999/xlink" x="0px" y="0px"
	 viewBox="0 0 189.1 173.3" style="enable-background:new 0 0 189.1 173.3;" xml:space="preserve">
<style type="text/css">
	.st0{fill:#FFFFFF;stroke:#14617F;stroke-width:1.055;stroke-miterlimit:10;}
	.st1{fill:none;stroke:#14617F;stroke-width:2.11;stroke-linecap:round;stroke-miterlimit:10;}
	.st2{clip-path:url(#SVGID_2_);fill:#C93F3F;stroke:#14617F;stroke-width:0.5275;stroke-miterlimit:10;}
	.st3{clip-path:url(#SVGID_2_);fill:#E2CFBA;stroke:#14617F;stroke-width:0.5275;stroke-miterlimit:10;}
	.st4{clip-path:url(#SVGID_4_);fill:#1893C9;stroke:#14617F;stroke-width:0.5275;stroke-miterlimit:10;}
	.st5{clip-path:url(#SVGID_4_);fill:#E2CFBA;stroke:#14617F;stroke-width:0.5275;stroke-miterlimit:10;}
	.st6{clip-path:url(#SVGID_6_);fill:#DDD3D3;stroke:#14617F;stroke-width:0.5275;stroke-miterlimit:10;}
	.st7{clip-path:url(#SVGID_6_);fill:#E2CFBA;stroke:#14617F;stroke-width:0.5275;stroke-miterlimit:10;}
	.st8{clip-path:url(#SVGID_8_);}
	.st9{fill:#666666;}
	.st10{font-family:'Verveine-Regular';}
	.st11{font-size:6.3301px;}
	.st12{clip-path:url(#SVGID_10_);fill:#C93F3F;stroke:#14617F;stroke-width:0.5275;stroke-miterlimit:10;}
	.st13{clip-path:url(#SVGID_10_);fill:#E2CFBA;stroke:#14617F;stroke-width:0.5275;stroke-miterlimit:10;}
	.st14{clip-path:url(#SVGID_12_);fill:#1893C9;stroke:#14617F;stroke-width:0.5275;stroke-miterlimit:10;}
	.st15{clip-path:url(#SVGID_12_);fill:#E2CFBA;stroke:#14617F;stroke-width:0.5275;stroke-miterlimit:10;}
	.st16{clip-path:url(#SVGID_14_);fill:#DDD3D3;stroke:#14617F;stroke-width:0.5275;stroke-miterlimit:10;}
	.st17{clip-path:url(#SVGID_14_);fill:#E2CFBA;stroke:#14617F;stroke-width:0.5275;stroke-miterlimit:10;}
	.st18{clip-path:url(#SVGID_16_);}
	.st19{fill:#0092BF;}
	.st20{fill:none;stroke:#14617F;stroke-width:1.055;stroke-miterlimit:10;}
	.st21{fill:#0BA9CE;}
	.st22{font-size:8.2235px;}
	.st23{fill:none;stroke:#000000;stroke-width:0.5275;stroke-miterlimit:10;}
	.st24{fill:none;stroke:#000000;stroke-width:1.055;stroke-linecap:round;stroke-miterlimit:10;}
	.st25{clip-path:url(#SVGID_18_);fill:#C93F3F;stroke:#14617F;stroke-width:0.5275;stroke-miterlimit:10;}
	.st26{clip-path:url(#SVGID_18_);fill:#E2CFBA;stroke:#14617F;stroke-width:0.5275;stroke-miterlimit:10;}
	.st27{clip-path:url(#SVGID_20_);fill:#1893C9;stroke:#14617F;stroke-width:0.5275;stroke-miterlimit:10;}
	.st28{clip-path:url(#SVGID_20_);fill:#E2CFBA;stroke:#14617F;stroke-width:0.5275;stroke-miterlimit:10;}
	.st29{clip-path:url(#SVGID_22_);fill:#DDD3D3;stroke:#14617F;stroke-width:0.5275;stroke-miterlimit:10;}
	.st30{clip-path:url(#SVGID_22_);fill:#E2CFBA;stroke:#14617F;stroke-width:0.5275;stroke-miterlimit:10;}
	.st31{clip-path:url(#SVGID_24_);}
	.st32{clip-path:url(#SVGID_26_);fill:#C93F3F;stroke:#14617F;stroke-width:0.5275;stroke-miterlimit:10;}
	.st33{clip-path:url(#SVGID_26_);fill:#E2CFBA;stroke:#14617F;stroke-width:0.5275;stroke-miterlimit:10;}
	.st34{clip-path:url(#SVGID_28_);fill:#1893C9;stroke:#14617F;stroke-width:0.5275;stroke-miterlimit:10;}
	.st35{clip-path:url(#SVGID_28_);fill:#E2CFBA;stroke:#14617F;stroke-width:0.5275;stroke-miterlimit:10;}
	.st36{clip-path:url(#SVGID_30_);fill:#DDD3D3;stroke:#14617F;stroke-width:0.5275;stroke-miterlimit:10;}
	.st37{clip-path:url(#SVGID_30_);fill:#E2CFBA;stroke:#14617F;stroke-width:0.5275;stroke-miterlimit:10;}
	.st38{clip-path:url(#SVGID_32_);}
	.st39{clip-path:url(#SVGID_34_);fill:#C93F3F;stroke:#14617F;stroke-width:0.5275;stroke-miterlimit:10;}
	.st40{clip-path:url(#SVGID_34_);fill:#E2CFBA;stroke:#14617F;stroke-width:0.5275;stroke-miterlimit:10;}
	.st41{clip-path:url(#SVGID_36_);fill:#1893C9;stroke:#14617F;stroke-width:0.5275;stroke-miterlimit:10;}
	.st42{clip-path:url(#SVGID_36_);fill:#E2CFBA;stroke:#14617F;stroke-width:0.5275;stroke-miterlimit:10;}
	.st43{clip-path:url(#SVGID_38_);fill:#DDD3D3;stroke:#14617F;stroke-width:0.5275;stroke-miterlimit:10;}
	.st44{clip-path:url(#SVGID_38_);fill:#E2CFBA;stroke:#14617F;stroke-width:0.5275;stroke-miterlimit:10;}
	.st45{clip-path:url(#SVGID_40_);}
	.st46{fill:none;stroke:#E2E2E2;stroke-width:1.5825;stroke-linecap:round;stroke-miterlimit:10;}
	.st47{fill:#D3C2AE;}
	.st48{fill:#382914;}
	.st49{clip-path:url(#SVGID_42_);fill:#C93F3F;stroke:#14617F;stroke-width:1.3699;stroke-miterlimit:10;}
	.st50{clip-path:url(#SVGID_42_);fill:#E2CFBA;stroke:#14617F;stroke-width:1.3699;stroke-miterlimit:10;}
	.st51{clip-path:url(#SVGID_44_);fill:#DDD3D3;stroke:#14617F;stroke-width:1.4418;stroke-miterlimit:10;}
	.st52{clip-path:url(#SVGID_44_);fill:#E2CFBA;stroke:#14617F;stroke-width:1.4418;stroke-miterlimit:10;}
	.st53{clip-path:url(#SVGID_46_);fill:#1893C9;stroke:#14617F;stroke-width:1.2109;stroke-miterlimit:10;}
	.st54{clip-path:url(#SVGID_46_);fill:#E2CFBA;stroke:#14617F;stroke-width:1.2109;stroke-miterlimit:10;}
	.st55{fill:none;}
</style>
<g>
	<g>
		<path class="st0" d="M112,13.5c0,0,49.1-4.3,76.2,0c0.8,38.4-2.1,38.6-2.1,38.6s-42.7,1.7-74.1,1.4C107.5,35,112,13.5,112,13.5z"
			/>
		<g>
			<path class="st0" d="M116.9,18.9l18.7-0.4c0,0,0.7,13.1,1.5,30c-14.2-0.2-19.4,0-19.4,0S118,36.5,116.9,18.9z"/>
			<line class="st0" x1="135.7" y1="18.6" x2="117.7" y2="48.5"/>
			<line class="st0" x1="116.9" y1="18.9" x2="137.1" y2="48.5"/>
		</g>
		<path class="st1" d="M140.2,22.2c0,0,16.4-1.1,40.3,0"/>
		<path class="st1" d="M140.2,26.7c0,0,6.2-0.9,25.1-0.5"/>
		<path class="st1" d="M156,44.2c0,0,7,0.6,25.1-0.5"/>
		<g>
			<defs>
				<path id="SVGID_1_" d="M145.4,30.4c3.5,0.4,3.9,4.6,2.9,6.6c-1,2-5.1,3.3-7.5,0.2S141,29.9,145.4,30.4z"/>
			</defs>
			<use xlink:href="#SVGID_1_"  style="overflow:visible;fill:#3CBC55;"/>
			<clipPath id="SVGID_2_">
				<use xlink:href="#SVGID_1_"  style="overflow:visible;"/>
			</clipPath>
			<path class="st2" d="M140.4,39.7c0,0,0.9-4.6,4.1-4.5c3.2,0.1,4,4.5,4,4.5"/>
			<circle class="st3" cx="144.5" cy="34.2" r="1.5"/>
			<use xlink:href="#SVGID_1_"  style="overflow:visible;fill:none;stroke:#14617F;stroke-width:0.5275;stroke-miterlimit:10;"/>
		</g>
		<g>
			<defs>
				<path id="SVGID_3_" d="M156.1,30c3.5,0.4,3.9,4.6,2.9,6.6c-1,2-5.1,3.3-7.5,0.2S151.7,29.5,156.1,30z"/>
			</defs>
			<use xlink:href="#SVGID_3_"  style="overflow:visible;fill:#D6A5B9;"/>
			<clipPath id="SVGID_4_">
				<use xlink:href="#SVGID_3_"  style="overflow:visible;"/>
			</clipPath>
			<path class="st4" d="M151.2,39.3c0,0,0.9-4.6,4.1-4.5c3.2,0.1,4,4.5,4,4.5"/>
			<circle class="st5" cx="155.3" cy="33.8" r="1.5"/>
			<use xlink:href="#SVGID_3_"  style="overflow:visible;fill:none;stroke:#14617F;stroke-width:0.5275;stroke-miterlimit:10;"/>
		</g>
		<g>
			<defs>
				<path id="SVGID_5_" d="M166.9,29.7c3.5,0.4,3.9,4.6,2.9,6.6c-1,2-5.1,3.3-7.5,0.2S162.5,29.3,166.9,29.7z"/>
			</defs>
			<use xlink:href="#SVGID_5_"  style="overflow:visible;fill:#D8CC79;"/>
			<clipPath id="SVGID_6_">
				<use xlink:href="#SVGID_5_"  style="overflow:visible;"/>
			</clipPath>
			<path class="st6" d="M161.9,39c0,0,0.9-4.6,4.1-4.5s4,4.5,4,4.5"/>
			<circle class="st7" cx="166" cy="33.5" r="1.5"/>
			<use xlink:href="#SVGID_5_"  style="overflow:visible;fill:none;stroke:#14617F;stroke-width:0.5275;stroke-miterlimit:10;"/>
		</g>
		<g>
			<defs>
				<path id="SVGID_7_" d="M177.6,29.7c3.5,0.4,3.9,4.6,2.9,6.6c-1,2-5.1,3.3-7.5,0.2S173.2,29.3,177.6,29.7z"/>
			</defs>
			<use xlink:href="#SVGID_7_"  style="overflow:visible;fill:#D0D0D0;"/>
			<clipPath id="SVGID_8_">
				<use xlink:href="#SVGID_7_"  style="overflow:visible;"/>
			</clipPath>
			<g class="st8">
				<text transform="matrix(1 0 0 1 173.6301 35.8301)" class="st9 st10 st11">+2</text>
			</g>
			<use xlink:href="#SVGID_7_"  style="overflow:visible;fill:none;stroke:#14617F;stroke-width:0.5275;stroke-miterlimit:10;"/>
		</g>
	</g>
	<g>
		<path class="st0" d="M3.2,86.8c0,0,49.1-4.3,76.2,0c0.8,38.4-2.1,38.6-2.1,38.6s-42.7,1.7-74.1,1.4C-1.3,108.3,3.2,86.8,3.2,86.8z
			"/>
		<g>
			<path class="st0" d="M8.1,92.2l18.7-0.4c0,0,0.7,13.1,1.5,30c-14.2-0.2-19.4,0-19.4,0S9.2,109.8,8.1,92.2z"/>
			<line class="st0" x1="26.8" y1="91.8" x2="8.9" y2="121.8"/>
			<line class="st0" x1="8.1" y1="92.2" x2="28.3" y2="121.8"/>
		</g>
		<path class="st1" d="M31.4,95.5c0,0,16.4-1.1,40.3,0"/>
		<path class="st1" d="M31.4,99.9c0,0,6.2-0.9,25.1-0.5"/>
		<path class="st1" d="M47.2,117.5c0,0,7,0.6,25.1-0.5"/>
		<g>
			<defs>
				<path id="SVGID_9_" d="M36.5,103.7c3.5,0.4,3.9,4.6,2.9,6.6c-1,2-5.1,3.3-7.5,0.2S32.1,103.2,36.5,103.7z"/>
			</defs>
			<use xlink:href="#SVGID_9_"  style="overflow:visible;fill:#3CBC55;"/>
			<clipPath id="SVGID_10_">
				<use xlink:href="#SVGID_9_"  style="overflow:visible;"/>
			</clipPath>
			<path class="st12" d="M31.6,112.9c0,0,0.9-4.6,4.1-4.5c3.2,0.1,4,4.5,4,4.5"/>
			<circle class="st13" cx="35.7" cy="107.5" r="1.5"/>
			<use xlink:href="#SVGID_9_"  style="overflow:visible;fill:none;stroke:#14617F;stroke-width:0.5275;stroke-miterlimit:10;"/>
		</g>
		<g>
			<defs>
				<path id="SVGID_11_" d="M47.3,103.3c3.5,0.4,3.9,4.6,2.9,6.6c-1,2-5.1,3.3-7.5,0.2S42.9,102.8,47.3,103.3z"/>
			</defs>
			<use xlink:href="#SVGID_11_"  style="overflow:visible;fill:#D6A5B9;"/>
			<clipPath id="SVGID_12_">
				<use xlink:href="#SVGID_11_"  style="overflow:visible;"/>
			</clipPath>
			<path class="st14" d="M42.3,112.5c0,0,0.9-4.6,4.1-4.5c3.2,0.1,4,4.5,4,4.5"/>
			<circle class="st15" cx="46.4" cy="107.1" r="1.5"/>
			<use xlink:href="#SVGID_11_"  style="overflow:visible;fill:none;stroke:#14617F;stroke-width:0.5275;stroke-miterlimit:10;"/>
		</g>
		<g>
			<defs>
				<path id="SVGID_13_" d="M58,103c3.5,0.4,3.9,4.6,2.9,6.6c-1,2-5.1,3.3-7.5,0.2S53.6,102.5,58,103z"/>
			</defs>
			<use xlink:href="#SVGID_13_"  style="overflow:visible;fill:#D8CC79;"/>
			<clipPath id="SVGID_14_">
				<use xlink:href="#SVGID_13_"  style="overflow:visible;"/>
			</clipPath>
			<path class="st16" d="M53.1,112.3c0,0,0.9-4.6,4.1-4.5c3.2,0.1,4,4.5,4,4.5"/>
			<circle class="st17" cx="57.2" cy="106.8" r="1.5"/>
			<use xlink:href="#SVGID_13_"  style="overflow:visible;fill:none;stroke:#14617F;stroke-width:0.5275;stroke-miterlimit:10;"/>
		</g>
		<g>
			<defs>
				<path id="SVGID_15_" d="M68.8,103c3.5,0.4,3.9,4.6,2.9,6.6c-1,2-5.1,3.3-7.5,0.2S64.4,102.5,68.8,103z"/>
			</defs>
			<use xlink:href="#SVGID_15_"  style="overflow:visible;fill:#D0D0D0;"/>
			<clipPath id="SVGID_16_">
				<use xlink:href="#SVGID_15_"  style="overflow:visible;"/>
			</clipPath>
			<g class="st18">
				<text transform="matrix(1 0 0 1 64.7843 109.0977)" class="st9 st10 st11">+2</text>
			</g>
			<use xlink:href="#SVGID_15_"  style="overflow:visible;fill:none;stroke:#14617F;stroke-width:0.5275;stroke-miterlimit:10;"/>
		</g>
	</g>
	<g>
		<path class="st19" d="M68.4,1.7c7.3-0.2,58.4-0.4,63.7-0.4s9.9,4.6,9.8,14.6c-0.1,10,0.5,135.7,0.8,142.1
			c0.3,6.3-10,13.3-19.8,14.1c-9.8,0.8-52.1,0-58.9-0.8c-6.8-0.7-11.5-5-11.6-12.5c-0.1-7.5-0.6-133.7-0.4-142.2
			C52.1,9.5,56.7,2.1,68.4,1.7z"/>
		<path class="st20" d="M68.4,1.2c7.3-0.2,58.4-0.4,63.7-0.4s9.9,4.6,9.8,14.6c-0.1,10,0.5,135.7,0.8,142.1
			c0.3,6.3-10,13.3-19.8,14.1c-9.8,0.8-52.1,0-58.9-0.8c-6.8-0.7-11.5-5-11.6-12.5c-0.1-7.5-0.6-133.7-0.4-142.2
			C52.1,9,56.7,1.6,68.4,1.2z"/>
		<path class="st0" d="M59.7,20c0,0,15.7-2.3,36.8-1.5c21.1,0.7,38.1,0.8,38.1,0.8s2.2,98,0.5,130c-16.5,1.9-49,4-75.2,1.1
			C60.1,96.3,57.1,41.2,59.7,20z"/>
		<path class="st20" d="M118.9,6.8c3.6,1.6,2.8,5.1,0.4,6.6c-2.4,1.5-5-1.3-5.3-3.2S116,5.5,118.9,6.8z"/>
		<path class="st20" d="M107.6,6.9c2.6,0,2.9,6.3,0,6.4c-2.9,0.1-18.1,0.2-21.9,0s-2.1-6,1.2-6.2C90.3,7,104.2,6.9,107.6,6.9z"/>
		<path class="st20" d="M107.3,158.7c0.9,1.1,0.6,5.9,0,6.4c-0.6,0.5-21.8,0.8-22.4,0c-0.6-0.8-0.7-5.8,0-6.4
			C85.6,158.1,106.3,157.6,107.3,158.7z"/>
		<path class="st21" d="M66.1,5.2c3.8-0.7,9.2-0.7,9.1,0.7s-2.7,2.9-9.1,3.2c-6.3,0.3-6.2,2.5-7.3,2C57.8,10.6,59.9,6.4,66.1,5.2z"
			/>
		<ellipse transform="matrix(0.3857 -0.9226 0.9226 0.3857 22.2222 61.1149)" class="st21" cx="57" cy="13.9" rx="1.5" ry="0.9"/>
		<g>
			<path class="st0" d="M63.8,24.8c0,0-0.5,6.9,0,12c11.7,0.3,40.7-2.1,67.1-0.9c0.4-3.3,0-11.1,0-11.1S117.1,22.5,63.8,24.8z"/>
			<text transform="matrix(0.9989 -4.616000e-02 4.616000e-02 0.9989 66.208 33.236)" class="st10 st22">Seminyak</text>
			<path class="st23" d="M91.4,26.2c0,0,0.2,3.3,0,7.7"/>
			<g>
				<path class="st24" d="M124.9,27.5c1.8,0.8,1.4,2.6,0.2,3.3c-1.2,0.8-2.5-0.7-2.7-1.6C122.3,28.2,123.5,26.9,124.9,27.5z"/>
				<line class="st24" x1="127.4" y1="32.4" x2="125.7" y2="30.5"/>
			</g>
		</g>
		<g>
			<g>
				<path class="st0" d="M62.5,41.3l18.7-0.4c0,0,0.7,13.1,1.5,30c-14.2-0.2-19.4,0-19.4,0S63.6,58.9,62.5,41.3z"/>
				<line class="st0" x1="81.2" y1="40.9" x2="63.3" y2="70.9"/>
				<line class="st0" x1="62.5" y1="41.3" x2="82.7" y2="70.9"/>
			</g>
			<path class="st1" d="M85.8,44.6c0,0,16.4-1.1,40.3,0"/>
			<path class="st1" d="M85.8,49c0,0,6.2-0.9,25.1-0.5"/>
			<path class="st1" d="M101.6,66.6c0,0,7,0.6,25.1-0.5"/>
			<g>
				<defs>
					<path id="SVGID_17_" d="M91,52.8c3.5,0.4,3.9,4.6,2.9,6.6s-5.1,3.3-7.5,0.2C84,56.5,86.5,52.3,91,52.8z"/>
				</defs>
				<use xlink:href="#SVGID_17_"  style="overflow:visible;fill:#3CBC55;"/>
				<clipPath id="SVGID_18_">
					<use xlink:href="#SVGID_17_"  style="overflow:visible;"/>
				</clipPath>
				<path class="st25" d="M86,62c0,0,0.9-4.6,4.1-4.5c3.2,0.1,4,4.5,4,4.5"/>
				<circle class="st26" cx="90.1" cy="56.6" r="1.5"/>
				<use xlink:href="#SVGID_17_"  style="overflow:visible;fill:none;stroke:#14617F;stroke-width:0.5275;stroke-miterlimit:10;"/>
			</g>
			<g>
				<defs>
					<path id="SVGID_19_" d="M101.7,52.4c3.5,0.4,3.9,4.6,2.9,6.6c-1,2-5.1,3.3-7.5,0.2C94.8,56.1,97.3,51.9,101.7,52.4z"/>
				</defs>
				<use xlink:href="#SVGID_19_"  style="overflow:visible;fill:#D6A5B9;"/>
				<clipPath id="SVGID_20_">
					<use xlink:href="#SVGID_19_"  style="overflow:visible;"/>
				</clipPath>
				<path class="st27" d="M96.8,61.6c0,0,0.9-4.6,4.1-4.5c3.2,0.1,4,4.5,4,4.5"/>
				<circle class="st28" cx="100.9" cy="56.2" r="1.5"/>
				<use xlink:href="#SVGID_19_"  style="overflow:visible;fill:none;stroke:#14617F;stroke-width:0.5275;stroke-miterlimit:10;"/>
			</g>
			<g>
				<defs>
					<path id="SVGID_21_" d="M112.5,52.1c3.5,0.4,3.9,4.6,2.9,6.6c-1,2-5.1,3.3-7.5,0.2S108,51.6,112.5,52.1z"/>
				</defs>
				<use xlink:href="#SVGID_21_"  style="overflow:visible;fill:#D8CC79;"/>
				<clipPath id="SVGID_22_">
					<use xlink:href="#SVGID_21_"  style="overflow:visible;"/>
				</clipPath>
				<path class="st29" d="M107.5,61.4c0,0,0.9-4.6,4.1-4.5c3.2,0.1,4,4.5,4,4.5"/>
				<circle class="st30" cx="111.6" cy="55.9" r="1.5"/>
				<use xlink:href="#SVGID_21_"  style="overflow:visible;fill:none;stroke:#14617F;stroke-width:0.5275;stroke-miterlimit:10;"/>
			</g>
			<g>
				<defs>
					<path id="SVGID_23_" d="M123.2,52.1c3.5,0.4,3.9,4.6,2.9,6.6c-1,2-5.1,3.3-7.5,0.2S118.8,51.6,123.2,52.1z"/>
				</defs>
				<use xlink:href="#SVGID_23_"  style="overflow:visible;fill:#D0D0D0;"/>
				<clipPath id="SVGID_24_">
					<use xlink:href="#SVGID_23_"  style="overflow:visible;"/>
				</clipPath>
				<g class="st31">
					<text transform="matrix(1 0 0 1 119.2179 58.2027)" class="st9 st10 st11">+2</text>
				</g>
				<use xlink:href="#SVGID_23_"  style="overflow:visible;fill:none;stroke:#14617F;stroke-width:0.5275;stroke-miterlimit:10;"/>
			</g>
		</g>
		<g>
			<g>
				<path class="st0" d="M63.3,77.9L82,77.6c0,0,0.7,13.1,1.5,30c-14.2-0.2-19.4,0-19.4,0S64.4,95.5,63.3,77.9z"/>
				<line class="st0" x1="82" y1="77.6" x2="64.1" y2="107.6"/>
				<line class="st0" x1="63.3" y1="77.9" x2="83.5" y2="107.6"/>
			</g>
			<path class="st1" d="M86.6,81.3c0,0,16.4-1.1,40.3,0"/>
			<path class="st1" d="M86.6,85.7c0,0,6.2-0.9,25.1-0.5"/>
			<path class="st1" d="M102.4,103.2c0,0,7,0.6,25.1-0.5"/>
			<g>
				<defs>
					<path id="SVGID_25_" d="M91.8,89.4c3.5,0.4,3.9,4.6,2.9,6.6c-1,2-5.1,3.3-7.5,0.2S87.3,88.9,91.8,89.4z"/>
				</defs>
				<use xlink:href="#SVGID_25_"  style="overflow:visible;fill:#3CBC55;"/>
				<clipPath id="SVGID_26_">
					<use xlink:href="#SVGID_25_"  style="overflow:visible;"/>
				</clipPath>
				<path class="st32" d="M86.8,98.7c0,0,0.9-4.6,4.1-4.5c3.2,0.1,4,4.5,4,4.5"/>
				<circle class="st33" cx="90.9" cy="93.2" r="1.5"/>
				<use xlink:href="#SVGID_25_"  style="overflow:visible;fill:none;stroke:#14617F;stroke-width:0.5275;stroke-miterlimit:10;"/>
			</g>
			<g>
				<defs>
					<path id="SVGID_27_" d="M102.5,89c3.5,0.4,3.9,4.6,2.9,6.6c-1,2-5.1,3.3-7.5,0.2S98.1,88.5,102.5,89z"/>
				</defs>
				<use xlink:href="#SVGID_27_"  style="overflow:visible;fill:#D6A5B9;"/>
				<clipPath id="SVGID_28_">
					<use xlink:href="#SVGID_27_"  style="overflow:visible;"/>
				</clipPath>
				<path class="st34" d="M97.6,98.3c0,0,0.9-4.6,4.1-4.5c3.2,0.1,4,4.5,4,4.5"/>
				<circle class="st35" cx="101.7" cy="92.8" r="1.5"/>
				<use xlink:href="#SVGID_27_"  style="overflow:visible;fill:none;stroke:#14617F;stroke-width:0.5275;stroke-miterlimit:10;"/>
			</g>
			<g>
				<defs>
					<path id="SVGID_29_" d="M113.3,88.8c3.5,0.4,3.9,4.6,2.9,6.6c-1,2-5.1,3.3-7.5,0.2S108.8,88.3,113.3,88.8z"/>
				</defs>
				<use xlink:href="#SVGID_29_"  style="overflow:visible;fill:#D8CC79;"/>
				<clipPath id="SVGID_30_">
					<use xlink:href="#SVGID_29_"  style="overflow:visible;"/>
				</clipPath>
				<path class="st36" d="M108.3,98c0,0,0.9-4.6,4.1-4.5c3.2,0.1,4,4.5,4,4.5"/>
				<circle class="st37" cx="112.4" cy="92.6" r="1.5"/>
				<use xlink:href="#SVGID_29_"  style="overflow:visible;fill:none;stroke:#14617F;stroke-width:0.5275;stroke-miterlimit:10;"/>
			</g>
			<g>
				<defs>
					<path id="SVGID_31_" d="M124,88.8c3.5,0.4,3.9,4.6,2.9,6.6c-1,2-5.1,3.3-7.5,0.2S119.6,88.3,124,88.8z"/>
				</defs>
				<use xlink:href="#SVGID_31_"  style="overflow:visible;fill:#D0D0D0;"/>
				<clipPath id="SVGID_32_">
					<use xlink:href="#SVGID_31_"  style="overflow:visible;"/>
				</clipPath>
				<g class="st38">
					<text transform="matrix(1 0 0 1 120.0099 94.8633)" class="st9 st10 st11">+2</text>
				</g>
				<use xlink:href="#SVGID_31_"  style="overflow:visible;fill:none;stroke:#14617F;stroke-width:0.5275;stroke-miterlimit:10;"/>
			</g>
		</g>
		<g>
			<g>
				<path class="st0" d="M64.1,114.9l18.7-0.4c0,0,0.7,13.1,1.5,30c-14.2-0.2-19.4,0-19.4,0S65.2,132.5,64.1,114.9z"/>
				<line class="st0" x1="82.8" y1="114.6" x2="64.9" y2="144.5"/>
				<line class="st0" x1="64.1" y1="114.9" x2="84.3" y2="144.5"/>
			</g>
			<path class="st1" d="M87.4,118.3c0,0,16.4-1.1,40.3,0"/>
			<path class="st1" d="M87.4,122.7c0,0,6.2-0.9,25.1-0.5"/>
			<path class="st1" d="M103.2,140.2c0,0,7,0.6,25.1-0.5"/>
			<g>
				<defs>
					<path id="SVGID_33_" d="M92.6,126.4c3.5,0.4,3.9,4.6,2.9,6.6c-1,2-5.1,3.3-7.5,0.2S88.1,125.9,92.6,126.4z"/>
				</defs>
				<use xlink:href="#SVGID_33_"  style="overflow:visible;fill:#3CBC55;"/>
				<clipPath id="SVGID_34_">
					<use xlink:href="#SVGID_33_"  style="overflow:visible;"/>
				</clipPath>
				<path class="st39" d="M87.6,135.7c0,0,0.9-4.6,4.1-4.5c3.2,0.1,4,4.5,4,4.5"/>
				<circle class="st40" cx="91.7" cy="130.2" r="1.5"/>
				<use xlink:href="#SVGID_33_"  style="overflow:visible;fill:none;stroke:#14617F;stroke-width:0.5275;stroke-miterlimit:10;"/>
			</g>
			<g>
				<defs>
					<path id="SVGID_35_" d="M103.3,126c3.5,0.4,3.9,4.6,2.9,6.6c-1,2-5.1,3.3-7.5,0.2S98.9,125.5,103.3,126z"/>
				</defs>
				<use xlink:href="#SVGID_35_"  style="overflow:visible;fill:#D6A5B9;"/>
				<clipPath id="SVGID_36_">
					<use xlink:href="#SVGID_35_"  style="overflow:visible;"/>
				</clipPath>
				<path class="st41" d="M98.4,135.3c0,0,0.9-4.6,4.1-4.5c3.2,0.1,4,4.5,4,4.5"/>
				<circle class="st42" cx="102.5" cy="129.8" r="1.5"/>
				<use xlink:href="#SVGID_35_"  style="overflow:visible;fill:none;stroke:#14617F;stroke-width:0.5275;stroke-miterlimit:10;"/>
			</g>
			<g>
				<defs>
					<path id="SVGID_37_" d="M114.1,125.7c3.5,0.4,3.9,4.6,2.9,6.6c-1,2-5.1,3.3-7.5,0.2C107.1,129.5,109.6,125.3,114.1,125.7z"/>
				</defs>
				<use xlink:href="#SVGID_37_"  style="overflow:visible;fill:#D8CC79;"/>
				<clipPath id="SVGID_38_">
					<use xlink:href="#SVGID_37_"  style="overflow:visible;"/>
				</clipPath>
				<path class="st43" d="M109.1,135c0,0,0.9-4.6,4.1-4.5c3.2,0.1,4,4.5,4,4.5"/>
				<circle class="st44" cx="113.2" cy="129.5" r="1.5"/>
				<use xlink:href="#SVGID_37_"  style="overflow:visible;fill:none;stroke:#14617F;stroke-width:0.5275;stroke-miterlimit:10;"/>
			</g>
			<g>
				<defs>
					<path id="SVGID_39_" d="M124.8,125.7c3.5,0.4,3.9,4.6,2.9,6.6c-1,2-5.1,3.3-7.5,0.2C117.9,129.5,120.4,125.3,124.8,125.7z"/>
				</defs>
				<use xlink:href="#SVGID_39_"  style="overflow:visible;fill:#D0D0D0;"/>
				<clipPath id="SVGID_40_">
					<use xlink:href="#SVGID_39_"  style="overflow:visible;"/>
				</clipPath>
				<g class="st45">
					<text transform="matrix(1 0 0 1 120.8234 131.8389)" class="st9 st10 st11">+2</text>
				</g>
				<use xlink:href="#SVGID_39_"  style="overflow:visible;fill:none;stroke:#14617F;stroke-width:0.5275;stroke-miterlimit:10;"/>
			</g>
		</g>
		<path class="st46" d="M131.4,42.5c0,0,1.2,33.1,0.9,49"/>
	</g>
	<g>
		<path class="st47" d="M154,142.7l-11,3.3c0,0-1-5.3-4-6.3c-3-1-5.5-1.7-7.7-5.6c-2.2-3.9-6.6-7.7-6-9.7c0.6-2,3.5-1.1,7.5,1.6
			c-2.5-5.1-6.7-16.3-4.3-17.4s3.6,2.4,7,9.6c1.1-3,2.2-4,4.6-1c1.8-3,3.1-2.9,5.1,0.9c1.4-2.7,3-2.3,3.9-1.1s3.4,9.4,3.4,12.9
			c0,3.6-1.6,7.8-0.1,9.7S154,142.7,154,142.7z"/>
		<path class="st48" d="M146.6,115.4C146.6,115.4,146.6,115.4,146.6,115.4c-0.6,0.2-1.1,0.6-1.4,1.1c-0.8-1.4-1.9-2.5-3.3-2.2
			c-0.1,0-0.3,0.1-0.4,0.1c-0.6,0.2-1.1,0.7-1.5,1.3c-0.7-1-1.6-1.6-2.9-1.3c-0.1,0-0.3,0.1-0.4,0.1c-0.7,0.3-1.2,0.8-1.6,1.5
			c-0.2-0.4-0.4-0.9-0.6-1.3c-0.3-0.7-0.6-1.5-0.9-2.2c-0.6-1.4-1.1-2.8-1.8-3.8c-1.2-1.7-2.4-1.7-3.2-1.4c-0.1,0-0.3,0.1-0.4,0.2
			c-1,0.5-1.5,1.4-1.7,2.5c-0.1,0.5,0,1.1,0.1,1.8c0.3,1.6,1.1,3.6,1.9,5.8c0.2,0.6,0.5,1.2,0.7,1.8c0.6,1.7,1.3,3.4,1.9,4.8
			c-0.4-0.3-0.8-0.6-1.2-0.9c-1.6-1.1-3-1.4-4.2-1c-0.5,0.2-1,0.6-1.4,1c-0.4,0.5-0.5,1-0.5,1.5c0.1,1.2,1.2,2.5,2.5,3.9
			c1.4,1.5,3.1,3.4,4.3,6c1.5,3.2,3.1,3.7,5,4.3c0.7,0.2,1.6,0.5,2.5,0.9c1.6,0.7,3.3,4,3.5,6.1c0,0.3,0.2,0.5,0.4,0.7
			c0.2,0.2,0.5,0.2,0.7,0.1c0.1,0,5.5-1.4,9.9-3c0.6-0.2,1.1-0.4,1.6-0.6c0.3-0.1,0.5-0.3,0.6-0.6c0.1-0.3,0-0.6-0.2-0.8
			c-1-1.2-2.5-3.6-2.3-4.9l0.1-0.4c0.4-2.6,0.8-5.1,0.6-7.9c-0.6-6.6-2.3-11.7-4.5-13.1C148.1,115.2,147.3,115.1,146.6,115.4z
			 M149.9,121c0.7,2.2,1.3,4.9,1.5,8c0.2,2.6-0.1,4.9-0.5,7.5l-0.1,0.4c-0.3,1.8,1.1,4,2,5.3c-3.4,1.2-7.5,2.3-9.3,2.8
			c-0.2-1-0.7-2.2-1.3-3.2c-0.6-1.2-1.7-2.7-3.1-3.4c-1.1-0.5-2-0.8-2.8-1c-1.8-0.5-2.7-0.8-3.9-3.3c-1.3-2.8-3.1-4.8-4.6-6.4
			c-1.6-1.8-2.2-2.6-1.9-3.1c0.2-0.2,0.3-0.4,0.5-0.4c1.5-0.6,4.8,2.4,6.6,4.7c0.3,0.4,0.8,0.4,1.2,0.2c0.4-0.2,0.5-0.7,0.4-1.1
			c0,0-2-4.6-3.7-9.1c-0.2-0.6-0.5-1.2-0.7-1.8c-1.7-4.3-2.6-7-1.1-7.8c0,0,0.1,0,0.1-0.1c0.9-0.3,1.9,2.2,2.7,4.2
			c0.3,0.8,0.6,1.5,1,2.3c2.3,5,4.2,10.4,4.2,10.5c0.2,0.5,0.7,0.7,1.2,0.6c0.5-0.2,0.7-0.7,0.6-1.1c0,0-0.9-2.9-1.9-5.6
			c-0.5-1.4-0.4-3.2,0.4-3.5c0,0,0.1,0,0.1,0c0.8-0.2,1.3,0.7,2.2,2.9l0.1,0.2c0.9,2.5,1.8,5.6,1.8,5.7c0.1,0.5,0.6,0.8,1.1,0.6
			c0.5-0.1,0.8-0.6,0.7-1.1c0-0.1-0.7-3.2-1.9-5.9c-0.4-1.2,0-2.2,0.6-2.5c0,0,0.1,0,0.1,0c0.6-0.1,1.2,1,1.4,1.4
			c0.6,1.1,1.1,2.7,1.4,3.8l0,0.1c0.6,2.1,0.8,2.9,0.8,3c0.1,0.5,0.6,0.8,1.1,0.7c0.5-0.1,0.8-0.6,0.7-1.1c0-0.1-0.5-2.1-0.8-3
			c-0.9-3.3,0-3.6,0.3-3.7c0.1,0,0.2-0.1,0.5,0.1C148.1,117.4,149,118.2,149.9,121z"/>
	</g>
	<g>
		<defs>
			<path id="SVGID_41_" d="M33.4,46.9c9-0.9,12.3,9.6,10.8,15.3c-1.5,5.7-11.2,11.2-18.9,4.5S21.9,48,33.4,46.9z"/>
		</defs>
		<use xlink:href="#SVGID_41_"  style="overflow:visible;fill:#3CBC55;"/>
		<clipPath id="SVGID_42_">
			<use xlink:href="#SVGID_41_"  style="overflow:visible;"/>
		</clipPath>
		<path class="st49" d="M25.7,73.1c0,0-0.1-12.1,8-13.6c8.2-1.5,12.6,9.4,12.6,9.4"/>
		<circle class="st50" cx="33.2" cy="57.1" r="3.9"/>
		<use xlink:href="#SVGID_41_"  style="overflow:visible;fill:none;stroke:#14617F;stroke-width:1.3699;stroke-miterlimit:10;"/>
	</g>
	<g>
		<defs>
			<path id="SVGID_43_" d="M17.1,35.3c9.6-0.2,12.2,11.1,10.1,16.9S14.5,63,7,55.4S4.9,35.5,17.1,35.3z"/>
		</defs>
		<use xlink:href="#SVGID_43_"  style="overflow:visible;fill:#D8CC79;"/>
		<clipPath id="SVGID_44_">
			<use xlink:href="#SVGID_43_"  style="overflow:visible;"/>
		</clipPath>
		<path class="st51" d="M6.9,62.1c0,0,0.8-12.7,9.5-13.7c8.7-0.9,12.5,10.8,12.5,10.8"/>
		<circle class="st52" cx="16" cy="45.9" r="4.1"/>
		<use xlink:href="#SVGID_43_"  style="overflow:visible;fill:none;stroke:#14617F;stroke-width:1.4418;stroke-miterlimit:10;"/>
	</g>
	<g>
		<defs>
			<path id="SVGID_45_" d="M167.8,68.5c7.5,2.8,6,12.4,2.6,16.4s-13.3,4.5-16.7-3.8C150.2,72.8,158.2,64.9,167.8,68.5z"/>
		</defs>
		<use xlink:href="#SVGID_45_"  style="overflow:visible;fill:#D6A5B9;"/>
		<clipPath id="SVGID_46_">
			<use xlink:href="#SVGID_45_"  style="overflow:visible;"/>
		</clipPath>
		<path class="st53" d="M151.5,86.2c0,0,4.6-9.7,11.7-7.7c7.1,2,6.3,12.3,6.3,12.3"/>
		<circle class="st54" cx="163.7" cy="76.4" r="3.5"/>
		<use xlink:href="#SVGID_45_"  style="overflow:visible;fill:none;stroke:#14617F;stroke-width:1.2109;stroke-miterlimit:10;"/>
	</g>
	<rect x="-25.7" y="-55.6" class="st55" width="245" height="278.6"/>
</g>
</svg>
