<?xml version="1.0" encoding="utf-8"?>
<!-- Generator: Adobe Illustrator 22.0.1, SVG Export Plug-In . SVG Version: 6.00 Build 0)  -->
<svg version="1.1" id="Layer_1" xmlns="http://www.w3.org/2000/svg" xmlns:xlink="http://www.w3.org/1999/xlink" x="0px" y="0px"
	 viewBox="0 0 170 172" style="enable-background:new 0 0 170 172;" xml:space="preserve">
<style type="text/css">
	.st0{fill:#0092BF;}
	.st1{fill:none;stroke:#14617F;stroke-width:1.055;stroke-miterlimit:10;}
	.st2{fill:#FFFFFF;stroke:#14617F;stroke-width:1.055;stroke-miterlimit:10;}
	.st3{fill:#0BA9CE;}
	.st4{fill:none;stroke:#E2E2E2;stroke-width:1.5825;stroke-linecap:round;stroke-miterlimit:10;}
	.st5{clip-path:url(#SVGID_2_);fill:#C93F3F;stroke:#14617F;stroke-width:1.055;stroke-miterlimit:10;}
	.st6{clip-path:url(#SVGID_2_);fill:#E2CFBA;stroke:#14617F;stroke-width:1.055;stroke-miterlimit:10;}
	.st7{clip-path:url(#SVGID_4_);fill:#C93F3F;stroke:#14617F;stroke-width:1.4184;stroke-miterlimit:10;}
	.st8{clip-path:url(#SVGID_4_);fill:#E2CFBA;stroke:#14617F;stroke-width:1.4184;stroke-miterlimit:10;}
	.st9{clip-path:url(#SVGID_6_);fill:#1893C9;stroke:#14617F;stroke-width:1.055;stroke-miterlimit:10;}
	.st10{clip-path:url(#SVGID_6_);fill:#E2CFBA;stroke:#14617F;stroke-width:1.055;stroke-miterlimit:10;}
	.st11{clip-path:url(#SVGID_8_);fill:#1893C9;stroke:#14617F;stroke-width:1.055;stroke-miterlimit:10;}
	.st12{clip-path:url(#SVGID_8_);fill:#E2CFBA;stroke:#14617F;stroke-width:1.055;stroke-miterlimit:10;}
	.st13{clip-path:url(#SVGID_10_);fill:#DDD3D3;stroke:#14617F;stroke-width:1.055;stroke-miterlimit:10;}
	.st14{clip-path:url(#SVGID_10_);fill:#E2CFBA;stroke:#14617F;stroke-width:1.055;stroke-miterlimit:10;}
	.st15{clip-path:url(#SVGID_12_);fill:#DDD3D3;stroke:#14617F;stroke-width:1.4481;stroke-miterlimit:10;}
	.st16{clip-path:url(#SVGID_12_);fill:#E2CFBA;stroke:#14617F;stroke-width:1.4481;stroke-miterlimit:10;}
	.st17{clip-path:url(#SVGID_14_);}
	.st18{fill:#666666;}
	.st19{font-family:'Verveine-Regular';}
	.st20{font-size:7.9653px;}
	.st21{font-size:8.2014px;}
	.st22{fill:none;stroke:#14617F;stroke-width:2.11;stroke-linecap:round;stroke-miterlimit:10;}
	.st23{fill:none;stroke:#14617F;stroke-width:1.055;stroke-linecap:round;stroke-miterlimit:10;}
	.st24{fill:#D0D0D0;}
	.st25{font-size:6.3131px;}
	.st26{clip-path:url(#SVGID_16_);fill:#1893C9;stroke:#14617F;stroke-width:1.4811;stroke-miterlimit:10;}
	.st27{clip-path:url(#SVGID_16_);fill:#E2CFBA;stroke:#14617F;stroke-width:1.4811;stroke-miterlimit:10;}
	.st28{font-size:6.313px;}
</style>
<g>
	<path class="st0" d="M56.7,1.4C64,1.1,115,0.9,120.3,0.9c5.3,0,9.9,4.6,9.8,14.6s0.5,135.4,0.8,141.7c0.3,6.3-10,13.3-19.7,14
		c-9.7,0.8-52,0-58.7-0.8s-11.4-5-11.6-12.4c-0.1-7.4-0.6-133.3-0.4-141.8C40.5,9.1,45.1,1.7,56.7,1.4z"/>
	<path class="st1" d="M56.7,0.8C64,0.6,115,0.4,120.3,0.4c5.3,0,9.9,4.6,9.8,14.6s0.5,135.4,0.8,141.7c0.3,6.3-10,13.3-19.7,14
		s-52,0-58.7-0.8s-11.4-5-11.6-12.4c-0.1-7.4-0.6-133.3-0.4-141.8C40.5,8.6,45.1,1.2,56.7,0.8z"/>
	<path class="st2" d="M48.1,19.6c0,0,15.6-2.3,36.7-1.5c21.1,0.7,38,0.8,38,0.8s2.2,97.7,0.5,129.6c-16.5,1.9-48.8,4-75,1.1
		C48.4,95.7,45.5,40.7,48.1,19.6z"/>
	<path class="st1" d="M107.1,6.4c3.6,1.6,2.8,5,0.4,6.5s-5-1.3-5.3-3.2S104.2,5.1,107.1,6.4z"/>
	<path class="st1" d="M95.9,6.5c2.6,0,2.9,6.3,0,6.4c-2.9,0.1-18.1,0.2-21.8,0s-2.1-6,1.2-6.1S92.4,6.5,95.9,6.5z"/>
	<path class="st1" d="M95.5,157.9c0.9,1.1,0.6,5.9,0,6.4c-0.6,0.5-21.7,0.8-22.3,0c-0.6-0.8-0.7-5.7,0-6.4
		C73.9,157.3,94.6,156.8,95.5,157.9z"/>
	<path class="st3" d="M54.5,4.8c3.8-0.7,9.2-0.7,9,0.7c-0.2,1.4-2.7,2.9-9,3.2s-6.2,2.5-7.3,2S48.2,6,54.5,4.8z"/>
	<ellipse transform="matrix(0.3857 -0.9226 0.9226 0.3857 15.459 50.137)" class="st3" cx="45.4" cy="13.5" rx="1.5" ry="0.9"/>
	<path class="st4" d="M119,25c0,0,1.2,33,0.9,48.8"/>
	<g>
		<defs>
			<path id="SVGID_1_" d="M60.1,42c4.9,0.5,5.5,6.4,4,9.2c-1.4,2.8-7.1,4.7-10.4,0.3S53.9,41.3,60.1,42z"/>
		</defs>
		<use xlink:href="#SVGID_1_"  style="overflow:visible;fill:#3CBC55;"/>
		<clipPath id="SVGID_2_">
			<use xlink:href="#SVGID_1_"  style="overflow:visible;"/>
		</clipPath>
		<path class="st5" d="M53.2,54.9c0,0,1.2-6.4,5.7-6.3c4.5,0.1,5.6,6.3,5.6,6.3"/>
		<circle class="st6" cx="58.9" cy="47.3" r="2.1"/>
		<use xlink:href="#SVGID_1_"  style="overflow:visible;fill:none;stroke:#14617F;stroke-width:1.055;stroke-miterlimit:10;"/>
	</g>
	<g>
		<defs>
			<path id="SVGID_3_" d="M27.9,119.8c6.5-0.6,8.9,7,7.7,11.1c-1.1,4.1-8.2,8-13.7,3.2S19.6,120.6,27.9,119.8z"/>
		</defs>
		<use xlink:href="#SVGID_3_"  style="overflow:visible;fill:#3CBC55;"/>
		<clipPath id="SVGID_4_">
			<use xlink:href="#SVGID_3_"  style="overflow:visible;"/>
		</clipPath>
		<path class="st7" d="M22.2,138.7c0,0,0-8.8,5.9-9.8c5.9-1,9,6.9,9,6.9"/>
		<circle class="st8" cx="27.7" cy="127.2" r="2.8"/>
		<use xlink:href="#SVGID_3_"  style="overflow:visible;fill:none;stroke:#14617F;stroke-width:1.4184;stroke-miterlimit:10;"/>
	</g>
	<g>
		<defs>
			<path id="SVGID_5_" d="M60.9,59.2c4.9,0.5,5.5,6.4,4,9.2c-1.4,2.8-7.1,4.7-10.4,0.3C51.2,64.4,54.7,58.5,60.9,59.2z"/>
		</defs>
		<use xlink:href="#SVGID_5_"  style="overflow:visible;fill:#D6A5B9;"/>
		<clipPath id="SVGID_6_">
			<use xlink:href="#SVGID_5_"  style="overflow:visible;"/>
		</clipPath>
		<path class="st9" d="M54,72.1c0,0,1.2-6.4,5.7-6.3c4.5,0.1,5.6,6.3,5.6,6.3"/>
		<circle class="st10" cx="59.7" cy="64.5" r="2.1"/>
		<use xlink:href="#SVGID_5_"  style="overflow:visible;fill:none;stroke:#14617F;stroke-width:1.055;stroke-miterlimit:10;"/>
	</g>
	<g>
		<defs>
			<path id="SVGID_7_" d="M61.8,93.5c4.9,0.5,5.5,6.4,4,9.2c-1.4,2.8-7.1,4.7-10.4,0.3S55.6,92.9,61.8,93.5z"/>
		</defs>
		<use xlink:href="#SVGID_7_"  style="overflow:visible;fill:#D6A5B9;"/>
		<clipPath id="SVGID_8_">
			<use xlink:href="#SVGID_7_"  style="overflow:visible;"/>
		</clipPath>
		<path class="st11" d="M54.9,106.5c0,0,1.2-6.4,5.7-6.3c4.5,0.1,5.6,6.3,5.6,6.3"/>
		<circle class="st12" cx="60.6" cy="98.9" r="2.1"/>
		<use xlink:href="#SVGID_7_"  style="overflow:visible;fill:none;stroke:#14617F;stroke-width:1.055;stroke-miterlimit:10;"/>
	</g>
	<g>
		<defs>
			<path id="SVGID_9_" d="M61.4,75.7c4.9,0.5,5.5,6.4,4,9.2s-7.1,4.7-10.4,0.3C51.8,80.9,55.2,75,61.4,75.7z"/>
		</defs>
		<use xlink:href="#SVGID_9_"  style="overflow:visible;fill:#D8CC79;"/>
		<clipPath id="SVGID_10_">
			<use xlink:href="#SVGID_9_"  style="overflow:visible;"/>
		</clipPath>
		<path class="st13" d="M54.5,88.6c0,0,1.2-6.4,5.7-6.3c4.5,0.1,5.6,6.3,5.6,6.3"/>
		<circle class="st14" cx="60.2" cy="81" r="2.1"/>
		<use xlink:href="#SVGID_9_"  style="overflow:visible;fill:none;stroke:#14617F;stroke-width:1.055;stroke-miterlimit:10;"/>
	</g>
	<g>
		<defs>
			<path id="SVGID_11_" d="M138.5,81.7c6.6,1.3,6.6,9.4,4.3,13.1s-10.3,5.5-14.3-0.9C124.6,87.6,130.1,80,138.5,81.7z"/>
		</defs>
		<use xlink:href="#SVGID_11_"  style="overflow:visible;fill:#D8CC79;"/>
		<clipPath id="SVGID_12_">
			<use xlink:href="#SVGID_11_"  style="overflow:visible;"/>
		</clipPath>
		<path class="st15" d="M127.4,98.5c0,0,2.5-8.6,8.6-7.9c6.1,0.7,6.9,9.3,6.9,9.3"/>
		<circle class="st16" cx="136.1" cy="88.8" r="2.9"/>
		<use xlink:href="#SVGID_11_"  style="overflow:visible;fill:none;stroke:#14617F;stroke-width:1.4481;stroke-miterlimit:10;"/>
	</g>
	<g>
		<defs>
			<path id="SVGID_13_" d="M62.3,111.6c4.9,0.5,5.5,6.4,4,9.2c-1.4,2.8-7.1,4.7-10.4,0.3C52.7,116.9,56.1,111,62.3,111.6z"/>
		</defs>
		<use xlink:href="#SVGID_13_"  style="overflow:visible;fill:#D0D0D0;"/>
		<clipPath id="SVGID_14_">
			<use xlink:href="#SVGID_13_"  style="overflow:visible;"/>
		</clipPath>
		<g class="st17">
			<text transform="matrix(1 0 0 1 58.8777 119.8832)" class="st18 st19 st20">+</text>
		</g>
		<use xlink:href="#SVGID_13_"  style="overflow:visible;fill:none;stroke:#14617F;stroke-width:1.055;stroke-miterlimit:10;"/>
	</g>
	<text transform="matrix(1 8.880004e-03 -8.880004e-03 1 72.649 31.5545)" class="st19 st21">Who’s Join</text>
	<path class="st22" d="M69.7,43.8c0,0,17.8-1.1,31.5,0"/>
	<path class="st23" d="M69.7,48.6c0,0,14.3-1.2,20.8-0.5"/>
	<path class="st22" d="M69.7,61.3c0,0,9.1-0.5,17.7,0"/>
	<path class="st23" d="M69.7,66.4c0,0,18.3-0.9,31.5,0"/>
	<path class="st22" d="M69.7,78c0,0,19.1-2.3,25.2,0"/>
	<path class="st23" d="M69.7,83.1c0,0,7.1-1.6,15.2-0.8"/>
	<text transform="matrix(1 0 0 1 55.2166 145.6137)" class="st24 st19 st25">Write comment</text>
	<path class="st23" d="M48.2,137.4c0,0,57.5,0.4,75.6-1.7"/>
	<path class="st22" d="M70.8,95.9c0,0,11.9-0.7,30.5-0.2"/>
	<path class="st23" d="M70.8,101.5c0,0,10-1.1,21,0"/>
	<text transform="matrix(1 0 0 1 72.0037 119.018)" class="st24 st19 st25">Invite people</text>
	<g>
		<defs>
			<path id="SVGID_15_" d="M25.4,55c6.8,0.2,8.3,8.4,6.6,12.5c-1.7,4.1-9.5,7.3-14.6,1.6S16.6,54.8,25.4,55z"/>
		</defs>
		<use xlink:href="#SVGID_15_"  style="overflow:visible;fill:#D6A5B9;"/>
		<clipPath id="SVGID_16_">
			<use xlink:href="#SVGID_15_"  style="overflow:visible;"/>
		</clipPath>
		<path class="st26" d="M17,73.9c0,0,1.1-9.1,7.3-9.4c6.3-0.3,8.5,8.2,8.5,8.2"/>
		<circle class="st27" cx="24.2" cy="62.6" r="3"/>
		<use xlink:href="#SVGID_15_"  style="overflow:visible;fill:none;stroke:#14617F;stroke-width:1.4811;stroke-miterlimit:10;"/>
	</g>
	<g>
		<path class="st2" d="M41.5,28.5c1.2,1.3,2.8,14.9,1.3,17.1c-1.5,2.2-12,3.2-12,3.2s-0.7,2.7-2.4,3.3c-0.7-2.8-0.7-2.8-0.7-2.8
			s-22,1.8-23.3,0.5s-3.4-15-2.1-18.5S38.6,25.4,41.5,28.5z"/>
		<text transform="matrix(0.9972 -7.438000e-02 7.438000e-02 0.9972 0.8305 38.2076)"><tspan x="0" y="0" class="st19 st25">Looking forward</tspan><tspan x="0.6" y="7.6" class="st19 st25">to see you guys!</tspan></text>
	</g>
	<g>
		<path class="st2" d="M167.8,60.9c0.9,1.5-0.3,15.2-2.2,17c-2,1.9-12.4,0.7-12.4,0.7s-1.2,2.5-3,2.8c-0.2-2.9-0.2-2.9-0.2-2.9
			s-21.9-2.7-23-4.2c-1-1.5-0.3-15.4,1.7-18.5C130.7,52.7,165.6,57.2,167.8,60.9z"/>
		<text transform="matrix(0.9916 0.129 -0.129 0.9916 128.5049 62.5258)"><tspan x="0" y="0" class="st19 st25">Do we need to</tspan><tspan x="-2.7" y="7.6" class="st19 st25">bring suncream?</tspan></text>
	</g>
	<g>
		<path class="st2" d="M31.3,91.4c1.4,1,5.7,14.1,4.6,16.6c-1.1,2.5-7.5,5.2-7.5,5.2s-0.2,2.7-1.7,3.7c-1.3-2.6-1.3-2.6-1.3-2.6
			s-18.1,5.3-19.7,4.2c-1.6-1-6.3-14.1-5.6-17.7C0.7,97.2,27.8,88.9,31.3,91.4z"/>
		<text transform="matrix(0.9638 -0.2668 0.2668 0.9638 6.2455 105.9361)"><tspan x="0" y="0" class="st19 st28">Anybody</tspan><tspan x="-4.5" y="7.6" class="st19 st28">have tripod?</tspan></text>
	</g>
</g>
</svg>
