<svg xmlns="http://www.w3.org/2000/svg" width="288" height="220" viewBox="0 0 288 220">
    <g fill="none" fill-rule="evenodd">
        <ellipse cx="142" cy="205" fill="#000" fill-opacity=".1" rx="34" ry="10"/>
        <ellipse cx="96.5" cy="189" fill="#000" fill-opacity=".1" rx="30.5" ry="9"/>
        <ellipse cx="200.5" cy="189" fill="#000" fill-opacity=".1" rx="29.5" ry="9"/>
        <ellipse cx="244" cy="174" fill="#000" fill-opacity=".1" rx="23" ry="7"/>
        <ellipse cx="49" cy="175" fill="#000" fill-opacity=".1" rx="34" ry="7"/>
        <path fill="#F6F7AE" d="M268.623 52.8s-6.053 2.628-14.726 4.01c-3.07.482-6.467.816-10.057.816-3.363 0-6.572-.291-9.493-.73-8.977-1.347-15.289-4.095-15.289-4.095s5.699-2.48 13.965-3.889c-.008-.438.139-.953.399-1.503.138-.299.32-.608.518-.926 2.05-3.237 7.082-7.255 9.9-7.255 2.932 0 8.242 4.328 10.127 7.624.076.137.146.266.215.404.311.609.485 1.176.476 1.656 8.267 1.408 13.965 3.889 13.965 3.889"/>
        <path fill="#F6F7AE" d="M254.182 47.256c-.112.06-.215.12-.329.18-3.423 1.785-6.173 2.618-9.943 3.005-3.382.334-5.413-.756-8.378-2.035-.494-.215-1.28-.55-2.11-.996.138-.3.32-.61.518-.927 2.05-3.237 7.082-7.255 9.9-7.255 2.932 0 8.242 4.328 10.127 7.624.076.137.146.266.215.404"/>
        <path fill="#E1BA90" d="M272.813 78.17c-.095-1.714-.368-3.207-.651-4.653-.585-2.875-1.285-5.454-1.909-7.662a182.533 182.533 0 0 0-1.591-5.293l-.579-1.786c1.177-2.843 1.779-5.7.134-8.644-.815-1.458-2.53-3.76-4.535-3.737-.219 3.305 2.29 7.453.536 10.688-.638-.59-1.338-2.52-2.4-2.432-.226 1.155.689 2.662 1.119 3.733.371.925 1.051 1.555 1.663 2.257l.273 1.006a178.05 178.05 0 0 1 1.307 5.246c.502 2.17 1.06 4.719 1.475 7.41.2 1.333.37 2.738.375 3.991 0 .06-.003.114-.005.172-.98-.237-2.162-.672-3.262-1.127a72.39 72.39 0 0 1-3.843-1.746c-1.812-.88-9.092-6.703-10.59-6.703-.463 0-.9.103-1.297.28-.47-.275-.831-.489-1.061-.624 3.506-1.802 5.966-5.994 5.966-10.88 0-.301-.018-.58-.036-.86-3.075.489-6.477.822-10.059.822-3.365 0-6.571-.293-9.496-.733-.015.253-.034.5-.034.77 0 4.627 2.21 8.622 5.422 10.565-.063.031-.128.051-.19.086l-.042.025-1.105.65c-.243-.06-.495-.101-.758-.101-1.378 0-9.278 5.651-11.387 6.679a71.815 71.815 0 0 1-3.843 1.749c-1.125.466-2.325.91-3.328 1.153l-.007-.157c-.017-1.25.133-2.656.313-3.993.374-2.696.892-5.252 1.362-7.43.473-2.183.912-3.998 1.225-5.264l.275-1.075c.592-.667 1.23-1.283 1.585-2.168.43-1.07 1.345-2.578 1.118-3.733-1.061-.088-1.761 1.841-2.4 2.432-1.753-3.235.755-7.383.535-10.688-2.003-.023-3.718 2.279-4.533 3.737-1.657 2.963-1.035 5.84.157 8.704-.095.314-.28.915-.54 1.762a186.101 186.101 0 0 0-1.512 5.315c-.588 2.217-1.25 4.807-1.792 7.688-.261 1.453-.513 2.946-.58 4.665-.013.437-.011.888.034 1.398.02.252.058.526.121.83.027.143.079.32.125.482.072.199.099.325.267.654.072.144.167.3.167.3l.036.06.019.03c.183.264.078.11.131.184l.05.06c.134.159.287.32.437.443.145.116.3.224.46.32a3.958 3.958 0 0 0 1.468.476c.78.093 1.297.025 1.807-.035 1.928-.297 3.395-.839 4.893-1.373a77.168 77.168 0 0 0 4.204-1.713 162.864 162.864 0 0 0 6.978-3.283c-.127.84-.197 1.688-.197 2.52l-1.728 31.967c0 1.796.47 3.48 1.29 4.946l-.082 10.743c-.045 4.549-.045 9.098-.05 13.647v.051c0 .078.005.156.012.235l1.027 10.306.955 10.3c.148 1.71.276 3.423.386 5.116.059.844.107 1.686.13 2.495.009.38.012.773-.001 1.074a3.92 3.92 0 0 1-.337.199c-.29.152-.625.302-.982.44-.716.278-1.498.523-2.295.741-.798.217-6.426 2.083-6.348 2.97a1.725 1.725 0 0 0 1.873 1.562 59.95 59.95 0 0 0 2.697-.296 38.25 38.25 0 0 0 2.685-.438c.9-.18 1.805-.39 2.737-.677a13.58 13.58 0 0 0 1.443-.53c.503-.228 1.023-.465 1.648-.994l.237-.219c.073-.067.222-.248.318-.378.27-.38.245-.384.315-.49l.005-.01c.187-.4.059-.128.104-.225l.023-.063.043-.126c.027-.078.059-.185.067-.225l.07-.311a8.18 8.18 0 0 0 .072-.467c.068-.559.091-1.014.115-1.484.04-.922.05-1.81.053-2.697a171.35 171.35 0 0 0-.115-5.26c-.11-3.489-.305-6.959-.517-10.427-.198-3.41-.443-6.808-.718-10.219.092-4.514.187-9.025.237-13.539l.081-6.015a10.311 10.311 0 0 0 6.845-.232l.085 6.247c.05 4.514.147 9.025.237 13.538-.275 3.41-.518 6.81-.718 10.22-.212 3.468-.405 6.938-.517 10.428-.055 1.744-.112 3.491-.115 5.259.003.887.013 1.775.053 2.697.025.47.047.925.115 1.484.017.136.04.293.072.467l.07.311c.008.04.04.147.067.225l.043.126.023.063c.045.097-.083-.176.104.225l.005.01c.07.106.046.11.315.49.096.13.246.31.32.378l.235.219c.626.53 1.146.766 1.648.994.498.217.977.386 1.443.53.934.286 1.837.496 2.737.677a38.25 38.25 0 0 0 2.685.438c.898.118 1.772.217 2.697.296a1.735 1.735 0 0 0 1.851-1.4c.174-.933-5.526-2.915-6.326-3.132a23.678 23.678 0 0 1-2.294-.741 9.13 9.13 0 0 1-.981-.44 3.572 3.572 0 0 1-.339-.199c-.013-.301-.01-.692 0-1.074.022-.81.072-1.651.129-2.495.11-1.693.238-3.406.386-5.117l.957-10.3 1.025-10.305c.008-.078.012-.159.012-.238v-.048c-.005-4.55-.005-9.098-.05-13.647l-.09-11.94c.006-.065.008-.132.008-.198.415-1.107.652-2.3.652-3.55l-1.729-31.968c0-.733-.051-1.477-.148-2.217 1.9.937 4.053 1.97 6.418 3.005a77.379 77.379 0 0 0 4.209 1.711c.738.27 1.495.533 2.293.77.803.235 1.625.456 2.622.592.511.056 1.045.12 1.855.005.383-.06.921-.179 1.531-.578.157-.109.295-.203.45-.362a3.52 3.52 0 0 0 .215-.23l.102-.12c-.068.099.15-.21.127-.18l.01-.014.073-.123c.08-.137.155-.281.222-.425.196-.462.265-.765.323-1.07a6.81 6.81 0 0 0 .105-.823c.035-.506.027-.957.008-1.39"/>
        <path fill="#333" d="M256.742 133.666h-10.454l-.995-10.303-3.2-.429v10.732h-10.556l1.875-22.262.441-5.186h19.984l.545 5.186 2.36 22.262"/>
        <path fill="#999" d="M254.382 111.404h-20.97l.441-5.186h19.984l.545 5.186"/>
        <path fill="#EE3B49" d="M254.658 48.912c-12.806 6.68-21.635 0-21.635 0-.008-.678.337-1.519.917-2.43 7.142 3.082 14.277 2.258 20.027.37.44.764.7 1.476.691 2.06"/>
        <path fill="#C24141" d="M249.137 89.872c-.137 0-.264-.015-.375-.036-4.739.063-8.107-1.304-9.955-4.038-3.79-5.604.103-14.874.27-15.267l.796.335c-.04.092-3.878 9.238-.346 14.456 1.68 2.484 4.783 3.706 9.271 3.655h.05l.049.01c.661.146 1.256-.288 1.771-1.287 1.94-3.768 1.599-13.88-2.151-17.197l.575-.642c4.076 3.606 4.446 14.152 2.348 18.23-.753 1.46-1.657 1.781-2.303 1.781"/>
        <path fill="#EE6C6C" d="M236.242 75.557c.28-.561.735-.561 1.015 0 .278.561 1.016 1.092 1.64 1.183.623.09.765.521.313.957-.452.436-.733 1.299-.627 1.916.107.615-.263.882-.82.59-.558-.29-1.47-.29-2.028 0-.558.292-.927.025-.82-.59.107-.617-.175-1.48-.627-1.916-.451-.436-.31-.867.314-.957.623-.09 1.361-.622 1.64-1.183M237.63 81.256c.28-.561.737-.561 1.015 0 .278.561 1.017 1.094 1.64 1.183.625.091.765.521.313.958-.45.437-.733 1.3-.626 1.915.106.617-.262.883-.82.592-.557-.291-1.47-.291-2.029 0-.556.291-.926.025-.82-.592.107-.616-.175-1.478-.626-1.915-.452-.437-.31-.867.313-.958.623-.09 1.362-.622 1.64-1.183M241.693 86.794c.279-.56.735-.56 1.014 0 .278.563 1.016 1.094 1.641 1.185.624.09.764.52.314.957-.452.437-.734 1.299-.627 1.916.105.616-.263.882-.822.59-.556-.29-1.47-.29-2.026 0-.559.292-.929.026-.822-.59.107-.617-.175-1.48-.627-1.916-.45-.437-.31-.867.314-.957.623-.09 1.361-.622 1.641-1.185M248.297 86.794c.278-.56.735-.56 1.013 0 .28.563 1.018 1.094 1.642 1.185.623.09.763.52.313.957-.452.437-.733 1.299-.627 1.916.107.616-.263.882-.82.59-.558-.29-1.471-.29-2.028 0-.558.292-.928.026-.822-.59.107-.617-.175-1.48-.626-1.916-.45-.437-.31-.867.313-.957.625-.09 1.363-.622 1.642-1.185M251.022 81.256c.278-.561.735-.561 1.015 0 .278.561 1.016 1.094 1.64 1.183.623.091.765.521.313.958-.452.437-.733 1.3-.627 1.915.107.617-.263.883-.82.592-.558-.291-1.47-.291-2.028 0s-.927.025-.82-.592c.105-.616-.177-1.478-.627-1.915-.451-.437-.31-.867.314-.958.623-.09 1.361-.622 1.64-1.183M251.022 74.423c.278-.56.735-.56 1.015 0 .278.561 1.016 1.094 1.64 1.184.623.09.765.52.313.958-.452.437-.733 1.299-.627 1.914.107.618-.263.884-.82.593-.558-.292-1.47-.292-2.028 0-.558.291-.927.025-.82-.593.105-.615-.177-1.477-.627-1.914-.451-.437-.31-.867.314-.958.623-.09 1.361-.623 1.64-1.184M248.297 68.526c.278-.561.735-.561 1.013 0 .28.56 1.018 1.094 1.642 1.183.623.09.763.521.313.958-.452.437-.733 1.3-.627 1.915.107.617-.263.883-.82.592-.558-.291-1.471-.291-2.028 0-.558.291-.928.025-.822-.592.107-.616-.175-1.478-.626-1.915-.45-.437-.31-.869.313-.958.625-.09 1.363-.622 1.642-1.183M238.967 69.237c.28-.56.736-.56 1.015 0 .278.561 1.016 1.094 1.64 1.184.623.089.765.52.313.956-.45.437-.733 1.3-.627 1.916.107.616-.261.882-.82.591-.556-.29-1.47-.29-2.028 0-.557.291-.927.025-.82-.59.107-.618-.175-1.48-.627-1.917-.451-.435-.31-.867.314-.956.623-.09 1.361-.623 1.64-1.184"/>
        <g>
            <path fill="#F7CE9E" d="M17.4 52.009l10.891 17.298-2.087-1.337c1.507-.11 3.007-.145 4.51-.213 1.503-.045 3.003-.073 4.503-.086 1.499-.015 2.995-.01 4.494-.004l2.244.03 1.121.015 1.15-.018c1.497.026 2.963.414 4.436.705 1.474.3 2.943.638 4.41 1.014 1.467.368 2.931.782 4.395 1.194.732.218 1.462.437 2.187.718.727.268 1.453.552 2.171.915a1.465 1.465 0 0 1-.23 2.709c-.77.232-1.53.389-2.293.528-.761.153-1.52.246-2.276.336-1.512.157-3.024.316-4.532.428-1.509.12-3.015.2-4.517.247-1.502.035-3.012.167-4.49-.061-.361-.057-.762-.145-1.085-.21l-1.11-.164-2.22-.33a289.656 289.656 0 0 1-4.437-.72 202.936 202.936 0 0 1-4.43-.803c-1.474-.307-2.95-.58-4.42-.93l-.57-.134a2.317 2.317 0 0 1-1.519-1.202l-9.192-18.268a1.685 1.685 0 0 1 .733-2.256 1.67 1.67 0 0 1 2.163.599"/>
            <path fill="#F7CE9E" d="M65.13 78.105c-.012.128-5.309 31.61-5.309 31.61-.005.06-.01.13-.023.19l-.008.095a10.207 10.207 0 0 1-3.56 6.69 10.017 10.017 0 0 1-4.498 2.186l-.008.008c-.202.044-.403.08-.611.105-.75.12-1.525.142-2.32.075a10.27 10.27 0 0 1-3.691-1.043 10.234 10.234 0 0 1-5.607-8.576 7.704 7.704 0 0 1 0-1.266c.003-.025-.004-.06.006-.084a.742.742 0 0 1 .002-.122s.337-34.77.357-35.002c.294-2.218 3.245-2.015 5.754-3.573.481-.297.94-.657 1.375-1.114l12.079 1.004c.031.039.063.075.084.112.887 1.347 5.877 7.311 5.978 8.705"/>
            <path fill="#F7CE9E" d="M49.151 68.011c-.168 2.056 1.458 3.868 3.632 4.05 2.174.18 4.073-1.34 4.243-3.394l.492-5.992c.169-2.055-1.457-3.867-3.631-4.048-2.175-.182-4.075 1.338-4.243 3.393l-.493 5.991"/>
            <path fill="#FFF" d="M65.13 78.105c-.012.128-5.309 31.61-5.309 31.61-.005.06-.01.13-.023.19l-.008.095c-4.387-.306-13.24-1.207-20.289-1.905a.742.742 0 0 1 .002-.122s.337-34.77.357-35.002c.188-1.421 1.948-5.66 1.948-5.66l5.701.537 1.504 11.796 7.978-10.529 2.077.173c.031.039 2.952.212 2.975.248.888 1.347 2.986 7.175 3.087 8.569"/>
            <path fill="#F7CE9E" d="M66.209 73.612s0 .246-.06.685a13.905 13.905 0 0 1-.358 1.832c-.192.77-.483 1.671-.89 2.662-.416.988-.921 2.079-1.628 3.183-.693 1.112-1.61 2.226-2.492 3.453-.44.614-.86 1.26-1.256 1.938-.394.676-.698 1.42-1.054 2.148-.325.742-.763 1.44-1.209 2.14l-1.31 2.125c-.443.703-.868 1.42-1.26 2.093l-.288.491-.256.449-.113.2-.079.124c-.04.075-.035.015-.05-.025a.233.233 0 0 0-.031-.055c-.06.65.023-.055-.073.589-.04.195-.095.39-.165.57a4.088 4.088 0 0 1-.18.386c-.58 1.034-1.325 1.394-1.758 1.593a4.202 4.202 0 0 1-1.046.293 6.258 6.258 0 0 1-1.216.053 12.59 12.59 0 0 1-1.677-.205 33.393 33.393 0 0 1-2.78-.65 93.11 93.11 0 0 1-5.003-1.553 152.243 152.243 0 0 1-8.527-3.206c-4.923-1.997-8.119-3.548-8.119-3.548l-.01-.005a1.37 1.37 0 0 1-.632-1.824 1.355 1.355 0 0 1 1.548-.732l8.503 2.117c2.548.622 5.509 1.387 8.668 2.103 1.574.363 3.205.717 4.82.993a28.13 28.13 0 0 0 2.347.314c.358.029.714.04.938.02.104-.006.189-.031.094-.028-.056.007-.153.01-.414.115-.235.11-.782.342-1.26 1.179-.055.1-.103.204-.143.31a2.56 2.56 0 0 0-.144.493c-.077.588.002-.171-.05.424l.01-.384c.01-.26.037-.539.059-.677l.072-.519.08-.432c.052-.296.109-.554.165-.805l.175-.745c.244-.964.524-1.852.798-2.73.282-.876.59-1.715.885-2.546.295-.831.605-1.64 1.018-2.376.388-.75.823-1.457 1.157-2.193.333-.737.63-1.474.895-2.202.526-1.458.955-2.873 1.515-4.092.545-1.225 1.198-2.265 1.814-3.163a18.575 18.575 0 0 1 1.795-2.214c.553-.582 1.026-1.018 1.382-1.296.344-.284.56-.422.56-.422a4.043 4.043 0 0 1 5.601 1.259 4.08 4.08 0 0 1 .632 2.196v.097M45.993 111.375c.802.823.712 1.467.527 2.09l-.461 1.894c-.298 1.264-.62 2.523-.959 3.778-.646 2.518-1.407 5.012-2.106 7.52l-2.138 7.51-.988 3.773-.917 3.786.041-.29-1.318 10.744-.704 5.366c-.251 1.788-.48 3.577-.702 5.37a238.143 238.143 0 0 1-.747 5.388 80.73 80.73 0 0 1-.458 2.722c-.087.463-.178.921-.3 1.415a9.136 9.136 0 0 1-.237.815c-.082.191-.079.301-.373.75l-.102.135a3.786 3.786 0 0 1-.278.304c-.251.251-.368.313-.537.437-.16.108-.299.18-.453.266a7.198 7.198 0 0 1-.827.353c-.527.183-1.023.304-1.512.407-.977.2-1.915.308-2.848.393a49.07 49.07 0 0 1-2.776.15 56.69 56.69 0 0 1-2.776.046 1.719 1.719 0 0 1-1.697-1.743c.009-.953 6.11-1.754 6.958-1.829.844-.078 4.267-2.073 4.333-2.497.131-.853.243-1.731.347-2.61.209-1.762.387-3.541.556-5.322.361-3.562.538-7.15.773-10.73l.596-10.751a.922.922 0 0 1 .01-.095l.03-.196.603-3.85.535-3.862.922-7.757c.319-2.583.578-5.178.945-7.75.17-1.291.354-2.578.56-3.86l.298-1.926c.069-.646.226-1.277 1.192-1.745a5.897 5.897 0 0 1 6.78 1.185l.208.216M53.97 113.788c1.354.324 1.6.93 1.737 1.563l1.586 5.615c.35 1.247.67 2.504 1.007 3.757.33 1.252.674 2.502.978 3.762l.938 3.773.884 3.788.808 3.806c.277 1.267.53 2.541.755 3.821l-.86-1.425v.002a502.099 502.099 0 0 1 6.93 6.733c2.287 2.268 4.555 4.554 6.784 6.915a96.737 96.737 0 0 1 3.298 3.653c.542.647 1.072 1.286 1.615 2.074.136.198.276.416.42.672.076.14.149.27.233.469.036.078.084.202.127.339.022.073.038.111.061.214.024.105.042.211.057.318l.008.08.005.04.005.176v.036l-.004.077-.011.204a4.223 4.223 0 0 1-.103.66c-.077.323-.171.59-.269.84-.396.981-.856 1.716-1.328 2.453a35.1 35.1 0 0 1-1.469 2.07 64.002 64.002 0 0 1-3.162 3.82 1.705 1.705 0 0 1-2.42.126c-.68-.617 2.16-5.486 2.59-6.124.43-.637.843-1.28 1.21-1.92.363-.63-.189-3.22-.711-3.769a90.982 90.982 0 0 0-3.34-3.284c-4.609-4.32-9.445-8.513-14.28-12.624a.545.545 0 0 1-.235-.23l-.626-1.195c-.622-1.178-1.154-2.379-1.679-3.583-.27-.6-.496-1.212-.745-1.816l-.724-1.822-1.323-3.675-1.186-3.71c-.41-1.233-.749-2.485-1.11-3.73-.341-1.251-.683-2.5-.999-3.759-.304-1.258-.632-2.512-.907-3.78l-.426-1.898c-.258-.604-.205-1.286 2.558-2.66l1.224-.61a3.104 3.104 0 0 1 2.1-.242M42.7 49.115c-2.14 6.003.39 12.41 5.65 14.309 5.262 1.9 11.261-1.427 13.401-7.431 2.14-6.003-4.606-9.842-9.867-11.741-5.26-1.9-7.045-1.14-9.184 4.863M15.004 54.448c.123.238 1.216.444 1.216.444s1.813-3.02 1.287-4.533c-.432-1.244-1.784-4.513-2.836-5.339-.969.715-.128 2.9-.23 3.886 1.099.419-7.01-8.457-6.113-7.547-1.725 1.471-.825 4.705-.43 6.57 1.008 4.778 2.943 4.703 7.106 6.519"/>
            <path fill="#3F3F3F" d="M45.64 45.414c-2.962-.171-3.712-4.744-2.17-6.518 2.162-2.49 6.303-3.24 9.389-3.306 2.156-.046 4.438.659 6.386 1.186 2.222.602 5.486.988 7.277 2.295-1.05.011-2.199.814-2.66 1.521 3.235.499 6.616 3.254 9.712 4.255-1.309.241-2.886 1.816-3.86 2.75-1.814 1.74-.913 2.498 1.672 2.785-1.51 1.921-4.495 3.822-6.503 5.649-2.085 1.897-4.39 4.253-6.661 5.846-1.157-7.103-3.841-15.964-12.581-16.463"/>
            <path fill="#6CDE88" d="M60.408 106.212l-21.495-.532-4.316 16.234 9.694 5.236 1.683-6.543-.314 6.355 10.127-1.327 4.318-7.459s1.43-11.264.866-11.613l-.563-.35"/>
            <path fill="#F7CE9E" d="M24.564 90.48c.191-.149.195-1.177.195-1.177s-3.014-1.144-4.283-.412c-1.044.602-3.75 2.376-4.317 3.472.805.762 2.626-.37 3.528-.442-.68 3.797-5.408 5.58-7.376 8.437 1.61 1.32 4.496.542 6.103-.128 4.118-1.716 5.216-5.662 6.15-9.75"/>
        </g>
        <g>
            <path fill="#4C260C" d="M108.668 62s-16.633-7.736-25.133-1.217L82 41.474s27.605-3.224 28-2.311L108.668 62"/>
            <path fill="#C56F4D" d="M94.318 61.02c1.166-1.497 1.408-4.955-4.032-5.86-1.21-.326-2.444-.165-3.364.59-.979.805-7.83 9.966-10.075 12.012a110.448 110.448 0 0 1-3.497 3.06c-1.199 1-2.44 1.982-3.656 2.807a15.26 15.26 0 0 1-1.22.745l-.282-.416a93.817 93.817 0 0 1-1.235-1.931c-1.61-2.587-3.07-5.081-4.315-7.211l-4.096-7.153-.025-.044a2.424 2.424 0 0 0-3.167-.961 2.41 2.41 0 0 0-1.105 3.231l3.678 7.463c1.125 2.233 2.434 4.83 3.937 7.615.374.698.767 1.408 1.18 2.132.196.352.46.777.692 1.165.124.207.235.379.342.544l.168.256.082.13.042.063.021.03.111.152c.57.773 1.527 1.29 2.268 1.445.177.038.355.069.534.09.166.019.296.02.445.025.315.006.519-.02.763-.048.886-.128 1.444-.35 1.98-.561 1.044-.438 1.86-.911 2.659-1.397 1.57-.972 2.972-1.998 4.324-3.029a120.413 120.413 0 0 0 3.85-3.09 216.3 216.3 0 0 0 6.502-5.688 269.957 269.957 0 0 0 3.476-3.21c.663-.072 1.293-.294 1.816-.723.68-.56 1.071-1.353 1.2-2.233z"/>
            <path fill="#C56F4D" d="M58.009 58.735c.232.044.991-.552.991-.552s-1.058-2.738-2.399-3.187c-1.1-.369-4.117-1.198-5.282-.95-.051.994 1.928 1.59 2.552 2.169-3.229 1.74-7.524-.477-10.871-.17.04 1.876 2.436 3.408 3.945 4.126 3.86 1.834 7.463.297 11.064-1.436M126.996 76.324l-.01-.124-.028-.253c-.047-.367-.115-.565-.191-.841a7.11 7.11 0 0 0-.232-.61c-.322-.714-.647-1.201-.965-1.665-.636-.894-1.273-1.624-1.913-2.323-1.284-1.39-2.59-2.623-3.89-3.812-1.3-1.185-7.667-9.127-8.691-10.365-1.602-1.929-5.31-2.884-8.887-1.998-3.576.887-6.395 2.96-4.666 4.14l.042.03 1.928 1.318c1.23.85 2.987 2.074 5.07 3.571a241.006 241.006 0 0 1 7.009 5.216c1.256.974 2.537 1.994 3.797 3.05 1.256 1.057 2.51 2.153 3.619 3.258.551.55 1.069 1.111 1.45 1.602.08.1.145.194.205.279-.011.023-.017.046-.028.07-.119.269-.274.573-.446.88-.343.62-.753 1.263-1.173 1.891-1.71 2.524-3.587 4.858-5.195 6.825a195.962 195.962 0 0 1-5.553 6.458l-.04.046a2.419 2.419 0 0 0 .116 3.327c.959.947 2.51.94 3.46-.013l1.708-1.712a203.867 203.867 0 0 0 4.386-4.587c1.789-1.944 3.85-4.206 5.94-6.928a32.777 32.777 0 0 0 1.56-2.212c.256-.404.513-.828.763-1.317.25-.502.509-1.01.719-1.847l.07-.342c.03-.185.049-.373.06-.558l.01-.222-.004-.232z"/>
            <path fill="#C56F4D" d="M109.878 106.51c-.36-1.25-1.42-5.108-2.393-9.326-.929-4.086-1.77-8.513-1.77-11.204 0-3.79.961-7.129 2.12-10.216.71-1.857.952-9.744 1.028-12.128.044-1.734 0 0-1.947-4.173-.72-1.55-1.54-2.966-2.437-4.065 0 0-.01 0-.01-.01-.112-.134-.221-.259-.333-.388H89.872c-.114.131-.23.252-.341.387a15.063 15.063 0 0 0-1.474 2.188c-2.526 4.404-4.12 10.84-4.055 12.851.065 2.372 1.453 3.481 2.163 5.338 1.159 3.087 2.119 6.426 2.119 10.216 0 2.69-.84 7.118-1.77 11.204-1.179 5.141-2.512 9.755-2.512 9.755 0 .089 0 .175.01.264 0 .549.045 1.076.131 1.603a13.03 13.03 0 0 0 8.055 10.27 12.9 12.9 0 0 0 4.753.924h.097c1.673-.01 3.28-.33 4.754-.923a13.006 13.006 0 0 0 8.055-10.271c.088-.527.13-1.054.13-1.603.013-.089.013-.175.013-.264l-.122-.428"/>
            <path fill="#C56F4D" d="M100 56.451c0 1.96-1.568 3.549-3.5 3.549-1.934 0-3.5-1.59-3.5-3.549V52.55C93 50.589 94.566 49 96.5 49c1.932 0 3.5 1.59 3.5 3.549v3.902"/>
            <path fill="#6CDE88" d="M87.176 79h19.827c.301-1.014.636-1.999.997-2.958-2.443.055-2.882-2.284-2.806-4.678.044-1.565.704-10.856-.573-15.777 0 0-.01 0-.01-.01a8.816 8.816 0 0 0-.518-1.489c.1-.31-2.97.253-3.245.86.312 2.17-1.89 12.65-4.127 14.308-2.238 1.66-4.09 2.756-5.655-1.565-1.567-4.32 1.383-10.666 2.539-12.504-.045-.255-1.79-.095-1.8-.448C87.144 59.58 83.934 68.66 84 70.68c.066 2.382 1.463 3.496 2.178 5.361.36.96.698 1.944.997 2.958"/>
            <path fill="#C56F4D" d="M117.964 188.2a2.173 2.173 0 0 1-2.305 1.793 82.232 82.232 0 0 1-3.336-.384 39.601 39.601 0 0 1-3.335-.563c-1.116-.231-2.243-.495-3.39-.87a14.764 14.764 0 0 1-1.79-.671c-.622-.297-1.278-.607-2.049-1.278l-.29-.287a3.838 3.838 0 0 1-.396-.484c-.333-.486-.302-.486-.387-.628l-.01-.01a2.655 2.655 0 0 0-.118-.266l-.01-.021v-.01l-.033-.08-.054-.152a7.735 7.735 0 0 1-.087-.287l-.085-.408c-.033-.197-.053-.373-.074-.539-.012-.023-.012-.034-.012-.055-.085-.715-.106-1.3-.139-1.906a75.368 75.368 0 0 1-.064-3.459c0-2.269.064-4.504.139-6.75.14-4.473.376-8.923.644-13.373.246-4.394.546-8.754.89-13.149-.118-5.783-.236-11.555-.3-17.338l-.108-8.744-.064-4.373-.02-2.19c-.077-.73.02-1.466 1.52-2.205a4.935 4.935 0 0 1 4.292-.044c1.522.707 1.63 1.433 1.576 2.17l.012 2.182.095 13.128c.064 5.838.064 11.676.064 17.512v.055c0 .11 0 .21-.01.31l-1.276 13.226-1.18 13.206a353.828 353.828 0 0 0-.482 6.564c-.076 1.08-.13 2.17-.16 3.206a17.95 17.95 0 0 0 0 1.378c.117.076.266.165.417.252.364.198.773.385 1.221.563.891.363 1.857.67 2.843.957.87.242 1.77.474 2.67.694.118.032.236.056.354.087a66.66 66.66 0 0 0 3.068.663h.033c1.168.231 1.941 1.375 1.726 2.577M92.86 170.884c-.14-4.472-.375-8.922-.644-13.371a597.126 597.126 0 0 0-.89-13.15c.107-5.782.235-11.554.301-17.337l.105-8.744.067-4.373.02-2.191c.075-.728-.02-1.465-1.524-2.203-1.309-.64-2.874-.716-4.29-.045-1.524.707-1.632 1.433-1.578 2.17l-.02 2.182-.023 4.384-.064 8.744c-.065 5.837-.065 11.675-.065 17.511v.066c0 .1 0 .2.013.3l1.276 13.225 1.18 13.206c.182 2.204.344 4.394.482 6.564.075 1.08.128 2.17.161 3.206.01.484.021 1.002 0 1.377-.117.077-.268.166-.42.253-.363.197-.77.384-1.221.562-.892.363-1.857.671-2.844.958-.986.276-2.005.54-3.025.781-.192.045-.397.1-.6.144-.827.187-1.664.363-2.468.518l-.044.011c-1.07.197-1.834 1.212-1.737 2.356.098 1.213 1.138 2.104 2.318 2.004a80.205 80.205 0 0 0 3.346-.384 39.67 39.67 0 0 0 3.337-.562c1.115-.232 2.231-.495 3.39-.87.58-.177 1.18-.396 1.792-.672.623-.297 1.266-.607 2.05-1.278l.289-.286c.097-.087.279-.319.397-.484.333-.486.3-.486.387-.629l.01-.01c.064-.155.095-.232.118-.266l.01-.02v-.011l.033-.079.054-.153c.03-.1.074-.242.074-.286l.085-.408c.044-.22.077-.418.097-.594.01-.1.021-.2.033-.287.064-.594.075-1.102.108-1.62.054-1.178.064-2.324.064-3.458 0-2.27-.077-4.505-.14-6.75zM108.492 95.418c-.108-.212-1.119-.418-1.119-.418s-1.752 2.63-1.298 3.978c.375 1.11 1.553 4.03 2.513 4.784.914-.612.183-2.562.3-3.433 3.59 1.4 4.356 6.239 6.754 8.671 1.635-1.264 1.47-4.155 1.147-5.812-.828-4.246-4.475-6.072-8.297-7.77M84 38.648C84 47.125 89.597 54 96.501 54 103.403 54 109 47.125 109 38.648S103.403 29 96.501 29C89.597 29 84 30.17 84 38.648"/>
            <path fill="#4C260C" d="M95.927 31.126c12.92 0 12.024 25.785 12.33 31.04.908-.949 8.005-14.222 5.01-25.246-2.282-8.41-8.92-13.044-17.76-11.686-7.424 1.142-13.433 3.209-15.264 10.99C79.123 40.982 82.1 60.8 84.626 65c0-7.454-1.616-33.874 11.301-33.874"/>
            <path fill="#226498" d="M92 112.074s-6.223 27.044-10.493 23.628C77.24 132.285 83.39 105 83.39 105L92 112.074"/>
            <path fill="#4388BE" d="M114.365 136.06a8.503 8.503 0 0 1-.636 1.225c-4.957 7.822-10.416-13.58-13.3-14.775-.684 3.747-.145 7.693-1.205 11.423-1.03 3.62-2.01 6.126-4.353 2.263-2.37-3.91-3.898-8.647-5.586-12.886-1.484-3.726-2.082-7.731-3.326-11.536-.728-2.224-1.502-4.294-1.959-6.555.019.085 20.188-.446 22.12-.101 4.982.892 4.418 1.748 5.654 6.214 1.23 4.443 4.626 19.905 2.59 24.729"/>
            <path fill="#BF2C2C" d="M93 183c-.013.084-.023.18-.033.275-.021.17-.055.36-.099.571l-.085.392c0 .043-.044.18-.075.275l-.055.147-.033.075v.01l-.01.021c-.023.033-.055.106-.12.255l-.01.01c-.088.137-.054.137-.39.604-.12.159-.303.381-.401.465l-.292.275c-.792.644-1.44.942-2.07 1.228-.617.265-1.223.475-1.81.644-1.168.361-2.296.614-3.42.836a41.928 41.928 0 0 1-3.37.54 84.95 84.95 0 0 1-3.378.37c-1.192.096-2.242-.761-2.34-1.925a2.114 2.114 0 0 1 1.753-2.264l.044-.01a84.455 84.455 0 0 0 2.493-.498c1.233 1.228 4.71 2.751 13.701-2.296M117.964 188.185a2.197 2.197 0 0 1-2.333 1.808 83.553 83.553 0 0 1-3.377-.387 40.23 40.23 0 0 1-3.375-.567c-1.13-.234-2.27-.5-3.43-.878a14.981 14.981 0 0 1-1.813-.676c-.63-.3-1.293-.612-2.073-1.288l-.293-.289a3.872 3.872 0 0 1-.402-.488c-.337-.49-.305-.49-.391-.633l-.01-.011a2.67 2.67 0 0 0-.12-.267l-.01-.022v-.01l-.034-.08-.054-.154a7.773 7.773 0 0 1-.088-.289l-.086-.41c-.033-.2-.054-.377-.075-.544 11.875 6.15 12.72 1.832 12.72 1.832.12.032.24.055.358.087 1.021.244 2.097.478 3.105.668h.034c1.182.233 1.964 1.387 1.747 2.598M52.622 82c-5.034 0-8.731-1.524-11.004-4.544-5.253-6.977-1.008-19.296-.825-19.818l1.04.374c-.043.122-4.23 12.276.664 18.771 2.329 3.091 6.385 4.445 12.08 4.026l.063-.004.062.01c.863.138 1.579-.47 2.159-1.807 2.18-5.034.97-18.12-4.056-22.131l.682-.877c5.467 4.363 6.742 18.008 4.383 23.457-1.028 2.371-2.458 2.577-3.274 2.47-.678.05-1.337.073-1.974.073"/>
            <path fill="#E75353" d="M37.721 64.598c.315-.766.903-.8 1.303-.079.401.724 1.39 1.371 2.197 1.442.809.07 1.023.631.476 1.248-.544.614-.84 1.78-.656 2.59.185.812-.27 1.193-1.007.852-.74-.344-1.91-.27-2.604.158-.693.432-1.188.106-1.098-.72.088-.827-.34-1.95-.954-2.493-.613-.544-.465-1.127.328-1.296.793-.17 1.702-.934 2.015-1.702"/>
            <path fill="#E75353" d="M39.721 71.6c.315-.767.9-.804 1.303-.08.401.722 1.39 1.37 2.197 1.441.809.07 1.023.632.476 1.248-.544.614-.84 1.78-.656 2.59.185.81-.27 1.193-1.007.85-.74-.341-1.91-.269-2.604.16-.693.432-1.188.106-1.1-.721.09-.826-.339-1.948-.952-2.492-.613-.545-.465-1.129.328-1.296.796-.17 1.702-.935 2.015-1.7M45.722 78.6c.316-.767.9-.804 1.302-.08.4.722 1.39 1.37 2.197 1.441.808.07 1.022.632.478 1.248-.547.614-.843 1.78-.658 2.59.184.81-.268 1.193-1.008.852-.737-.343-1.91-.27-2.604.158-.693.432-1.188.106-1.098-.721.09-.826-.34-1.948-.954-2.492-.61-.545-.465-1.129.33-1.296.794-.17 1.7-.933 2.015-1.7M53.722 77.6c.315-.767.9-.804 1.301-.08.401.722 1.392 1.371 2.2 1.442.806.07 1.02.631.476 1.245-.547.617-.843 1.783-.658 2.593.184.81-.268 1.193-1.008.85-.738-.342-1.91-.271-2.603.16-.694.43-1.19.106-1.1-.722.09-.825-.338-1.947-.952-2.491-.613-.546-.465-1.13.328-1.296.794-.17 1.7-.936 2.016-1.702M56.723 70.598c.315-.766.9-.8 1.301-.079.401.722 1.391 1.371 2.197 1.442.809.07 1.023.631.476 1.248-.544.614-.84 1.78-.656 2.59.185.81-.268 1.193-1.007.852-.737-.344-1.91-.27-2.604.158-.693.432-1.188.106-1.098-.72.088-.827-.34-1.95-.954-2.493-.613-.546-.465-1.13.33-1.296.793-.17 1.7-.934 2.015-1.702M56.723 61.598c.313-.766.9-.8 1.301-.079.401.724 1.39 1.371 2.197 1.444.809.068 1.023.63.476 1.245-.544.614-.84 1.78-.656 2.59.185.813-.27 1.196-1.007.852-.74-.343-1.91-.27-2.604.159-.693.431-1.188.108-1.098-.72.088-.827-.34-1.95-.954-2.493-.613-.544-.465-1.127.328-1.296.796-.17 1.702-.934 2.017-1.702M52.722 54.6c.315-.767.9-.804 1.301-.08.401.722 1.392 1.37 2.198 1.441.808.07 1.022.632.478 1.248-.547.614-.843 1.78-.658 2.59.184.81-.268 1.193-1.008.852-.738-.343-1.91-.273-2.603.158-.694.432-1.19.106-1.1-.721.088-.826-.338-1.948-.952-2.492-.613-.545-.465-1.129.328-1.296.794-.17 1.7-.933 2.016-1.7M40.722 55.6c.315-.768.9-.803 1.301-.08.403.723 1.392 1.372 2.2 1.442.806.07 1.02.632.476 1.246-.547.616-.843 1.782-.658 2.592.184.81-.268 1.193-1.008.85-.738-.341-1.91-.271-2.603.16-.694.43-1.19.106-1.1-.722.09-.827-.338-1.95-.952-2.493-.613-.543-.465-1.127.328-1.296.794-.167 1.7-.933 2.016-1.699"/>
        </g>
        <g>
            <path fill="#4C260C" d="M183 63.788c6.148 2.639 28.562 5.345 34 .66-3.77-7.988.081-8.082-2.586-18.336-2.035-7.82-7.992-12.144-15.946-10.9-6.678 1.045-12.085 2.952-13.748 10.18-1.018 4.421 1.919 14.49-1.72 18.396"/>
            <path fill="#F7CE9E" d="M188.64 109.375c-.8 3.099-1.466 5.396-1.466 5.396 0 .083 0 .164.01.247 0 .512.041 1.005.122 1.497a12.178 12.178 0 0 0 7.525 9.613c1.393.554 2.91.86 4.498.872.955 0 1.877-.103 2.758-.318.245-.052.482-.113.717-.186l.01-.01a12.03 12.03 0 0 0 5.147-3.035c1.823-1.817 2.362-4.168 2.751-6.825.081-.503-.21-1.311-.21-1.833.011-.073-.844-.324.21-.283 0 0 .242-2.005-.497-5.135a225.704 225.704 0 0 1-1.537-6.965c-.636-3.19-1.128-6.195-1.128-7.878 0-2.902.727-6.01 1.762-8.822a31.793 31.793 0 0 1 2.327-4.974c.38-.657.45-1.673.257-2.903-.01-.032-.01-.063-.02-.093-.257-1.64-.954-3.652-1.97-5.672a28.16 28.16 0 0 0-3.093-4.945c-.032-.042-.073-.081-.115-.123h-14.492c-2.9 3.62-5.022 8.534-5.186 11.705-.01.132-.02.267-.02.39 0 .614.081 1.148.255 1.58.636 1.609 1.353 3.25 2.02 4.984 1.076 2.892 1.968 6.01 1.968 9.55-.01 1.817-.42 4.452-.983 7.2a136.26 136.26 0 0 1-1.62 6.966"/>
            <path fill="#F7CE9E" d="M242.98 59.773c-.457 2.36-1.058 4.661-1.678 6.966a150.196 150.196 0 0 1-2.068 6.84 108.076 108.076 0 0 1-2.45 6.773c-.46 1.135-.923 2.247-1.536 3.445-.146.295-.325.618-.517.949l-.366.565-.268.325-.037.041-.037.042-.122.12a4.193 4.193 0 0 1-.854.63l-.194.094c-1.08.48-1.8.44-2.376.434a8.637 8.637 0 0 1-1.416-.205c-1.596-.378-2.762-.896-3.952-1.426-1.174-.526-2.265-1.119-3.341-1.72a85.137 85.137 0 0 1-6.192-3.816c-1.001-.665-1.992-1.34-2.962-2.044-.97-.703-1.945-1.392-2.892-2.123-1.904-1.453-3.764-2.922-5.577-4.525l-.002-.002 1.536.508c-2.276.043-4.549.061-6.824.07-2.273.009-4.548.04-6.823.027h-.03c-.193 0-.393-.026-.572-.07l-12.208-2.89-12.182-3-.076-.017a2.384 2.384 0 0 1-1.788-2c-.647-4.909-1.357-9.806-1.944-14.724-.288-2.46-.545-4.925-.765-7.394-.203-2.472-.39-4.947-.466-7.438a1.17 1.17 0 0 1 2.296-.349c.665 2.403 1.218 4.821 1.754 7.243a272.854 272.854 0 0 1 1.457 7.289c.893 4.872 1.666 9.761 2.5 14.641l-1.866-2.016 12.258 2.662 12.235 2.77-.603-.07c2.275-.014 4.55.02 6.823.028 2.275.008 4.548.027 6.824.07h.088a2.456 2.456 0 0 1 1.445.507h.002l2.982 1.835 2.969 1.867 5.903 3.732c1.97 1.217 3.93 2.436 5.891 3.564a83.528 83.528 0 0 0 2.922 1.582c.94.48 1.945.925 2.641 1.118.168.05.291.067.33.08.01.02-.102-.05-.64.186l-.093.051a2.076 2.076 0 0 0-.62.49l.038-.039.04-.04.02-.019.009-.01-.224.27.124-.171c.114-.176.232-.36.36-.59.505-.883 1.02-1.925 1.526-2.945l3.022-6.302a438.871 438.871 0 0 1 3.093-6.36c1.068-2.112 2.13-4.233 3.308-6.306a1.167 1.167 0 0 1 1.59-.445c.45.252.665.764.575 1.242"/>
            <path fill="#F7CE9E" d="M196 66.506c0 1.378 1.567 2.494 3.499 2.494 1.932 0 3.501-1.116 3.501-2.494v-4.014c0-1.376-1.569-2.492-3.501-2.492S196 61.116 196 62.492v4.014M201.041 117.924l.2 2.072c.12 1.389.28 2.766.449 4.143.31 2.756.748 5.513 1.118 8.269l1.158 8.257.48 4.134.4 4.094-.51 12.025-.2 6.185c-.05 2.072-.13 4.134-.21 6.206-.07 2.062-.13 4.133-.15 6.227-.01 1.05-.01 2.09.02 3.173.03.553.05 1.082.12 1.716 0 .04.01.082.01.122.02.124.04.255.06.399l.07.327.06.234.05.122.02.06.09.205.01.01c.069.124.06.163.319.541.1.134.24.317.32.378l.228.246c.639.57 1.209.867 1.759 1.143.539.265 1.068.48 1.597.663 1.037.368 2.066.653 3.084.899 1.028.254 2.045.458 3.065.653 1.018.203 2.017.388 3.075.551 1.087.163 2.105-.602 2.265-1.725.08-.5-1.836-1.348-4.033-2.155-2.646-.948-5.7-1.847-6.16-2.02-.428-.154-1.966-1.95-1.966-2.43 0-.98.04-1.99.081-3 .089-2.02.22-4.063.358-6.105.26-4.083.73-8.165 1.139-12.247l1.347-12.25c.01-.05.01-.102.01-.143v-.266l-.02-4.165.05-4.163.289-8.34c.08-2.776.23-5.564.26-8.34.03-1.389.04-2.776.02-4.155l-.873-2.288c.04-.694-.019-1.633-1.058-2.276-2.555-1.582-4.828-.937-7.142.677l-.29.214c-1.069.746-1.069 1.438-.969 2.123M182.022 188.835a2.05 2.05 0 0 0 2.606 1.019c.907-.366 1.74-.733 2.606-1.121a66.578 66.578 0 0 0 2.555-1.202 50.695 50.695 0 0 0 2.536-1.364c.856-.508 1.69-1.029 2.577-1.741.214-.183.437-.367.67-.61.113-.113.225-.224.348-.378l.173-.204c.07-.082.163-.223.233-.335l.205-.338.08-.141.022-.042.01-.02.082-.194c.04-.102.08-.204.112-.304.01-.021.01-.041.02-.063.05-.192.05-.274.08-.428.072-.498.063-.824.063-1.128-.042-1.192-.195-2.109-.338-3.076-.314-1.885-.69-3.708-1.09-5.52-1.546-6.896-3.308-13.647-5.16-20.422.488-1.354.885-2.728 1.271-4.093.236-.753.399-1.507.6-2.26l.572-2.262.987-4.543.814-4.562c.297-1.517.5-3.044.734-4.562.204-1.529.418-3.056.591-4.593.163-1.53.355-3.067.479-4.604l.214-2.302c.202-.754.039-1.547-3.433-2.729l-1.536-.52a3.716 3.716 0 0 0-2.506.051c-1.547.6-1.741 1.355-1.802 2.118l-.335 2.293-.662 4.572c-.214 1.527-.398 3.066-.6 4.593-.195 1.528-.408 3.055-.571 4.584l-.52 4.603-.448 4.603-.367 4.614a117.324 117.324 0 0 0-.294 4.613l-.02.488c-.012.316.04.633.151.907 2.353 6.855 4.653 13.8 6.659 20.716.489 1.731.967 3.473 1.354 5.163.185.826-1.099 3.737-1.801 4.207a89.224 89.224 0 0 0-4.583 3.188c-1.882 1.395-3.573 2.84-3.338 3.329M162.918 38.032c-.056.218.506.968.506.968s2.809-.85 3.327-2.09c.429-1.022 1.416-3.826 1.225-4.939-1-.105-1.699 1.733-2.312 2.29-1.59-3.144.858-7.081.716-10.26-1.888-.063-3.553 2.115-4.35 3.5-2.041 3.547-.676 7.035.888 10.531"/>
            <path fill="#F7CE9E" d="M209.2 43s-.337 5.48.8 11.576C208.026 59 204.137 62.01 199.665 62c-4.776-.012-8.865-3.463-10.665-8.393.621-2.16 1.286-10.607 1.286-10.607l1.414 5.472 16.163-.49L209.2 43"/>
            <path fill="#6CDE88" d="M185.587 42c0-.258 6.837-2.835 7.683-3.918h12.46c3.45 0 7.18.429 7.18-2.716L214 31.7c0-3.145-4.82-4.7-8.27-4.7h-12.46c-3.45 0-8.27 1.555-8.27 4.7l.587 10.3"/>
            <path fill="#4EC26A" d="M186 41.55c1.628.116 7.515-2.312 21.607-1.988 5.443.124 7.233 6.438 7.233 6.438s8.168-6.124 8.16-6.809c-1.356-6.859-13.488-7.114-18.685-7.19C194.486 31.858 186 41.55 186 41.55"/>
            <path fill="#E75353" d="M205.944 66.605s3.391 11.601-4.271 11.601c-10.865 0-7.832-11.6-7.832-11.6S187.319 64 182.765 64L182 71.565l4.344 2.185s.397 9.13 1.938 11.432c1.542 2.302 2.818 5.094 2.035 7.449l18.008.369s-1.346-2.858 2.189-7.734c3.537-4.874 1.23-7.901 1.459-7.565.226.336 2.584 2.522 2.584 2.522L217 73.919s-8.214-9.583-11.056-7.314"/>
            <path fill="#4EC26A" d="M188.668 108.956c-3.738 13.194-16.293 45.888 2.07 68.081l6.235-.854s-4.052-15-3.801-25.683c.22-9.325 4.528-15.465 7.131-4.109 4.14 18.06 1.794 31.841 1.794 31.841l6.918.768s9.17-37.989-.31-77l-20.037 6.956"/>
            <path fill="#6CDE88" d="M189 110h21a233.165 233.165 0 0 1-1.496-7h-17.927a140.699 140.699 0 0 1-1.577 7"/>
            <path fill="#BF2C2C" d="M204 184c.021.115.04.238.06.371l.07.304.06.218.05.113.019.057.09.19.01.01c.068.114.059.151.317.502.1.125.24.295.318.351l.228.229c.636.53 1.203.807 1.75 1.063.537.247 1.063.446 1.59.616 1.032.342 2.057.607 3.07.836 1.023.236 2.036.426 3.05.607 1.014.189 2.008.36 3.061.513 1.082.151 2.096-.56 2.255-1.605.08-.464-1.828-1.253-4.015-2.003l-.01.011s-2.135-.466-3.238 1.005c.029.21-6.529-1.992-8.735-3.388"/>
            <path fill="#F7CE9E" d="M242.802 60.064c.048.219-.541.936-.541.936s-2.753-.964-3.215-2.218c-.38-1.03-1.243-3.852-1.005-4.948.997-.06 1.612 1.793 2.197 2.37 1.713-3.048-.55-7.058-.276-10.204 1.88.018 3.439 2.25 4.17 3.66 1.876 3.605.373 7.003-1.33 10.404"/>
            <path fill="#BF2C2C" d="M182.022 188.864c.472.953 1.635 1.382 2.632.993a72.794 72.794 0 0 0 2.63-1.093 68.33 68.33 0 0 0 2.58-1.172 51.8 51.8 0 0 0 2.56-1.33c.865-.496 1.707-1.003 2.602-1.698.216-.179.442-.358.678-.596.113-.109.226-.218.35-.367l.175-.2a3.23 3.23 0 0 0 .236-.327l.206-.33.081-.137.022-.04.01-.02.083-.189c.04-.1.081-.2.113-.297.01-.02.01-.04.02-.061h-.071l-10.425 5.613s-.051-1.391-1.111-1.996c-1.9 1.36-3.609 2.77-3.37 3.247"/>
        </g>
        <g>
            <path fill="#805626" d="M159.048 115.121c0 .101 0 .2-.012.301 0 .623-.048 1.222-.147 1.821-.723 5.33-4.243 9.76-9.002 11.694a14.601 14.601 0 0 1-5.385 1.063c-1.139 0-2.243-.125-3.297-.387a9.231 9.231 0 0 1-.86-.226l-.013-.012c-2.354-.686-4.463-1.985-6.155-3.695a14.818 14.818 0 0 1-4.146-8.324 12.098 12.098 0 0 1-.147-1.883c-.012-.09-.012-.188-.012-.277 0 0-3.886-46.173-3.872-46.209.305-1.997 8.127-10.002 9.55-11.838.038-.05.085-.098.135-.149h17.342c3.47 4.405 9.777 9.69 9.973 13.546.012.163-3.952 44.575-3.952 44.575"/>
            <path fill="#805626" d="M170.595 117.625l1.747-25.898.3 2.072-16.468-31.341 5.298 3.66h-.002l-33.573-1.841 5.7-3.21-3.585 6.234-3.544 6.275a288.48 288.48 0 0 0-3.42 6.284c-1.087 2.091-2.168 4.2-3.077 6.2-.22.493-.424.973-.6 1.419l-.215.578-.072.205c-.024.062-.01.002-.029.01l-.012-.008h-.002l.005-.313-.003.029-.012.287-.004.086v-.05a.427.427 0 0 0-.017-.097c-.039-.127-.01.051-.01.109.007.082.007.161.031.277.056.407.173.918.302 1.429.535 2.089 1.362 4.34 2.149 6.573l2.474 6.783c.837 2.27 1.676 4.566 2.455 6.872l.007.02a1.997 1.997 0 0 1-1.242 2.53 1.985 1.985 0 0 1-2.21-.668c-1.52-1.978-2.92-3.997-4.28-6.065-1.38-2.053-2.663-4.168-3.903-6.335-1.242-2.183-2.402-4.378-3.49-6.877a23.144 23.144 0 0 1-.778-2.052 8.756 8.756 0 0 1-.18-.612c-.06-.241-.11-.357-.18-.786l-.078-.55-.046-.416-.024-.23-.005-.055-.002-.028.005-.37.014-.233c.024-.294.055-.66.094-.894l.117-.689c.084-.436.173-.793.264-1.18.184-.716.379-1.386.578-2.034.798-2.554 1.7-4.892 2.64-7.217.94-2.318 1.908-4.6 2.893-6.867.98-2.268 2.004-4.509 3.045-6.74a281.544 281.544 0 0 1 3.196-6.677v-.002a6.088 6.088 0 0 1 5.672-3.215l.027.003 33.58 1.742.805.096c2.112.253 3.8 1.69 4.493 3.562l12.222 33.247.168.455a3.01 3.01 0 0 1 .132 1.62l-4.97 25.471a2.21 2.21 0 0 1-2.597 1.754 2.222 2.222 0 0 1-1.783-2.332"/>
            <path fill="#805626" d="M150 55.845c0 2.294-2.464 4.155-5.5 4.155s-5.5-1.861-5.5-4.155v-6.69c0-2.296 2.464-4.155 5.5-4.155s5.5 1.859 5.5 4.155v6.69M142.948 117.427l-.253 2.511c-.15 1.684-.352 3.353-.566 5.024-.391 3.341-.948 6.68-1.415 10.02l-1.46 10.008-.605 5.013-.506 4.96.644 14.574.25 7.497c.064 2.511.166 5.01.266 7.521.09 2.5.165 5.013.19 7.547.011 1.274.011 2.538-.025 3.85-.027.667-.051 1.31-.139 2.076-.026.136-.039.298-.063.47h-.012c0 .05-.015.1-.027.162l-.087.396c0 .05-.051.186-.076.284l-.05.147-.037.077-.114.245v.012c-.102.15-.09.198-.416.658-.126.16-.304.382-.391.456l-.304.298c-.807.694-1.526 1.052-2.219 1.385-.68.322-1.348.582-2.017.804-1.312.446-2.61.792-3.895 1.09a74.37 74.37 0 0 1-3.871.791c-1.286.248-2.547.47-3.883.668a2.516 2.516 0 0 1-2.144-.691v-.015a2.406 2.406 0 0 1-.72-1.385c-.087-.556 1.325-1.312 3.09-2.03a91.31 91.31 0 0 1 2.043-.741c1.942-.668 3.808-1.2 4.323-1.323a33.035 33.035 0 0 0 3.42-.966c.542-.186 2.483-2.363 2.483-2.945 0-1.188-.05-2.411-.102-3.637a297.194 297.194 0 0 0-.454-7.397c-.328-4.95-.919-9.898-1.437-14.846l-1.703-14.846c-.012-.062-.012-.124-.012-.174v-.322l.027-5.046-.064-5.048-.367-10.108c-.1-3.365-.289-6.742-.328-10.109a174.009 174.009 0 0 1-.024-5.033l.012-2.526c-.05-.839.04-1.68 1.349-2.46 3.23-1.918 7.174-1.684 10.1.271l.364.26c1.351.904 1.351 1.746 1.225 2.573M166.972 157.436l-.074-.598a140.93 140.93 0 0 0-.838-5.553l-.913-5.541-1.01-5.527-1.097-5.503c-.356-1.83-.777-3.662-1.159-5.49-.406-1.82-.774-3.663-1.195-5.48l-1.28-5.466-.63-2.738c-.16-.922-.468-1.805-2.392-2.367a4.492 4.492 0 0 0-3.031.2l-1.799.796c-4.067 1.805-4.178 2.789-3.858 3.674l.492 2.763c.309 1.843.703 3.674 1.062 5.517a249.3 249.3 0 0 0 1.183 5.479c.43 1.816.836 3.647 1.342 5.452l1.454 5.428 1.665 5.393.924 2.676c.321.883.592 1.78.948 2.663.58 1.496 1.148 3.003 1.813 4.483a561.93 561.93 0 0 0-4.179 11.544 429.916 429.916 0 0 0-4.473 13.27c-.703 2.242-1.38 4.495-1.984 6.838-.297 1.18-.591 2.351-.803 3.722-.047.336-.097.708-.123 1.133-.012.235-.024.448-.012.758 0 .062.012.137.026.225v.012c0 .087.012.188.024.286.024.113.024.163.062.312s.073.298.123.449l.036.11.026.05.097.238.026.05.048.099.15.25c.159.285.418.671.541.796.295.372.58.66.863.922 1.133 1.02 2.183 1.68 3.254 2.34a41.9 41.9 0 0 0 3.193 1.756 67.59 67.59 0 0 0 3.205 1.543c1.083.485 2.142.96 3.264 1.419.838.35 1.789.175 2.466-.372.282-.226.53-.523.69-.871.148-.324-.408-1.023-1.332-1.87-.32-.285-.689-.61-1.095-.933-2.749-2.242-6.88-4.98-7.445-5.366-.862-.586-1.763-4.296-1.43-5.342a122.476 122.476 0 0 1 2.268-6.386c3.265-8.53 6.913-17.046 10.598-25.439h.014a3.192 3.192 0 0 0 .295-1.804"/>
            <path fill="#35B8B8" d="M130.381 52.024c.934-.86-4.381 21.621-4.381 21.621l3.918 42.054 29.056.301L162 75.935l-3.78-22.065-3.394-.623s1.573 15.818-9.946 15.818c-11.522 0-11.113-17.041-11.113-17.041h-3.386"/>
            <path fill="#EE3B49" d="M129.432 116h30.942L166 137.543 150.585 141l-2.217-9.963-4.761-.407-1.449 10.37L128 138.764 129.432 116"/>
            <path fill="#000" d="M133.996 43.92c-3.316-2.53-4.943-6.26-5.45-8.33-.438-1.783-.672-3.904-.476-5.801C130.172 9.487 143.755 7 149.022 7c-2.352 4.727-.634 6.09 0 6.347 1.152.464-1.018-.338 3.328-3.446 2.008 6.66 4.74 8.474 8.282 14.5 3.205 5.453 4.648 16.989-5.631 20.599.05-.232-2.702-4.415-2.651-4.645-2.594 1.571-2.265 2.268-5.066 2.02-2.521-.226-5.276-.26-7.708-.78l-5.58 2.324"/>
            <path fill="#805626" d="M131 32.806C131 42.3 137.266 50 145 50c7.731 0 14-7.7 14-17.194C159 23.31 152.731 22 145 22c-7.734 0-14 1.311-14 10.806M122.15 111.095c-.232-.218-.125-1.558-.125-1.558s4.032-1.16 5.603-.07c1.29.896 4.615 3.504 5.23 4.993-1.124.903-3.365-.766-4.53-.959.478 5.022 6.424 7.858 8.672 11.794-2.229 1.546-5.89.218-7.906-.829-5.161-2.682-6.166-7.944-6.944-13.37M174.493 117.497c.125-.3-.527-1.497-.527-1.497s-4.202.632-5.201 2.31c-.821 1.375-2.81 5.199-2.764 6.84 1.41.36 2.79-2.137 3.785-2.806 1.637 4.852-2.68 9.999-3.125 14.6 2.696.488 5.525-2.293 6.953-4.12 3.655-4.671 2.408-9.972.879-15.327"/>
            <path fill="#B2B428" d="M139 199c0 .053-.014.107-.026.173l-.085.422c0 .053-.05.198-.073.303l-.05.157-.036.082-.11.262v.012c-.1.16-.088.211-.405.702-.123.17-.295.407-.38.486l-.296.318c-.785.74-1.485 1.121-2.158 1.477-.662.343-1.312.62-1.963.857a36.617 36.617 0 0 1-3.79 1.162c-1.262.33-2.515.592-3.765.844-1.25.265-2.478.501-3.778.712-.797.132-1.558-.17-2.085-.737v-.015c.012-.356 3.274-.555 3.936-1.32-.208-.567-1.189-1.912-1.631-2.322.638-.262 1.326-.539 1.988-.79.492.818 1.125 2.619 1.125 2.619s3.327-.641 4.199-.824c1.998-.41 4.463-1.544 6.279-2.64.674-.41 3.043-1.953 3.104-1.94M165 205.436c-.662.558-1.592.736-2.412.38-1.097-.468-2.134-.951-3.193-1.445a65.022 65.022 0 0 1-3.136-1.572 40.528 40.528 0 0 1-3.123-1.789c-1.048-.672-2.075-1.344-3.184-2.383a7.97 7.97 0 0 1-.843-.938c-.121-.128-.375-.521-.53-.812l-.147-.254-.046-.1-.026-.052-.095-.242-.026-.05-.034-.113c-.05-.154-.084-.306-.121-.457-.038-.152-.038-.203-.06-.318A2.674 2.674 0 0 1 148 195c2.47 1.774 11.395 8.205 12.828 8.623.05 0 1.639-1.269 2.473-1.929.398.33.758.66 1.072.951l-1.688 1.828s1.074.734 2.315.963"/>
        </g>
    </g>
</svg>
