<?xml version="1.0" encoding="utf-8"?>
<!-- Generator: Adobe Illustrator 22.0.1, SVG Export Plug-In . SVG Version: 6.00 Build 0)  -->
<svg version="1.1" id="Layer_1" xmlns="http://www.w3.org/2000/svg" xmlns:xlink="http://www.w3.org/1999/xlink" x="0px" y="0px"
	 viewBox="0 0 64 64" style="enable-background:new 0 0 64 64;" xml:space="preserve">
<style type="text/css">
	.st0{fill:#FFFFFF;}
	.st1{fill-rule:evenodd;clip-rule:evenodd;fill:#CA44EA;}
</style>
<g>
	<path class="st0" d="M64,32c0,17.7-14.3,32-32,32C14.3,64,0,49.7,0,32C0,14.3,14.3,0,32,0C49.7,0,64,14.3,64,32z"/>
	<path class="st1" d="M40.7,19.4H23.3c-2.2,0-3.9,1.8-3.9,3.9v17.3c0,2.2,1.8,3.9,3.9,3.9h17.3c2.2,0,3.9-1.8,3.9-3.9V23.3
		C44.6,21.2,42.8,19.4,40.7,19.4z M37.4,22.9c0-0.4,0.3-0.7,0.7-0.7h3c0.4,0,0.7,0.3,0.7,0.7v3c0,0.4-0.3,0.7-0.7,0.7h-3
		c-0.4,0-0.7-0.3-0.7-0.7V22.9z M27.4,30.2c0.7-1.9,2.5-3.2,4.6-3.2c2.1,0,3.9,1.3,4.6,3.2c0.2,0.6,0.3,1.2,0.3,1.8c0,2.7-2.2,5-5,5
		c-2.7,0-5-2.2-5-5C27,31.4,27.1,30.7,27.4,30.2z M41.9,40.7c0,0.7-0.6,1.3-1.3,1.3H23.3c-0.7,0-1.3-0.6-1.3-1.3V30.2h2.5
		c-0.1,0.6-0.2,1.2-0.2,1.8c0,4.2,3.4,7.7,7.7,7.7c4.2,0,7.7-3.4,7.7-7.7c0-0.6-0.1-1.2-0.2-1.8h2.5V40.7z"/>
</g>
</svg>
