<svg xmlns="http://www.w3.org/2000/svg" width="64" height="64" viewBox="0 0 64 64">
    <defs>
        <linearGradient id="a" x1="19.412%" x2="82.102%" y1="12.08%" y2="88.149%">
            <stop offset="0%" stop-color="#FFC153"/>
            <stop offset="27.597%" stop-color="#E62256"/>
            <stop offset="63.028%" stop-color="#B829A9"/>
            <stop offset="100%" stop-color="#5D3FD2"/>
        </linearGradient>
    </defs>
    <g fill="none" fill-rule="evenodd">
        <path fill="url(#a)" d="M63.83 31.913C63.83 14.288 49.544 0 31.916 0 14.288 0 0 14.288 0 31.913S14.288 63.83 31.915 63.83c17.628 0 31.916-14.292 31.916-31.917"/>
        <path stroke="#FFF" d="M41.1 15.513zM22.81 47.904h-.001z"/>
        <path fill="#FFF" d="M23.31 32.406c0-4.77 3.878-8.65 8.644-8.65 4.767 0 8.644 3.88 8.644 8.65 0 4.766-3.877 8.644-8.644 8.644-4.766 0-8.643-3.878-8.643-8.644m8.643 11.407c6.293 0 11.412-5.117 11.412-11.407 0-6.294-5.119-11.415-11.412-11.415-6.292 0-11.411 5.121-11.411 11.415 0 6.29 5.12 11.407 11.411 11.407"/>
        <path fill="#FFF" d="M20.574 16.275a4.927 4.927 0 0 0-4.921 4.92V43.61a4.927 4.927 0 0 0 4.92 4.92h22.763a4.926 4.926 0 0 0 4.92-4.92V21.195a4.926 4.926 0 0 0-4.92-4.92H20.574zm22.762 35.083H20.574c-4.272 0-7.748-3.476-7.748-7.748V21.195c0-4.272 3.476-7.747 7.748-7.747h22.762c4.272 0 7.747 3.475 7.747 7.747V43.61c0 4.272-3.475 7.748-7.747 7.748z"/>
        <path fill="#FFF" d="M43.521 19.69c-.998 0-1.801.812-1.801 1.804 0 .997.803 1.799 1.801 1.799.991 0 1.803-.802 1.803-1.8a1.81 1.81 0 0 0-1.803-1.803"/>
    </g>
</svg>
