<?xml version="1.0" encoding="utf-8"?>
<!-- Generator: Adobe Illustrator 22.0.1, SVG Export Plug-In . SVG Version: 6.00 Build 0)  -->
<svg version="1.1" id="Layer_1" xmlns="http://www.w3.org/2000/svg" xmlns:xlink="http://www.w3.org/1999/xlink" x="0px" y="0px"
	 viewBox="0 0 60 60" style="enable-background:new 0 0 60 60;" xml:space="preserve">
<style type="text/css">
	.st0{display:none;fill-rule:evenodd;clip-rule:evenodd;fill:#3B5998;}
	.st1{display:none;}
	.st2{display:inline;}
	.st3{display:inline;clip-path:url(#SVGID_3_);}
	.st4{display:inline;clip-path:url(#SVGID_4_);}
	.st5{clip-path:url(#SVGID_6_);fill:#146BC9;}
	.st6{fill-rule:evenodd;clip-rule:evenodd;fill:#BC2A8D;}
	.st7{display:none;fill-rule:evenodd;clip-rule:evenodd;fill:#21ADF4;}
</style>
<path class="st0" d="M32.8,21.6c0-1.5,0.1-2.2,2.3-2.2h2.9v-5.6h-4.7c-5.6,0-7.6,2.7-7.6,7.3v3.4h-3.5V30h3.5v16.3h7V30h4.7l0.6-5.6
	h-5.3L32.8,21.6z M30,60C13.4,60,0,46.6,0,30S13.4,0,30,0s30,13.4,30,30S46.6,60,30,60z"/>
<g class="st1">
	<defs>
		<path id="SVGID_1_" d="M-38.8,2199.5c0-0.9,0.1-1.3,1.4-1.3h1.8v-3.4h-2.8c-3.4,0-4.6,1.6-4.6,4.4v2h-2.1v3.4h2.1v9.8h4.2v-9.8
			h2.8l0.4-3.4h-3.2L-38.8,2199.5z"/>
	</defs>
	<defs>
		<circle id="SVGID_2_" cx="-40.5" cy="2204.5" r="18"/>
	</defs>
	<use xlink:href="#SVGID_1_"  style="display:inline;overflow:visible;fill-rule:evenodd;clip-rule:evenodd;fill:#05CBE5;"/>
	<use xlink:href="#SVGID_2_"  style="display:inline;overflow:visible;fill-rule:evenodd;clip-rule:evenodd;fill:#05CBE5;"/>
	<clipPath id="SVGID_3_" class="st2">
		<use xlink:href="#SVGID_1_"  style="overflow:visible;"/>
	</clipPath>
	<clipPath id="SVGID_4_" class="st3">
		<use xlink:href="#SVGID_2_"  style="overflow:visible;"/>
	</clipPath>
	<g class="st4">
		<defs>
			<rect id="SVGID_5_" x="-618.7" y="-3042.8" width="1315.8" height="6194.6"/>
		</defs>
		<use xlink:href="#SVGID_5_"  style="overflow:visible;fill:#999999;"/>
		<clipPath id="SVGID_6_">
			<use xlink:href="#SVGID_5_"  style="overflow:visible;"/>
		</clipPath>
		<rect x="-63.6" y="2181.4" class="st5" width="46.3" height="46.3"/>
	</g>
</g>
<path class="st6" d="M30,36c-3.3,0-6-2.7-6-6c0-1.3,0.4-2.5,1.1-3.5C26.2,25,28,24,30,24c2,0,3.8,1,4.9,2.5c0.7,1,1.1,2.2,1.1,3.5
	C36,33.3,33.3,36,30,36z M37.3,16.9l5,0h0.8v5.8l-5.8,0L37.3,16.9z M40.5,43.7H19.5c-1.8,0-3.3-1.5-3.3-3.3v-14h5.1
	c-0.4,1.1-0.7,2.3-0.7,3.5c0,5.1,4.2,9.3,9.3,9.3c5.2,0,9.3-4.2,9.3-9.3c0-1.2-0.3-2.4-0.7-3.5h5.1v14
	C43.7,42.3,42.3,43.7,40.5,43.7z M47.1,26.5v-7c0-3.6-3-6.6-6.6-6.6H19.5c-3.6,0-6.6,3-6.6,6.6v21c0,3.6,3,6.6,6.6,6.6h20.9
	c3.6,0,6.6-3,6.6-6.6V26.5z M30,60C13.5,60,0,46.6,0,30C0,13.4,13.5,0,30,0c16.5,0,30,13.5,30,30C60,46.6,46.5,60,30,60z"/>
<path class="st7" d="M47,17.7c-1.4,0.8-3,1.4-4.7,1.7c-1.3-1.3-3.3-2.2-5.4-2.2c-4.1,0-7.4,3.1-7.4,6.9c0,0.5,0.1,1.1,0.2,1.6
	c-6.1-0.3-11.6-3-15.2-7.2c-0.6,1-1,2.2-1,3.5c0,2.4,1.3,4.5,3.3,5.8c-1.2,0-2.3-0.3-3.3-0.9v0.1c0,3.4,2.5,6.2,5.9,6.8
	c-0.6,0.2-1.3,0.2-1.9,0.2c-0.5,0-0.9,0-1.4-0.1c0.9,2.7,3.7,4.8,6.9,4.8c-2.5,1.9-5.7,3-9.2,3c-0.6,0-1.2,0-1.8-0.1
	c3.3,2,7.2,3.1,11.3,3.1c13.6,0,21-10.6,21-19.7c0-0.3,0-0.6,0-0.9c1.4-1,2.7-2.2,3.7-3.6c-1.3,0.6-2.7,0.9-4.2,1.1
	C45.3,20.6,46.5,19.3,47,17.7z M30,60C13.4,60,0,46.6,0,30S13.4,0,30,0s30,13.4,30,30S46.6,60,30,60z"/>
</svg>
