<?xml version="1.0" encoding="utf-8"?>
<!-- Generator: Adobe Illustrator 22.0.1, SVG Export Plug-In . SVG Version: 6.00 Build 0)  -->
<svg version="1.1" id="Layer_1" xmlns="http://www.w3.org/2000/svg" xmlns:xlink="http://www.w3.org/1999/xlink" x="0px" y="0px"
	 viewBox="0 0 48 48" style="enable-background:new 0 0 48 48;" xml:space="preserve">
<style type="text/css">
	.st0{opacity:0;}
	.st1{fill:#B2B2B2;}
</style>
<g>
	<rect class="st0" width="48" height="48"/>
	<path id="XMLID_1_" class="st1" d="M39.6,22.6L35,27.3c-0.3,0.3-0.6,0.4-1,0.4s-0.7-0.1-1-0.4l-4.6-4.7c-0.5-0.5-0.5-1.4,0-1.9
		c0.5-0.5,1.4-0.5,1.9,0l2.6,2.6c-0.3-4.8-4.3-8.7-9.1-8.7c-5.1,0-9.2,4.2-9.2,9.3s4.1,9.3,9.2,9.3c1.9,0,3.7-0.6,5.2-1.6
		c0.6-0.4,1.4-0.3,1.9,0.3c0.4,0.6,0.3,1.4-0.3,1.9c-2,1.4-4.3,2.1-6.7,2.1C17.3,36,12,30.6,12,24s5.3-12,11.8-12
		C30,12,35,16.8,35.6,22.9l2.1-2.1c0.5-0.5,1.4-0.5,1.9,0C40.1,21.2,40.1,22.1,39.6,22.6z"/>
</g>
</svg>
