<?xml version="1.0" encoding="utf-8"?>
<!-- Generator: Adobe Illustrator 22.0.1, SVG Export Plug-In . SVG Version: 6.00 Build 0)  -->
<svg version="1.1" id="Layer_1" xmlns="http://www.w3.org/2000/svg" xmlns:xlink="http://www.w3.org/1999/xlink" x="0px" y="0px"
	 viewBox="0 0 64 64" style="enable-background:new 0 0 64 64;" xml:space="preserve">
<style type="text/css">
	.st0{fill:#FFFFFF;}
	.st1{fill:#EA365D;}
</style>
<g>
	<circle class="st0" cx="32" cy="32" r="32"/>
	<g>
		<path class="st1" d="M31.2,34.7L21.8,29c-0.4-0.2-0.8,0-0.8,0.5v10.2c0,1,0.8,1.8,1.8,1.8h18.4c1,0,1.8-0.8,1.8-1.8V29.4
			c0-0.4-0.5-0.7-0.8-0.5l-9.4,5.7C32.3,34.9,31.7,34.9,31.2,34.7z"/>
		<path class="st1" d="M43,25.6L43,25.6c0-1-0.8-1.8-1.8-1.8H22.8c-1,0-1.8,0.8-1.8,1.8l0,0l10.2,6.2c0.5,0.3,1.1,0.3,1.5,0L43,25.6
			z"/>
	</g>
</g>
</svg>
