<?xml version="1.0" encoding="utf-8"?>
<!-- Generator: Adobe Illustrator 22.0.1, SVG Export Plug-In . SVG Version: 6.00 Build 0)  -->
<svg version="1.1" id="Layer_1" xmlns="http://www.w3.org/2000/svg" xmlns:xlink="http://www.w3.org/1999/xlink" x="0px" y="0px"
	 viewBox="0 0 64 64" style="enable-background:new 0 0 64 64;" xml:space="preserve">
<style type="text/css">
	.st0{fill:#FFFFFF;}
	.st1{fill:#4285F4;}
	.st2{fill:#34A853;}
	.st3{fill:#FBBC05;}
	.st4{fill:#EB4335;}
</style>
<g>
	<circle class="st0" cx="32" cy="32" r="32"/>
	<g>
		<path class="st1" d="M43.9,32.2c0-0.9-0.1-1.6-0.2-2.2H33.4v4.1h6.1c-0.1,1-0.8,2.5-2.2,3.6l0,0.1l3.3,2.5l0.2,0
			C42.7,38.4,43.9,35.6,43.9,32.2"/>
		<path class="st2" d="M33.4,43c3,0,5.5-1,7.3-2.7l-3.5-2.7c-0.9,0.6-2.2,1.1-3.8,1.1c-2.9,0-5.4-1.9-6.3-4.6l-0.1,0l-3.4,2.6l0,0.1
			C25.3,40.5,29.1,43,33.4,43"/>
		<path class="st3" d="M27.1,34.2c-0.2-0.7-0.4-1.4-0.4-2.2c0-0.8,0.1-1.5,0.4-2.2l0-0.1L23.6,27l-0.1,0.1c-0.7,1.5-1.2,3.2-1.2,4.9
			c0,1.8,0.4,3.4,1.2,4.9L27.1,34.2"/>
		<path class="st4" d="M33.4,25.3c2.1,0,3.5,0.9,4.3,1.6l3.1-3c-1.9-1.8-4.4-2.9-7.4-2.9c-4.3,0-8,2.5-9.8,6.1l3.6,2.8
			C28,27.2,30.5,25.3,33.4,25.3"/>
	</g>
</g>
</svg>
