<?xml version="1.0" encoding="utf-8"?>
<!-- Generator: Adobe Illustrator 22.0.1, SVG Export Plug-In . SVG Version: 6.00 Build 0)  -->
<svg version="1.1" id="Layer_1" xmlns="http://www.w3.org/2000/svg" xmlns:xlink="http://www.w3.org/1999/xlink" x="0px" y="0px"
	 viewBox="0 0 40 40" style="enable-background:new 0 0 40 40;" xml:space="preserve">
<style type="text/css">
	.st0{fill:#05CBE5;}
</style>
<path id="XMLID_10_" class="st0" d="M20,0L20,0L20,0C20,0,20,0,20,0C9,0,0,9,0,20c0,11,9,20,20,20l0,0h0c0,0,0,0,0,0
	c11,0,20-9,20-20C40,9,31,0,20,0z M21.7,36.4V32c0-1-0.8-1.7-1.7-1.7S18.3,31,18.3,32v4.5c-7.8-0.8-13.9-7-14.7-14.7H8
	c1,0,1.7-0.8,1.7-1.7S9,18.3,8,18.3H3.6c0.8-7.7,6.9-13.9,14.7-14.7V8c0,1,0.8,1.7,1.7,1.7S21.7,9,21.7,8V3.6
	c7.8,0.8,13.9,7,14.7,14.7H32c-1,0-1.7,0.8-1.7,1.7s0.8,1.7,1.7,1.7h4.5C35.6,29.5,29.6,35.6,21.7,36.4z"/>
</svg>
