<svg xmlns="http://www.w3.org/2000/svg" width="24" height="24" viewBox="0 0 24 24">
    <g fill="#000" fill-rule="evenodd">
        <path d="M8.505 7.953a.866.866 0 0 0 0 1.73.866.866 0 0 0 0-1.73m0 3.73A2.868 2.868 0 0 1 5.64 8.818a2.868 2.868 0 0 1 2.865-2.865 2.868 2.868 0 0 1 2.865 2.865 2.868 2.868 0 0 1-2.865 2.865M15.495 14.464a.866.866 0 1 0 .002 1.733.866.866 0 0 0-.002-1.733m0 3.731a2.868 2.868 0 0 1-2.865-2.865 2.869 2.869 0 0 1 2.865-2.866 2.869 2.869 0 0 1 2.865 2.866 2.868 2.868 0 0 1-2.865 2.865M8.596 18.418a1 1 0 0 1-.853-1.52l6.6-10.835a1 1 0 1 1 1.708 1.04l-6.6 10.835a.998.998 0 0 1-.855.48"/>
        <path d="M2 15.75V18c0 .552.448 1 1 1h18c.552 0 1-.448 1-1v-2.25A5.073 5.073 0 0 1 20.35 12c0-1.44.609-2.805 1.65-3.75V6a1 1 0 0 0-1-1H3a1 1 0 0 0-1 1v2.25A5.07 5.07 0 0 1 3.65 12 5.07 5.07 0 0 1 2 15.75M21 21H3c-1.654 0-3-1.345-3-3v-2.723a1 1 0 0 1 .412-.81 3.048 3.048 0 0 0 1.238-2.466c0-.982-.462-1.905-1.238-2.468A1 1 0 0 1 0 8.723V6.002c0-1.655 1.346-3 3-3h18c1.654 0 3 1.345 3 3v2.723a1 1 0 0 1-.412.809A3.05 3.05 0 0 0 22.35 12a3.05 3.05 0 0 0 1.238 2.467 1 1 0 0 1 .412.809V18c0 1.653-1.346 3-3 3"/>
    </g>
</svg>
