<?xml version="1.0" encoding="utf-8"?>
<!-- Generator: Adobe Illustrator 22.0.1, SVG Export Plug-In . SVG Version: 6.00 Build 0)  -->
<svg version="1.1" id="Layer_1" xmlns="http://www.w3.org/2000/svg" xmlns:xlink="http://www.w3.org/1999/xlink" x="0px" y="0px"
	 viewBox="0 0 60 50.4" style="enable-background:new 0 0 60 50.4;" xml:space="preserve">
<style type="text/css">
	.st0{fill:none;stroke:#000000;stroke-width:3;stroke-linecap:round;stroke-linejoin:round;stroke-miterlimit:10;}
</style>
<path class="st0" d="M46.9,33.8L46.9,33.8c-3.1-0.6-6.3,0.3-8.7,2.4l-1.8,1.4c0,0-5.2-2.4-10.5-7.5c-5.2-5.3-7.6-10.4-7.6-10.4
	l1.4-1.8c2.1-2.4,3-5.5,2.5-8.7l0,0c-0.9-4.9-5.2-8.5-10.3-8.5l0,0c-3.4,0-5.6,3-5.6,6.3C6.2,18.3,11,26.4,20,36
	c9.6,9,20.3,13.7,29.1,13.6c3.4,0,6.4-2.2,6.4-5.5v0C55.5,39,51.9,34.7,46.9,33.8z"/>
</svg>
