<?xml version="1.0" encoding="utf-8"?>
<!-- Generator: Adobe Illustrator 22.0.1, SVG Export Plug-In . SVG Version: 6.00 Build 0)  -->
<svg version="1.1" id="Layer_1" xmlns="http://www.w3.org/2000/svg" xmlns:xlink="http://www.w3.org/1999/xlink" x="0px" y="0px"
	 viewBox="0 0 48 48" style="enable-background:new 0 0 48 48;" xml:space="preserve">
<style type="text/css">
	.st0{fill:none;}
	.st1{fill:#05CBE5;}
</style>
<g>
	<rect x="12" y="12" class="st0" width="24" height="24"/>
	<rect x="0" class="st0" width="48" height="48"/>
	<rect x="0" class="st0" width="48" height="48"/>
	<path class="st1" d="M34.2,22l-18-9.7c-0.3-0.2-0.7-0.3-1-0.3c-0.6,0-1.1,0.2-1.4,0.6c-0.4,0.4-0.6,0.9-0.6,1.4
		c0,0.4,0.1,0.7,0.3,1.1l4.8,7.8H26c0.6,0,1,0.4,1,1c0,0.6-0.4,1-1,1h-7.7l-4.8,7.8l0,0c-0.2,0.3-0.3,0.7-0.3,1.1
		c0,0.6,0.2,1.1,0.6,1.4c0.4,0.4,0.9,0.6,1.4,0.6c0.3,0,0.7-0.1,1-0.3l18-9.7l-0.5-0.9l0.5,0.9c0.8-0.4,1.2-1.2,1.2-2
		C35.4,23.2,35,22.4,34.2,22z"/>
</g>
</svg>
