<?xml version="1.0" encoding="utf-8"?>
<!-- Generator: Adobe Illustrator 22.0.1, SVG Export Plug-In . SVG Version: 6.00 Build 0)  -->
<svg version="1.1" id="Layer_1" xmlns="http://www.w3.org/2000/svg" xmlns:xlink="http://www.w3.org/1999/xlink" x="0px" y="0px"
	 viewBox="0 0 40 40" style="enable-background:new 0 0 40 40;" xml:space="preserve">
<style type="text/css">
	.st0{fill:none;stroke:#333;stroke-width:3;stroke-linejoin:round;stroke-miterlimit:10;}
</style>
<g id="XMLID_2_">
	<path id="XMLID_3_" class="st0" d="M33.4,19.8c0-0.4,0-0.8-0.1-1.1l3.8-2.2c1-0.6,1.4-1.9,0.8-2.9l-3.2-5.8
		c-0.6-1.1-1.9-1.4-2.9-0.8l-2.4,1.4c-0.7,0.4-1.5,0.4-2.2,0C27,8,26.7,7.8,26.4,7.6c-0.7-0.4-1-1.1-1-1.9V2.9c0-1.2-1-2.2-2.1-2.2
		h-6.5c-1.2,0-2.1,1-2.1,2.2v2.9c0,0.8-0.4,1.5-1,1.9C13.4,7.8,13.2,7.9,13,8c-0.7,0.4-1.5,0.4-2.2,0L8.5,6.6C7.4,6,6.1,6.3,5.5,7.4
		l-3.3,5.8c-0.6,1-0.3,2.3,0.8,3l3.7,2.2c0,0.5-0.1,0.9-0.1,1.4c0,0.5,0,1.1,0.1,1.6l-3.8,2.2c-1,0.6-1.4,1.9-0.8,2.9l3.2,5.8
		c0.6,1.1,1.9,1.4,2.9,0.8l2.8-1.6c0.7-0.4,1.5-0.4,2.1,0c0.2,0.1,0.3,0.2,0.5,0.3c0.7,0.4,1.1,1.1,1.1,1.9v3.4c0,1.2,1,2.2,2.1,2.2
		h6.5c1.2,0,2.1-1,2.1-2.2v-3.4c0-0.8,0.5-1.5,1.2-1.9c0,0,0,0,0,0c0.7-0.4,1.5-0.5,2.2,0l2.8,1.7c1,0.6,2.3,0.3,2.9-0.8l3.3-5.8
		c0.6-1,0.3-2.3-0.8-3l-3.8-2.3C33.3,21,33.4,20.4,33.4,19.8z M20,23.7c-2,0-3.6-1.7-3.6-3.7s1.6-3.7,3.6-3.7s3.6,1.7,3.6,3.7
		S22,23.7,20,23.7z"/>
</g>
</svg>
