<svg xmlns="http://www.w3.org/2000/svg" xmlns:xlink="http://www.w3.org/1999/xlink" width="24" height="24" viewBox="0 0 24 24">
    <defs>
        <path id="a" d="M15.451 14.642a1 1 0 0 1 1 1V18c0 1.654-1.346 3-3 3H3.5c-1.654 0-3-1.346-3-3V6c0-1.654 1.346-3 3-3h9.953c1.653 0 3 1.346 3 3v2.125a1 1 0 1 1-2 0V6c0-.55-.45-1-1-1H3.498c-.55 0-1 .45-1 1v12c0 .551.45 1 1 1h9.953c.55 0 1-.449 1-1v-2.358a1 1 0 0 1 1-1zm3.127-7.288l4.558 3.758a.999.999 0 0 1 0 1.543l-4.558 3.759a.999.999 0 0 1-1.408-.136 1 1 0 0 1 .136-1.407l2.409-1.987H8.403a1 1 0 0 1 0-2h11.312l-2.41-1.987a1 1 0 0 1 1.273-1.543z"/>
    </defs>
    <g fill="none" fill-rule="evenodd" transform="rotate(-90 12 12)">
        <mask id="b" fill="#fff">
            <use xlink:href="#a"/>
        </mask>
        <use fill="#070707" xlink:href="#a"/>
        <g fill="#FFF" mask="url(#b)">
            <path d="M0 0h24v24H0z"/>
        </g>
    </g>
</svg>
