<?xml version="1.0" encoding="utf-8"?>
<!-- Generator: Adobe Illustrator 22.0.1, SVG Export Plug-In . SVG Version: 6.00 Build 0)  -->
<svg version="1.1" id="Layer_1" xmlns="http://www.w3.org/2000/svg" xmlns:xlink="http://www.w3.org/1999/xlink" x="0px" y="0px"
	 viewBox="0 0 36 36" style="enable-background:new 0 0 36 36;" xml:space="preserve">
<style type="text/css">
	.st0{display:none;}
	.st1{display:inline;}
	.st2{display:inline;clip-path:url(#SVGID_2_);}
	.st3{display:inline;clip-path:url(#SVGID_6_);}
	.st4{clip-path:url(#SVGID_10_);}
	.st5{display:inline;clip-path:url(#SVGID_14_);}
	.st6{clip-path:url(#SVGID_16_);}
	.st7{fill:#999999;}
	.st8{display:inline;clip-path:url(#SVGID_18_);}
	.st9{clip-path:url(#SVGID_20_);}
	.st10{clip-path:url(#SVGID_22_);}
	.st11{clip-path:url(#SVGID_24_);}
	.st12{display:inline;clip-path:url(#SVGID_26_);}
	.st13{display:inline;clip-path:url(#SVGID_30_);}
	.st14{clip-path:url(#SVGID_34_);}
</style>
<g>
	<g>
		<g class="st0">
			<defs>
				<path id="SVGID_1_" d="M19.6,13.1c0-0.9,0.1-1.3,1.4-1.3h1.7V8.5H20c-3.3,0-4.4,1.6-4.4,4.3v2h-2V18h2v9.5h4.1V18h2.7l0.4-3.3
					h-3.1L19.6,13.1z M18,35.5C8.3,35.5,0.5,27.7,0.5,18S8.3,0.5,18,0.5S35.5,8.3,35.5,18S27.7,35.5,18,35.5z"/>
			</defs>
			<clipPath id="SVGID_2_" class="st1">
				<use xlink:href="#SVGID_1_"  style="overflow:visible;"/>
			</clipPath>
			<g class="st2">
				<defs>
					<rect id="SVGID_3_" x="-544.2" y="-4983.2" width="1279.4" height="6023.2"/>
				</defs>
				<clipPath id="SVGID_4_">
					<use xlink:href="#SVGID_3_"  style="overflow:visible;"/>
				</clipPath>
			</g>
		</g>
		<g class="st0">
			<defs>
				<path id="SVGID_5_" d="M18,21.5c-1.9,0-3.5-1.6-3.5-3.5c0-0.8,0.2-1.5,0.7-2c0.6-0.9,1.7-1.5,2.8-1.5c1.2,0,2.2,0.6,2.8,1.5
					c0.4,0.6,0.7,1.3,0.7,2C21.5,19.9,19.9,21.5,18,21.5z M22.3,10.4l2.9,0h0.4v3.4l-3.4,0L22.3,10.4z M24.1,26H11.9
					c-1.1,0-1.9-0.9-1.9-1.9V16h3c-0.3,0.6-0.4,1.3-0.4,2c0,3,2.4,5.4,5.4,5.4c3,0,5.4-2.4,5.4-5.4c0-0.7-0.1-1.4-0.4-2h3v8.2
					C26,25.2,25.2,26,24.1,26z M27.9,16v-4.1c0-2.1-1.7-3.8-3.8-3.8H11.9c-2.1,0-3.8,1.7-3.8,3.8v12.2c0,2.1,1.7,3.8,3.8,3.8h12.2
					c2.1,0,3.8-1.7,3.8-3.8V16z M18,35.5C8.4,35.5,0.5,27.6,0.5,18C0.5,8.4,8.4,0.5,18,0.5c9.6,0,17.5,7.9,17.5,17.5
					C35.5,27.6,27.6,35.5,18,35.5z"/>
			</defs>
			<clipPath id="SVGID_6_" class="st1">
				<use xlink:href="#SVGID_5_"  style="overflow:visible;"/>
			</clipPath>
			<g class="st3">
				<defs>
					<rect id="SVGID_7_" x="-699.2" y="-4985.2" width="1279.4" height="6023.2"/>
				</defs>
				<clipPath id="SVGID_8_">
					<use xlink:href="#SVGID_7_"  style="overflow:visible;"/>
				</clipPath>
			</g>
		</g>
		<g>
			<defs>
				<path id="SVGID_9_" d="M27.9,10.8c-0.8,0.5-1.8,0.8-2.7,1c-0.8-0.8-1.9-1.3-3.1-1.3c-2.4,0-4.3,1.8-4.3,4c0,0.3,0,0.6,0.1,0.9
					c-3.6-0.2-6.8-1.8-8.9-4.2c-0.4,0.6-0.6,1.3-0.6,2c0,1.4,0.8,2.6,1.9,3.4c-0.7,0-1.4-0.2-2-0.5v0.1c0,2,1.5,3.6,3.5,4
					c-0.4,0.1-0.7,0.1-1.1,0.1c-0.3,0-0.5,0-0.8-0.1c0.5,1.6,2.1,2.8,4,2.8c-1.5,1.1-3.3,1.7-5.4,1.7c-0.3,0-0.7,0-1-0.1
					c1.9,1.1,4.2,1.8,6.6,1.8c7.9,0,12.3-6.2,12.3-11.5c0-0.2,0-0.4,0-0.5c0.8-0.6,1.6-1.3,2.2-2.1c-0.8,0.3-1.6,0.5-2.5,0.6
					C26.9,12.5,27.6,11.7,27.9,10.8z M18,35.5C8.3,35.5,0.5,27.7,0.5,18S8.3,0.5,18,0.5S35.5,8.3,35.5,18S27.7,35.5,18,35.5z"/>
			</defs>
			<clipPath id="SVGID_10_">
				<use xlink:href="#SVGID_9_"  style="overflow:visible;"/>
			</clipPath>
			<g class="st4">
				<defs>
					<rect id="SVGID_11_" x="-622" y="-4985.5" width="1280" height="6026"/>
				</defs>
				<clipPath id="SVGID_12_">
					<use xlink:href="#SVGID_11_"  style="overflow:visible;"/>
				</clipPath>
			</g>
		</g>
	</g>
	<g>
		<g class="st0">
			<defs>
				<path id="SVGID_13_" d="M19.6,13.1c0-0.9,0.1-1.3,1.4-1.3h1.7V8.5H20c-3.3,0-4.4,1.6-4.4,4.3v2h-2V18h2v9.5h4.1V18h2.7l0.4-3.3
					h-3.1L19.6,13.1z M18,35.5C8.3,35.5,0.5,27.7,0.5,18S8.3,0.5,18,0.5S35.5,8.3,35.5,18S27.7,35.5,18,35.5z"/>
			</defs>
			<use xlink:href="#SVGID_13_"  style="display:inline;overflow:visible;fill-rule:evenodd;clip-rule:evenodd;fill:#999999;"/>
			<clipPath id="SVGID_14_" class="st1">
				<use xlink:href="#SVGID_13_"  style="overflow:visible;"/>
			</clipPath>
			<g class="st5">
				<defs>
					<rect id="SVGID_15_" x="-544.2" y="-4983.2" width="1279.4" height="6023.2"/>
				</defs>
				<use xlink:href="#SVGID_15_"  style="overflow:visible;fill:#999999;"/>
				<clipPath id="SVGID_16_">
					<use xlink:href="#SVGID_15_"  style="overflow:visible;"/>
				</clipPath>
				<g class="st6">
					<rect x="-4.5" y="-4.5" class="st7" width="45" height="45"/>
				</g>
			</g>
		</g>
		<g class="st0">
			<defs>
				<path id="SVGID_17_" d="M18,21.5c-1.9,0-3.5-1.6-3.5-3.5c0-0.8,0.2-1.5,0.7-2c0.6-0.9,1.7-1.5,2.8-1.5c1.2,0,2.2,0.6,2.8,1.5
					c0.4,0.6,0.7,1.3,0.7,2C21.5,19.9,19.9,21.5,18,21.5z M22.3,10.4l2.9,0h0.4v3.4l-3.4,0L22.3,10.4z M24.1,26H11.9
					c-1.1,0-1.9-0.9-1.9-1.9V16h3c-0.3,0.6-0.4,1.3-0.4,2c0,3,2.4,5.4,5.4,5.4c3,0,5.4-2.4,5.4-5.4c0-0.7-0.1-1.4-0.4-2h3v8.2
					C26,25.2,25.2,26,24.1,26z M27.9,16v-4.1c0-2.1-1.7-3.8-3.8-3.8H11.9c-2.1,0-3.8,1.7-3.8,3.8v12.2c0,2.1,1.7,3.8,3.8,3.8h12.2
					c2.1,0,3.8-1.7,3.8-3.8V16z M18,35.5C8.4,35.5,0.5,27.6,0.5,18C0.5,8.4,8.4,0.5,18,0.5c9.6,0,17.5,7.9,17.5,17.5
					C35.5,27.6,27.6,35.5,18,35.5z"/>
			</defs>
			<use xlink:href="#SVGID_17_"  style="display:inline;overflow:visible;fill-rule:evenodd;clip-rule:evenodd;fill:#999999;"/>
			<clipPath id="SVGID_18_" class="st1">
				<use xlink:href="#SVGID_17_"  style="overflow:visible;"/>
			</clipPath>
			<g class="st8">
				<defs>
					<rect id="SVGID_19_" x="-699.2" y="-4985.2" width="1279.4" height="6023.2"/>
				</defs>
				<use xlink:href="#SVGID_19_"  style="overflow:visible;fill:#999999;"/>
				<clipPath id="SVGID_20_">
					<use xlink:href="#SVGID_19_"  style="overflow:visible;"/>
				</clipPath>
				<g class="st9">
					<rect x="-4.5" y="-4.5" class="st7" width="45" height="45"/>
				</g>
			</g>
		</g>
		<g>
			<defs>
				<path id="SVGID_21_" d="M27.9,10.8c-0.8,0.5-1.8,0.8-2.7,1c-0.8-0.8-1.9-1.3-3.1-1.3c-2.4,0-4.3,1.8-4.3,4c0,0.3,0,0.6,0.1,0.9
					c-3.6-0.2-6.8-1.8-8.9-4.2c-0.4,0.6-0.6,1.3-0.6,2c0,1.4,0.8,2.6,1.9,3.4c-0.7,0-1.4-0.2-2-0.5v0.1c0,2,1.5,3.6,3.5,4
					c-0.4,0.1-0.7,0.1-1.1,0.1c-0.3,0-0.5,0-0.8-0.1c0.5,1.6,2.1,2.8,4,2.8c-1.5,1.1-3.3,1.7-5.4,1.7c-0.3,0-0.7,0-1-0.1
					c1.9,1.1,4.2,1.8,6.6,1.8c7.9,0,12.3-6.2,12.3-11.5c0-0.2,0-0.4,0-0.5c0.8-0.6,1.6-1.3,2.2-2.1c-0.8,0.3-1.6,0.5-2.5,0.6
					C26.9,12.5,27.6,11.7,27.9,10.8z M18,35.5C8.3,35.5,0.5,27.7,0.5,18S8.3,0.5,18,0.5S35.5,8.3,35.5,18S27.7,35.5,18,35.5z"/>
			</defs>
			<use xlink:href="#SVGID_21_"  style="overflow:visible;fill-rule:evenodd;clip-rule:evenodd;fill:#999999;"/>
			<clipPath id="SVGID_22_">
				<use xlink:href="#SVGID_21_"  style="overflow:visible;"/>
			</clipPath>
			<g class="st10">
				<defs>
					<rect id="SVGID_23_" x="-622" y="-4985.5" width="1280" height="6026"/>
				</defs>
				<use xlink:href="#SVGID_23_"  style="overflow:visible;fill:#999999;"/>
				<clipPath id="SVGID_24_">
					<use xlink:href="#SVGID_23_"  style="overflow:visible;"/>
				</clipPath>
				<g class="st11">
					<rect x="-4.5" y="-4.5" class="st7" width="45" height="45"/>
				</g>
			</g>
		</g>
	</g>
	<g>
		<g class="st0">
			<defs>
				<path id="SVGID_25_" d="M19.6,13.1c0-0.9,0.1-1.3,1.4-1.3h1.7V8.5H20c-3.3,0-4.4,1.6-4.4,4.3v2h-2V18h2v9.5h4.1V18h2.7l0.4-3.3
					h-3.1L19.6,13.1z M18,35.5C8.3,35.5,0.5,27.7,0.5,18S8.3,0.5,18,0.5S35.5,8.3,35.5,18S27.7,35.5,18,35.5z"/>
			</defs>
			<clipPath id="SVGID_26_" class="st1">
				<use xlink:href="#SVGID_25_"  style="overflow:visible;"/>
			</clipPath>
			<g class="st12">
				<defs>
					<rect id="SVGID_27_" x="-544.2" y="-4983.2" width="1279.4" height="6023.2"/>
				</defs>
				<clipPath id="SVGID_28_">
					<use xlink:href="#SVGID_27_"  style="overflow:visible;"/>
				</clipPath>
			</g>
		</g>
		<g class="st0">
			<defs>
				<path id="SVGID_29_" d="M18,21.5c-1.9,0-3.5-1.6-3.5-3.5c0-0.8,0.2-1.5,0.7-2c0.6-0.9,1.7-1.5,2.8-1.5c1.2,0,2.2,0.6,2.8,1.5
					c0.4,0.6,0.7,1.3,0.7,2C21.5,19.9,19.9,21.5,18,21.5z M22.3,10.4l2.9,0h0.4v3.4l-3.4,0L22.3,10.4z M24.1,26H11.9
					c-1.1,0-1.9-0.9-1.9-1.9V16h3c-0.3,0.6-0.4,1.3-0.4,2c0,3,2.4,5.4,5.4,5.4c3,0,5.4-2.4,5.4-5.4c0-0.7-0.1-1.4-0.4-2h3v8.2
					C26,25.2,25.2,26,24.1,26z M27.9,16v-4.1c0-2.1-1.7-3.8-3.8-3.8H11.9c-2.1,0-3.8,1.7-3.8,3.8v12.2c0,2.1,1.7,3.8,3.8,3.8h12.2
					c2.1,0,3.8-1.7,3.8-3.8V16z M18,35.5C8.4,35.5,0.5,27.6,0.5,18C0.5,8.4,8.4,0.5,18,0.5c9.6,0,17.5,7.9,17.5,17.5
					C35.5,27.6,27.6,35.5,18,35.5z"/>
			</defs>
			<clipPath id="SVGID_30_" class="st1">
				<use xlink:href="#SVGID_29_"  style="overflow:visible;"/>
			</clipPath>
			<g class="st13">
				<defs>
					<rect id="SVGID_31_" x="-699.2" y="-4985.2" width="1279.4" height="6023.2"/>
				</defs>
				<clipPath id="SVGID_32_">
					<use xlink:href="#SVGID_31_"  style="overflow:visible;"/>
				</clipPath>
			</g>
		</g>
		<g>
			<defs>
				<path id="SVGID_33_" d="M27.9,10.8c-0.8,0.5-1.8,0.8-2.7,1c-0.8-0.8-1.9-1.3-3.1-1.3c-2.4,0-4.3,1.8-4.3,4c0,0.3,0,0.6,0.1,0.9
					c-3.6-0.2-6.8-1.8-8.9-4.2c-0.4,0.6-0.6,1.3-0.6,2c0,1.4,0.8,2.6,1.9,3.4c-0.7,0-1.4-0.2-2-0.5v0.1c0,2,1.5,3.6,3.5,4
					c-0.4,0.1-0.7,0.1-1.1,0.1c-0.3,0-0.5,0-0.8-0.1c0.5,1.6,2.1,2.8,4,2.8c-1.5,1.1-3.3,1.7-5.4,1.7c-0.3,0-0.7,0-1-0.1
					c1.9,1.1,4.2,1.8,6.6,1.8c7.9,0,12.3-6.2,12.3-11.5c0-0.2,0-0.4,0-0.5c0.8-0.6,1.6-1.3,2.2-2.1c-0.8,0.3-1.6,0.5-2.5,0.6
					C26.9,12.5,27.6,11.7,27.9,10.8z M18,35.5C8.3,35.5,0.5,27.7,0.5,18S8.3,0.5,18,0.5S35.5,8.3,35.5,18S27.7,35.5,18,35.5z"/>
			</defs>
			<clipPath id="SVGID_34_">
				<use xlink:href="#SVGID_33_"  style="overflow:visible;"/>
			</clipPath>
			<g class="st14">
				<defs>
					<rect id="SVGID_35_" x="-622" y="-4985.5" width="1280" height="6026"/>
				</defs>
				<clipPath id="SVGID_36_">
					<use xlink:href="#SVGID_35_"  style="overflow:visible;"/>
				</clipPath>
			</g>
		</g>
	</g>
</g>
</svg>
