<?xml version="1.0" encoding="utf-8"?>
<!-- Generator: Adobe Illustrator 22.0.1, SVG Export Plug-In . SVG Version: 6.00 Build 0)  -->
<svg version="1.1" id="Layer_1" xmlns="http://www.w3.org/2000/svg" xmlns:xlink="http://www.w3.org/1999/xlink" x="0px" y="0px"
	 viewBox="0 0 64 64" style="enable-background:new 0 0 64 64;" xml:space="preserve">
<style type="text/css">
	.st0{fill:#FFFFFF;}
	.st1{fill-rule:evenodd;clip-rule:evenodd;fill:#12C8F9;}
</style>
<g>
	<circle class="st0" cx="32" cy="32" r="32"/>
	<path class="st1" d="M27.2,38.5c-3-0.1-4.9-2.3-5.4-4c0.8,0.2,1.7,0.1,2.5-0.1c0,0,0,0,0.1,0c-1.6-0.4-2.9-1.3-3.8-2.7
		c-0.6-0.9-0.9-2-0.8-3.1c0.8,0.4,1.7,0.7,2.6,0.7c-1.2-0.9-2.1-2-2.4-3.5c-0.3-1.5-0.1-2.9,0.6-4.2c3.1,3.7,7.1,5.7,12,6.1
		c0-0.2-0.1-0.4-0.1-0.6c-0.2-1.4,0.1-2.6,0.8-3.8c0.9-1.4,2.2-2.3,3.9-2.6c2-0.3,3.7,0.2,5.1,1.6c0.1,0.1,0.2,0.1,0.3,0.1
		c1.2-0.3,2.3-0.7,3.4-1.3c0,0,0.1,0,0.1,0c0,0,0,0,0,0c-0.5,1.3-1.3,2.4-2.5,3.2c1.1-0.1,2.2-0.4,3.2-0.9c0,0,0,0,0,0
		c-0.2,0.3-0.4,0.6-0.7,0.9c-0.6,0.8-1.3,1.4-2.1,2c-0.1,0-0.1,0.1-0.1,0.2c0,0.9,0,1.7-0.1,2.6c-0.2,1.8-0.7,3.5-1.5,5.2
		c-0.8,1.7-1.8,3.2-3.1,4.6c-2.2,2.3-4.9,3.8-8,4.4c-1.1,0.2-2.1,0.4-3.2,0.4c-3.3,0.1-6.4-0.7-9.3-2.5c0,0-0.1,0-0.1-0.1
		c2,0.2,3.9,0,5.8-0.8C25.5,39.7,26.4,39.2,27.2,38.5z"/>
</g>
</svg>
