<svg xmlns="http://www.w3.org/2000/svg" width="64" height="64" viewBox="0 0 64 64">
    <g fill="none" fill-rule="evenodd">
        <path fill="#00A9FF" d="M63.83 31.913C63.83 14.288 49.544 0 31.916 0 14.288 0 0 14.288 0 31.913S14.288 63.83 31.915 63.83c17.628 0 31.916-14.292 31.916-31.917"/>
        <path fill="#FFF" d="M50.435 22.783a15.75 15.75 0 0 1-4.073 1.04 7.67 7.67 0 0 0 3.306-3.922c.038-.104-.075-.198-.172-.144a15.627 15.627 0 0 1-4.65 1.697 7.796 7.796 0 0 0-5.662-2.411c-4.279 0-7.755 3.42-7.755 7.634 0 .6.07 1.18.2 1.74a22.15 22.15 0 0 1-15.947-7.93.044.044 0 0 0-.07.006 7.57 7.57 0 0 0-1.02 3.786c0 2.587 1.313 4.878 3.317 6.26.039.027.018.09-.03.087a7.841 7.841 0 0 1-3.285-.914c-.028-.015-.06.003-.058.034.019.336.128 1.832.523 2.794.978 2.382 3.084 4.205 5.698 4.722-.653.17-1.342.27-2.048.27-.471 0-.935-.047-1.391-.13a.043.043 0 0 0-.049.057c1 2.956 3.784 5.117 7.092 5.228.044.002.064.057.028.084a15.694 15.694 0 0 1-9.53 3.19c-.628 0-1.238-.035-1.847-.104A22.215 22.215 0 0 0 24.9 49.285c6.033 0 10.911-2.08 14.53-5.245 3.653-3.194 6.024-7.49 7.011-11.868.348-1.54.531-3.092.531-4.609 0-.328-.009-.66-.026-.986a15.591 15.591 0 0 0 3.633-3.616c.07-.097-.033-.223-.144-.178"/>
    </g>
</svg>
