<?xml version="1.0" encoding="utf-8"?>
<!-- Generator: Adobe Illustrator 22.0.1, SVG Export Plug-In . SVG Version: 6.00 Build 0)  -->
<svg version="1.1" id="Layer_1" xmlns="http://www.w3.org/2000/svg" xmlns:xlink="http://www.w3.org/1999/xlink" x="0px" y="0px"
	 viewBox="0 0 48 48" style="enable-background:new 0 0 48 48;" xml:space="preserve">
<style type="text/css">
	.st0{display:none;}
	.st1{display:inline;}
	.st2{fill:none;}
	.st3{fill:none;stroke:#FFFFFF;stroke-width:1.5;stroke-miterlimit:10;}
	.st4{fill:none;stroke:#FFFFFF;stroke-width:1.5;stroke-linecap:round;stroke-linejoin:round;stroke-miterlimit:10;}
	.st5{fill:#FFFFFF;}
	.st6{display:inline;fill:none;}
	.st7{display:inline;fill:none;stroke:#FFFFFF;stroke-width:1.5;stroke-miterlimit:10;}
	.st8{display:inline;fill:none;stroke:#FFFFFF;stroke-width:1.5;stroke-linecap:round;stroke-miterlimit:10;}
	.st9{fill:none;stroke:#FFFFFF;stroke-width:2;stroke-linecap:round;stroke-linejoin:round;stroke-miterlimit:10;}
	.st10{fill:none;stroke:#070707;stroke-width:1.5;stroke-linecap:round;stroke-linejoin:round;stroke-miterlimit:10;}
	.st11{fill:none;stroke:#000000;stroke-width:1.5;stroke-miterlimit:10;}
	.st12{fill:none;stroke:#000000;stroke-width:1.5;stroke-linejoin:round;stroke-miterlimit:10;}
	
		.st13{display:inline;fill:none;stroke:#000000;stroke-width:1.5;stroke-linecap:round;stroke-linejoin:round;stroke-miterlimit:10;}
	.st14{fill:none;stroke:#000000;stroke-width:1.5;stroke-linecap:round;stroke-linejoin:round;stroke-miterlimit:10;}
	.st15{fill:none;stroke:#05CBE5;stroke-width:3;stroke-linecap:round;stroke-linejoin:round;stroke-miterlimit:10;}
</style>
<g class="st0">
	<g class="st1">
		<rect y="0" class="st2" width="48" height="48"/>
		<rect x="12" y="12" class="st2" width="24" height="24"/>
	</g>
	<g class="st1">
		<path class="st3" d="M18,17.6h12c1.1,0,2,0.9,2,2v8.8c0,1.1-0.9,2-2,2H18c-1.1,0-2-0.9-2-2v-8.8C16,18.5,16.9,17.6,18,17.6z"/>
		<path class="st3" d="M16,18.4l6.7,4.4c0.8,0.5,1.8,0.5,2.6,0l6.7-4.4"/>
	</g>
</g>
<g class="st0">
	<g class="st1">
		<path class="st3" d="M30,32.7H18c-1.7,0-3-1.3-3-3v-10c0-1.7,1.3-3,3-3h12c1.7,0,3,1.3,3,3v10C33,31.4,31.7,32.7,30,32.7z"/>
		<line class="st3" x1="15.2" y1="21.1" x2="32.8" y2="21.1"/>
		<line class="st4" x1="18.9" y1="16.7" x2="18.9" y2="14.8"/>
		<line class="st4" x1="29.1" y1="16.7" x2="29.1" y2="14.8"/>
		<path class="st5" d="M24,25.2L24,25.2c-0.5,0-0.9-0.4-0.9-0.9v0c0-0.5,0.4-0.9,0.9-0.9l0,0c0.5,0,0.9,0.4,0.9,0.9v0
			C24.9,24.8,24.5,25.2,24,25.2z"/>
		<path class="st5" d="M29.1,25.2L29.1,25.2c-0.5,0-0.9-0.4-0.9-0.9v0c0-0.5,0.4-0.9,0.9-0.9l0,0c0.5,0,0.9,0.4,0.9,0.9v0
			C30,24.8,29.6,25.2,29.1,25.2z"/>
		<path class="st5" d="M18.9,25.2L18.9,25.2c-0.5,0-0.9-0.4-0.9-0.9v0c0-0.5,0.4-0.9,0.9-0.9h0c0.5,0,0.9,0.4,0.9,0.9v0
			C19.7,24.8,19.4,25.2,18.9,25.2z"/>
		<path class="st5" d="M24,29.7L24,29.7c-0.5,0-0.9-0.4-0.9-0.9v0c0-0.5,0.4-0.9,0.9-0.9l0,0c0.5,0,0.9,0.4,0.9,0.9v0
			C24.9,29.3,24.5,29.7,24,29.7z"/>
		<path class="st5" d="M29.1,29.7L29.1,29.7c-0.5,0-0.9-0.4-0.9-0.9v0c0-0.5,0.4-0.9,0.9-0.9l0,0c0.5,0,0.9,0.4,0.9,0.9v0
			C30,29.3,29.6,29.7,29.1,29.7z"/>
		<path class="st5" d="M18.9,29.7L18.9,29.7c-0.5,0-0.9-0.4-0.9-0.9v0c0-0.5,0.4-0.9,0.9-0.9h0c0.5,0,0.9,0.4,0.9,0.9v0
			C19.7,29.3,19.4,29.7,18.9,29.7z"/>
	</g>
	<rect x="12" y="11.8" class="st6" width="24" height="24"/>
	<rect y="-0.2" class="st6" width="48" height="48"/>
	<rect x="12" y="11.8" class="st6" width="24" height="24"/>
</g>
<g class="st0">
	<g class="st1">
		<rect y="-0.2" class="st2" width="48" height="48"/>
		<rect x="12" y="11.8" class="st2" width="24" height="24"/>
	</g>
	<g class="st1">
		<path class="st3" d="M18,17.4h12c1.1,0,2,0.9,2,2v8.8c0,1.1-0.9,2-2,2H18c-1.1,0-2-0.9-2-2v-8.8C16,18.2,16.9,17.4,18,17.4z"/>
		<path class="st3" d="M16,18.2l6.7,4.4c0.8,0.5,1.8,0.5,2.6,0l6.7-4.4"/>
	</g>
</g>
<g class="st0">
	<g class="st1">
		<rect y="-0.2" class="st2" width="48" height="48"/>
		<rect x="12" y="11.8" class="st2" width="24" height="24"/>
	</g>
	<path class="st7" d="M29.5,26.7L29.5,26.7c-1.1-0.2-2.2,0.1-3,0.8L25.9,28c0,0-1.8-0.8-3.6-2.6c-1.8-1.8-2.6-3.6-2.6-3.6l0.5-0.6
		c0.7-0.8,1-1.9,0.8-3l0,0c-0.3-1.7-1.8-2.9-3.5-2.9h0c-1.2,0-1.9,1-1.9,2.2c0,3.9,1.6,6.7,4.7,10c3.3,3.1,7,4.7,10,4.7
		c1.2,0,2.2-0.7,2.2-1.9v0C32.5,28.5,31.3,27,29.5,26.7z"/>
</g>
<g class="st0">
	<rect y="-0.2" class="st6" width="48" height="48"/>
	<path class="st8" d="M21.8,19.9v-2.7c0-1.1,0.9-2,2-2H32c1.1,0,2,0.9,2,2v13c0,1.1-0.9,2-2,2h-8.2c-1.1,0-2-0.9-2-2v-2.4"/>
	<g class="st1">
		<polyline class="st4" points="17.6,27.8 13.6,23.9 17.6,19.9 		"/>
		<line class="st4" x1="26" y1="23.9" x2="13.6" y2="23.9"/>
	</g>
</g>
<g class="st0">
	<g class="st1">
		<line class="st9" x1="15" y1="18" x2="33" y2="18"/>
		<line class="st9" x1="15" y1="24" x2="33" y2="24"/>
		<line class="st9" x1="15" y1="30" x2="33" y2="30"/>
	</g>
	<rect x="0" y="0" class="st6" width="48" height="48"/>
</g>
<g class="st0">
	<g class="st1">
		<path class="st10" d="M13,23.8l9.7-8.7c0.8-0.7,1.9-0.7,2.7,0l9.7,8.7"/>
		<path class="st10" d="M16.6,20.5v11.3c0,1.1,0.9,2,2,2h2.2c1.1,0,1-2.9,1-4v-0.3c0-1.1,0.9-2,2-2h0.3c1.1,0,2,0.9,2,2v0.3
			c0,1.1-0.1,4,1,4h2.2c1.1,0,2-0.9,2-2V20.5"/>
	</g>
	<rect x="12" y="11.8" class="st6" width="24" height="24"/>
	<rect y="-0.2" class="st6" width="48" height="48"/>
</g>
<g class="st0">
	<g class="st1">
		<rect y="-0.2" class="st2" width="48" height="48"/>
		<rect x="12" y="11.8" class="st2" width="24" height="24"/>
	</g>
	<g class="st1">
		<path class="st11" d="M18,17.4h12c1.1,0,2,0.9,2,2v8.8c0,1.1-0.9,2-2,2H18c-1.1,0-2-0.9-2-2v-8.8C16,18.2,16.9,17.4,18,17.4z"/>
		<path class="st11" d="M16,18.2l6.7,4.4c0.8,0.5,1.8,0.5,2.6,0l6.7-4.4"/>
	</g>
</g>
<g class="st0">
	<g class="st1">
		<path class="st10" d="M31,33.7H17c-1.1,0-2-0.9-2-2v-14c0-1.1,0.9-2,2-2h14c1.1,0,2,0.9,2,2v14C33,32.8,32.1,33.7,31,33.7z"/>
		<line class="st10" x1="15.2" y1="19.2" x2="32.8" y2="19.2"/>
		<line class="st10" x1="18.9" y1="15.7" x2="18.9" y2="13.7"/>
		<line class="st10" x1="29.1" y1="15.7" x2="29.1" y2="13.7"/>
		<rect x="26.5" y="27.2" class="st10" width="4" height="4"/>
	</g>
	<g class="st1">
		<rect x="12" y="11.8" class="st2" width="24" height="24"/>
		<rect y="-0.2" class="st2" width="48" height="48"/>
	</g>
</g>
<g>
	<g>
		<rect y="-0.2" class="st2" width="48" height="48"/>
		<rect x="12" y="11.8" class="st2" width="24" height="24"/>
	</g>
	<g id="XMLID_2_">
		<path id="XMLID_3_" class="st12" d="M30.4,23.6c0-0.2,0-0.4,0-0.5l1.8-1c0.5-0.3,0.7-0.9,0.4-1.4L31,17.9
			c-0.3-0.5-0.9-0.7-1.4-0.4l-1.1,0.6c-0.3,0.2-0.7,0.2-1,0c-0.1-0.1-0.3-0.2-0.4-0.3c-0.3-0.2-0.5-0.5-0.5-0.9v-1.3
			c0-0.6-0.5-1-1-1h-3.1c-0.6,0-1,0.5-1,1V17c0,0.4-0.2,0.7-0.5,0.9c-0.1,0.1-0.2,0.1-0.3,0.2c-0.3,0.2-0.7,0.2-1,0l-1.1-0.7
			c-0.5-0.3-1.1-0.1-1.4,0.4l-1.6,2.7c-0.3,0.5-0.1,1.1,0.4,1.4l1.8,1c0,0.2,0,0.4,0,0.7c0,0.3,0,0.5,0,0.8l-1.8,1
			c-0.5,0.3-0.7,0.9-0.4,1.4l1.5,2.7c0.3,0.5,0.9,0.7,1.4,0.4l1.3-0.8c0.3-0.2,0.7-0.2,1,0c0.1,0,0.1,0.1,0.2,0.1
			c0.3,0.2,0.5,0.5,0.5,0.9v1.6c0,0.6,0.5,1,1,1h3.1c0.6,0,1-0.5,1-1v-1.6c0-0.4,0.2-0.7,0.6-0.9c0,0,0,0,0,0c0.3-0.2,0.7-0.2,1.1,0
			l1.3,0.8c0.5,0.3,1.1,0.1,1.4-0.4l1.6-2.7c0.3-0.5,0.1-1.1-0.4-1.4l-1.8-1.1C30.3,24.2,30.4,23.9,30.4,23.6z M24,25.4
			c-1,0-1.7-0.8-1.7-1.8c0-1,0.8-1.8,1.7-1.8s1.7,0.8,1.7,1.8C25.7,24.7,25,25.4,24,25.4z"/>
	</g>
</g>
<g class="st0">
	<g class="st1">
		<rect y="-0.2" class="st2" width="48" height="48"/>
		<rect x="12" y="11.8" class="st2" width="24" height="24"/>
	</g>
	<path class="st1" d="M31.4,15.6c-0.4-0.2-1-0.2-1.5,0.1c-0.3,0.1-0.6,0.4-0.8,0.7c-1.1,1.5-2.1,6.5-2.1,6.5c-1.4,0-3.1,0-4.6,0
		c0,0,1.3-4.1,1.9-5.3c0.6-1.1,0-2.3-2.3-2.2c-2.3,0.1-6,0.8-6.9,2.9c0,0,0,0,0,0.1c0,0,0,0,0,0c0,0,0,0,0,0
		c-0.1,0.2-0.1,0.4-0.1,0.6c0,0.6,0.3,1,0.5,1c0.1,0,0.2,0,0.2-0.1c1-0.9,1.8-1.6,4.5-1.6c-0.6,1.3-1.2,3.1-1.8,5
		c-2,0.5-3,1.6-3,2.2c0,0.1,0.1,0.2,0.3,0.2c0.6,0,1.3-0.1,2.1-0.2c-0.5,2.1-0.9,4-0.9,5.2c0,1.4,0,2.3,0.8,2.3
		c1.3,0,2.7-0.2,2.7-1.4c0-2,0.5-4.3,1.1-6.4c0.4,0,0.7,0,1.1,0c0.6,0,2.3,0.1,3.7,0.1c-0.4,2-0.6,3.9-0.6,5c0,1.8,0.6,2.5,2.6,2.5
		c0.4,0,0.9-0.1,0.9-0.7c0-2.8,0.5-6.2,1.1-9.3c0.5-2.9,1.1-4.8,1.6-5.9C32.2,16.3,31.9,15.8,31.4,15.6z"/>
</g>
<g class="st0">
	<rect y="-0.2" class="st6" width="48" height="48"/>
	<path class="st13" d="M21.8,19.9v-2.7c0-1.1,0.9-2,2-2H32c1.1,0,2,0.9,2,2v13c0,1.1-0.9,2-2,2h-8.2c-1.1,0-2-0.9-2-2v-2.4"/>
	<g class="st1">
		<polyline class="st14" points="17.6,27.8 13.6,23.9 17.6,19.9 		"/>
		<line class="st14" x1="26" y1="23.9" x2="13.6" y2="23.9"/>
	</g>
</g>
<g class="st0">
	<g class="st1">
		<polyline class="st14" points="23.1,17 15.8,24.2 23,31.4 		"/>
		<line class="st14" x1="30.8" y1="24.2" x2="16" y2="24.2"/>
	</g>
	<rect x="-0.7" y="0.2" class="st6" width="48" height="48"/>
</g>
<g class="st0">
	<rect x="0" y="0.2" class="st6" width="48" height="48"/>
	<rect x="12" y="12.2" class="st6" width="24" height="24"/>
	<g class="st1">
		<circle class="st15" cx="24.1" cy="24.2" r="7.8"/>
		<line class="st15" x1="29.6" y1="29.7" x2="34" y2="34.2"/>
	</g>
</g>
</svg>
